<?xml version="1.0" encoding="UTF-8" standalone="no"?>
<!-- Generated by SVGo -->

<svg
   width="349.752mm"
   height="143.252mm"
   viewBox="0.000 0.000 349.752 143.252"
   version="1.1"
   id="svg28"
   sodipodi:docname="bottom-layer-inkscape.svg"
   inkscape:version="1.2.2 (b0a8486541, 2022-12-01)"
   xmlns:inkscape="http://www.inkscape.org/namespaces/inkscape"
   xmlns:sodipodi="http://sodipodi.sourceforge.net/DTD/sodipodi-0.dtd"
   xmlns="http://www.w3.org/2000/svg"
   xmlns:svg="http://www.w3.org/2000/svg">
  <defs
     id="defs32">
    <inkscape:path-effect
       effect="bspline"
       id="path-effect185"
       is_visible="true"
       lpeversion="1"
       weight="33.333333"
       steps="2"
       helper_size="0"
       apply_no_weight="true"
       apply_with_weight="true"
       only_selected="false" />
    <inkscape:path-effect
       effect="bspline"
       id="path-effect187"
       is_visible="true"
       lpeversion="1"
       weight="33.333333"
       steps="2"
       helper_size="0"
       apply_no_weight="true"
       apply_with_weight="true"
       only_selected="false" />
    <inkscape:path-effect
       effect="bspline"
       id="path-effect185-3"
       is_visible="true"
       lpeversion="1"
       weight="33.333333"
       steps="2"
       helper_size="0"
       apply_no_weight="true"
       apply_with_weight="true"
       only_selected="false" />
    <inkscape:path-effect
       effect="bspline"
       id="path-effect187-6"
       is_visible="true"
       lpeversion="1"
       weight="33.333333"
       steps="2"
       helper_size="0"
       apply_no_weight="true"
       apply_with_weight="true"
       only_selected="false" />
  </defs>
  <sodipodi:namedview
     id="namedview30"
     pagecolor="#ffffff"
     bordercolor="#000000"
     borderopacity="0.25"
     inkscape:showpageshadow="2"
     inkscape:pageopacity="0.0"
     inkscape:pagecheckerboard="0"
     inkscape:deskcolor="#d1d1d1"
     inkscape:document-units="mm"
     showgrid="false"
     inkscape:zoom="0.30821857"
     inkscape:cx="1020.3798"
     inkscape:cy="282.26722"
     inkscape:window-width="1024"
     inkscape:window-height="699"
     inkscape:window-x="0"
     inkscape:window-y="32"
     inkscape:window-maximized="1"
     inkscape:current-layer="svg28" />
  <polygon
     points="339.752,5.001 340.144,5.016 340.534,5.062 340.919,5.139 341.297,5.245 341.665,5.381 342.021,5.545 342.364,5.737 342.690,5.955 342.999,6.198 343.287,6.465 343.554,6.753 343.797,7.062 344.015,7.388 344.207,7.731 344.371,8.087 344.507,8.455 344.613,8.833 344.690,9.218 344.736,9.608 344.752,10.001 344.752,133.251 344.736,133.644 344.690,134.034 344.613,134.419 344.507,134.797 344.371,135.165 344.207,135.521 344.015,135.864 343.797,136.190 343.554,136.499 343.287,136.787 342.999,137.054 342.690,137.297 342.364,137.515 342.021,137.707 341.665,137.871 341.297,138.007 340.919,138.113 340.534,138.190 340.144,138.236 339.752,138.252 10.001,138.251 9.608,138.236 9.218,138.190 8.833,138.113 8.455,138.007 8.087,137.871 7.731,137.707 7.388,137.515 7.062,137.297 6.753,137.054 6.465,136.787 6.198,136.499 5.955,136.190 5.737,135.864 5.545,135.521 5.381,135.165 5.245,134.797 5.139,134.419 5.062,134.034 5.016,133.644 5.000,133.251 5.001,10.001 5.016,9.608 5.062,9.218 5.139,8.833 5.245,8.455 5.381,8.087 5.545,7.731 5.737,7.388 5.955,7.062 6.198,6.753 6.465,6.465 6.753,6.198 7.062,5.955 7.388,5.737 7.731,5.545 8.087,5.381 8.455,5.245 8.833,5.139 9.218,5.062 9.608,5.016 10.001,5.000"
     style="fill:none;stroke-width:0.189;stroke:black;stroke-dasharray:none"
     id="polygon2" />
  <polygon
     points="334.711,127.087 334.223,127.336 333.836,127.723 333.587,128.211 333.502,128.751 333.587,129.292 333.836,129.780 334.223,130.167 334.711,130.415 335.252,130.501 335.792,130.415 336.280,130.167 336.667,129.780 336.916,129.292 337.002,128.751 336.916,128.211 336.667,127.723 336.280,127.336 335.792,127.087 335.252,127.001"
     style="fill:none;stroke-width:0.050000mm;stroke:black"
     id="polygon4" />
  <polygon
     points="254.523,127.087 254.035,127.336 253.648,127.723 253.399,128.211 253.314,128.751 253.399,129.292 253.648,129.780 254.035,130.167 254.523,130.415 255.064,130.501 255.605,130.415 256.092,130.167 256.479,129.780 256.727,129.292 256.814,128.751 256.727,128.211 256.479,127.723 256.092,127.336 255.605,127.087 255.064,127.001"
     style="fill:none;stroke-width:0.050000mm;stroke:black"
     id="polygon6" />
  <polygon
     points="174.335,127.087 173.847,127.336 173.460,127.723 173.212,128.211 173.126,128.751 173.212,129.292 173.460,129.780 173.847,130.167 174.335,130.415 174.876,130.501 175.417,130.415 175.905,130.167 176.292,129.780 176.540,129.292 176.626,128.751 176.540,128.211 176.292,127.723 175.905,127.336 175.417,127.087 174.876,127.001"
     style="fill:none;stroke-width:0.050000mm;stroke:black"
     id="polygon8" />
  <polygon
     points="94.147,127.087 93.660,127.336 93.272,127.723 93.024,128.211 92.938,128.751 93.024,129.292 93.272,129.780 93.660,130.167 94.147,130.415 94.688,130.501 95.229,130.415 95.717,130.167 96.104,129.780 96.353,129.292 96.438,128.751 96.353,128.211 96.104,127.723 95.717,127.336 95.229,127.087 94.688,127.001"
     style="fill:none;stroke-width:0.050000mm;stroke:black"
     id="polygon10" />
  <polygon
     points="13.960,127.087 13.472,127.336 13.085,127.723 12.836,128.211 12.750,128.751 12.836,129.292 13.085,129.780 13.472,130.167 13.960,130.415 14.500,130.501 15.041,130.415 15.529,130.167 15.916,129.780 16.165,129.292 16.249,128.751 16.165,128.211 15.916,127.723 15.529,127.336 15.041,127.087 14.500,127.001"
     style="fill:none;stroke-width:0.050000mm;stroke:black"
     id="polygon12" />
  <polygon
     points="334.711,69.962 334.223,70.210 333.836,70.597 333.587,71.085 333.502,71.626 333.587,72.167 333.836,72.655 334.223,73.042 334.711,73.290 335.252,73.376 335.792,73.290 336.280,73.042 336.667,72.655 336.916,72.167 337.002,71.626 336.916,71.085 336.667,70.597 336.280,70.210 335.792,69.962 335.252,69.876"
     style="fill:none;stroke-width:0.050000mm;stroke:black"
     id="polygon14" />
  <polygon
     points="13.960,69.962 13.472,70.210 13.085,70.597 12.836,71.085 12.750,71.626 12.836,72.167 13.085,72.655 13.472,73.042 13.960,73.290 14.500,73.376 15.041,73.290 15.529,73.042 15.916,72.655 16.165,72.167 16.249,71.626 16.165,71.085 15.916,70.597 15.529,70.210 15.041,69.962 14.500,69.876"
     style="fill:none;stroke-width:0.050000mm;stroke:black"
     id="polygon16" />
  <polygon
     points="94.147,12.836 93.660,13.085 93.272,13.472 93.024,13.960 92.938,14.501 93.024,15.041 93.272,15.529 93.660,15.916 94.147,16.165 94.688,16.251 95.229,16.165 95.717,15.916 96.104,15.529 96.353,15.041 96.438,14.501 96.353,13.960 96.104,13.472 95.717,13.085 95.229,12.836 94.688,12.751"
     style="fill:none;stroke-width:0.050000mm;stroke:black"
     id="polygon18" />
  <polygon
     points="174.335,12.836 173.847,13.085 173.460,13.472 173.212,13.960 173.126,14.501 173.212,15.041 173.460,15.529 173.847,15.916 174.335,16.165 174.876,16.251 175.417,16.165 175.905,15.916 176.292,15.529 176.540,15.041 176.626,14.501 176.540,13.960 176.292,13.472 175.905,13.085 175.417,12.836 174.876,12.751"
     style="fill:none;stroke-width:0.050000mm;stroke:black"
     id="polygon20" />
  <polygon
     points="254.523,12.836 254.035,13.085 253.648,13.472 253.399,13.960 253.314,14.501 253.399,15.041 253.648,15.529 254.035,15.916 254.523,16.165 255.064,16.251 255.605,16.165 256.092,15.916 256.479,15.529 256.727,15.041 256.814,14.501 256.727,13.960 256.479,13.472 256.092,13.085 255.605,12.836 255.064,12.751"
     style="fill:none;stroke-width:0.050000mm;stroke:black"
     id="polygon22" />
  <polygon
     points="334.711,12.836 334.223,13.085 333.836,13.472 333.587,13.960 333.502,14.501 333.587,15.041 333.836,15.529 334.223,15.916 334.711,16.165 335.252,16.251 335.792,16.165 336.280,15.916 336.667,15.529 336.916,15.041 337.002,14.501 336.916,13.960 336.667,13.472 336.280,13.085 335.792,12.836 335.252,12.751"
     style="fill:none;stroke-width:0.050000mm;stroke:black"
     id="polygon24" />
  <polygon
     points="13.960,12.836 13.472,13.085 13.085,13.472 12.836,13.960 12.750,14.501 12.836,15.041 13.085,15.529 13.472,15.916 13.960,16.165 14.500,16.251 15.041,16.165 15.529,15.916 15.916,15.529 16.165,15.041 16.249,14.501 16.165,13.960 15.916,13.472 15.529,13.085 15.041,12.836 14.500,12.751"
     style="fill:none;stroke-width:0.050000mm;stroke:black"
     id="polygon26" />
  <g
     id="g154"
     transform="matrix(0.22196109,0,0,0.22196109,367.30246,39.258649)"
     style="fill:none;fill-opacity:1;stroke:#000000;stroke-width:1.13428;stroke-dasharray:none">
    <g
       id="g1012"
       transform="translate(17.997817)"
       style="fill:none;fill-opacity:1;stroke:#000000;stroke-width:1.13428;stroke-dasharray:none">
      <path
         style="fill:none;fill-opacity:1;stroke:#000000;stroke-width:1.13428;stroke-linecap:butt;stroke-linejoin:miter;stroke-dasharray:none;stroke-opacity:1"
         d="m -1001.4665,37.256913 c -0.019,0.215245 -0.056,0.645685 -0.3785,4.373629 -0.3226,3.727943 -0.9307,10.755181 -0.4186,17.843032 0.5121,7.087851 2.1443,14.237462 5.55392,20.65155 3.40959,6.414088 8.59606,12.092357 17.22337,16.899943 8.62731,4.807583 20.69433,8.744063 33.92706,12.275743 13.23272,3.53168 27.62985,6.65823 40.2471,9.4368 12.61724,2.77857 23.45387,5.209 34.03402,8.29202 10.58015,3.08302 20.90295,6.8183 29.15148,12.65498 8.24853,5.83667 14.42189,13.77385 17.50865,22.59347 3.08675,8.81961 3.08675,18.5206 1.11956,27.19369 -1.96718,8.67309 -5.90123,16.31732 -10.97256,23.61957 -5.07133,7.30224 -11.27902,14.26135 -20.1159,21.19894 -8.83689,6.9376 -20.29999,13.85157 -26.38631,17.22164 -6.08631,3.37007 -6.79183,3.19369 -7.23279,3.01742 -0.44095,-0.17627 -0.63992,-0.37522 -0.71696,-0.45228 C -889,254 -889.00001,254.00001 -889,254 c 0,0 0,0 5.27342,-4.61426 5.27343,-4.61427 15.89324,-13.90665 24.18015,-23.05363 8.28692,-9.14698 14.27755,-18.18066 17.9119,-25.89915 3.63434,-7.71849 4.91237,-14.1217 4.27317,-20.51238 -0.6392,-6.39069 -3.19572,-12.76855 -8.14469,-18.52692 -4.94897,-5.75838 -12.29022,-10.89684 -24.48259,-15.2806 -12.19237,-4.38375 -29.23468,-8.01234 -47.62272,-12.05494 -18.38804,-4.0426 -38.1196,-8.49874 -52.3167,-12.8309 -14.19711,-4.33216 -22.85807,-8.5399 -29.83473,-14.61265 -6.97671,-6.07275 -12.26811,-14.009948 -14.77631,-22.720558 -2.5082,-8.71061 -2.2325,-18.193529 -0.4686,-25.690355 1.7639,-7.496827 5.0163,-13.007187 7.3036,-16.202712 2.2873,-3.195526 3.6105,-4.07767 4.4924,-4.51858 0.882,-0.44091 1.3227,-0.440904 1.7637,-0.440897 0,0 10e-5,2e-4 -0.019,0.215445 z"
         id="path1038"
         inkscape:path-effect="#path-effect185-3"
         inkscape:original-d="m -1001.4479,37.041668 c -0.037,0.43051 -0.074,0.86097 -0.1117,1.29147 -0.6077,7.02537 -1.2158,14.05261 -1.8241,21.07845 1.6324,7.149802 3.2646,14.299412 4.89656,21.448722 5.18706,5.67889 10.37353,11.35716 15.56006,17.03552 12.06803,3.93698 24.13505,7.87346 36.20254,11.80991 14.39797,3.12694 28.7951,6.2535 43.19226,9.37985 10.83733,2.43079 21.67396,4.86122 32.51055,7.29143 10.32369,3.73578 20.64649,7.47107 30.96965,11.20631 6.17399,7.93792 12.34736,15.8751 18.52083,23.8125 2.6e-4,9.70186 2.6e-4,19.40285 0,29.10417 -3.9334,7.64536 -7.86745,15.28959 -11.80263,22.93363 -6.20759,6.96072 -12.41528,13.91982 -18.62445,20.87886 -11.46527,6.9157 -22.92837,13.82967 -34.39583,20.74584 -0.70541,-0.17615 -1.41093,-0.35253 -2.11667,-0.52916 -0.17612,-0.1761 -0.37509,-0.37505 -0.5292,-0.52915 2.7e-4,2.6e-4 3e-5,-2e-5 3e-5,-2e-5 0,0 2.6e-4,2.6e-4 0,0 10.54709,-9.22825 21.16691,-18.52063 31.74993,-27.78131 5.99086,-9.03336 11.98149,-18.06704 17.97185,-27.10096 1.27834,-6.4032 2.55636,-12.80641 3.83415,-19.21004 -2.55636,-6.37785 -5.11288,-12.75571 -7.66971,-19.13396 -7.34128,-5.1384 -14.68253,-10.27686 -22.02419,-15.41568 -17.04306,-3.62863 -34.08538,-7.25718 -51.12898,-10.8862 -19.73249,-4.45614 -39.46405,-8.91227 -59.19707,-13.36894 -8.66121,-4.20773 -17.32216,-8.41548 -25.98388,-12.62374 -5.2915,-7.93739 -10.583,-15.87457 -15.875,-23.8125 0.2759,-9.48326 0.5515,-18.96618 0.8269,-28.449992 3.2525,-5.50965 6.5049,-11.02005 9.7564,-16.52938 1.323,-0.88157 2.6462,-1.7637 3.9687,-2.64585 0.4412,2.7e-4 1.3229,2e-5 1.3229,2e-5 z"
         sodipodi:nodetypes="cccccccccccccccccccccccccccccccc" />
      <path
         style="fill:none;fill-opacity:1;stroke:#000000;stroke-width:1.13428;stroke-linecap:butt;stroke-linejoin:miter;stroke-dasharray:none;stroke-opacity:1"
         d="m -821.40319,149.40275 c 2.17915,-7.74381 8.30143,-19.70318 13.12664,-27.88807 4.82521,-8.18488 8.35284,-12.59441 12.10122,-16.34279 3.74837,-3.74837 7.71696,-6.835054 13.44981,-8.59897 5.73285,-1.763916 13.22908,-2.204872 18.9618,1.323145 5.73272,3.528015 9.70131,11.024245 10.21188,18.327025 0.51057,7.30279 -2.43671,14.41142 -4.62861,18.36722 -2.19189,3.95581 -3.6283,4.75848 -4.35774,5.17108 -0.72945,0.4126 -0.75186,0.43509 -0.76456,0.44779 -0.0127,0.0127 -0.0167,0.0167 -0.0184,0.0159 -0.002,-8.2e-4 -0.002,-0.006 -0.002,-0.0264 10e-6,-0.0201 -2e-5,-0.0554 -3e-5,-2.23924 -10e-6,-2.18384 -2e-5,-6.58972 -1.10235,-10.53827 -1.10233,-3.94855 -3.30719,-7.47633 -6.39396,-9.46085 -3.08676,-1.98452 -7.05542,-2.42549 -11.68587,-1.1e-4 -4.63045,2.42538 -10.94364,8.73858 -14.56441,12.96805 -3.62077,4.22946 -7.77004,10.07864 -11.61475,15.78954 -3.84472,5.7109 -7.60758,11.59745 -11.37048,17.48407 -1.76389,-3.52778 -3.52762,-7.05524 -1.34847,-14.79905 z"
         id="path1048"
         inkscape:path-effect="#path-effect187-6"
         inkscape:original-d="m -825.34639,153.61846 c 6.12267,-11.95936 12.24495,-23.91873 18.36722,-35.87888 3.52811,-4.40955 7.05575,-8.81908 10.58334,-13.22916 3.9691,-3.08661 7.93769,-6.17329 11.90625,-9.26042 7.49693,-0.44072 14.99316,-0.88167 22.48958,-1.32292 3.9691,7.49695 7.93769,14.99318 11.90625,22.48959 -2.9472,7.10934 -5.89449,14.21797 -8.84222,21.32679 -1.43619,0.80297 -2.8726,1.60565 -4.30925,2.40805 -0.0222,0.0227 -0.0447,0.0451 -0.0672,0.0674 -0.003,0.003 -0.007,0.007 -0.0105,0.0103 2.9e-4,-0.005 6e-5,-0.0105 8e-5,-0.0158 1.2e-4,-0.0349 2.2e-4,-0.0702 -7e-5,-0.10528 2.6e-4,-4.3326 2.6e-4,-8.73848 -10e-6,-13.10811 -2.20459,-3.52751 -4.40945,-7.05529 -6.61458,-10.58335 -3.9685,-0.44071 -7.93716,-0.88167 -11.90625,-1.32292 -5.29151,5.29204 -11.60471,11.60524 -15.875,15.875 -2.97121,4.18911 -7.12048,10.03829 -11.04726,15.57319 -3.76264,5.88689 -11.28871,17.65986 -11.28871,17.65986 0,0 -3.52751,-7.05529 -5.29167,-10.58334 z"
         sodipodi:nodetypes="cccccccccsccccccccc" />
    </g>
  </g>
</svg>
