  0
SECTION
  2
HEADER
  9
$ACADVER
  1
AC1009
  9
$FILLMODE
 70
 0
  9
$SPLFRAME
 70
 1
  9
$EXTMIN
 10
0
 20
0
 30
0.0
  9
$EXTMAX
 10
1058.33
 20
1058.33
 30
0.0
  0
ENDSEC
  0
SECTION
  2
TABLES
  0
TABLE
  2
LAYER
 70
1
  0
LAYER
  2
0
 70
     0
 62
     7
  6
CONTINUOUS
  0
ENDTAB
  0
ENDSEC
  0
SECTION
  2
ENTITIES
  0
LINE
  8
0
 62
     0
 10
334.847
 20
133.608
 30
0.0
 11
335.238
 21
133.593
 31
0.0
  0
LINE
  8
0
 62
     0
 10
335.238
 20
133.593
 30
0.0
 11
335.628
 21
133.546
 31
0.0
  0
LINE
  8
0
 62
     0
 10
335.628
 20
133.546
 30
0.0
 11
336.014
 21
133.47
 31
0.0
  0
LINE
  8
0
 62
     0
 10
336.014
 20
133.47
 30
0.0
 11
336.392
 21
133.364
 31
0.0
  0
LINE
  8
0
 62
     0
 10
336.392
 20
133.364
 30
0.0
 11
336.76
 21
133.227
 31
0.0
  0
LINE
  8
0
 62
     0
 10
336.76
 20
133.227
 30
0.0
 11
337.115
 21
133.064
 31
0.0
  0
LINE
  8
0
 62
     0
 10
337.115
 20
133.064
 30
0.0
 11
337.458
 21
132.872
 31
0.0
  0
LINE
  8
0
 62
     0
 10
337.458
 20
132.872
 30
0.0
 11
337.785
 21
132.653
 31
0.0
  0
LINE
  8
0
 62
     0
 10
337.785
 20
132.653
 30
0.0
 11
338.093
 21
132.41
 31
0.0
  0
LINE
  8
0
 62
     0
 10
338.093
 20
132.41
 30
0.0
 11
338.381
 21
132.143
 31
0.0
  0
LINE
  8
0
 62
     0
 10
338.381
 20
132.143
 30
0.0
 11
338.649
 21
131.855
 31
0.0
  0
LINE
  8
0
 62
     0
 10
338.649
 20
131.855
 30
0.0
 11
338.891
 21
131.546
 31
0.0
  0
LINE
  8
0
 62
     0
 10
338.891
 20
131.546
 30
0.0
 11
339.109
 21
131.221
 31
0.0
  0
LINE
  8
0
 62
     0
 10
339.109
 20
131.221
 30
0.0
 11
339.302
 21
130.878
 31
0.0
  0
LINE
  8
0
 62
     0
 10
339.302
 20
130.878
 30
0.0
 11
339.466
 21
130.521
 31
0.0
  0
LINE
  8
0
 62
     0
 10
339.466
 20
130.521
 30
0.0
 11
339.601
 21
130.153
 31
0.0
  0
LINE
  8
0
 62
     0
 10
339.601
 20
130.153
 30
0.0
 11
339.707
 21
129.775
 31
0.0
  0
LINE
  8
0
 62
     0
 10
339.707
 20
129.775
 30
0.0
 11
339.784
 21
129.391
 31
0.0
  0
LINE
  8
0
 62
     0
 10
339.784
 20
129.391
 30
0.0
 11
339.831
 21
129.001
 31
0.0
  0
LINE
  8
0
 62
     0
 10
339.831
 20
129.001
 30
0.0
 11
339.846
 21
128.607
 31
0.0
  0
LINE
  8
0
 62
     0
 10
339.846
 20
128.607
 30
0.0
 11
339.846
 21
5.35781
 31
0.0
  0
LINE
  8
0
 62
     0
 10
339.846
 20
5.35781
 30
0.0
 11
339.831
 21
4.96369
 31
0.0
  0
LINE
  8
0
 62
     0
 10
339.831
 20
4.96369
 30
0.0
 11
339.784
 21
4.57369
 31
0.0
  0
LINE
  8
0
 62
     0
 10
339.784
 20
4.57369
 30
0.0
 11
339.707
 21
4.18924
 31
0.0
  0
LINE
  8
0
 62
     0
 10
339.707
 20
4.18924
 30
0.0
 11
339.601
 21
3.81166
 31
0.0
  0
LINE
  8
0
 62
     0
 10
339.601
 20
3.81166
 30
0.0
 11
339.466
 21
3.44372
 31
0.0
  0
LINE
  8
0
 62
     0
 10
339.466
 20
3.44372
 30
0.0
 11
339.302
 21
3.08681
 31
0.0
  0
LINE
  8
0
 62
     0
 10
339.302
 20
3.08681
 30
0.0
 11
339.109
 21
2.74367
 31
0.0
  0
LINE
  8
0
 62
     0
 10
339.109
 20
2.74367
 30
0.0
 11
338.891
 21
2.41846
 31
0.0
  0
LINE
  8
0
 62
     0
 10
338.891
 20
2.41846
 30
0.0
 11
338.649
 21
2.10978
 31
0.0
  0
LINE
  8
0
 62
     0
 10
338.649
 20
2.10978
 30
0.0
 11
338.381
 21
1.82177
 31
0.0
  0
LINE
  8
0
 62
     0
 10
338.381
 20
1.82177
 30
0.0
 11
338.093
 21
1.55443
 31
0.0
  0
LINE
  8
0
 62
     0
 10
338.093
 20
1.55443
 30
0.0
 11
337.785
 21
1.31189
 31
0.0
  0
LINE
  8
0
 62
     0
 10
337.785
 20
1.31189
 30
0.0
 11
337.458
 21
1.09279
 31
0.0
  0
LINE
  8
0
 62
     0
 10
337.458
 20
1.09279
 30
0.0
 11
337.115
 21
0.901238
 31
0.0
  0
LINE
  8
0
 62
     0
 10
337.115
 20
0.901238
 30
0.0
 11
336.76
 21
0.737249
 31
0.0
  0
LINE
  8
0
 62
     0
 10
336.76
 20
0.737249
 30
0.0
 11
336.392
 21
0.600826
 31
0.0
  0
LINE
  8
0
 62
     0
 10
336.392
 20
0.600826
 30
0.0
 11
336.014
 21
0.494714
 31
0.0
  0
LINE
  8
0
 62
     0
 10
336.014
 20
0.494714
 30
0.0
 11
335.628
 21
0.418924
 31
0.0
  0
LINE
  8
0
 62
     0
 10
335.628
 20
0.418924
 30
0.0
 11
335.238
 21
0.372071
 31
0.0
  0
LINE
  8
0
 62
     0
 10
335.238
 20
0.372071
 30
0.0
 11
334.847
 21
0.356912
 31
0.0
  0
LINE
  8
0
 62
     0
 10
334.847
 20
0.356912
 30
0.0
 11
5.09598
 21
0.356912
 31
0.0
  0
LINE
  8
0
 62
     0
 10
5.09598
 20
0.356912
 30
0.0
 11
4.70186
 21
0.372071
 31
0.0
  0
LINE
  8
0
 62
     0
 10
4.70186
 20
0.372071
 30
0.0
 11
4.3119
 21
0.418924
 31
0.0
  0
LINE
  8
0
 62
     0
 10
4.3119
 20
0.418924
 30
0.0
 11
3.9274
 21
0.494714
 31
0.0
  0
LINE
  8
0
 62
     0
 10
3.9274
 20
0.494714
 30
0.0
 11
3.54983
 21
0.600826
 31
0.0
  0
LINE
  8
0
 62
     0
 10
3.54983
 20
0.600826
 30
0.0
 11
3.18189
 21
0.737249
 31
0.0
  0
LINE
  8
0
 62
     0
 10
3.18189
 20
0.737249
 30
0.0
 11
2.82498
 21
0.901238
 31
0.0
  0
LINE
  8
0
 62
     0
 10
2.82498
 20
0.901238
 30
0.0
 11
2.48185
 21
1.09279
 31
0.0
  0
LINE
  8
0
 62
     0
 10
2.48185
 20
1.09279
 30
0.0
 11
2.15663
 21
1.31189
 31
0.0
  0
LINE
  8
0
 62
     0
 10
2.15663
 20
1.31189
 30
0.0
 11
1.84795
 21
1.55443
 31
0.0
  0
LINE
  8
0
 62
     0
 10
1.84795
 20
1.55443
 30
0.0
 11
1.55994
 21
1.82177
 31
0.0
  0
LINE
  8
0
 62
     0
 10
1.55994
 20
1.82177
 30
0.0
 11
1.2926
 21
2.10978
 31
0.0
  0
LINE
  8
0
 62
     0
 10
1.2926
 20
2.10978
 30
0.0
 11
1.05006
 21
2.41846
 31
0.0
  0
LINE
  8
0
 62
     0
 10
1.05006
 20
2.41846
 30
0.0
 11
0.830957
 21
2.74367
 31
0.0
  0
LINE
  8
0
 62
     0
 10
0.830957
 20
2.74367
 30
0.0
 11
0.63941
 21
3.08681
 31
0.0
  0
LINE
  8
0
 62
     0
 10
0.63941
 20
3.08681
 30
0.0
 11
0.475424
 21
3.44372
 31
0.0
  0
LINE
  8
0
 62
     0
 10
0.475424
 20
3.44372
 30
0.0
 11
0.338998
 21
3.81166
 31
0.0
  0
LINE
  8
0
 62
     0
 10
0.338998
 20
3.81166
 30
0.0
 11
0.232888
 21
4.18924
 31
0.0
  0
LINE
  8
0
 62
     0
 10
0.232888
 20
4.18924
 30
0.0
 11
0.157097
 21
4.57369
 31
0.0
  0
LINE
  8
0
 62
     0
 10
0.157097
 20
4.57369
 30
0.0
 11
0.110243
 21
4.96369
 31
0.0
  0
LINE
  8
0
 62
     0
 10
0.110243
 20
4.96369
 30
0.0
 11
0.0950846
 21
5.35781
 31
0.0
  0
LINE
  8
0
 62
     0
 10
0.0950846
 20
5.35781
 30
0.0
 11
0.0950846
 21
128.607
 31
0.0
  0
LINE
  8
0
 62
     0
 10
0.0950846
 20
128.607
 30
0.0
 11
0.110243
 21
129.001
 31
0.0
  0
LINE
  8
0
 62
     0
 10
0.110243
 20
129.001
 30
0.0
 11
0.157097
 21
129.391
 31
0.0
  0
LINE
  8
0
 62
     0
 10
0.157097
 20
129.391
 30
0.0
 11
0.232888
 21
129.775
 31
0.0
  0
LINE
  8
0
 62
     0
 10
0.232888
 20
129.775
 30
0.0
 11
0.338998
 21
130.153
 31
0.0
  0
LINE
  8
0
 62
     0
 10
0.338998
 20
130.153
 30
0.0
 11
0.475424
 21
130.521
 31
0.0
  0
LINE
  8
0
 62
     0
 10
0.475424
 20
130.521
 30
0.0
 11
0.63941
 21
130.878
 31
0.0
  0
LINE
  8
0
 62
     0
 10
0.63941
 20
130.878
 30
0.0
 11
0.830957
 21
131.221
 31
0.0
  0
LINE
  8
0
 62
     0
 10
0.830957
 20
131.221
 30
0.0
 11
1.05006
 21
131.546
 31
0.0
  0
LINE
  8
0
 62
     0
 10
1.05006
 20
131.546
 30
0.0
 11
1.2926
 21
131.855
 31
0.0
  0
LINE
  8
0
 62
     0
 10
1.2926
 20
131.855
 30
0.0
 11
1.55994
 21
132.143
 31
0.0
  0
LINE
  8
0
 62
     0
 10
1.55994
 20
132.143
 30
0.0
 11
1.84795
 21
132.41
 31
0.0
  0
LINE
  8
0
 62
     0
 10
1.84795
 20
132.41
 30
0.0
 11
2.15663
 21
132.653
 31
0.0
  0
LINE
  8
0
 62
     0
 10
2.15663
 20
132.653
 30
0.0
 11
2.48185
 21
132.872
 31
0.0
  0
LINE
  8
0
 62
     0
 10
2.48185
 20
132.872
 30
0.0
 11
2.82498
 21
133.064
 31
0.0
  0
LINE
  8
0
 62
     0
 10
2.82498
 20
133.064
 30
0.0
 11
3.18189
 21
133.227
 31
0.0
  0
LINE
  8
0
 62
     0
 10
3.18189
 20
133.227
 30
0.0
 11
3.54983
 21
133.364
 31
0.0
  0
LINE
  8
0
 62
     0
 10
3.54983
 20
133.364
 30
0.0
 11
3.9274
 21
133.47
 31
0.0
  0
LINE
  8
0
 62
     0
 10
3.9274
 20
133.47
 30
0.0
 11
4.3119
 21
133.546
 31
0.0
  0
LINE
  8
0
 62
     0
 10
4.3119
 20
133.546
 30
0.0
 11
4.70186
 21
133.593
 31
0.0
  0
LINE
  8
0
 62
     0
 10
4.70186
 20
133.593
 30
0.0
 11
5.09598
 21
133.608
 31
0.0
  0
LINE
  8
0
 62
     0
 10
5.09598
 20
133.608
 30
0.0
 11
334.847
 21
133.608
 31
0.0
  0
LINE
  8
0
 62
     0
 10
329.806
 20
11.5218
 30
0.0
 11
329.318
 21
11.2723
 31
0.0
  0
LINE
  8
0
 62
     0
 10
329.318
 20
11.2723
 30
0.0
 11
328.931
 21
10.8851
 31
0.0
  0
LINE
  8
0
 62
     0
 10
328.931
 20
10.8851
 30
0.0
 11
328.681
 21
10.3973
 31
0.0
  0
LINE
  8
0
 62
     0
 10
328.681
 20
10.3973
 30
0.0
 11
328.596
 21
9.85711
 31
0.0
  0
LINE
  8
0
 62
     0
 10
328.596
 20
9.85711
 30
0.0
 11
328.681
 21
9.31693
 31
0.0
  0
LINE
  8
0
 62
     0
 10
328.681
 20
9.31693
 30
0.0
 11
328.931
 21
8.8277
 31
0.0
  0
LINE
  8
0
 62
     0
 10
328.931
 20
8.8277
 30
0.0
 11
329.318
 21
8.44187
 31
0.0
  0
LINE
  8
0
 62
     0
 10
329.318
 20
8.44187
 30
0.0
 11
329.806
 21
8.19383
 31
0.0
  0
LINE
  8
0
 62
     0
 10
329.806
 20
8.19383
 30
0.0
 11
330.346
 21
8.10701
 31
0.0
  0
LINE
  8
0
 62
     0
 10
330.346
 20
8.10701
 30
0.0
 11
330.886
 21
8.19383
 31
0.0
  0
LINE
  8
0
 62
     0
 10
330.886
 20
8.19383
 30
0.0
 11
331.374
 21
8.44187
 31
0.0
  0
LINE
  8
0
 62
     0
 10
331.374
 20
8.44187
 30
0.0
 11
331.761
 21
8.8277
 31
0.0
  0
LINE
  8
0
 62
     0
 10
331.761
 20
8.8277
 30
0.0
 11
332.011
 21
9.31693
 31
0.0
  0
LINE
  8
0
 62
     0
 10
332.011
 20
9.31693
 30
0.0
 11
332.096
 21
9.85711
 31
0.0
  0
LINE
  8
0
 62
     0
 10
332.096
 20
9.85711
 30
0.0
 11
332.011
 21
10.3973
 31
0.0
  0
LINE
  8
0
 62
     0
 10
332.011
 20
10.3973
 30
0.0
 11
331.761
 21
10.8851
 31
0.0
  0
LINE
  8
0
 62
     0
 10
331.761
 20
10.8851
 30
0.0
 11
331.374
 21
11.2723
 31
0.0
  0
LINE
  8
0
 62
     0
 10
331.374
 20
11.2723
 30
0.0
 11
330.886
 21
11.5218
 31
0.0
  0
LINE
  8
0
 62
     0
 10
330.886
 20
11.5218
 30
0.0
 11
330.346
 21
11.6072
 31
0.0
  0
LINE
  8
0
 62
     0
 10
330.346
 20
11.6072
 30
0.0
 11
329.806
 21
11.5218
 31
0.0
  0
LINE
  8
0
 62
     0
 10
249.618
 20
11.5218
 30
0.0
 11
249.13
 21
11.2723
 31
0.0
  0
LINE
  8
0
 62
     0
 10
249.13
 20
11.2723
 30
0.0
 11
248.743
 21
10.8851
 31
0.0
  0
LINE
  8
0
 62
     0
 10
248.743
 20
10.8851
 30
0.0
 11
248.493
 21
10.3973
 31
0.0
  0
LINE
  8
0
 62
     0
 10
248.493
 20
10.3973
 30
0.0
 11
248.408
 21
9.85711
 31
0.0
  0
LINE
  8
0
 62
     0
 10
248.408
 20
9.85711
 30
0.0
 11
248.493
 21
9.31693
 31
0.0
  0
LINE
  8
0
 62
     0
 10
248.493
 20
9.31693
 30
0.0
 11
248.743
 21
8.8277
 31
0.0
  0
LINE
  8
0
 62
     0
 10
248.743
 20
8.8277
 30
0.0
 11
249.13
 21
8.44187
 31
0.0
  0
LINE
  8
0
 62
     0
 10
249.13
 20
8.44187
 30
0.0
 11
249.618
 21
8.19383
 31
0.0
  0
LINE
  8
0
 62
     0
 10
249.618
 20
8.19383
 30
0.0
 11
250.158
 21
8.10701
 31
0.0
  0
LINE
  8
0
 62
     0
 10
250.158
 20
8.10701
 30
0.0
 11
250.7
 21
8.19383
 31
0.0
  0
LINE
  8
0
 62
     0
 10
250.7
 20
8.19383
 30
0.0
 11
251.186
 21
8.44187
 31
0.0
  0
LINE
  8
0
 62
     0
 10
251.186
 20
8.44187
 30
0.0
 11
251.573
 21
8.8277
 31
0.0
  0
LINE
  8
0
 62
     0
 10
251.573
 20
8.8277
 30
0.0
 11
251.821
 21
9.31693
 31
0.0
  0
LINE
  8
0
 62
     0
 10
251.821
 20
9.31693
 30
0.0
 11
251.908
 21
9.85711
 31
0.0
  0
LINE
  8
0
 62
     0
 10
251.908
 20
9.85711
 30
0.0
 11
251.821
 21
10.3973
 31
0.0
  0
LINE
  8
0
 62
     0
 10
251.821
 20
10.3973
 30
0.0
 11
251.573
 21
10.8851
 31
0.0
  0
LINE
  8
0
 62
     0
 10
251.573
 20
10.8851
 30
0.0
 11
251.186
 21
11.2723
 31
0.0
  0
LINE
  8
0
 62
     0
 10
251.186
 20
11.2723
 30
0.0
 11
250.7
 21
11.5218
 31
0.0
  0
LINE
  8
0
 62
     0
 10
250.7
 20
11.5218
 30
0.0
 11
250.158
 21
11.6072
 31
0.0
  0
LINE
  8
0
 62
     0
 10
250.158
 20
11.6072
 30
0.0
 11
249.618
 21
11.5218
 31
0.0
  0
LINE
  8
0
 62
     0
 10
169.43
 20
11.5218
 30
0.0
 11
168.942
 21
11.2723
 31
0.0
  0
LINE
  8
0
 62
     0
 10
168.942
 20
11.2723
 30
0.0
 11
168.555
 21
10.8851
 31
0.0
  0
LINE
  8
0
 62
     0
 10
168.555
 20
10.8851
 30
0.0
 11
168.307
 21
10.3973
 31
0.0
  0
LINE
  8
0
 62
     0
 10
168.307
 20
10.3973
 30
0.0
 11
168.22
 21
9.85711
 31
0.0
  0
LINE
  8
0
 62
     0
 10
168.22
 20
9.85711
 30
0.0
 11
168.307
 21
9.31693
 31
0.0
  0
LINE
  8
0
 62
     0
 10
168.307
 20
9.31693
 30
0.0
 11
168.555
 21
8.8277
 31
0.0
  0
LINE
  8
0
 62
     0
 10
168.555
 20
8.8277
 30
0.0
 11
168.942
 21
8.44187
 31
0.0
  0
LINE
  8
0
 62
     0
 10
168.942
 20
8.44187
 30
0.0
 11
169.43
 21
8.19383
 31
0.0
  0
LINE
  8
0
 62
     0
 10
169.43
 20
8.19383
 30
0.0
 11
169.97
 21
8.10701
 31
0.0
  0
LINE
  8
0
 62
     0
 10
169.97
 20
8.10701
 30
0.0
 11
170.512
 21
8.19383
 31
0.0
  0
LINE
  8
0
 62
     0
 10
170.512
 20
8.19383
 30
0.0
 11
171
 21
8.44187
 31
0.0
  0
LINE
  8
0
 62
     0
 10
171
 20
8.44187
 30
0.0
 11
171.387
 21
8.8277
 31
0.0
  0
LINE
  8
0
 62
     0
 10
171.387
 20
8.8277
 30
0.0
 11
171.635
 21
9.31693
 31
0.0
  0
LINE
  8
0
 62
     0
 10
171.635
 20
9.31693
 30
0.0
 11
171.72
 21
9.85711
 31
0.0
  0
LINE
  8
0
 62
     0
 10
171.72
 20
9.85711
 30
0.0
 11
171.635
 21
10.3973
 31
0.0
  0
LINE
  8
0
 62
     0
 10
171.635
 20
10.3973
 30
0.0
 11
171.387
 21
10.8851
 31
0.0
  0
LINE
  8
0
 62
     0
 10
171.387
 20
10.8851
 30
0.0
 11
171
 21
11.2723
 31
0.0
  0
LINE
  8
0
 62
     0
 10
171
 20
11.2723
 30
0.0
 11
170.512
 21
11.5218
 31
0.0
  0
LINE
  8
0
 62
     0
 10
170.512
 20
11.5218
 30
0.0
 11
169.97
 21
11.6072
 31
0.0
  0
LINE
  8
0
 62
     0
 10
169.97
 20
11.6072
 30
0.0
 11
169.43
 21
11.5218
 31
0.0
  0
LINE
  8
0
 62
     0
 10
89.2418
 20
11.5218
 30
0.0
 11
88.7539
 21
11.2723
 31
0.0
  0
LINE
  8
0
 62
     0
 10
88.7539
 20
11.2723
 30
0.0
 11
88.3666
 21
10.8851
 31
0.0
  0
LINE
  8
0
 62
     0
 10
88.3666
 20
10.8851
 30
0.0
 11
88.1186
 21
10.3973
 31
0.0
  0
LINE
  8
0
 62
     0
 10
88.1186
 20
10.3973
 30
0.0
 11
88.0318
 21
9.85711
 31
0.0
  0
LINE
  8
0
 62
     0
 10
88.0318
 20
9.85711
 30
0.0
 11
88.1186
 21
9.31693
 31
0.0
  0
LINE
  8
0
 62
     0
 10
88.1186
 20
9.31693
 30
0.0
 11
88.3666
 21
8.8277
 31
0.0
  0
LINE
  8
0
 62
     0
 10
88.3666
 20
8.8277
 30
0.0
 11
88.7539
 21
8.44187
 31
0.0
  0
LINE
  8
0
 62
     0
 10
88.7539
 20
8.44187
 30
0.0
 11
89.2418
 21
8.19383
 31
0.0
  0
LINE
  8
0
 62
     0
 10
89.2418
 20
8.19383
 30
0.0
 11
89.7819
 21
8.10701
 31
0.0
  0
LINE
  8
0
 62
     0
 10
89.7819
 20
8.10701
 30
0.0
 11
90.3235
 21
8.19383
 31
0.0
  0
LINE
  8
0
 62
     0
 10
90.3235
 20
8.19383
 30
0.0
 11
90.8114
 21
8.44187
 31
0.0
  0
LINE
  8
0
 62
     0
 10
90.8114
 20
8.44187
 30
0.0
 11
91.1987
 21
8.8277
 31
0.0
  0
LINE
  8
0
 62
     0
 10
91.1987
 20
8.8277
 30
0.0
 11
91.4481
 21
9.31693
 31
0.0
  0
LINE
  8
0
 62
     0
 10
91.4481
 20
9.31693
 30
0.0
 11
91.5321
 21
9.85711
 31
0.0
  0
LINE
  8
0
 62
     0
 10
91.5321
 20
9.85711
 30
0.0
 11
91.4481
 21
10.3973
 31
0.0
  0
LINE
  8
0
 62
     0
 10
91.4481
 20
10.3973
 30
0.0
 11
91.1987
 21
10.8851
 31
0.0
  0
LINE
  8
0
 62
     0
 10
91.1987
 20
10.8851
 30
0.0
 11
90.8114
 21
11.2723
 31
0.0
  0
LINE
  8
0
 62
     0
 10
90.8114
 20
11.2723
 30
0.0
 11
90.3235
 21
11.5218
 31
0.0
  0
LINE
  8
0
 62
     0
 10
90.3235
 20
11.5218
 30
0.0
 11
89.7819
 21
11.6072
 31
0.0
  0
LINE
  8
0
 62
     0
 10
89.7819
 20
11.6072
 30
0.0
 11
89.2418
 21
11.5218
 31
0.0
  0
LINE
  8
0
 62
     0
 10
9.0551
 20
11.5218
 30
0.0
 11
8.5659
 21
11.2723
 31
0.0
  0
LINE
  8
0
 62
     0
 10
8.5659
 20
11.2723
 30
0.0
 11
8.18003
 21
10.8851
 31
0.0
  0
LINE
  8
0
 62
     0
 10
8.18003
 20
10.8851
 30
0.0
 11
7.93062
 21
10.3973
 31
0.0
  0
LINE
  8
0
 62
     0
 10
7.93062
 20
10.3973
 30
0.0
 11
7.84518
 21
9.85711
 31
0.0
  0
LINE
  8
0
 62
     0
 10
7.84518
 20
9.85711
 30
0.0
 11
7.93062
 21
9.31693
 31
0.0
  0
LINE
  8
0
 62
     0
 10
7.93062
 20
9.31693
 30
0.0
 11
8.18003
 21
8.8277
 31
0.0
  0
LINE
  8
0
 62
     0
 10
8.18003
 20
8.8277
 30
0.0
 11
8.5659
 21
8.44187
 31
0.0
  0
LINE
  8
0
 62
     0
 10
8.5659
 20
8.44187
 30
0.0
 11
9.0551
 21
8.19383
 31
0.0
  0
LINE
  8
0
 62
     0
 10
9.0551
 20
8.19383
 30
0.0
 11
9.5939
 21
8.10701
 31
0.0
  0
LINE
  8
0
 62
     0
 10
9.5939
 20
8.10701
 30
0.0
 11
10.1355
 21
8.19383
 31
0.0
  0
LINE
  8
0
 62
     0
 10
10.1355
 20
8.19383
 30
0.0
 11
10.6233
 21
8.44187
 31
0.0
  0
LINE
  8
0
 62
     0
 10
10.6233
 20
8.44187
 30
0.0
 11
11.0105
 21
8.8277
 31
0.0
  0
LINE
  8
0
 62
     0
 10
11.0105
 20
8.8277
 30
0.0
 11
11.26
 21
9.31693
 31
0.0
  0
LINE
  8
0
 62
     0
 10
11.26
 20
9.31693
 30
0.0
 11
11.344
 21
9.85711
 31
0.0
  0
LINE
  8
0
 62
     0
 10
11.344
 20
9.85711
 30
0.0
 11
11.26
 21
10.3973
 31
0.0
  0
LINE
  8
0
 62
     0
 10
11.26
 20
10.3973
 30
0.0
 11
11.0105
 21
10.8851
 31
0.0
  0
LINE
  8
0
 62
     0
 10
11.0105
 20
10.8851
 30
0.0
 11
10.6233
 21
11.2723
 31
0.0
  0
LINE
  8
0
 62
     0
 10
10.6233
 20
11.2723
 30
0.0
 11
10.1355
 21
11.5218
 31
0.0
  0
LINE
  8
0
 62
     0
 10
10.1355
 20
11.5218
 30
0.0
 11
9.5939
 21
11.6072
 31
0.0
  0
LINE
  8
0
 62
     0
 10
9.5939
 20
11.6072
 30
0.0
 11
9.0551
 21
11.5218
 31
0.0
  0
LINE
  8
0
 62
     0
 10
19.0955
 20
114.607
 30
0.0
 11
320.846
 21
114.607
 31
0.0
  0
LINE
  8
0
 62
     0
 10
320.846
 20
114.607
 30
0.0
 11
320.846
 21
19.3573
 31
0.0
  0
LINE
  8
0
 62
     0
 10
320.846
 20
19.3573
 30
0.0
 11
19.0955
 21
19.3573
 31
0.0
  0
LINE
  8
0
 62
     0
 10
19.0955
 20
19.3573
 30
0.0
 11
19.0955
 21
114.607
 31
0.0
  0
LINE
  8
0
 62
     0
 10
329.806
 20
68.647
 30
0.0
 11
329.318
 21
68.399
 31
0.0
  0
LINE
  8
0
 62
     0
 10
329.318
 20
68.399
 30
0.0
 11
328.931
 21
68.0117
 31
0.0
  0
LINE
  8
0
 62
     0
 10
328.931
 20
68.0117
 30
0.0
 11
328.681
 21
67.5238
 31
0.0
  0
LINE
  8
0
 62
     0
 10
328.681
 20
67.5238
 30
0.0
 11
328.596
 21
66.9823
 31
0.0
  0
LINE
  8
0
 62
     0
 10
328.596
 20
66.9823
 30
0.0
 11
328.681
 21
66.4408
 31
0.0
  0
LINE
  8
0
 62
     0
 10
328.681
 20
66.4408
 30
0.0
 11
328.931
 21
65.9529
 31
0.0
  0
LINE
  8
0
 62
     0
 10
328.931
 20
65.9529
 30
0.0
 11
329.318
 21
65.5655
 31
0.0
  0
LINE
  8
0
 62
     0
 10
329.318
 20
65.5655
 30
0.0
 11
329.806
 21
65.3175
 31
0.0
  0
LINE
  8
0
 62
     0
 10
329.806
 20
65.3175
 30
0.0
 11
330.346
 21
65.2321
 31
0.0
  0
LINE
  8
0
 62
     0
 10
330.346
 20
65.2321
 30
0.0
 11
330.886
 21
65.3175
 31
0.0
  0
LINE
  8
0
 62
     0
 10
330.886
 20
65.3175
 30
0.0
 11
331.374
 21
65.5655
 31
0.0
  0
LINE
  8
0
 62
     0
 10
331.374
 20
65.5655
 30
0.0
 11
331.761
 21
65.9529
 31
0.0
  0
LINE
  8
0
 62
     0
 10
331.761
 20
65.9529
 30
0.0
 11
332.011
 21
66.4408
 31
0.0
  0
LINE
  8
0
 62
     0
 10
332.011
 20
66.4408
 30
0.0
 11
332.096
 21
66.9823
 31
0.0
  0
LINE
  8
0
 62
     0
 10
332.096
 20
66.9823
 30
0.0
 11
332.011
 21
67.5238
 31
0.0
  0
LINE
  8
0
 62
     0
 10
332.011
 20
67.5238
 30
0.0
 11
331.761
 21
68.0117
 31
0.0
  0
LINE
  8
0
 62
     0
 10
331.761
 20
68.0117
 30
0.0
 11
331.374
 21
68.399
 31
0.0
  0
LINE
  8
0
 62
     0
 10
331.374
 20
68.399
 30
0.0
 11
330.886
 21
68.647
 31
0.0
  0
LINE
  8
0
 62
     0
 10
330.886
 20
68.647
 30
0.0
 11
330.346
 21
68.7324
 31
0.0
  0
LINE
  8
0
 62
     0
 10
330.346
 20
68.7324
 30
0.0
 11
329.806
 21
68.647
 31
0.0
  0
LINE
  8
0
 62
     0
 10
9.0551
 20
68.647
 30
0.0
 11
8.5659
 21
68.399
 31
0.0
  0
LINE
  8
0
 62
     0
 10
8.5659
 20
68.399
 30
0.0
 11
8.18003
 21
68.0117
 31
0.0
  0
LINE
  8
0
 62
     0
 10
8.18003
 20
68.0117
 30
0.0
 11
7.93062
 21
67.5238
 31
0.0
  0
LINE
  8
0
 62
     0
 10
7.93062
 20
67.5238
 30
0.0
 11
7.84518
 21
66.9823
 31
0.0
  0
LINE
  8
0
 62
     0
 10
7.84518
 20
66.9823
 30
0.0
 11
7.93062
 21
66.4408
 31
0.0
  0
LINE
  8
0
 62
     0
 10
7.93062
 20
66.4408
 30
0.0
 11
8.18003
 21
65.9529
 31
0.0
  0
LINE
  8
0
 62
     0
 10
8.18003
 20
65.9529
 30
0.0
 11
8.5659
 21
65.5655
 31
0.0
  0
LINE
  8
0
 62
     0
 10
8.5659
 20
65.5655
 30
0.0
 11
9.0551
 21
65.3175
 31
0.0
  0
LINE
  8
0
 62
     0
 10
9.0551
 20
65.3175
 30
0.0
 11
9.5939
 21
65.2321
 31
0.0
  0
LINE
  8
0
 62
     0
 10
9.5939
 20
65.2321
 30
0.0
 11
10.1355
 21
65.3175
 31
0.0
  0
LINE
  8
0
 62
     0
 10
10.1355
 20
65.3175
 30
0.0
 11
10.6233
 21
65.5655
 31
0.0
  0
LINE
  8
0
 62
     0
 10
10.6233
 20
65.5655
 30
0.0
 11
11.0105
 21
65.9529
 31
0.0
  0
LINE
  8
0
 62
     0
 10
11.0105
 20
65.9529
 30
0.0
 11
11.26
 21
66.4408
 31
0.0
  0
LINE
  8
0
 62
     0
 10
11.26
 20
66.4408
 30
0.0
 11
11.344
 21
66.9823
 31
0.0
  0
LINE
  8
0
 62
     0
 10
11.344
 20
66.9823
 30
0.0
 11
11.26
 21
67.5238
 31
0.0
  0
LINE
  8
0
 62
     0
 10
11.26
 20
67.5238
 30
0.0
 11
11.0105
 21
68.0117
 31
0.0
  0
LINE
  8
0
 62
     0
 10
11.0105
 20
68.0117
 30
0.0
 11
10.6233
 21
68.399
 31
0.0
  0
LINE
  8
0
 62
     0
 10
10.6233
 20
68.399
 30
0.0
 11
10.1355
 21
68.647
 31
0.0
  0
LINE
  8
0
 62
     0
 10
10.1355
 20
68.647
 30
0.0
 11
9.5939
 21
68.7324
 31
0.0
  0
LINE
  8
0
 62
     0
 10
9.5939
 20
68.7324
 30
0.0
 11
9.0551
 21
68.647
 31
0.0
  0
LINE
  8
0
 62
     0
 10
89.2418
 20
125.772
 30
0.0
 11
88.7539
 21
125.523
 31
0.0
  0
LINE
  8
0
 62
     0
 10
88.7539
 20
125.523
 30
0.0
 11
88.3666
 21
125.137
 31
0.0
  0
LINE
  8
0
 62
     0
 10
88.3666
 20
125.137
 30
0.0
 11
88.1186
 21
124.648
 31
0.0
  0
LINE
  8
0
 62
     0
 10
88.1186
 20
124.648
 30
0.0
 11
88.0318
 21
124.108
 31
0.0
  0
LINE
  8
0
 62
     0
 10
88.0318
 20
124.108
 30
0.0
 11
88.1186
 21
123.567
 31
0.0
  0
LINE
  8
0
 62
     0
 10
88.1186
 20
123.567
 30
0.0
 11
88.3666
 21
123.08
 31
0.0
  0
LINE
  8
0
 62
     0
 10
88.3666
 20
123.08
 30
0.0
 11
88.7539
 21
122.692
 31
0.0
  0
LINE
  8
0
 62
     0
 10
88.7539
 20
122.692
 30
0.0
 11
89.2418
 21
122.443
 31
0.0
  0
LINE
  8
0
 62
     0
 10
89.2418
 20
122.443
 30
0.0
 11
89.7819
 21
122.357
 31
0.0
  0
LINE
  8
0
 62
     0
 10
89.7819
 20
122.357
 30
0.0
 11
90.3235
 21
122.443
 31
0.0
  0
LINE
  8
0
 62
     0
 10
90.3235
 20
122.443
 30
0.0
 11
90.8114
 21
122.692
 31
0.0
  0
LINE
  8
0
 62
     0
 10
90.8114
 20
122.692
 30
0.0
 11
91.1987
 21
123.08
 31
0.0
  0
LINE
  8
0
 62
     0
 10
91.1987
 20
123.08
 30
0.0
 11
91.4481
 21
123.567
 31
0.0
  0
LINE
  8
0
 62
     0
 10
91.4481
 20
123.567
 30
0.0
 11
91.5321
 21
124.108
 31
0.0
  0
LINE
  8
0
 62
     0
 10
91.5321
 20
124.108
 30
0.0
 11
91.4481
 21
124.648
 31
0.0
  0
LINE
  8
0
 62
     0
 10
91.4481
 20
124.648
 30
0.0
 11
91.1987
 21
125.137
 31
0.0
  0
LINE
  8
0
 62
     0
 10
91.1987
 20
125.137
 30
0.0
 11
90.8114
 21
125.523
 31
0.0
  0
LINE
  8
0
 62
     0
 10
90.8114
 20
125.523
 30
0.0
 11
90.3235
 21
125.772
 31
0.0
  0
LINE
  8
0
 62
     0
 10
90.3235
 20
125.772
 30
0.0
 11
89.7819
 21
125.858
 31
0.0
  0
LINE
  8
0
 62
     0
 10
89.7819
 20
125.858
 30
0.0
 11
89.2418
 21
125.772
 31
0.0
  0
LINE
  8
0
 62
     0
 10
169.43
 20
125.772
 30
0.0
 11
168.942
 21
125.523
 31
0.0
  0
LINE
  8
0
 62
     0
 10
168.942
 20
125.523
 30
0.0
 11
168.555
 21
125.137
 31
0.0
  0
LINE
  8
0
 62
     0
 10
168.555
 20
125.137
 30
0.0
 11
168.307
 21
124.648
 31
0.0
  0
LINE
  8
0
 62
     0
 10
168.307
 20
124.648
 30
0.0
 11
168.22
 21
124.108
 31
0.0
  0
LINE
  8
0
 62
     0
 10
168.22
 20
124.108
 30
0.0
 11
168.307
 21
123.567
 31
0.0
  0
LINE
  8
0
 62
     0
 10
168.307
 20
123.567
 30
0.0
 11
168.555
 21
123.08
 31
0.0
  0
LINE
  8
0
 62
     0
 10
168.555
 20
123.08
 30
0.0
 11
168.942
 21
122.692
 31
0.0
  0
LINE
  8
0
 62
     0
 10
168.942
 20
122.692
 30
0.0
 11
169.43
 21
122.443
 31
0.0
  0
LINE
  8
0
 62
     0
 10
169.43
 20
122.443
 30
0.0
 11
169.97
 21
122.357
 31
0.0
  0
LINE
  8
0
 62
     0
 10
169.97
 20
122.357
 30
0.0
 11
170.512
 21
122.443
 31
0.0
  0
LINE
  8
0
 62
     0
 10
170.512
 20
122.443
 30
0.0
 11
171
 21
122.692
 31
0.0
  0
LINE
  8
0
 62
     0
 10
171
 20
122.692
 30
0.0
 11
171.387
 21
123.08
 31
0.0
  0
LINE
  8
0
 62
     0
 10
171.387
 20
123.08
 30
0.0
 11
171.635
 21
123.567
 31
0.0
  0
LINE
  8
0
 62
     0
 10
171.635
 20
123.567
 30
0.0
 11
171.72
 21
124.108
 31
0.0
  0
LINE
  8
0
 62
     0
 10
171.72
 20
124.108
 30
0.0
 11
171.635
 21
124.648
 31
0.0
  0
LINE
  8
0
 62
     0
 10
171.635
 20
124.648
 30
0.0
 11
171.387
 21
125.137
 31
0.0
  0
LINE
  8
0
 62
     0
 10
171.387
 20
125.137
 30
0.0
 11
171
 21
125.523
 31
0.0
  0
LINE
  8
0
 62
     0
 10
171
 20
125.523
 30
0.0
 11
170.512
 21
125.772
 31
0.0
  0
LINE
  8
0
 62
     0
 10
170.512
 20
125.772
 30
0.0
 11
169.97
 21
125.858
 31
0.0
  0
LINE
  8
0
 62
     0
 10
169.97
 20
125.858
 30
0.0
 11
169.43
 21
125.772
 31
0.0
  0
LINE
  8
0
 62
     0
 10
249.618
 20
125.772
 30
0.0
 11
249.13
 21
125.523
 31
0.0
  0
LINE
  8
0
 62
     0
 10
249.13
 20
125.523
 30
0.0
 11
248.743
 21
125.137
 31
0.0
  0
LINE
  8
0
 62
     0
 10
248.743
 20
125.137
 30
0.0
 11
248.493
 21
124.648
 31
0.0
  0
LINE
  8
0
 62
     0
 10
248.493
 20
124.648
 30
0.0
 11
248.408
 21
124.108
 31
0.0
  0
LINE
  8
0
 62
     0
 10
248.408
 20
124.108
 30
0.0
 11
248.493
 21
123.567
 31
0.0
  0
LINE
  8
0
 62
     0
 10
248.493
 20
123.567
 30
0.0
 11
248.743
 21
123.08
 31
0.0
  0
LINE
  8
0
 62
     0
 10
248.743
 20
123.08
 30
0.0
 11
249.13
 21
122.692
 31
0.0
  0
LINE
  8
0
 62
     0
 10
249.13
 20
122.692
 30
0.0
 11
249.618
 21
122.443
 31
0.0
  0
LINE
  8
0
 62
     0
 10
249.618
 20
122.443
 30
0.0
 11
250.158
 21
122.357
 31
0.0
  0
LINE
  8
0
 62
     0
 10
250.158
 20
122.357
 30
0.0
 11
250.7
 21
122.443
 31
0.0
  0
LINE
  8
0
 62
     0
 10
250.7
 20
122.443
 30
0.0
 11
251.186
 21
122.692
 31
0.0
  0
LINE
  8
0
 62
     0
 10
251.186
 20
122.692
 30
0.0
 11
251.573
 21
123.08
 31
0.0
  0
LINE
  8
0
 62
     0
 10
251.573
 20
123.08
 30
0.0
 11
251.821
 21
123.567
 31
0.0
  0
LINE
  8
0
 62
     0
 10
251.821
 20
123.567
 30
0.0
 11
251.908
 21
124.108
 31
0.0
  0
LINE
  8
0
 62
     0
 10
251.908
 20
124.108
 30
0.0
 11
251.821
 21
124.648
 31
0.0
  0
LINE
  8
0
 62
     0
 10
251.821
 20
124.648
 30
0.0
 11
251.573
 21
125.137
 31
0.0
  0
LINE
  8
0
 62
     0
 10
251.573
 20
125.137
 30
0.0
 11
251.186
 21
125.523
 31
0.0
  0
LINE
  8
0
 62
     0
 10
251.186
 20
125.523
 30
0.0
 11
250.7
 21
125.772
 31
0.0
  0
LINE
  8
0
 62
     0
 10
250.7
 20
125.772
 30
0.0
 11
250.158
 21
125.858
 31
0.0
  0
LINE
  8
0
 62
     0
 10
250.158
 20
125.858
 30
0.0
 11
249.618
 21
125.772
 31
0.0
  0
LINE
  8
0
 62
     0
 10
329.806
 20
125.772
 30
0.0
 11
329.318
 21
125.523
 31
0.0
  0
LINE
  8
0
 62
     0
 10
329.318
 20
125.523
 30
0.0
 11
328.931
 21
125.137
 31
0.0
  0
LINE
  8
0
 62
     0
 10
328.931
 20
125.137
 30
0.0
 11
328.681
 21
124.648
 31
0.0
  0
LINE
  8
0
 62
     0
 10
328.681
 20
124.648
 30
0.0
 11
328.596
 21
124.108
 31
0.0
  0
LINE
  8
0
 62
     0
 10
328.596
 20
124.108
 30
0.0
 11
328.681
 21
123.567
 31
0.0
  0
LINE
  8
0
 62
     0
 10
328.681
 20
123.567
 30
0.0
 11
328.931
 21
123.08
 31
0.0
  0
LINE
  8
0
 62
     0
 10
328.931
 20
123.08
 30
0.0
 11
329.318
 21
122.692
 31
0.0
  0
LINE
  8
0
 62
     0
 10
329.318
 20
122.692
 30
0.0
 11
329.806
 21
122.443
 31
0.0
  0
LINE
  8
0
 62
     0
 10
329.806
 20
122.443
 30
0.0
 11
330.346
 21
122.357
 31
0.0
  0
LINE
  8
0
 62
     0
 10
330.346
 20
122.357
 30
0.0
 11
330.886
 21
122.443
 31
0.0
  0
LINE
  8
0
 62
     0
 10
330.886
 20
122.443
 30
0.0
 11
331.374
 21
122.692
 31
0.0
  0
LINE
  8
0
 62
     0
 10
331.374
 20
122.692
 30
0.0
 11
331.761
 21
123.08
 31
0.0
  0
LINE
  8
0
 62
     0
 10
331.761
 20
123.08
 30
0.0
 11
332.011
 21
123.567
 31
0.0
  0
LINE
  8
0
 62
     0
 10
332.011
 20
123.567
 30
0.0
 11
332.096
 21
124.108
 31
0.0
  0
LINE
  8
0
 62
     0
 10
332.096
 20
124.108
 30
0.0
 11
332.011
 21
124.648
 31
0.0
  0
LINE
  8
0
 62
     0
 10
332.011
 20
124.648
 30
0.0
 11
331.761
 21
125.137
 31
0.0
  0
LINE
  8
0
 62
     0
 10
331.761
 20
125.137
 30
0.0
 11
331.374
 21
125.523
 31
0.0
  0
LINE
  8
0
 62
     0
 10
331.374
 20
125.523
 30
0.0
 11
330.886
 21
125.772
 31
0.0
  0
LINE
  8
0
 62
     0
 10
330.886
 20
125.772
 30
0.0
 11
330.346
 21
125.858
 31
0.0
  0
LINE
  8
0
 62
     0
 10
330.346
 20
125.858
 30
0.0
 11
329.806
 21
125.772
 31
0.0
  0
LINE
  8
0
 62
     0
 10
9.0551
 20
125.772
 30
0.0
 11
8.5659
 21
125.523
 31
0.0
  0
LINE
  8
0
 62
     0
 10
8.5659
 20
125.523
 30
0.0
 11
8.18003
 21
125.137
 31
0.0
  0
LINE
  8
0
 62
     0
 10
8.18003
 20
125.137
 30
0.0
 11
7.93062
 21
124.648
 31
0.0
  0
LINE
  8
0
 62
     0
 10
7.93062
 20
124.648
 30
0.0
 11
7.84518
 21
124.108
 31
0.0
  0
LINE
  8
0
 62
     0
 10
7.84518
 20
124.108
 30
0.0
 11
7.93062
 21
123.567
 31
0.0
  0
LINE
  8
0
 62
     0
 10
7.93062
 20
123.567
 30
0.0
 11
8.18003
 21
123.08
 31
0.0
  0
LINE
  8
0
 62
     0
 10
8.18003
 20
123.08
 30
0.0
 11
8.5659
 21
122.692
 31
0.0
  0
LINE
  8
0
 62
     0
 10
8.5659
 20
122.692
 30
0.0
 11
9.0551
 21
122.443
 31
0.0
  0
LINE
  8
0
 62
     0
 10
9.0551
 20
122.443
 30
0.0
 11
9.5939
 21
122.357
 31
0.0
  0
LINE
  8
0
 62
     0
 10
9.5939
 20
122.357
 30
0.0
 11
10.1355
 21
122.443
 31
0.0
  0
LINE
  8
0
 62
     0
 10
10.1355
 20
122.443
 30
0.0
 11
10.6233
 21
122.692
 31
0.0
  0
LINE
  8
0
 62
     0
 10
10.6233
 20
122.692
 30
0.0
 11
11.0105
 21
123.08
 31
0.0
  0
LINE
  8
0
 62
     0
 10
11.0105
 20
123.08
 30
0.0
 11
11.26
 21
123.567
 31
0.0
  0
LINE
  8
0
 62
     0
 10
11.26
 20
123.567
 30
0.0
 11
11.344
 21
124.108
 31
0.0
  0
LINE
  8
0
 62
     0
 10
11.344
 20
124.108
 30
0.0
 11
11.26
 21
124.648
 31
0.0
  0
LINE
  8
0
 62
     0
 10
11.26
 20
124.648
 30
0.0
 11
11.0105
 21
125.137
 31
0.0
  0
LINE
  8
0
 62
     0
 10
11.0105
 20
125.137
 30
0.0
 11
10.6233
 21
125.523
 31
0.0
  0
LINE
  8
0
 62
     0
 10
10.6233
 20
125.523
 30
0.0
 11
10.1355
 21
125.772
 31
0.0
  0
LINE
  8
0
 62
     0
 10
10.1355
 20
125.772
 30
0.0
 11
9.5939
 21
125.858
 31
0.0
  0
LINE
  8
0
 62
     0
 10
9.5939
 20
125.858
 30
0.0
 11
9.0551
 21
125.772
 31
0.0
  0
ENDSEC
  0
EOF
