<?xml version="1.0" encoding="UTF-8" standalone="no"?>
<!-- Generated by SVGo -->

<svg
   width="349.752mm"
   height="143.252mm"
   viewBox="0.000 0.000 349.752 143.252"
   version="1.1"
   id="svg148"
   sodipodi:docname="switch-layer-inkscape.svg"
   inkscape:version="1.2.2 (b0a8486541, 2022-12-01)"
   xmlns:inkscape="http://www.inkscape.org/namespaces/inkscape"
   xmlns:sodipodi="http://sodipodi.sourceforge.net/DTD/sodipodi-0.dtd"
   xmlns="http://www.w3.org/2000/svg"
   xmlns:svg="http://www.w3.org/2000/svg">
  <defs
     id="defs152" />
  <sodipodi:namedview
     id="namedview150"
     pagecolor="#ffffff"
     bordercolor="#000000"
     borderopacity="0.25"
     inkscape:showpageshadow="2"
     inkscape:pageopacity="0.0"
     inkscape:pagecheckerboard="0"
     inkscape:deskcolor="#d1d1d1"
     inkscape:document-units="mm"
     showgrid="false"
     inkscape:zoom="0.43588688"
     inkscape:cx="661.86897"
     inkscape:cy="270.71244"
     inkscape:window-width="1024"
     inkscape:window-height="699"
     inkscape:window-x="0"
     inkscape:window-y="32"
     inkscape:window-maximized="1"
     inkscape:current-layer="svg148" />
  <polygon
     points="339.752,5.001 340.144,5.016 340.534,5.062 340.919,5.139 341.297,5.245 341.665,5.381 342.021,5.545 342.364,5.737 342.690,5.955 342.999,6.198 343.287,6.465 343.554,6.753 343.797,7.062 344.015,7.388 344.207,7.731 344.371,8.087 344.507,8.455 344.613,8.833 344.690,9.218 344.736,9.608 344.752,10.001 344.752,133.251 344.736,133.644 344.690,134.034 344.613,134.419 344.507,134.797 344.371,135.165 344.207,135.521 344.015,135.864 343.797,136.190 343.554,136.499 343.287,136.787 342.999,137.054 342.690,137.297 342.364,137.515 342.021,137.707 341.665,137.871 341.297,138.007 340.919,138.113 340.534,138.190 340.144,138.236 339.752,138.252 10.001,138.251 9.608,138.236 9.218,138.190 8.833,138.113 8.455,138.007 8.087,137.871 7.731,137.707 7.388,137.515 7.062,137.297 6.753,137.054 6.465,136.787 6.198,136.499 5.955,136.190 5.737,135.864 5.545,135.521 5.381,135.165 5.245,134.797 5.139,134.419 5.062,134.034 5.016,133.644 5.000,133.251 5.001,10.001 5.016,9.608 5.062,9.218 5.139,8.833 5.245,8.455 5.381,8.087 5.545,7.731 5.737,7.388 5.955,7.062 6.198,6.753 6.465,6.465 6.753,6.198 7.062,5.955 7.388,5.737 7.731,5.545 8.087,5.381 8.455,5.245 8.833,5.139 9.218,5.062 9.608,5.016 10.001,5.000"
     style="fill:none;stroke-width:0.050000mm;stroke:black"
     id="polygon2" />
  <polygon
     points="334.711,127.087 334.223,127.336 333.836,127.723 333.587,128.211 333.502,128.751 333.587,129.292 333.836,129.780 334.223,130.167 334.711,130.415 335.252,130.501 335.792,130.415 336.280,130.167 336.667,129.780 336.916,129.292 337.002,128.751 336.916,128.211 336.667,127.723 336.280,127.336 335.792,127.087 335.252,127.001"
     style="fill:none;stroke-width:0.050000mm;stroke:black"
     id="polygon4" />
  <polygon
     points="254.523,127.087 254.035,127.336 253.648,127.723 253.399,128.211 253.314,128.751 253.399,129.292 253.648,129.780 254.035,130.167 254.523,130.415 255.064,130.501 255.605,130.415 256.092,130.167 256.479,129.780 256.727,129.292 256.814,128.751 256.727,128.211 256.479,127.723 256.092,127.336 255.605,127.087 255.064,127.001"
     style="fill:none;stroke-width:0.050000mm;stroke:black"
     id="polygon6" />
  <polygon
     points="174.335,127.087 173.847,127.336 173.460,127.723 173.212,128.211 173.126,128.751 173.212,129.292 173.460,129.780 173.847,130.167 174.335,130.415 174.876,130.501 175.417,130.415 175.905,130.167 176.292,129.780 176.540,129.292 176.626,128.751 176.540,128.211 176.292,127.723 175.905,127.336 175.417,127.087 174.876,127.001"
     style="fill:none;stroke-width:0.050000mm;stroke:black"
     id="polygon8" />
  <polygon
     points="94.147,127.087 93.660,127.336 93.272,127.723 93.024,128.211 92.938,128.751 93.024,129.292 93.272,129.780 93.660,130.167 94.147,130.415 94.688,130.501 95.229,130.415 95.717,130.167 96.104,129.780 96.353,129.292 96.438,128.751 96.353,128.211 96.104,127.723 95.717,127.336 95.229,127.087 94.688,127.001"
     style="fill:none;stroke-width:0.050000mm;stroke:black"
     id="polygon10" />
  <polygon
     points="13.960,127.087 13.472,127.336 13.085,127.723 12.836,128.211 12.750,128.751 12.836,129.292 13.085,129.780 13.472,130.167 13.960,130.415 14.500,130.501 15.041,130.415 15.529,130.167 15.916,129.780 16.165,129.292 16.249,128.751 16.165,128.211 15.916,127.723 15.529,127.336 15.041,127.087 14.500,127.001"
     style="fill:none;stroke-width:0.050000mm;stroke:black"
     id="polygon12" />
  <polygon
     points="167.876,102.726 167.876,103.726 167.076,103.726 167.076,106.825 167.876,106.825 167.876,107.426 121.101,107.426 121.101,104.196 114.351,104.196 114.351,107.426 113.526,107.426 113.526,110.226 114.351,110.226 114.351,116.495 116.076,116.495 116.076,117.696 119.376,117.696 119.376,116.495 121.101,116.495 121.101,112.025 167.876,112.025 167.876,112.626 167.076,112.626 167.076,115.726 167.876,115.726 167.876,116.726 181.876,116.726 181.876,115.726 182.676,115.726 182.676,112.626 181.876,112.626 181.876,112.025 228.651,112.025 228.651,116.495 230.376,116.495 230.376,117.696 233.676,117.696 233.676,116.495 235.401,116.495 235.401,110.226 236.226,110.226 236.226,107.426 235.401,107.426 235.401,104.196 228.651,104.196 228.651,107.426 181.876,107.426 181.876,106.825 182.676,106.825 182.676,103.726 181.876,103.726 181.876,102.726"
     style="fill:none;stroke-width:0.050000mm;stroke:black"
     id="polygon14" />
  <polygon
     points="63.101,102.726 63.101,103.726 62.301,103.726 62.301,106.825 63.101,106.825 63.101,112.626 62.301,112.626 62.301,115.726 63.101,115.726 63.101,116.726 77.101,116.726 77.101,115.726 77.901,115.726 77.901,112.626 77.101,112.626 77.101,106.825 77.901,106.825 77.901,103.726 77.101,103.726 77.101,102.726"
     style="fill:none;stroke-width:0.050000mm;stroke:black"
     id="polygon16" />
  <polygon
     points="86.913,102.726 86.913,103.726 86.113,103.726 86.113,106.825 86.913,106.825 86.913,112.626 86.113,112.626 86.113,115.726 86.913,115.726 86.913,116.726 100.913,116.726 100.913,115.726 101.713,115.726 101.713,112.626 100.913,112.626 100.913,106.825 101.713,106.825 101.713,103.726 100.913,103.726 100.913,102.726"
     style="fill:none;stroke-width:0.050000mm;stroke:black"
     id="polygon18" />
  <polygon
     points="248.838,102.726 248.838,103.726 248.038,103.726 248.038,106.825 248.838,106.825 248.838,112.626 248.038,112.626 248.038,115.726 248.838,115.726 248.838,116.726 262.838,116.726 262.838,115.726 263.638,115.726 263.638,112.626 262.838,112.626 262.838,106.825 263.638,106.825 263.638,103.726 262.838,103.726 262.838,102.726"
     style="fill:none;stroke-width:0.050000mm;stroke:black"
     id="polygon20" />
  <polygon
     points="272.651,102.726 272.651,103.726 271.850,103.726 271.850,106.825 272.651,106.825 272.651,112.626 271.850,112.626 271.850,115.726 272.651,115.726 272.651,116.726 286.651,116.726 286.651,115.726 287.451,115.726 287.451,112.626 286.651,112.626 286.651,106.825 287.451,106.825 287.451,103.726 286.651,103.726 286.651,102.726"
     style="fill:none;stroke-width:0.050000mm;stroke:black"
     id="polygon22" />
  <polygon
     points="46.432,83.676 46.432,84.676 45.632,84.676 45.632,87.775 46.432,87.775 46.432,88.376 44.907,88.376 44.907,85.146 38.157,85.146 38.157,88.376 37.332,88.376 37.332,91.176 38.157,91.176 38.157,97.446 39.882,97.446 39.882,98.646 43.182,98.646 43.182,97.446 44.907,97.446 44.907,92.976 46.432,92.976 46.432,93.576 45.632,93.576 45.632,96.676 46.432,96.676 46.432,97.676 60.432,97.676 60.432,96.676 61.232,96.676 61.232,93.576 60.432,93.576 60.432,92.976 61.957,92.976 61.957,97.446 63.682,97.446 63.682,98.646 66.982,98.646 66.982,97.446 68.707,97.446 68.707,91.176 69.532,91.176 69.532,88.376 68.707,88.376 68.707,85.146 61.957,85.146 61.957,88.376 60.432,88.376 60.432,87.775 61.232,87.775 61.232,84.676 60.432,84.676 60.432,83.676"
     style="fill:none;stroke-width:0.050000mm;stroke:black"
     id="polygon24" />
  <polygon
     points="77.388,83.676 77.388,84.676 76.588,84.676 76.588,87.775 77.388,87.775 77.388,93.576 76.588,93.576 76.588,96.676 77.388,96.676 77.388,97.676 91.388,97.676 91.388,96.676 92.188,96.676 92.188,93.576 91.388,93.576 91.388,87.775 92.188,87.775 92.188,84.676 91.388,84.676 91.388,83.676"
     style="fill:none;stroke-width:0.050000mm;stroke:black"
     id="polygon26" />
  <polygon
     points="96.438,83.676 96.438,84.676 95.638,84.676 95.638,87.775 96.438,87.775 96.438,93.576 95.638,93.576 95.638,96.676 96.438,96.676 96.438,97.676 110.438,97.676 110.438,96.676 111.238,96.676 111.238,93.576 110.438,93.576 110.438,87.775 111.238,87.775 111.238,84.676 110.438,84.676 110.438,83.676"
     style="fill:none;stroke-width:0.050000mm;stroke:black"
     id="polygon28" />
  <polygon
     points="115.488,83.676 115.488,84.676 114.688,84.676 114.688,87.775 115.488,87.775 115.488,93.576 114.688,93.576 114.688,96.676 115.488,96.676 115.488,97.676 129.488,97.676 129.488,96.676 130.288,96.676 130.288,93.576 129.488,93.576 129.488,87.775 130.288,87.775 130.288,84.676 129.488,84.676 129.488,83.676"
     style="fill:none;stroke-width:0.050000mm;stroke:black"
     id="polygon30" />
  <polygon
     points="134.538,83.676 134.538,84.676 133.738,84.676 133.738,87.775 134.538,87.775 134.538,93.576 133.738,93.576 133.738,96.676 134.538,96.676 134.538,97.676 148.538,97.676 148.538,96.676 149.338,96.676 149.338,93.576 148.538,93.576 148.538,87.775 149.338,87.775 149.338,84.676 148.538,84.676 148.538,83.676"
     style="fill:none;stroke-width:0.050000mm;stroke:black"
     id="polygon32" />
  <polygon
     points="153.588,83.676 153.588,84.676 152.788,84.676 152.788,87.775 153.588,87.775 153.588,93.576 152.788,93.576 152.788,96.676 153.588,96.676 153.588,97.676 167.588,97.676 167.588,96.676 168.388,96.676 168.388,93.576 167.588,93.576 167.588,87.775 168.388,87.775 168.388,84.676 167.588,84.676 167.588,83.676"
     style="fill:none;stroke-width:0.050000mm;stroke:black"
     id="polygon34" />
  <polygon
     points="172.638,83.676 172.638,84.676 171.838,84.676 171.838,87.775 172.638,87.775 172.638,93.576 171.838,93.576 171.838,96.676 172.638,96.676 172.638,97.676 186.638,97.676 186.638,96.676 187.438,96.676 187.438,93.576 186.638,93.576 186.638,87.775 187.438,87.775 187.438,84.676 186.638,84.676 186.638,83.676"
     style="fill:none;stroke-width:0.050000mm;stroke:black"
     id="polygon36" />
  <polygon
     points="191.688,83.676 191.688,84.676 190.888,84.676 190.888,87.775 191.688,87.775 191.688,93.576 190.888,93.576 190.888,96.676 191.688,96.676 191.688,97.676 205.688,97.676 205.688,96.676 206.488,96.676 206.488,93.576 205.688,93.576 205.688,87.775 206.488,87.775 206.488,84.676 205.688,84.676 205.688,83.676"
     style="fill:none;stroke-width:0.050000mm;stroke:black"
     id="polygon38" />
  <polygon
     points="210.738,83.676 210.738,84.676 209.938,84.676 209.938,87.775 210.738,87.775 210.738,93.576 209.938,93.576 209.938,96.676 210.738,96.676 210.738,97.676 224.738,97.676 224.738,96.676 225.538,96.676 225.538,93.576 224.738,93.576 224.738,87.775 225.538,87.775 225.538,84.676 224.738,84.676 224.738,83.676"
     style="fill:none;stroke-width:0.050000mm;stroke:black"
     id="polygon40" />
  <polygon
     points="229.788,83.676 229.788,84.676 228.988,84.676 228.988,87.775 229.788,87.775 229.788,93.576 228.988,93.576 228.988,96.676 229.788,96.676 229.788,97.676 243.788,97.676 243.788,96.676 244.588,96.676 244.588,93.576 243.788,93.576 243.788,87.775 244.588,87.775 244.588,84.676 243.788,84.676 243.788,83.676"
     style="fill:none;stroke-width:0.050000mm;stroke:black"
     id="polygon42" />
  <polygon
     points="248.838,83.676 248.838,84.676 248.038,84.676 248.038,87.775 248.838,87.775 248.838,93.576 248.038,93.576 248.038,96.676 248.838,96.676 248.838,97.676 262.838,97.676 262.838,96.676 263.638,96.676 263.638,93.576 262.838,93.576 262.838,87.775 263.638,87.775 263.638,84.676 262.838,84.676 262.838,83.676"
     style="fill:none;stroke-width:0.050000mm;stroke:black"
     id="polygon44" />
  <polygon
     points="275.032,83.676 275.032,84.676 274.232,84.676 274.232,87.775 275.032,87.775 275.032,93.576 274.232,93.576 274.232,96.676 275.032,96.676 275.032,97.676 289.032,97.676 289.032,96.676 289.832,96.676 289.832,93.576 289.032,93.576 289.032,87.775 289.832,87.775 289.832,84.676 289.032,84.676 289.032,83.676"
     style="fill:none;stroke-width:0.050000mm;stroke:black"
     id="polygon46" />
  <polygon
     points="301.226,83.676 301.226,84.676 300.426,84.676 300.426,87.775 301.226,87.775 301.226,93.576 300.426,93.576 300.426,96.676 301.226,96.676 301.226,97.676 315.226,97.676 315.226,96.676 316.026,96.676 316.026,93.576 315.226,93.576 315.226,87.775 316.026,87.775 316.026,84.676 315.226,84.676 315.226,83.676"
     style="fill:none;stroke-width:0.050000mm;stroke:black"
     id="polygon48" />
  <polygon
     points="289.319,64.626 289.319,65.626 288.519,65.626 288.519,68.726 289.319,68.726 289.319,69.326 287.794,69.326 287.794,66.096 281.044,66.096 281.044,69.326 280.219,69.326 280.219,72.126 281.044,72.126 281.044,78.396 282.769,78.396 282.769,79.596 286.069,79.596 286.069,78.396 287.794,78.396 287.794,73.926 289.319,73.926 289.319,74.526 288.519,74.526 288.519,77.626 289.319,77.626 289.319,78.626 303.319,78.626 303.319,77.626 304.119,77.626 304.119,74.526 303.319,74.526 303.319,73.926 304.844,73.926 304.844,78.396 306.569,78.396 306.569,79.596 309.869,79.596 309.869,78.396 311.594,78.396 311.594,72.126 312.419,72.126 312.419,69.326 311.594,69.326 311.594,66.096 304.844,66.096 304.844,69.326 303.319,69.326 303.319,68.726 304.119,68.726 304.119,65.626 303.319,65.626 303.319,64.626"
     style="fill:none;stroke-width:0.050000mm;stroke:black"
     id="polygon50" />
  <polygon
     points="41.669,64.626 41.669,65.626 40.869,65.626 40.869,68.726 41.669,68.726 41.669,74.526 40.869,74.526 40.869,77.626 41.669,77.626 41.669,78.626 55.669,78.626 55.669,77.626 56.469,77.626 56.469,74.526 55.669,74.526 55.669,68.726 56.469,68.726 56.469,65.626 55.669,65.626 55.669,64.626"
     style="fill:none;stroke-width:0.050000mm;stroke:black"
     id="polygon52" />
  <polygon
     points="67.863,64.626 67.863,65.626 67.063,65.626 67.063,68.726 67.863,68.726 67.863,74.526 67.063,74.526 67.063,77.626 67.863,77.626 67.863,78.626 81.863,78.626 81.863,77.626 82.663,77.626 82.663,74.526 81.863,74.526 81.863,68.726 82.663,68.726 82.663,65.626 81.863,65.626 81.863,64.626"
     style="fill:none;stroke-width:0.050000mm;stroke:black"
     id="polygon54" />
  <polygon
     points="86.913,64.626 86.913,65.626 86.113,65.626 86.113,68.726 86.913,68.726 86.913,74.526 86.113,74.526 86.113,77.626 86.913,77.626 86.913,78.626 100.913,78.626 100.913,77.626 101.713,77.626 101.713,74.526 100.913,74.526 100.913,68.726 101.713,68.726 101.713,65.626 100.913,65.626 100.913,64.626"
     style="fill:none;stroke-width:0.050000mm;stroke:black"
     id="polygon56" />
  <polygon
     points="105.963,64.626 105.963,65.626 105.163,65.626 105.163,68.726 105.963,68.726 105.963,74.526 105.163,74.526 105.163,77.626 105.963,77.626 105.963,78.626 119.963,78.626 119.963,77.626 120.763,77.626 120.763,74.526 119.963,74.526 119.963,68.726 120.763,68.726 120.763,65.626 119.963,65.626 119.963,64.626"
     style="fill:none;stroke-width:0.050000mm;stroke:black"
     id="polygon58" />
  <polygon
     points="125.013,64.626 125.013,65.626 124.213,65.626 124.213,68.726 125.013,68.726 125.013,74.526 124.213,74.526 124.213,77.626 125.013,77.626 125.013,78.626 139.013,78.626 139.013,77.626 139.813,77.626 139.813,74.526 139.013,74.526 139.013,68.726 139.813,68.726 139.813,65.626 139.013,65.626 139.013,64.626"
     style="fill:none;stroke-width:0.050000mm;stroke:black"
     id="polygon60" />
  <polygon
     points="144.063,64.626 144.063,65.626 143.263,65.626 143.263,68.726 144.063,68.726 144.063,74.526 143.263,74.526 143.263,77.626 144.063,77.626 144.063,78.626 158.063,78.626 158.063,77.626 158.863,77.626 158.863,74.526 158.063,74.526 158.063,68.726 158.863,68.726 158.863,65.626 158.063,65.626 158.063,64.626"
     style="fill:none;stroke-width:0.050000mm;stroke:black"
     id="polygon62" />
  <polygon
     points="163.113,64.626 163.113,65.626 162.313,65.626 162.313,68.726 163.113,68.726 163.113,74.526 162.313,74.526 162.313,77.626 163.113,77.626 163.113,78.626 177.113,78.626 177.113,77.626 177.913,77.626 177.913,74.526 177.113,74.526 177.113,68.726 177.913,68.726 177.913,65.626 177.113,65.626 177.113,64.626"
     style="fill:none;stroke-width:0.050000mm;stroke:black"
     id="polygon64" />
  <polygon
     points="182.163,64.626 182.163,65.626 181.363,65.626 181.363,68.726 182.163,68.726 182.163,74.526 181.363,74.526 181.363,77.626 182.163,77.626 182.163,78.626 196.163,78.626 196.163,77.626 196.963,77.626 196.963,74.526 196.163,74.526 196.163,68.726 196.963,68.726 196.963,65.626 196.163,65.626 196.163,64.626"
     style="fill:none;stroke-width:0.050000mm;stroke:black"
     id="polygon66" />
  <polygon
     points="201.213,64.626 201.213,65.626 200.413,65.626 200.413,68.726 201.213,68.726 201.213,74.526 200.413,74.526 200.413,77.626 201.213,77.626 201.213,78.626 215.213,78.626 215.213,77.626 216.013,77.626 216.013,74.526 215.213,74.526 215.213,68.726 216.013,68.726 216.013,65.626 215.213,65.626 215.213,64.626"
     style="fill:none;stroke-width:0.050000mm;stroke:black"
     id="polygon68" />
  <polygon
     points="220.263,64.626 220.263,65.626 219.463,65.626 219.463,68.726 220.263,68.726 220.263,74.526 219.463,74.526 219.463,77.626 220.263,77.626 220.263,78.626 234.263,78.626 234.263,77.626 235.063,77.626 235.063,74.526 234.263,74.526 234.263,68.726 235.063,68.726 235.063,65.626 234.263,65.626 234.263,64.626"
     style="fill:none;stroke-width:0.050000mm;stroke:black"
     id="polygon70" />
  <polygon
     points="239.313,64.626 239.313,65.626 238.513,65.626 238.513,68.726 239.313,68.726 239.313,74.526 238.513,74.526 238.513,77.626 239.313,77.626 239.313,78.626 253.313,78.626 253.313,77.626 254.113,77.626 254.113,74.526 253.313,74.526 253.313,68.726 254.113,68.726 254.113,65.626 253.313,65.626 253.313,64.626"
     style="fill:none;stroke-width:0.050000mm;stroke:black"
     id="polygon72" />
  <polygon
     points="258.363,64.626 258.363,65.626 257.563,65.626 257.563,68.726 258.363,68.726 258.363,74.526 257.563,74.526 257.563,77.626 258.363,77.626 258.363,78.626 272.363,78.626 272.363,77.626 273.163,77.626 273.163,74.526 272.363,74.526 272.363,68.726 273.163,68.726 273.163,65.626 272.363,65.626 272.363,64.626"
     style="fill:none;stroke-width:0.050000mm;stroke:black"
     id="polygon74" />
  <polygon
     points="334.711,69.962 334.223,70.210 333.836,70.597 333.587,71.085 333.502,71.626 333.587,72.167 333.836,72.655 334.223,73.042 334.711,73.290 335.252,73.376 335.792,73.290 336.280,73.042 336.667,72.655 336.916,72.167 337.002,71.626 336.916,71.085 336.667,70.597 336.280,70.210 335.792,69.962 335.252,69.876"
     style="fill:none;stroke-width:0.050000mm;stroke:black"
     id="polygon76" />
  <polygon
     points="13.960,69.962 13.472,70.210 13.085,70.597 12.836,71.085 12.750,71.626 12.836,72.167 13.085,72.655 13.472,73.042 13.960,73.290 14.500,73.376 15.041,73.290 15.529,73.042 15.916,72.655 16.165,72.167 16.249,71.626 16.165,71.085 15.916,70.597 15.529,70.210 15.041,69.962 14.500,69.876"
     style="fill:none;stroke-width:0.050000mm;stroke:black"
     id="polygon78" />
  <polygon
     points="39.288,45.576 39.288,46.576 38.488,46.576 38.488,49.676 39.288,49.676 39.288,55.476 38.488,55.476 38.488,58.576 39.288,58.576 39.288,59.576 53.288,59.576 53.288,58.576 54.088,58.576 54.088,55.476 53.288,55.476 53.288,49.676 54.088,49.676 54.088,46.576 53.288,46.576 53.288,45.576"
     style="fill:none;stroke-width:0.050000mm;stroke:black"
     id="polygon80" />
  <polygon
     points="63.100,45.576 63.100,46.576 62.301,46.576 62.301,49.676 63.100,49.676 63.100,55.476 62.301,55.476 62.301,58.576 63.100,58.576 63.100,59.576 77.101,59.576 77.101,58.576 77.900,58.576 77.900,55.476 77.101,55.476 77.101,49.676 77.900,49.676 77.900,46.576 77.101,46.576 77.101,45.576"
     style="fill:none;stroke-width:0.050000mm;stroke:black"
     id="polygon82" />
  <polygon
     points="82.150,45.576 82.150,46.576 81.351,46.576 81.351,49.676 82.150,49.676 82.150,55.476 81.351,55.476 81.351,58.576 82.150,58.576 82.150,59.576 96.150,59.576 96.150,58.576 96.950,58.576 96.950,55.476 96.150,55.476 96.150,49.676 96.950,49.676 96.950,46.576 96.150,46.576 96.150,45.576"
     style="fill:none;stroke-width:0.050000mm;stroke:black"
     id="polygon84" />
  <polygon
     points="101.200,45.576 101.200,46.576 100.400,46.576 100.400,49.676 101.200,49.676 101.200,55.476 100.400,55.476 100.400,58.576 101.200,58.576 101.200,59.576 115.200,59.576 115.200,58.576 116.000,58.576 116.000,55.476 115.200,55.476 115.200,49.676 116.000,49.676 116.000,46.576 115.200,46.576 115.200,45.576"
     style="fill:none;stroke-width:0.050000mm;stroke:black"
     id="polygon86" />
  <polygon
     points="120.250,45.576 120.250,46.576 119.450,46.576 119.450,49.676 120.250,49.676 120.250,55.476 119.450,55.476 119.450,58.576 120.250,58.576 120.250,59.576 134.251,59.576 134.251,58.576 135.050,58.576 135.050,55.476 134.251,55.476 134.251,49.676 135.050,49.676 135.050,46.576 134.251,46.576 134.251,45.576"
     style="fill:none;stroke-width:0.050000mm;stroke:black"
     id="polygon88" />
  <polygon
     points="139.300,45.576 139.300,46.576 138.500,46.576 138.500,49.676 139.300,49.676 139.300,55.476 138.500,55.476 138.500,58.576 139.300,58.576 139.300,59.576 153.300,59.576 153.300,58.576 154.101,58.576 154.101,55.476 153.300,55.476 153.300,49.676 154.101,49.676 154.101,46.576 153.300,46.576 153.300,45.576"
     style="fill:none;stroke-width:0.050000mm;stroke:black"
     id="polygon90" />
  <polygon
     points="158.351,45.576 158.351,46.576 157.550,46.576 157.550,49.676 158.351,49.676 158.351,55.476 157.550,55.476 157.550,58.576 158.351,58.576 158.351,59.576 172.351,59.576 172.351,58.576 173.151,58.576 173.151,55.476 172.351,55.476 172.351,49.676 173.151,49.676 173.151,46.576 172.351,46.576 172.351,45.576"
     style="fill:none;stroke-width:0.050000mm;stroke:black"
     id="polygon92" />
  <polygon
     points="177.401,45.576 177.401,46.576 176.601,46.576 176.601,49.676 177.401,49.676 177.401,55.476 176.601,55.476 176.601,58.576 177.401,58.576 177.401,59.576 191.401,59.576 191.401,58.576 192.201,58.576 192.201,55.476 191.401,55.476 191.401,49.676 192.201,49.676 192.201,46.576 191.401,46.576 191.401,45.576"
     style="fill:none;stroke-width:0.050000mm;stroke:black"
     id="polygon94" />
  <polygon
     points="196.451,45.576 196.451,46.576 195.651,46.576 195.651,49.676 196.451,49.676 196.451,55.476 195.651,55.476 195.651,58.576 196.451,58.576 196.451,59.576 210.451,59.576 210.451,58.576 211.251,58.576 211.251,55.476 210.451,55.476 210.451,49.676 211.251,49.676 211.251,46.576 210.451,46.576 210.451,45.576"
     style="fill:none;stroke-width:0.050000mm;stroke:black"
     id="polygon96" />
  <polygon
     points="215.501,45.576 215.501,46.576 214.701,46.576 214.701,49.676 215.501,49.676 215.501,55.476 214.701,55.476 214.701,58.576 215.501,58.576 215.501,59.576 229.501,59.576 229.501,58.576 230.301,58.576 230.301,55.476 229.501,55.476 229.501,49.676 230.301,49.676 230.301,46.576 229.501,46.576 229.501,45.576"
     style="fill:none;stroke-width:0.050000mm;stroke:black"
     id="polygon98" />
  <polygon
     points="234.551,45.576 234.551,46.576 233.751,46.576 233.751,49.676 234.551,49.676 234.551,55.476 233.751,55.476 233.751,58.576 234.551,58.576 234.551,59.576 248.551,59.576 248.551,58.576 249.351,58.576 249.351,55.476 248.551,55.476 248.551,49.676 249.351,49.676 249.351,46.576 248.551,46.576 248.551,45.576"
     style="fill:none;stroke-width:0.050000mm;stroke:black"
     id="polygon100" />
  <polygon
     points="253.601,45.576 253.601,46.576 252.801,46.576 252.801,49.676 253.601,49.676 253.601,55.476 252.801,55.476 252.801,58.576 253.601,58.576 253.601,59.576 267.601,59.576 267.601,58.576 268.401,58.576 268.401,55.476 267.601,55.476 267.601,49.676 268.401,49.676 268.401,46.576 267.601,46.576 267.601,45.576"
     style="fill:none;stroke-width:0.050000mm;stroke:black"
     id="polygon102" />
  <polygon
     points="272.651,45.576 272.651,46.576 271.851,46.576 271.851,49.676 272.651,49.676 272.651,55.476 271.851,55.476 271.851,58.576 272.651,58.576 272.651,59.576 286.651,59.576 286.651,58.576 287.451,58.576 287.451,55.476 286.651,55.476 286.651,49.676 287.451,49.676 287.451,46.576 286.651,46.576 286.651,45.576"
     style="fill:none;stroke-width:0.050000mm;stroke:black"
     id="polygon104" />
  <polygon
     points="296.463,45.576 296.463,46.576 295.663,46.576 295.663,49.676 296.463,49.676 296.463,55.476 295.663,55.476 295.663,58.576 296.463,58.576 296.463,59.576 310.463,59.576 310.463,58.576 311.263,58.576 311.263,55.476 310.463,55.476 310.463,49.676 311.263,49.676 311.263,46.576 310.463,46.576 310.463,45.576"
     style="fill:none;stroke-width:0.050000mm;stroke:black"
     id="polygon106" />
  <polygon
     points="34.526,26.526 34.526,27.526 33.726,27.526 33.726,30.626 34.526,30.626 34.526,36.426 33.726,36.426 33.726,39.526 34.526,39.526 34.526,40.526 48.526,40.526 48.526,39.526 49.325,39.526 49.325,36.426 48.526,36.426 48.526,30.626 49.325,30.626 49.325,27.526 48.526,27.526 48.526,26.526"
     style="fill:none;stroke-width:0.050000mm;stroke:black"
     id="polygon108" />
  <polygon
     points="53.576,26.526 53.576,27.526 52.776,27.526 52.776,30.626 53.576,30.626 53.576,36.426 52.776,36.426 52.776,39.526 53.576,39.526 53.576,40.526 67.576,40.526 67.576,39.526 68.376,39.526 68.376,36.426 67.576,36.426 67.576,30.626 68.376,30.626 68.376,27.526 67.576,27.526 67.576,26.526"
     style="fill:none;stroke-width:0.050000mm;stroke:black"
     id="polygon110" />
  <polygon
     points="72.626,26.526 72.626,27.526 71.826,27.526 71.826,30.626 72.626,30.626 72.626,36.426 71.826,36.426 71.826,39.526 72.626,39.526 72.626,40.526 86.626,40.526 86.626,39.526 87.426,39.526 87.426,36.426 86.626,36.426 86.626,30.626 87.426,30.626 87.426,27.526 86.626,27.526 86.626,26.526"
     style="fill:none;stroke-width:0.050000mm;stroke:black"
     id="polygon112" />
  <polygon
     points="91.676,26.526 91.676,27.526 90.876,27.526 90.876,30.626 91.676,30.626 91.676,36.426 90.876,36.426 90.876,39.526 91.676,39.526 91.676,40.526 105.676,40.526 105.676,39.526 106.476,39.526 106.476,36.426 105.676,36.426 105.676,30.626 106.476,30.626 106.476,27.526 105.676,27.526 105.676,26.526"
     style="fill:none;stroke-width:0.050000mm;stroke:black"
     id="polygon114" />
  <polygon
     points="110.726,26.526 110.726,27.526 109.926,27.526 109.926,30.626 110.726,30.626 110.726,36.426 109.926,36.426 109.926,39.526 110.726,39.526 110.726,40.526 124.726,40.526 124.726,39.526 125.525,39.526 125.525,36.426 124.726,36.426 124.726,30.626 125.525,30.626 125.525,27.526 124.726,27.526 124.726,26.526"
     style="fill:none;stroke-width:0.050000mm;stroke:black"
     id="polygon116" />
  <polygon
     points="129.776,26.526 129.776,27.526 128.976,27.526 128.976,30.626 129.776,30.626 129.776,36.426 128.976,36.426 128.976,39.526 129.776,39.526 129.776,40.526 143.776,40.526 143.776,39.526 144.576,39.526 144.576,36.426 143.776,36.426 143.776,30.626 144.576,30.626 144.576,27.526 143.776,27.526 143.776,26.526"
     style="fill:none;stroke-width:0.050000mm;stroke:black"
     id="polygon118" />
  <polygon
     points="148.826,26.526 148.826,27.526 148.026,27.526 148.026,30.626 148.826,30.626 148.826,36.426 148.026,36.426 148.026,39.526 148.826,39.526 148.826,40.526 162.826,40.526 162.826,39.526 163.626,39.526 163.626,36.426 162.826,36.426 162.826,30.626 163.626,30.626 163.626,27.526 162.826,27.526 162.826,26.526"
     style="fill:none;stroke-width:0.050000mm;stroke:black"
     id="polygon120" />
  <polygon
     points="167.876,26.526 167.876,27.526 167.076,27.526 167.076,30.626 167.876,30.626 167.876,36.426 167.076,36.426 167.076,39.526 167.876,39.526 167.876,40.526 181.876,40.526 181.876,39.526 182.676,39.526 182.676,36.426 181.876,36.426 181.876,30.626 182.676,30.626 182.676,27.526 181.876,27.526 181.876,26.526"
     style="fill:none;stroke-width:0.050000mm;stroke:black"
     id="polygon122" />
  <polygon
     points="186.926,26.526 186.926,27.526 186.126,27.526 186.126,30.626 186.926,30.626 186.926,36.426 186.126,36.426 186.126,39.526 186.926,39.526 186.926,40.526 200.926,40.526 200.926,39.526 201.726,39.526 201.726,36.426 200.926,36.426 200.926,30.626 201.726,30.626 201.726,27.526 200.926,27.526 200.926,26.526"
     style="fill:none;stroke-width:0.050000mm;stroke:black"
     id="polygon124" />
  <polygon
     points="205.976,26.526 205.976,27.526 205.176,27.526 205.176,30.626 205.976,30.626 205.976,36.426 205.176,36.426 205.176,39.526 205.976,39.526 205.976,40.526 219.976,40.526 219.976,39.526 220.776,39.526 220.776,36.426 219.976,36.426 219.976,30.626 220.776,30.626 220.776,27.526 219.976,27.526 219.976,26.526"
     style="fill:none;stroke-width:0.050000mm;stroke:black"
     id="polygon126" />
  <polygon
     points="225.026,26.526 225.026,27.526 224.226,27.526 224.226,30.626 225.026,30.626 225.026,36.426 224.226,36.426 224.226,39.526 225.026,39.526 225.026,40.526 239.026,40.526 239.026,39.526 239.826,39.526 239.826,36.426 239.026,36.426 239.026,30.626 239.826,30.626 239.826,27.526 239.026,27.526 239.026,26.526"
     style="fill:none;stroke-width:0.050000mm;stroke:black"
     id="polygon128" />
  <polygon
     points="244.076,26.526 244.076,27.526 243.276,27.526 243.276,30.626 244.076,30.626 244.076,36.426 243.276,36.426 243.276,39.526 244.076,39.526 244.076,40.526 258.076,40.526 258.076,39.526 258.876,39.526 258.876,36.426 258.076,36.426 258.076,30.626 258.876,30.626 258.876,27.526 258.076,27.526 258.076,26.526"
     style="fill:none;stroke-width:0.050000mm;stroke:black"
     id="polygon130" />
  <polygon
     points="263.126,26.526 263.126,27.526 262.326,27.526 262.326,30.626 263.126,30.626 263.126,36.426 262.326,36.426 262.326,39.526 263.126,39.526 263.126,40.526 277.126,40.526 277.126,39.526 277.926,39.526 277.926,36.426 277.126,36.426 277.126,30.626 277.926,30.626 277.926,27.526 277.126,27.526 277.126,26.526"
     style="fill:none;stroke-width:0.050000mm;stroke:black"
     id="polygon132" />
  <polygon
     points="282.176,26.526 282.176,27.526 281.376,27.526 281.376,30.626 282.176,30.626 282.176,36.426 281.376,36.426 281.376,39.526 282.176,39.526 282.176,40.526 296.176,40.526 296.176,39.526 296.976,39.526 296.976,36.426 296.176,36.426 296.176,30.626 296.976,30.626 296.976,27.526 296.176,27.526 296.176,26.526"
     style="fill:none;stroke-width:0.050000mm;stroke:black"
     id="polygon134" />
  <polygon
     points="301.226,26.526 301.226,27.526 300.426,27.526 300.426,30.626 301.226,30.626 301.226,36.426 300.426,36.426 300.426,39.526 301.226,39.526 301.226,40.526 315.226,40.526 315.226,39.526 316.026,39.526 316.026,36.426 315.226,36.426 315.226,30.626 316.026,30.626 316.026,27.526 315.226,27.526 315.226,26.526"
     style="fill:none;stroke-width:0.050000mm;stroke:black"
     id="polygon136" />
  <polygon
     points="94.147,12.836 93.660,13.085 93.272,13.472 93.024,13.960 92.938,14.501 93.024,15.041 93.272,15.529 93.660,15.916 94.147,16.165 94.688,16.251 95.229,16.165 95.717,15.916 96.104,15.529 96.353,15.041 96.438,14.501 96.353,13.960 96.104,13.472 95.717,13.085 95.229,12.836 94.688,12.751"
     style="fill:none;stroke-width:0.050000mm;stroke:black"
     id="polygon138" />
  <polygon
     points="174.335,12.836 173.847,13.085 173.460,13.472 173.212,13.960 173.126,14.501 173.212,15.041 173.460,15.529 173.847,15.916 174.335,16.165 174.876,16.251 175.417,16.165 175.905,15.916 176.292,15.529 176.540,15.041 176.626,14.501 176.540,13.960 176.292,13.472 175.905,13.085 175.417,12.836 174.876,12.751"
     style="fill:none;stroke-width:0.050000mm;stroke:black"
     id="polygon140" />
  <polygon
     points="254.523,12.836 254.035,13.085 253.648,13.472 253.399,13.960 253.314,14.501 253.399,15.041 253.648,15.529 254.035,15.916 254.523,16.165 255.064,16.251 255.605,16.165 256.092,15.916 256.479,15.529 256.727,15.041 256.814,14.501 256.727,13.960 256.479,13.472 256.092,13.085 255.605,12.836 255.064,12.751"
     style="fill:none;stroke-width:0.050000mm;stroke:black"
     id="polygon142" />
  <polygon
     points="334.711,12.836 334.223,13.085 333.836,13.472 333.587,13.960 333.502,14.501 333.587,15.041 333.836,15.529 334.223,15.916 334.711,16.165 335.252,16.251 335.792,16.165 336.280,15.916 336.667,15.529 336.916,15.041 337.002,14.501 336.916,13.960 336.667,13.472 336.280,13.085 335.792,12.836 335.252,12.751"
     style="fill:none;stroke-width:0.050000mm;stroke:black"
     id="polygon144" />
  <polygon
     points="13.960,12.836 13.472,13.085 13.085,13.472 12.836,13.960 12.750,14.501 12.836,15.041 13.085,15.529 13.472,15.916 13.960,16.165 14.500,16.251 15.041,16.165 15.529,15.916 15.916,15.529 16.165,15.041 16.249,14.501 16.165,13.960 15.916,13.472 15.529,13.085 15.041,12.836 14.500,12.751"
     style="fill:none;stroke-width:0.050000mm;stroke:black"
     id="polygon146" />
</svg>
