<?xml version="1.0" encoding="UTF-8" standalone="no"?>
<!-- Generated by SVGo -->

<svg
   width="349.752mm"
   height="143.252mm"
   viewBox="0.000 0.000 349.752 143.252"
   version="1.1"
   id="svg26"
   sodipodi:docname="open-layer-inkscape.svg"
   inkscape:version="1.2.2 (b0a8486541, 2022-12-01)"
   xmlns:inkscape="http://www.inkscape.org/namespaces/inkscape"
   xmlns:sodipodi="http://sodipodi.sourceforge.net/DTD/sodipodi-0.dtd"
   xmlns="http://www.w3.org/2000/svg"
   xmlns:svg="http://www.w3.org/2000/svg">
  <defs
     id="defs30" />
  <sodipodi:namedview
     id="namedview28"
     pagecolor="#ffffff"
     bordercolor="#000000"
     borderopacity="0.25"
     inkscape:showpageshadow="2"
     inkscape:pageopacity="0.0"
     inkscape:pagecheckerboard="0"
     inkscape:deskcolor="#d1d1d1"
     inkscape:document-units="mm"
     showgrid="false"
     inkscape:zoom="0.43588688"
     inkscape:cx="661.86897"
     inkscape:cy="270.71244"
     inkscape:window-width="1024"
     inkscape:window-height="699"
     inkscape:window-x="0"
     inkscape:window-y="32"
     inkscape:window-maximized="1"
     inkscape:current-layer="svg26" />
  <polygon
     points="169.876,5.000 169.876,24.001 24.001,24.001 24.001,119.251 325.752,119.251 325.752,24.001 179.876,24.001 179.876,5.001 339.752,5.001 340.144,5.016 340.534,5.062 340.919,5.139 341.297,5.245 341.665,5.381 342.021,5.545 342.364,5.737 342.690,5.955 342.999,6.198 343.287,6.465 343.554,6.753 343.797,7.062 344.015,7.388 344.207,7.731 344.371,8.087 344.507,8.455 344.613,8.833 344.690,9.218 344.736,9.608 344.752,10.001 344.752,133.251 344.736,133.644 344.690,134.034 344.613,134.419 344.507,134.797 344.371,135.165 344.207,135.521 344.015,135.864 343.797,136.190 343.554,136.499 343.287,136.787 342.999,137.054 342.690,137.297 342.364,137.515 342.021,137.707 341.665,137.871 341.297,138.007 340.919,138.113 340.534,138.190 340.144,138.236 339.752,138.252 10.001,138.251 9.608,138.236 9.218,138.190 8.833,138.113 8.455,138.007 8.087,137.871 7.731,137.707 7.388,137.515 7.062,137.297 6.753,137.054 6.465,136.787 6.198,136.499 5.955,136.190 5.737,135.864 5.545,135.521 5.381,135.165 5.245,134.797 5.139,134.419 5.062,134.034 5.016,133.644 5.000,133.251 5.001,10.001 5.016,9.608 5.062,9.218 5.139,8.833 5.245,8.455 5.381,8.087 5.545,7.731 5.737,7.388 5.955,7.062 6.198,6.753 6.465,6.465 6.753,6.198 7.062,5.955 7.388,5.737 7.731,5.545 8.087,5.381 8.455,5.245 8.833,5.139 9.218,5.062 9.608,5.016 10.001,5.000"
     style="fill:none;stroke-width:0.050000mm;stroke:black"
     id="polygon2" />
  <polygon
     points="334.711,127.087 334.223,127.336 333.836,127.723 333.587,128.211 333.502,128.751 333.587,129.292 333.836,129.780 334.223,130.167 334.711,130.415 335.252,130.501 335.792,130.415 336.280,130.167 336.667,129.780 336.916,129.292 337.002,128.751 336.916,128.211 336.667,127.723 336.280,127.336 335.792,127.087 335.252,127.001"
     style="fill:none;stroke-width:0.050000mm;stroke:black"
     id="polygon4" />
  <polygon
     points="254.523,127.087 254.035,127.336 253.648,127.723 253.399,128.211 253.314,128.751 253.399,129.292 253.648,129.780 254.035,130.167 254.523,130.415 255.064,130.501 255.605,130.415 256.092,130.167 256.479,129.780 256.727,129.292 256.814,128.751 256.727,128.211 256.479,127.723 256.092,127.336 255.605,127.087 255.064,127.001"
     style="fill:none;stroke-width:0.050000mm;stroke:black"
     id="polygon6" />
  <polygon
     points="174.335,127.087 173.847,127.336 173.460,127.723 173.212,128.211 173.126,128.751 173.212,129.292 173.460,129.780 173.847,130.167 174.335,130.415 174.876,130.501 175.417,130.415 175.905,130.167 176.292,129.780 176.540,129.292 176.626,128.751 176.540,128.211 176.292,127.723 175.905,127.336 175.417,127.087 174.876,127.001"
     style="fill:none;stroke-width:0.050000mm;stroke:black"
     id="polygon8" />
  <polygon
     points="94.147,127.087 93.660,127.336 93.272,127.723 93.024,128.211 92.938,128.751 93.024,129.292 93.272,129.780 93.660,130.167 94.147,130.415 94.688,130.501 95.229,130.415 95.717,130.167 96.104,129.780 96.353,129.292 96.438,128.751 96.353,128.211 96.104,127.723 95.717,127.336 95.229,127.087 94.688,127.001"
     style="fill:none;stroke-width:0.050000mm;stroke:black"
     id="polygon10" />
  <polygon
     points="13.960,127.087 13.472,127.336 13.085,127.723 12.836,128.211 12.750,128.751 12.836,129.292 13.085,129.780 13.472,130.167 13.960,130.415 14.500,130.501 15.041,130.415 15.529,130.167 15.916,129.780 16.165,129.292 16.249,128.751 16.165,128.211 15.916,127.723 15.529,127.336 15.041,127.087 14.500,127.001"
     style="fill:none;stroke-width:0.050000mm;stroke:black"
     id="polygon12" />
  <polygon
     points="334.711,69.962 334.223,70.210 333.836,70.597 333.587,71.085 333.502,71.626 333.587,72.167 333.836,72.655 334.223,73.042 334.711,73.290 335.252,73.376 335.792,73.290 336.280,73.042 336.667,72.655 336.916,72.167 337.002,71.626 336.916,71.085 336.667,70.597 336.280,70.210 335.792,69.962 335.252,69.876"
     style="fill:none;stroke-width:0.050000mm;stroke:black"
     id="polygon14" />
  <polygon
     points="13.960,69.962 13.472,70.210 13.085,70.597 12.836,71.085 12.750,71.626 12.836,72.167 13.085,72.655 13.472,73.042 13.960,73.290 14.500,73.376 15.041,73.290 15.529,73.042 15.916,72.655 16.165,72.167 16.249,71.626 16.165,71.085 15.916,70.597 15.529,70.210 15.041,69.962 14.500,69.876"
     style="fill:none;stroke-width:0.050000mm;stroke:black"
     id="polygon16" />
  <polygon
     points="94.147,12.836 93.660,13.085 93.272,13.472 93.024,13.960 92.938,14.501 93.024,15.041 93.272,15.529 93.660,15.916 94.147,16.165 94.688,16.251 95.229,16.165 95.717,15.916 96.104,15.529 96.353,15.041 96.438,14.501 96.353,13.960 96.104,13.472 95.717,13.085 95.229,12.836 94.688,12.751"
     style="fill:none;stroke-width:0.050000mm;stroke:black"
     id="polygon18" />
  <polygon
     points="254.523,12.836 254.035,13.085 253.648,13.472 253.399,13.960 253.314,14.501 253.399,15.041 253.648,15.529 254.035,15.916 254.523,16.165 255.064,16.251 255.605,16.165 256.092,15.916 256.479,15.529 256.727,15.041 256.814,14.501 256.727,13.960 256.479,13.472 256.092,13.085 255.605,12.836 255.064,12.751"
     style="fill:none;stroke-width:0.050000mm;stroke:black"
     id="polygon20" />
  <polygon
     points="334.711,12.836 334.223,13.085 333.836,13.472 333.587,13.960 333.502,14.501 333.587,15.041 333.836,15.529 334.223,15.916 334.711,16.165 335.252,16.251 335.792,16.165 336.280,15.916 336.667,15.529 336.916,15.041 337.002,14.501 336.916,13.960 336.667,13.472 336.280,13.085 335.792,12.836 335.252,12.751"
     style="fill:none;stroke-width:0.050000mm;stroke:black"
     id="polygon22" />
  <polygon
     points="13.960,12.836 13.472,13.085 13.085,13.472 12.836,13.960 12.750,14.501 12.836,15.041 13.085,15.529 13.472,15.916 13.960,16.165 14.500,16.251 15.041,16.165 15.529,15.916 15.916,15.529 16.165,15.041 16.249,14.501 16.165,13.960 15.916,13.472 15.529,13.085 15.041,12.836 14.500,12.751"
     style="fill:none;stroke-width:0.050000mm;stroke:black"
     id="polygon24" />
</svg>
