  0
SECTION
  2
HEADER
  9
$ACADVER
  1
AC1009
  9
$FILLMODE
 70
 0
  9
$SPLFRAME
 70
 1
  9
$EXTMIN
 10
0
 20
0
 30
0.0
  9
$EXTMAX
 10
1058.33
 20
1058.33
 30
0.0
  0
ENDSEC
  0
SECTION
  2
TABLES
  0
TABLE
  2
LAYER
 70
1
  0
LAYER
  2
0
 70
     0
 62
     7
  6
CONTINUOUS
  0
ENDTAB
  0
ENDSEC
  0
SECTION
  2
ENTITIES
  0
LINE
  8
0
 62
     0
 10
334.847
 20
133.608
 30
0.0
 11
335.238
 21
133.593
 31
0.0
  0
LINE
  8
0
 62
     0
 10
335.238
 20
133.593
 30
0.0
 11
335.628
 21
133.546
 31
0.0
  0
LINE
  8
0
 62
     0
 10
335.628
 20
133.546
 30
0.0
 11
336.014
 21
133.47
 31
0.0
  0
LINE
  8
0
 62
     0
 10
336.014
 20
133.47
 30
0.0
 11
336.392
 21
133.364
 31
0.0
  0
LINE
  8
0
 62
     0
 10
336.392
 20
133.364
 30
0.0
 11
336.76
 21
133.227
 31
0.0
  0
LINE
  8
0
 62
     0
 10
336.76
 20
133.227
 30
0.0
 11
337.115
 21
133.064
 31
0.0
  0
LINE
  8
0
 62
     0
 10
337.115
 20
133.064
 30
0.0
 11
337.458
 21
132.872
 31
0.0
  0
LINE
  8
0
 62
     0
 10
337.458
 20
132.872
 30
0.0
 11
337.785
 21
132.653
 31
0.0
  0
LINE
  8
0
 62
     0
 10
337.785
 20
132.653
 30
0.0
 11
338.093
 21
132.41
 31
0.0
  0
LINE
  8
0
 62
     0
 10
338.093
 20
132.41
 30
0.0
 11
338.381
 21
132.143
 31
0.0
  0
LINE
  8
0
 62
     0
 10
338.381
 20
132.143
 30
0.0
 11
338.649
 21
131.855
 31
0.0
  0
LINE
  8
0
 62
     0
 10
338.649
 20
131.855
 30
0.0
 11
338.891
 21
131.546
 31
0.0
  0
LINE
  8
0
 62
     0
 10
338.891
 20
131.546
 30
0.0
 11
339.109
 21
131.221
 31
0.0
  0
LINE
  8
0
 62
     0
 10
339.109
 20
131.221
 30
0.0
 11
339.302
 21
130.878
 31
0.0
  0
LINE
  8
0
 62
     0
 10
339.302
 20
130.878
 30
0.0
 11
339.466
 21
130.521
 31
0.0
  0
LINE
  8
0
 62
     0
 10
339.466
 20
130.521
 30
0.0
 11
339.601
 21
130.153
 31
0.0
  0
LINE
  8
0
 62
     0
 10
339.601
 20
130.153
 30
0.0
 11
339.707
 21
129.775
 31
0.0
  0
LINE
  8
0
 62
     0
 10
339.707
 20
129.775
 30
0.0
 11
339.784
 21
129.391
 31
0.0
  0
LINE
  8
0
 62
     0
 10
339.784
 20
129.391
 30
0.0
 11
339.831
 21
129.001
 31
0.0
  0
LINE
  8
0
 62
     0
 10
339.831
 20
129.001
 30
0.0
 11
339.846
 21
128.607
 31
0.0
  0
LINE
  8
0
 62
     0
 10
339.846
 20
128.607
 30
0.0
 11
339.846
 21
5.35781
 31
0.0
  0
LINE
  8
0
 62
     0
 10
339.846
 20
5.35781
 30
0.0
 11
339.831
 21
4.96369
 31
0.0
  0
LINE
  8
0
 62
     0
 10
339.831
 20
4.96369
 30
0.0
 11
339.784
 21
4.57369
 31
0.0
  0
LINE
  8
0
 62
     0
 10
339.784
 20
4.57369
 30
0.0
 11
339.707
 21
4.18924
 31
0.0
  0
LINE
  8
0
 62
     0
 10
339.707
 20
4.18924
 30
0.0
 11
339.601
 21
3.81166
 31
0.0
  0
LINE
  8
0
 62
     0
 10
339.601
 20
3.81166
 30
0.0
 11
339.466
 21
3.44372
 31
0.0
  0
LINE
  8
0
 62
     0
 10
339.466
 20
3.44372
 30
0.0
 11
339.302
 21
3.08681
 31
0.0
  0
LINE
  8
0
 62
     0
 10
339.302
 20
3.08681
 30
0.0
 11
339.109
 21
2.74367
 31
0.0
  0
LINE
  8
0
 62
     0
 10
339.109
 20
2.74367
 30
0.0
 11
338.891
 21
2.41846
 31
0.0
  0
LINE
  8
0
 62
     0
 10
338.891
 20
2.41846
 30
0.0
 11
338.649
 21
2.10978
 31
0.0
  0
LINE
  8
0
 62
     0
 10
338.649
 20
2.10978
 30
0.0
 11
338.381
 21
1.82177
 31
0.0
  0
LINE
  8
0
 62
     0
 10
338.381
 20
1.82177
 30
0.0
 11
338.093
 21
1.55443
 31
0.0
  0
LINE
  8
0
 62
     0
 10
338.093
 20
1.55443
 30
0.0
 11
337.785
 21
1.31189
 31
0.0
  0
LINE
  8
0
 62
     0
 10
337.785
 20
1.31189
 30
0.0
 11
337.458
 21
1.09279
 31
0.0
  0
LINE
  8
0
 62
     0
 10
337.458
 20
1.09279
 30
0.0
 11
337.115
 21
0.901238
 31
0.0
  0
LINE
  8
0
 62
     0
 10
337.115
 20
0.901238
 30
0.0
 11
336.76
 21
0.737249
 31
0.0
  0
LINE
  8
0
 62
     0
 10
336.76
 20
0.737249
 30
0.0
 11
336.392
 21
0.600826
 31
0.0
  0
LINE
  8
0
 62
     0
 10
336.392
 20
0.600826
 30
0.0
 11
336.014
 21
0.494714
 31
0.0
  0
LINE
  8
0
 62
     0
 10
336.014
 20
0.494714
 30
0.0
 11
335.628
 21
0.418924
 31
0.0
  0
LINE
  8
0
 62
     0
 10
335.628
 20
0.418924
 30
0.0
 11
335.238
 21
0.372071
 31
0.0
  0
LINE
  8
0
 62
     0
 10
335.238
 20
0.372071
 30
0.0
 11
334.847
 21
0.356912
 31
0.0
  0
LINE
  8
0
 62
     0
 10
334.847
 20
0.356912
 30
0.0
 11
5.09598
 21
0.356912
 31
0.0
  0
LINE
  8
0
 62
     0
 10
5.09598
 20
0.356912
 30
0.0
 11
4.70186
 21
0.372071
 31
0.0
  0
LINE
  8
0
 62
     0
 10
4.70186
 20
0.372071
 30
0.0
 11
4.3119
 21
0.418924
 31
0.0
  0
LINE
  8
0
 62
     0
 10
4.3119
 20
0.418924
 30
0.0
 11
3.9274
 21
0.494714
 31
0.0
  0
LINE
  8
0
 62
     0
 10
3.9274
 20
0.494714
 30
0.0
 11
3.54983
 21
0.600826
 31
0.0
  0
LINE
  8
0
 62
     0
 10
3.54983
 20
0.600826
 30
0.0
 11
3.18189
 21
0.737249
 31
0.0
  0
LINE
  8
0
 62
     0
 10
3.18189
 20
0.737249
 30
0.0
 11
2.82498
 21
0.901238
 31
0.0
  0
LINE
  8
0
 62
     0
 10
2.82498
 20
0.901238
 30
0.0
 11
2.48185
 21
1.09279
 31
0.0
  0
LINE
  8
0
 62
     0
 10
2.48185
 20
1.09279
 30
0.0
 11
2.15663
 21
1.31189
 31
0.0
  0
LINE
  8
0
 62
     0
 10
2.15663
 20
1.31189
 30
0.0
 11
1.84795
 21
1.55443
 31
0.0
  0
LINE
  8
0
 62
     0
 10
1.84795
 20
1.55443
 30
0.0
 11
1.55994
 21
1.82177
 31
0.0
  0
LINE
  8
0
 62
     0
 10
1.55994
 20
1.82177
 30
0.0
 11
1.2926
 21
2.10978
 31
0.0
  0
LINE
  8
0
 62
     0
 10
1.2926
 20
2.10978
 30
0.0
 11
1.05006
 21
2.41846
 31
0.0
  0
LINE
  8
0
 62
     0
 10
1.05006
 20
2.41846
 30
0.0
 11
0.830957
 21
2.74367
 31
0.0
  0
LINE
  8
0
 62
     0
 10
0.830957
 20
2.74367
 30
0.0
 11
0.63941
 21
3.08681
 31
0.0
  0
LINE
  8
0
 62
     0
 10
0.63941
 20
3.08681
 30
0.0
 11
0.475424
 21
3.44372
 31
0.0
  0
LINE
  8
0
 62
     0
 10
0.475424
 20
3.44372
 30
0.0
 11
0.338998
 21
3.81166
 31
0.0
  0
LINE
  8
0
 62
     0
 10
0.338998
 20
3.81166
 30
0.0
 11
0.232888
 21
4.18924
 31
0.0
  0
LINE
  8
0
 62
     0
 10
0.232888
 20
4.18924
 30
0.0
 11
0.157097
 21
4.57369
 31
0.0
  0
LINE
  8
0
 62
     0
 10
0.157097
 20
4.57369
 30
0.0
 11
0.110243
 21
4.96369
 31
0.0
  0
LINE
  8
0
 62
     0
 10
0.110243
 20
4.96369
 30
0.0
 11
0.0950846
 21
5.35781
 31
0.0
  0
LINE
  8
0
 62
     0
 10
0.0950846
 20
5.35781
 30
0.0
 11
0.0950846
 21
128.607
 31
0.0
  0
LINE
  8
0
 62
     0
 10
0.0950846
 20
128.607
 30
0.0
 11
0.110243
 21
129.001
 31
0.0
  0
LINE
  8
0
 62
     0
 10
0.110243
 20
129.001
 30
0.0
 11
0.157097
 21
129.391
 31
0.0
  0
LINE
  8
0
 62
     0
 10
0.157097
 20
129.391
 30
0.0
 11
0.232888
 21
129.775
 31
0.0
  0
LINE
  8
0
 62
     0
 10
0.232888
 20
129.775
 30
0.0
 11
0.338998
 21
130.153
 31
0.0
  0
LINE
  8
0
 62
     0
 10
0.338998
 20
130.153
 30
0.0
 11
0.475424
 21
130.521
 31
0.0
  0
LINE
  8
0
 62
     0
 10
0.475424
 20
130.521
 30
0.0
 11
0.63941
 21
130.878
 31
0.0
  0
LINE
  8
0
 62
     0
 10
0.63941
 20
130.878
 30
0.0
 11
0.830957
 21
131.221
 31
0.0
  0
LINE
  8
0
 62
     0
 10
0.830957
 20
131.221
 30
0.0
 11
1.05006
 21
131.546
 31
0.0
  0
LINE
  8
0
 62
     0
 10
1.05006
 20
131.546
 30
0.0
 11
1.2926
 21
131.855
 31
0.0
  0
LINE
  8
0
 62
     0
 10
1.2926
 20
131.855
 30
0.0
 11
1.55994
 21
132.143
 31
0.0
  0
LINE
  8
0
 62
     0
 10
1.55994
 20
132.143
 30
0.0
 11
1.84795
 21
132.41
 31
0.0
  0
LINE
  8
0
 62
     0
 10
1.84795
 20
132.41
 30
0.0
 11
2.15663
 21
132.653
 31
0.0
  0
LINE
  8
0
 62
     0
 10
2.15663
 20
132.653
 30
0.0
 11
2.48185
 21
132.872
 31
0.0
  0
LINE
  8
0
 62
     0
 10
2.48185
 20
132.872
 30
0.0
 11
2.82498
 21
133.064
 31
0.0
  0
LINE
  8
0
 62
     0
 10
2.82498
 20
133.064
 30
0.0
 11
3.18189
 21
133.227
 31
0.0
  0
LINE
  8
0
 62
     0
 10
3.18189
 20
133.227
 30
0.0
 11
3.54983
 21
133.364
 31
0.0
  0
LINE
  8
0
 62
     0
 10
3.54983
 20
133.364
 30
0.0
 11
3.9274
 21
133.47
 31
0.0
  0
LINE
  8
0
 62
     0
 10
3.9274
 20
133.47
 30
0.0
 11
4.3119
 21
133.546
 31
0.0
  0
LINE
  8
0
 62
     0
 10
4.3119
 20
133.546
 30
0.0
 11
4.70186
 21
133.593
 31
0.0
  0
LINE
  8
0
 62
     0
 10
4.70186
 20
133.593
 30
0.0
 11
5.09598
 21
133.608
 31
0.0
  0
LINE
  8
0
 62
     0
 10
5.09598
 20
133.608
 30
0.0
 11
334.847
 21
133.608
 31
0.0
  0
LINE
  8
0
 62
     0
 10
329.806
 20
11.5218
 30
0.0
 11
329.318
 21
11.2723
 31
0.0
  0
LINE
  8
0
 62
     0
 10
329.318
 20
11.2723
 30
0.0
 11
328.931
 21
10.8851
 31
0.0
  0
LINE
  8
0
 62
     0
 10
328.931
 20
10.8851
 30
0.0
 11
328.681
 21
10.3973
 31
0.0
  0
LINE
  8
0
 62
     0
 10
328.681
 20
10.3973
 30
0.0
 11
328.596
 21
9.85711
 31
0.0
  0
LINE
  8
0
 62
     0
 10
328.596
 20
9.85711
 30
0.0
 11
328.681
 21
9.31693
 31
0.0
  0
LINE
  8
0
 62
     0
 10
328.681
 20
9.31693
 30
0.0
 11
328.931
 21
8.8277
 31
0.0
  0
LINE
  8
0
 62
     0
 10
328.931
 20
8.8277
 30
0.0
 11
329.318
 21
8.44187
 31
0.0
  0
LINE
  8
0
 62
     0
 10
329.318
 20
8.44187
 30
0.0
 11
329.806
 21
8.19383
 31
0.0
  0
LINE
  8
0
 62
     0
 10
329.806
 20
8.19383
 30
0.0
 11
330.346
 21
8.10701
 31
0.0
  0
LINE
  8
0
 62
     0
 10
330.346
 20
8.10701
 30
0.0
 11
330.886
 21
8.19383
 31
0.0
  0
LINE
  8
0
 62
     0
 10
330.886
 20
8.19383
 30
0.0
 11
331.374
 21
8.44187
 31
0.0
  0
LINE
  8
0
 62
     0
 10
331.374
 20
8.44187
 30
0.0
 11
331.761
 21
8.8277
 31
0.0
  0
LINE
  8
0
 62
     0
 10
331.761
 20
8.8277
 30
0.0
 11
332.011
 21
9.31693
 31
0.0
  0
LINE
  8
0
 62
     0
 10
332.011
 20
9.31693
 30
0.0
 11
332.096
 21
9.85711
 31
0.0
  0
LINE
  8
0
 62
     0
 10
332.096
 20
9.85711
 30
0.0
 11
332.011
 21
10.3973
 31
0.0
  0
LINE
  8
0
 62
     0
 10
332.011
 20
10.3973
 30
0.0
 11
331.761
 21
10.8851
 31
0.0
  0
LINE
  8
0
 62
     0
 10
331.761
 20
10.8851
 30
0.0
 11
331.374
 21
11.2723
 31
0.0
  0
LINE
  8
0
 62
     0
 10
331.374
 20
11.2723
 30
0.0
 11
330.886
 21
11.5218
 31
0.0
  0
LINE
  8
0
 62
     0
 10
330.886
 20
11.5218
 30
0.0
 11
330.346
 21
11.6072
 31
0.0
  0
LINE
  8
0
 62
     0
 10
330.346
 20
11.6072
 30
0.0
 11
329.806
 21
11.5218
 31
0.0
  0
LINE
  8
0
 62
     0
 10
249.618
 20
11.5218
 30
0.0
 11
249.13
 21
11.2723
 31
0.0
  0
LINE
  8
0
 62
     0
 10
249.13
 20
11.2723
 30
0.0
 11
248.743
 21
10.8851
 31
0.0
  0
LINE
  8
0
 62
     0
 10
248.743
 20
10.8851
 30
0.0
 11
248.493
 21
10.3973
 31
0.0
  0
LINE
  8
0
 62
     0
 10
248.493
 20
10.3973
 30
0.0
 11
248.408
 21
9.85711
 31
0.0
  0
LINE
  8
0
 62
     0
 10
248.408
 20
9.85711
 30
0.0
 11
248.493
 21
9.31693
 31
0.0
  0
LINE
  8
0
 62
     0
 10
248.493
 20
9.31693
 30
0.0
 11
248.743
 21
8.8277
 31
0.0
  0
LINE
  8
0
 62
     0
 10
248.743
 20
8.8277
 30
0.0
 11
249.13
 21
8.44187
 31
0.0
  0
LINE
  8
0
 62
     0
 10
249.13
 20
8.44187
 30
0.0
 11
249.618
 21
8.19383
 31
0.0
  0
LINE
  8
0
 62
     0
 10
249.618
 20
8.19383
 30
0.0
 11
250.158
 21
8.10701
 31
0.0
  0
LINE
  8
0
 62
     0
 10
250.158
 20
8.10701
 30
0.0
 11
250.7
 21
8.19383
 31
0.0
  0
LINE
  8
0
 62
     0
 10
250.7
 20
8.19383
 30
0.0
 11
251.186
 21
8.44187
 31
0.0
  0
LINE
  8
0
 62
     0
 10
251.186
 20
8.44187
 30
0.0
 11
251.573
 21
8.8277
 31
0.0
  0
LINE
  8
0
 62
     0
 10
251.573
 20
8.8277
 30
0.0
 11
251.821
 21
9.31693
 31
0.0
  0
LINE
  8
0
 62
     0
 10
251.821
 20
9.31693
 30
0.0
 11
251.908
 21
9.85711
 31
0.0
  0
LINE
  8
0
 62
     0
 10
251.908
 20
9.85711
 30
0.0
 11
251.821
 21
10.3973
 31
0.0
  0
LINE
  8
0
 62
     0
 10
251.821
 20
10.3973
 30
0.0
 11
251.573
 21
10.8851
 31
0.0
  0
LINE
  8
0
 62
     0
 10
251.573
 20
10.8851
 30
0.0
 11
251.186
 21
11.2723
 31
0.0
  0
LINE
  8
0
 62
     0
 10
251.186
 20
11.2723
 30
0.0
 11
250.7
 21
11.5218
 31
0.0
  0
LINE
  8
0
 62
     0
 10
250.7
 20
11.5218
 30
0.0
 11
250.158
 21
11.6072
 31
0.0
  0
LINE
  8
0
 62
     0
 10
250.158
 20
11.6072
 30
0.0
 11
249.618
 21
11.5218
 31
0.0
  0
LINE
  8
0
 62
     0
 10
169.43
 20
11.5218
 30
0.0
 11
168.942
 21
11.2723
 31
0.0
  0
LINE
  8
0
 62
     0
 10
168.942
 20
11.2723
 30
0.0
 11
168.555
 21
10.8851
 31
0.0
  0
LINE
  8
0
 62
     0
 10
168.555
 20
10.8851
 30
0.0
 11
168.307
 21
10.3973
 31
0.0
  0
LINE
  8
0
 62
     0
 10
168.307
 20
10.3973
 30
0.0
 11
168.22
 21
9.85711
 31
0.0
  0
LINE
  8
0
 62
     0
 10
168.22
 20
9.85711
 30
0.0
 11
168.307
 21
9.31693
 31
0.0
  0
LINE
  8
0
 62
     0
 10
168.307
 20
9.31693
 30
0.0
 11
168.555
 21
8.8277
 31
0.0
  0
LINE
  8
0
 62
     0
 10
168.555
 20
8.8277
 30
0.0
 11
168.942
 21
8.44187
 31
0.0
  0
LINE
  8
0
 62
     0
 10
168.942
 20
8.44187
 30
0.0
 11
169.43
 21
8.19383
 31
0.0
  0
LINE
  8
0
 62
     0
 10
169.43
 20
8.19383
 30
0.0
 11
169.97
 21
8.10701
 31
0.0
  0
LINE
  8
0
 62
     0
 10
169.97
 20
8.10701
 30
0.0
 11
170.512
 21
8.19383
 31
0.0
  0
LINE
  8
0
 62
     0
 10
170.512
 20
8.19383
 30
0.0
 11
171
 21
8.44187
 31
0.0
  0
LINE
  8
0
 62
     0
 10
171
 20
8.44187
 30
0.0
 11
171.387
 21
8.8277
 31
0.0
  0
LINE
  8
0
 62
     0
 10
171.387
 20
8.8277
 30
0.0
 11
171.635
 21
9.31693
 31
0.0
  0
LINE
  8
0
 62
     0
 10
171.635
 20
9.31693
 30
0.0
 11
171.72
 21
9.85711
 31
0.0
  0
LINE
  8
0
 62
     0
 10
171.72
 20
9.85711
 30
0.0
 11
171.635
 21
10.3973
 31
0.0
  0
LINE
  8
0
 62
     0
 10
171.635
 20
10.3973
 30
0.0
 11
171.387
 21
10.8851
 31
0.0
  0
LINE
  8
0
 62
     0
 10
171.387
 20
10.8851
 30
0.0
 11
171
 21
11.2723
 31
0.0
  0
LINE
  8
0
 62
     0
 10
171
 20
11.2723
 30
0.0
 11
170.512
 21
11.5218
 31
0.0
  0
LINE
  8
0
 62
     0
 10
170.512
 20
11.5218
 30
0.0
 11
169.97
 21
11.6072
 31
0.0
  0
LINE
  8
0
 62
     0
 10
169.97
 20
11.6072
 30
0.0
 11
169.43
 21
11.5218
 31
0.0
  0
LINE
  8
0
 62
     0
 10
89.2418
 20
11.5218
 30
0.0
 11
88.7539
 21
11.2723
 31
0.0
  0
LINE
  8
0
 62
     0
 10
88.7539
 20
11.2723
 30
0.0
 11
88.3666
 21
10.8851
 31
0.0
  0
LINE
  8
0
 62
     0
 10
88.3666
 20
10.8851
 30
0.0
 11
88.1186
 21
10.3973
 31
0.0
  0
LINE
  8
0
 62
     0
 10
88.1186
 20
10.3973
 30
0.0
 11
88.0318
 21
9.85711
 31
0.0
  0
LINE
  8
0
 62
     0
 10
88.0318
 20
9.85711
 30
0.0
 11
88.1186
 21
9.31693
 31
0.0
  0
LINE
  8
0
 62
     0
 10
88.1186
 20
9.31693
 30
0.0
 11
88.3666
 21
8.8277
 31
0.0
  0
LINE
  8
0
 62
     0
 10
88.3666
 20
8.8277
 30
0.0
 11
88.7539
 21
8.44187
 31
0.0
  0
LINE
  8
0
 62
     0
 10
88.7539
 20
8.44187
 30
0.0
 11
89.2418
 21
8.19383
 31
0.0
  0
LINE
  8
0
 62
     0
 10
89.2418
 20
8.19383
 30
0.0
 11
89.7819
 21
8.10701
 31
0.0
  0
LINE
  8
0
 62
     0
 10
89.7819
 20
8.10701
 30
0.0
 11
90.3235
 21
8.19383
 31
0.0
  0
LINE
  8
0
 62
     0
 10
90.3235
 20
8.19383
 30
0.0
 11
90.8114
 21
8.44187
 31
0.0
  0
LINE
  8
0
 62
     0
 10
90.8114
 20
8.44187
 30
0.0
 11
91.1987
 21
8.8277
 31
0.0
  0
LINE
  8
0
 62
     0
 10
91.1987
 20
8.8277
 30
0.0
 11
91.4481
 21
9.31693
 31
0.0
  0
LINE
  8
0
 62
     0
 10
91.4481
 20
9.31693
 30
0.0
 11
91.5321
 21
9.85711
 31
0.0
  0
LINE
  8
0
 62
     0
 10
91.5321
 20
9.85711
 30
0.0
 11
91.4481
 21
10.3973
 31
0.0
  0
LINE
  8
0
 62
     0
 10
91.4481
 20
10.3973
 30
0.0
 11
91.1987
 21
10.8851
 31
0.0
  0
LINE
  8
0
 62
     0
 10
91.1987
 20
10.8851
 30
0.0
 11
90.8114
 21
11.2723
 31
0.0
  0
LINE
  8
0
 62
     0
 10
90.8114
 20
11.2723
 30
0.0
 11
90.3235
 21
11.5218
 31
0.0
  0
LINE
  8
0
 62
     0
 10
90.3235
 20
11.5218
 30
0.0
 11
89.7819
 21
11.6072
 31
0.0
  0
LINE
  8
0
 62
     0
 10
89.7819
 20
11.6072
 30
0.0
 11
89.2418
 21
11.5218
 31
0.0
  0
LINE
  8
0
 62
     0
 10
9.0551
 20
11.5218
 30
0.0
 11
8.5659
 21
11.2723
 31
0.0
  0
LINE
  8
0
 62
     0
 10
8.5659
 20
11.2723
 30
0.0
 11
8.18003
 21
10.8851
 31
0.0
  0
LINE
  8
0
 62
     0
 10
8.18003
 20
10.8851
 30
0.0
 11
7.93062
 21
10.3973
 31
0.0
  0
LINE
  8
0
 62
     0
 10
7.93062
 20
10.3973
 30
0.0
 11
7.84518
 21
9.85711
 31
0.0
  0
LINE
  8
0
 62
     0
 10
7.84518
 20
9.85711
 30
0.0
 11
7.93062
 21
9.31693
 31
0.0
  0
LINE
  8
0
 62
     0
 10
7.93062
 20
9.31693
 30
0.0
 11
8.18003
 21
8.8277
 31
0.0
  0
LINE
  8
0
 62
     0
 10
8.18003
 20
8.8277
 30
0.0
 11
8.5659
 21
8.44187
 31
0.0
  0
LINE
  8
0
 62
     0
 10
8.5659
 20
8.44187
 30
0.0
 11
9.0551
 21
8.19383
 31
0.0
  0
LINE
  8
0
 62
     0
 10
9.0551
 20
8.19383
 30
0.0
 11
9.5939
 21
8.10701
 31
0.0
  0
LINE
  8
0
 62
     0
 10
9.5939
 20
8.10701
 30
0.0
 11
10.1355
 21
8.19383
 31
0.0
  0
LINE
  8
0
 62
     0
 10
10.1355
 20
8.19383
 30
0.0
 11
10.6233
 21
8.44187
 31
0.0
  0
LINE
  8
0
 62
     0
 10
10.6233
 20
8.44187
 30
0.0
 11
11.0105
 21
8.8277
 31
0.0
  0
LINE
  8
0
 62
     0
 10
11.0105
 20
8.8277
 30
0.0
 11
11.26
 21
9.31693
 31
0.0
  0
LINE
  8
0
 62
     0
 10
11.26
 20
9.31693
 30
0.0
 11
11.344
 21
9.85711
 31
0.0
  0
LINE
  8
0
 62
     0
 10
11.344
 20
9.85711
 30
0.0
 11
11.26
 21
10.3973
 31
0.0
  0
LINE
  8
0
 62
     0
 10
11.26
 20
10.3973
 30
0.0
 11
11.0105
 21
10.8851
 31
0.0
  0
LINE
  8
0
 62
     0
 10
11.0105
 20
10.8851
 30
0.0
 11
10.6233
 21
11.2723
 31
0.0
  0
LINE
  8
0
 62
     0
 10
10.6233
 20
11.2723
 30
0.0
 11
10.1355
 21
11.5218
 31
0.0
  0
LINE
  8
0
 62
     0
 10
10.1355
 20
11.5218
 30
0.0
 11
9.5939
 21
11.6072
 31
0.0
  0
LINE
  8
0
 62
     0
 10
9.5939
 20
11.6072
 30
0.0
 11
9.0551
 21
11.5218
 31
0.0
  0
LINE
  8
0
 62
     0
 10
162.971
 20
35.8828
 30
0.0
 11
162.971
 21
34.8823
 31
0.0
  0
LINE
  8
0
 62
     0
 10
162.971
 20
34.8823
 30
0.0
 11
162.17
 21
34.8823
 31
0.0
  0
LINE
  8
0
 62
     0
 10
162.17
 20
34.8823
 30
0.0
 11
162.17
 21
31.7831
 31
0.0
  0
LINE
  8
0
 62
     0
 10
162.17
 20
31.7831
 30
0.0
 11
162.971
 21
31.7831
 31
0.0
  0
LINE
  8
0
 62
     0
 10
162.971
 20
31.7831
 30
0.0
 11
162.971
 21
31.1822
 31
0.0
  0
LINE
  8
0
 62
     0
 10
162.971
 20
31.1822
 30
0.0
 11
116.195
 21
31.1822
 31
0.0
  0
LINE
  8
0
 62
     0
 10
116.195
 20
31.1822
 30
0.0
 11
116.195
 21
34.4124
 31
0.0
  0
LINE
  8
0
 62
     0
 10
116.195
 20
34.4124
 30
0.0
 11
109.445
 21
34.4124
 31
0.0
  0
LINE
  8
0
 62
     0
 10
109.445
 20
34.4124
 30
0.0
 11
109.445
 21
31.1822
 31
0.0
  0
LINE
  8
0
 62
     0
 10
109.445
 20
31.1822
 30
0.0
 11
108.621
 21
31.1822
 31
0.0
  0
LINE
  8
0
 62
     0
 10
108.621
 20
31.1822
 30
0.0
 11
108.621
 21
28.3821
 31
0.0
  0
LINE
  8
0
 62
     0
 10
108.621
 20
28.3821
 30
0.0
 11
109.445
 21
28.3821
 31
0.0
  0
LINE
  8
0
 62
     0
 10
109.445
 20
28.3821
 30
0.0
 11
109.445
 21
22.1134
 31
0.0
  0
LINE
  8
0
 62
     0
 10
109.445
 20
22.1134
 30
0.0
 11
111.171
 21
22.1134
 31
0.0
  0
LINE
  8
0
 62
     0
 10
111.171
 20
22.1134
 30
0.0
 11
111.171
 21
20.9117
 31
0.0
  0
LINE
  8
0
 62
     0
 10
111.171
 20
20.9117
 30
0.0
 11
114.471
 21
20.9117
 31
0.0
  0
LINE
  8
0
 62
     0
 10
114.471
 20
20.9117
 30
0.0
 11
114.471
 21
22.1134
 31
0.0
  0
LINE
  8
0
 62
     0
 10
114.471
 20
22.1134
 30
0.0
 11
116.195
 21
22.1134
 31
0.0
  0
LINE
  8
0
 62
     0
 10
116.195
 20
22.1134
 30
0.0
 11
116.195
 21
26.5837
 31
0.0
  0
LINE
  8
0
 62
     0
 10
116.195
 20
26.5837
 30
0.0
 11
162.971
 21
26.5837
 31
0.0
  0
LINE
  8
0
 62
     0
 10
162.971
 20
26.5837
 30
0.0
 11
162.971
 21
25.9829
 31
0.0
  0
LINE
  8
0
 62
     0
 10
162.971
 20
25.9829
 30
0.0
 11
162.17
 21
25.9829
 31
0.0
  0
LINE
  8
0
 62
     0
 10
162.17
 20
25.9829
 30
0.0
 11
162.17
 21
22.8823
 31
0.0
  0
LINE
  8
0
 62
     0
 10
162.17
 20
22.8823
 30
0.0
 11
162.971
 21
22.8823
 31
0.0
  0
LINE
  8
0
 62
     0
 10
162.971
 20
22.8823
 30
0.0
 11
162.971
 21
21.8819
 31
0.0
  0
LINE
  8
0
 62
     0
 10
162.971
 20
21.8819
 30
0.0
 11
176.97
 21
21.8819
 31
0.0
  0
LINE
  8
0
 62
     0
 10
176.97
 20
21.8819
 30
0.0
 11
176.97
 21
22.8823
 31
0.0
  0
LINE
  8
0
 62
     0
 10
176.97
 20
22.8823
 30
0.0
 11
177.771
 21
22.8823
 31
0.0
  0
LINE
  8
0
 62
     0
 10
177.771
 20
22.8823
 30
0.0
 11
177.771
 21
25.9829
 31
0.0
  0
LINE
  8
0
 62
     0
 10
177.771
 20
25.9829
 30
0.0
 11
176.97
 21
25.9829
 31
0.0
  0
LINE
  8
0
 62
     0
 10
176.97
 20
25.9829
 30
0.0
 11
176.97
 21
26.5837
 31
0.0
  0
LINE
  8
0
 62
     0
 10
176.97
 20
26.5837
 30
0.0
 11
223.745
 21
26.5837
 31
0.0
  0
LINE
  8
0
 62
     0
 10
223.745
 20
26.5837
 30
0.0
 11
223.745
 21
22.1134
 31
0.0
  0
LINE
  8
0
 62
     0
 10
223.745
 20
22.1134
 30
0.0
 11
225.471
 21
22.1134
 31
0.0
  0
LINE
  8
0
 62
     0
 10
225.471
 20
22.1134
 30
0.0
 11
225.471
 21
20.9117
 31
0.0
  0
LINE
  8
0
 62
     0
 10
225.471
 20
20.9117
 30
0.0
 11
228.771
 21
20.9117
 31
0.0
  0
LINE
  8
0
 62
     0
 10
228.771
 20
20.9117
 30
0.0
 11
228.771
 21
22.1134
 31
0.0
  0
LINE
  8
0
 62
     0
 10
228.771
 20
22.1134
 30
0.0
 11
230.495
 21
22.1134
 31
0.0
  0
LINE
  8
0
 62
     0
 10
230.495
 20
22.1134
 30
0.0
 11
230.495
 21
28.3821
 31
0.0
  0
LINE
  8
0
 62
     0
 10
230.495
 20
28.3821
 30
0.0
 11
231.32
 21
28.3821
 31
0.0
  0
LINE
  8
0
 62
     0
 10
231.32
 20
28.3821
 30
0.0
 11
231.32
 21
31.1822
 31
0.0
  0
LINE
  8
0
 62
     0
 10
231.32
 20
31.1822
 30
0.0
 11
230.495
 21
31.1822
 31
0.0
  0
LINE
  8
0
 62
     0
 10
230.495
 20
31.1822
 30
0.0
 11
230.495
 21
34.4124
 31
0.0
  0
LINE
  8
0
 62
     0
 10
230.495
 20
34.4124
 30
0.0
 11
223.745
 21
34.4124
 31
0.0
  0
LINE
  8
0
 62
     0
 10
223.745
 20
34.4124
 30
0.0
 11
223.745
 21
31.1822
 31
0.0
  0
LINE
  8
0
 62
     0
 10
223.745
 20
31.1822
 30
0.0
 11
176.97
 21
31.1822
 31
0.0
  0
LINE
  8
0
 62
     0
 10
176.97
 20
31.1822
 30
0.0
 11
176.97
 21
31.7831
 31
0.0
  0
LINE
  8
0
 62
     0
 10
176.97
 20
31.7831
 30
0.0
 11
177.771
 21
31.7831
 31
0.0
  0
LINE
  8
0
 62
     0
 10
177.771
 20
31.7831
 30
0.0
 11
177.771
 21
34.8823
 31
0.0
  0
LINE
  8
0
 62
     0
 10
177.771
 20
34.8823
 30
0.0
 11
176.97
 21
34.8823
 31
0.0
  0
LINE
  8
0
 62
     0
 10
176.97
 20
34.8823
 30
0.0
 11
176.97
 21
35.8828
 31
0.0
  0
LINE
  8
0
 62
     0
 10
176.97
 20
35.8828
 30
0.0
 11
162.971
 21
35.8828
 31
0.0
  0
LINE
  8
0
 62
     0
 10
58.196
 20
35.8828
 30
0.0
 11
58.196
 21
34.8823
 31
0.0
  0
LINE
  8
0
 62
     0
 10
58.196
 20
34.8823
 30
0.0
 11
57.3952
 21
34.8823
 31
0.0
  0
LINE
  8
0
 62
     0
 10
57.3952
 20
34.8823
 30
0.0
 11
57.3952
 21
31.7831
 31
0.0
  0
LINE
  8
0
 62
     0
 10
57.3952
 20
31.7831
 30
0.0
 11
58.196
 21
31.7831
 31
0.0
  0
LINE
  8
0
 62
     0
 10
58.196
 20
31.7831
 30
0.0
 11
58.196
 21
25.9829
 31
0.0
  0
LINE
  8
0
 62
     0
 10
58.196
 20
25.9829
 30
0.0
 11
57.3952
 21
25.9829
 31
0.0
  0
LINE
  8
0
 62
     0
 10
57.3952
 20
25.9829
 30
0.0
 11
57.3952
 21
22.8823
 31
0.0
  0
LINE
  8
0
 62
     0
 10
57.3952
 20
22.8823
 30
0.0
 11
58.196
 21
22.8823
 31
0.0
  0
LINE
  8
0
 62
     0
 10
58.196
 20
22.8823
 30
0.0
 11
58.196
 21
21.8819
 31
0.0
  0
LINE
  8
0
 62
     0
 10
58.196
 20
21.8819
 30
0.0
 11
72.1953
 21
21.8819
 31
0.0
  0
LINE
  8
0
 62
     0
 10
72.1953
 20
21.8819
 30
0.0
 11
72.1953
 21
22.8823
 31
0.0
  0
LINE
  8
0
 62
     0
 10
72.1953
 20
22.8823
 30
0.0
 11
72.9961
 21
22.8823
 31
0.0
  0
LINE
  8
0
 62
     0
 10
72.9961
 20
22.8823
 30
0.0
 11
72.9961
 21
25.9829
 31
0.0
  0
LINE
  8
0
 62
     0
 10
72.9961
 20
25.9829
 30
0.0
 11
72.1953
 21
25.9829
 31
0.0
  0
LINE
  8
0
 62
     0
 10
72.1953
 20
25.9829
 30
0.0
 11
72.1953
 21
31.7831
 31
0.0
  0
LINE
  8
0
 62
     0
 10
72.1953
 20
31.7831
 30
0.0
 11
72.9961
 21
31.7831
 31
0.0
  0
LINE
  8
0
 62
     0
 10
72.9961
 20
31.7831
 30
0.0
 11
72.9961
 21
34.8823
 31
0.0
  0
LINE
  8
0
 62
     0
 10
72.9961
 20
34.8823
 30
0.0
 11
72.1953
 21
34.8823
 31
0.0
  0
LINE
  8
0
 62
     0
 10
72.1953
 20
34.8823
 30
0.0
 11
72.1953
 21
35.8828
 31
0.0
  0
LINE
  8
0
 62
     0
 10
72.1953
 20
35.8828
 30
0.0
 11
58.196
 21
35.8828
 31
0.0
  0
LINE
  8
0
 62
     0
 10
82.0071
 20
35.8828
 30
0.0
 11
82.0071
 21
34.8823
 31
0.0
  0
LINE
  8
0
 62
     0
 10
82.0071
 20
34.8823
 30
0.0
 11
81.2077
 21
34.8823
 31
0.0
  0
LINE
  8
0
 62
     0
 10
81.2077
 20
34.8823
 30
0.0
 11
81.2077
 21
31.7831
 31
0.0
  0
LINE
  8
0
 62
     0
 10
81.2077
 20
31.7831
 30
0.0
 11
82.0071
 21
31.7831
 31
0.0
  0
LINE
  8
0
 62
     0
 10
82.0071
 20
31.7831
 30
0.0
 11
82.0071
 21
25.9829
 31
0.0
  0
LINE
  8
0
 62
     0
 10
82.0071
 20
25.9829
 30
0.0
 11
81.2077
 21
25.9829
 31
0.0
  0
LINE
  8
0
 62
     0
 10
81.2077
 20
25.9829
 30
0.0
 11
81.2077
 21
22.8823
 31
0.0
  0
LINE
  8
0
 62
     0
 10
81.2077
 20
22.8823
 30
0.0
 11
82.0071
 21
22.8823
 31
0.0
  0
LINE
  8
0
 62
     0
 10
82.0071
 20
22.8823
 30
0.0
 11
82.0071
 21
21.8819
 31
0.0
  0
LINE
  8
0
 62
     0
 10
82.0071
 20
21.8819
 30
0.0
 11
96.0078
 21
21.8819
 31
0.0
  0
LINE
  8
0
 62
     0
 10
96.0078
 20
21.8819
 30
0.0
 11
96.0078
 21
22.8823
 31
0.0
  0
LINE
  8
0
 62
     0
 10
96.0078
 20
22.8823
 30
0.0
 11
96.8072
 21
22.8823
 31
0.0
  0
LINE
  8
0
 62
     0
 10
96.8072
 20
22.8823
 30
0.0
 11
96.8072
 21
25.9829
 31
0.0
  0
LINE
  8
0
 62
     0
 10
96.8072
 20
25.9829
 30
0.0
 11
96.0078
 21
25.9829
 31
0.0
  0
LINE
  8
0
 62
     0
 10
96.0078
 20
25.9829
 30
0.0
 11
96.0078
 21
31.7831
 31
0.0
  0
LINE
  8
0
 62
     0
 10
96.0078
 20
31.7831
 30
0.0
 11
96.8072
 21
31.7831
 31
0.0
  0
LINE
  8
0
 62
     0
 10
96.8072
 20
31.7831
 30
0.0
 11
96.8072
 21
34.8823
 31
0.0
  0
LINE
  8
0
 62
     0
 10
96.8072
 20
34.8823
 30
0.0
 11
96.0078
 21
34.8823
 31
0.0
  0
LINE
  8
0
 62
     0
 10
96.0078
 20
34.8823
 30
0.0
 11
96.0078
 21
35.8828
 31
0.0
  0
LINE
  8
0
 62
     0
 10
96.0078
 20
35.8828
 30
0.0
 11
82.0071
 21
35.8828
 31
0.0
  0
LINE
  8
0
 62
     0
 10
243.932
 20
35.8828
 30
0.0
 11
243.932
 21
34.8823
 31
0.0
  0
LINE
  8
0
 62
     0
 10
243.932
 20
34.8823
 30
0.0
 11
243.133
 21
34.8823
 31
0.0
  0
LINE
  8
0
 62
     0
 10
243.133
 20
34.8823
 30
0.0
 11
243.133
 21
31.7831
 31
0.0
  0
LINE
  8
0
 62
     0
 10
243.133
 20
31.7831
 30
0.0
 11
243.932
 21
31.7831
 31
0.0
  0
LINE
  8
0
 62
     0
 10
243.932
 20
31.7831
 30
0.0
 11
243.932
 21
25.9829
 31
0.0
  0
LINE
  8
0
 62
     0
 10
243.932
 20
25.9829
 30
0.0
 11
243.133
 21
25.9829
 31
0.0
  0
LINE
  8
0
 62
     0
 10
243.133
 20
25.9829
 30
0.0
 11
243.133
 21
22.8823
 31
0.0
  0
LINE
  8
0
 62
     0
 10
243.133
 20
22.8823
 30
0.0
 11
243.932
 21
22.8823
 31
0.0
  0
LINE
  8
0
 62
     0
 10
243.932
 20
22.8823
 30
0.0
 11
243.932
 21
21.8819
 31
0.0
  0
LINE
  8
0
 62
     0
 10
243.932
 20
21.8819
 30
0.0
 11
257.933
 21
21.8819
 31
0.0
  0
LINE
  8
0
 62
     0
 10
257.933
 20
21.8819
 30
0.0
 11
257.933
 21
22.8823
 31
0.0
  0
LINE
  8
0
 62
     0
 10
257.933
 20
22.8823
 30
0.0
 11
258.732
 21
22.8823
 31
0.0
  0
LINE
  8
0
 62
     0
 10
258.732
 20
22.8823
 30
0.0
 11
258.732
 21
25.9829
 31
0.0
  0
LINE
  8
0
 62
     0
 10
258.732
 20
25.9829
 30
0.0
 11
257.933
 21
25.9829
 31
0.0
  0
LINE
  8
0
 62
     0
 10
257.933
 20
25.9829
 30
0.0
 11
257.933
 21
31.7831
 31
0.0
  0
LINE
  8
0
 62
     0
 10
257.933
 20
31.7831
 30
0.0
 11
258.732
 21
31.7831
 31
0.0
  0
LINE
  8
0
 62
     0
 10
258.732
 20
31.7831
 30
0.0
 11
258.732
 21
34.8823
 31
0.0
  0
LINE
  8
0
 62
     0
 10
258.732
 20
34.8823
 30
0.0
 11
257.933
 21
34.8823
 31
0.0
  0
LINE
  8
0
 62
     0
 10
257.933
 20
34.8823
 30
0.0
 11
257.933
 21
35.8828
 31
0.0
  0
LINE
  8
0
 62
     0
 10
257.933
 20
35.8828
 30
0.0
 11
243.932
 21
35.8828
 31
0.0
  0
LINE
  8
0
 62
     0
 10
267.746
 20
35.8828
 30
0.0
 11
267.746
 21
34.8823
 31
0.0
  0
LINE
  8
0
 62
     0
 10
267.746
 20
34.8823
 30
0.0
 11
266.944
 21
34.8823
 31
0.0
  0
LINE
  8
0
 62
     0
 10
266.944
 20
34.8823
 30
0.0
 11
266.944
 21
31.7831
 31
0.0
  0
LINE
  8
0
 62
     0
 10
266.944
 20
31.7831
 30
0.0
 11
267.746
 21
31.7831
 31
0.0
  0
LINE
  8
0
 62
     0
 10
267.746
 20
31.7831
 30
0.0
 11
267.746
 21
25.9829
 31
0.0
  0
LINE
  8
0
 62
     0
 10
267.746
 20
25.9829
 30
0.0
 11
266.944
 21
25.9829
 31
0.0
  0
LINE
  8
0
 62
     0
 10
266.944
 20
25.9829
 30
0.0
 11
266.944
 21
22.8823
 31
0.0
  0
LINE
  8
0
 62
     0
 10
266.944
 20
22.8823
 30
0.0
 11
267.746
 21
22.8823
 31
0.0
  0
LINE
  8
0
 62
     0
 10
267.746
 20
22.8823
 30
0.0
 11
267.746
 21
21.8819
 31
0.0
  0
LINE
  8
0
 62
     0
 10
267.746
 20
21.8819
 30
0.0
 11
281.745
 21
21.8819
 31
0.0
  0
LINE
  8
0
 62
     0
 10
281.745
 20
21.8819
 30
0.0
 11
281.745
 21
22.8823
 31
0.0
  0
LINE
  8
0
 62
     0
 10
281.745
 20
22.8823
 30
0.0
 11
282.546
 21
22.8823
 31
0.0
  0
LINE
  8
0
 62
     0
 10
282.546
 20
22.8823
 30
0.0
 11
282.546
 21
25.9829
 31
0.0
  0
LINE
  8
0
 62
     0
 10
282.546
 20
25.9829
 30
0.0
 11
281.745
 21
25.9829
 31
0.0
  0
LINE
  8
0
 62
     0
 10
281.745
 20
25.9829
 30
0.0
 11
281.745
 21
31.7831
 31
0.0
  0
LINE
  8
0
 62
     0
 10
281.745
 20
31.7831
 30
0.0
 11
282.546
 21
31.7831
 31
0.0
  0
LINE
  8
0
 62
     0
 10
282.546
 20
31.7831
 30
0.0
 11
282.546
 21
34.8823
 31
0.0
  0
LINE
  8
0
 62
     0
 10
282.546
 20
34.8823
 30
0.0
 11
281.745
 21
34.8823
 31
0.0
  0
LINE
  8
0
 62
     0
 10
281.745
 20
34.8823
 30
0.0
 11
281.745
 21
35.8828
 31
0.0
  0
LINE
  8
0
 62
     0
 10
281.745
 20
35.8828
 30
0.0
 11
267.746
 21
35.8828
 31
0.0
  0
LINE
  8
0
 62
     0
 10
41.5258
 20
54.9328
 30
0.0
 11
41.5258
 21
53.9323
 31
0.0
  0
LINE
  8
0
 62
     0
 10
41.5258
 20
53.9323
 30
0.0
 11
40.7264
 21
53.9323
 31
0.0
  0
LINE
  8
0
 62
     0
 10
40.7264
 20
53.9323
 30
0.0
 11
40.7264
 21
50.8332
 31
0.0
  0
LINE
  8
0
 62
     0
 10
40.7264
 20
50.8332
 30
0.0
 11
41.5258
 21
50.8332
 31
0.0
  0
LINE
  8
0
 62
     0
 10
41.5258
 20
50.8332
 30
0.0
 11
41.5258
 21
50.2324
 31
0.0
  0
LINE
  8
0
 62
     0
 10
41.5258
 20
50.2324
 30
0.0
 11
40.0018
 21
50.2324
 31
0.0
  0
LINE
  8
0
 62
     0
 10
40.0018
 20
50.2324
 30
0.0
 11
40.0018
 21
53.4624
 31
0.0
  0
LINE
  8
0
 62
     0
 10
40.0018
 20
53.4624
 30
0.0
 11
33.2521
 21
53.4624
 31
0.0
  0
LINE
  8
0
 62
     0
 10
33.2521
 20
53.4624
 30
0.0
 11
33.2521
 21
50.2324
 31
0.0
  0
LINE
  8
0
 62
     0
 10
33.2521
 20
50.2324
 30
0.0
 11
32.4266
 21
50.2324
 31
0.0
  0
LINE
  8
0
 62
     0
 10
32.4266
 20
50.2324
 30
0.0
 11
32.4266
 21
47.432
 31
0.0
  0
LINE
  8
0
 62
     0
 10
32.4266
 20
47.432
 30
0.0
 11
33.2521
 21
47.432
 31
0.0
  0
LINE
  8
0
 62
     0
 10
33.2521
 20
47.432
 30
0.0
 11
33.2521
 21
41.1621
 31
0.0
  0
LINE
  8
0
 62
     0
 10
33.2521
 20
41.1621
 30
0.0
 11
34.976
 21
41.1621
 31
0.0
  0
LINE
  8
0
 62
     0
 10
34.976
 20
41.1621
 30
0.0
 11
34.976
 21
39.9616
 31
0.0
  0
LINE
  8
0
 62
     0
 10
34.976
 20
39.9616
 30
0.0
 11
38.2764
 21
39.9616
 31
0.0
  0
LINE
  8
0
 62
     0
 10
38.2764
 20
39.9616
 30
0.0
 11
38.2764
 21
41.1621
 31
0.0
  0
LINE
  8
0
 62
     0
 10
38.2764
 20
41.1621
 30
0.0
 11
40.0018
 21
41.1621
 31
0.0
  0
LINE
  8
0
 62
     0
 10
40.0018
 20
41.1621
 30
0.0
 11
40.0018
 21
45.6325
 31
0.0
  0
LINE
  8
0
 62
     0
 10
40.0018
 20
45.6325
 30
0.0
 11
41.5258
 21
45.6325
 31
0.0
  0
LINE
  8
0
 62
     0
 10
41.5258
 20
45.6325
 30
0.0
 11
41.5258
 21
45.0328
 31
0.0
  0
LINE
  8
0
 62
     0
 10
41.5258
 20
45.0328
 30
0.0
 11
40.7264
 21
45.0328
 31
0.0
  0
LINE
  8
0
 62
     0
 10
40.7264
 20
45.0328
 30
0.0
 11
40.7264
 21
41.9322
 31
0.0
  0
LINE
  8
0
 62
     0
 10
40.7264
 20
41.9322
 30
0.0
 11
41.5258
 21
41.9322
 31
0.0
  0
LINE
  8
0
 62
     0
 10
41.5258
 20
41.9322
 30
0.0
 11
41.5258
 21
40.9317
 31
0.0
  0
LINE
  8
0
 62
     0
 10
41.5258
 20
40.9317
 30
0.0
 11
55.5265
 21
40.9317
 31
0.0
  0
LINE
  8
0
 62
     0
 10
55.5265
 20
40.9317
 30
0.0
 11
55.5265
 21
41.9322
 31
0.0
  0
LINE
  8
0
 62
     0
 10
55.5265
 20
41.9322
 30
0.0
 11
56.3259
 21
41.9322
 31
0.0
  0
LINE
  8
0
 62
     0
 10
56.3259
 20
41.9322
 30
0.0
 11
56.3259
 21
45.0328
 31
0.0
  0
LINE
  8
0
 62
     0
 10
56.3259
 20
45.0328
 30
0.0
 11
55.5265
 21
45.0328
 31
0.0
  0
LINE
  8
0
 62
     0
 10
55.5265
 20
45.0328
 30
0.0
 11
55.5265
 21
45.6325
 31
0.0
  0
LINE
  8
0
 62
     0
 10
55.5265
 20
45.6325
 30
0.0
 11
57.0523
 21
45.6325
 31
0.0
  0
LINE
  8
0
 62
     0
 10
57.0523
 20
45.6325
 30
0.0
 11
57.0523
 21
41.1621
 31
0.0
  0
LINE
  8
0
 62
     0
 10
57.0523
 20
41.1621
 30
0.0
 11
58.776
 21
41.1621
 31
0.0
  0
LINE
  8
0
 62
     0
 10
58.776
 20
41.1621
 30
0.0
 11
58.776
 21
39.9616
 31
0.0
  0
LINE
  8
0
 62
     0
 10
58.776
 20
39.9616
 30
0.0
 11
62.0765
 21
39.9616
 31
0.0
  0
LINE
  8
0
 62
     0
 10
62.0765
 20
39.9616
 30
0.0
 11
62.0765
 21
41.1621
 31
0.0
  0
LINE
  8
0
 62
     0
 10
62.0765
 20
41.1621
 30
0.0
 11
63.8016
 21
41.1621
 31
0.0
  0
LINE
  8
0
 62
     0
 10
63.8016
 20
41.1621
 30
0.0
 11
63.8016
 21
47.432
 31
0.0
  0
LINE
  8
0
 62
     0
 10
63.8016
 20
47.432
 30
0.0
 11
64.6257
 21
47.432
 31
0.0
  0
LINE
  8
0
 62
     0
 10
64.6257
 20
47.432
 30
0.0
 11
64.6257
 21
50.2324
 31
0.0
  0
LINE
  8
0
 62
     0
 10
64.6257
 20
50.2324
 30
0.0
 11
63.8016
 21
50.2324
 31
0.0
  0
LINE
  8
0
 62
     0
 10
63.8016
 20
50.2324
 30
0.0
 11
63.8016
 21
53.4624
 31
0.0
  0
LINE
  8
0
 62
     0
 10
63.8016
 20
53.4624
 30
0.0
 11
57.0523
 21
53.4624
 31
0.0
  0
LINE
  8
0
 62
     0
 10
57.0523
 20
53.4624
 30
0.0
 11
57.0523
 21
50.2324
 31
0.0
  0
LINE
  8
0
 62
     0
 10
57.0523
 20
50.2324
 30
0.0
 11
55.5265
 21
50.2324
 31
0.0
  0
LINE
  8
0
 62
     0
 10
55.5265
 20
50.2324
 30
0.0
 11
55.5265
 21
50.8332
 31
0.0
  0
LINE
  8
0
 62
     0
 10
55.5265
 20
50.8332
 30
0.0
 11
56.3259
 21
50.8332
 31
0.0
  0
LINE
  8
0
 62
     0
 10
56.3259
 20
50.8332
 30
0.0
 11
56.3259
 21
53.9323
 31
0.0
  0
LINE
  8
0
 62
     0
 10
56.3259
 20
53.9323
 30
0.0
 11
55.5265
 21
53.9323
 31
0.0
  0
LINE
  8
0
 62
     0
 10
55.5265
 20
53.9323
 30
0.0
 11
55.5265
 21
54.9328
 31
0.0
  0
LINE
  8
0
 62
     0
 10
55.5265
 20
54.9328
 30
0.0
 11
41.5258
 21
54.9328
 31
0.0
  0
LINE
  8
0
 62
     0
 10
72.4821
 20
54.9328
 30
0.0
 11
72.4821
 21
53.9323
 31
0.0
  0
LINE
  8
0
 62
     0
 10
72.4821
 20
53.9323
 30
0.0
 11
71.6827
 21
53.9323
 31
0.0
  0
LINE
  8
0
 62
     0
 10
71.6827
 20
53.9323
 30
0.0
 11
71.6827
 21
50.8332
 31
0.0
  0
LINE
  8
0
 62
     0
 10
71.6827
 20
50.8332
 30
0.0
 11
72.4821
 21
50.8332
 31
0.0
  0
LINE
  8
0
 62
     0
 10
72.4821
 20
50.8332
 30
0.0
 11
72.4821
 21
45.0328
 31
0.0
  0
LINE
  8
0
 62
     0
 10
72.4821
 20
45.0328
 30
0.0
 11
71.6827
 21
45.0328
 31
0.0
  0
LINE
  8
0
 62
     0
 10
71.6827
 20
45.0328
 30
0.0
 11
71.6827
 21
41.9322
 31
0.0
  0
LINE
  8
0
 62
     0
 10
71.6827
 20
41.9322
 30
0.0
 11
72.4821
 21
41.9322
 31
0.0
  0
LINE
  8
0
 62
     0
 10
72.4821
 20
41.9322
 30
0.0
 11
72.4821
 21
40.9317
 31
0.0
  0
LINE
  8
0
 62
     0
 10
72.4821
 20
40.9317
 30
0.0
 11
86.4828
 21
40.9317
 31
0.0
  0
LINE
  8
0
 62
     0
 10
86.4828
 20
40.9317
 30
0.0
 11
86.4828
 21
41.9322
 31
0.0
  0
LINE
  8
0
 62
     0
 10
86.4828
 20
41.9322
 30
0.0
 11
87.2822
 21
41.9322
 31
0.0
  0
LINE
  8
0
 62
     0
 10
87.2822
 20
41.9322
 30
0.0
 11
87.2822
 21
45.0328
 31
0.0
  0
LINE
  8
0
 62
     0
 10
87.2822
 20
45.0328
 30
0.0
 11
86.4828
 21
45.0328
 31
0.0
  0
LINE
  8
0
 62
     0
 10
86.4828
 20
45.0328
 30
0.0
 11
86.4828
 21
50.8332
 31
0.0
  0
LINE
  8
0
 62
     0
 10
86.4828
 20
50.8332
 30
0.0
 11
87.2822
 21
50.8332
 31
0.0
  0
LINE
  8
0
 62
     0
 10
87.2822
 20
50.8332
 30
0.0
 11
87.2822
 21
53.9323
 31
0.0
  0
LINE
  8
0
 62
     0
 10
87.2822
 20
53.9323
 30
0.0
 11
86.4828
 21
53.9323
 31
0.0
  0
LINE
  8
0
 62
     0
 10
86.4828
 20
53.9323
 30
0.0
 11
86.4828
 21
54.9328
 31
0.0
  0
LINE
  8
0
 62
     0
 10
86.4828
 20
54.9328
 30
0.0
 11
72.4821
 21
54.9328
 31
0.0
  0
LINE
  8
0
 62
     0
 10
91.5321
 20
54.9328
 30
0.0
 11
91.5321
 21
53.9323
 31
0.0
  0
LINE
  8
0
 62
     0
 10
91.5321
 20
53.9323
 30
0.0
 11
90.7327
 21
53.9323
 31
0.0
  0
LINE
  8
0
 62
     0
 10
90.7327
 20
53.9323
 30
0.0
 11
90.7327
 21
50.8332
 31
0.0
  0
LINE
  8
0
 62
     0
 10
90.7327
 20
50.8332
 30
0.0
 11
91.5321
 21
50.8332
 31
0.0
  0
LINE
  8
0
 62
     0
 10
91.5321
 20
50.8332
 30
0.0
 11
91.5321
 21
45.0328
 31
0.0
  0
LINE
  8
0
 62
     0
 10
91.5321
 20
45.0328
 30
0.0
 11
90.7327
 21
45.0328
 31
0.0
  0
LINE
  8
0
 62
     0
 10
90.7327
 20
45.0328
 30
0.0
 11
90.7327
 21
41.9322
 31
0.0
  0
LINE
  8
0
 62
     0
 10
90.7327
 20
41.9322
 30
0.0
 11
91.5321
 21
41.9322
 31
0.0
  0
LINE
  8
0
 62
     0
 10
91.5321
 20
41.9322
 30
0.0
 11
91.5321
 21
40.9317
 31
0.0
  0
LINE
  8
0
 62
     0
 10
91.5321
 20
40.9317
 30
0.0
 11
105.533
 21
40.9317
 31
0.0
  0
LINE
  8
0
 62
     0
 10
105.533
 20
40.9317
 30
0.0
 11
105.533
 21
41.9322
 31
0.0
  0
LINE
  8
0
 62
     0
 10
105.533
 20
41.9322
 30
0.0
 11
106.332
 21
41.9322
 31
0.0
  0
LINE
  8
0
 62
     0
 10
106.332
 20
41.9322
 30
0.0
 11
106.332
 21
45.0328
 31
0.0
  0
LINE
  8
0
 62
     0
 10
106.332
 20
45.0328
 30
0.0
 11
105.533
 21
45.0328
 31
0.0
  0
LINE
  8
0
 62
     0
 10
105.533
 20
45.0328
 30
0.0
 11
105.533
 21
50.8332
 31
0.0
  0
LINE
  8
0
 62
     0
 10
105.533
 20
50.8332
 30
0.0
 11
106.332
 21
50.8332
 31
0.0
  0
LINE
  8
0
 62
     0
 10
106.332
 20
50.8332
 30
0.0
 11
106.332
 21
53.9323
 31
0.0
  0
LINE
  8
0
 62
     0
 10
106.332
 20
53.9323
 30
0.0
 11
105.533
 21
53.9323
 31
0.0
  0
LINE
  8
0
 62
     0
 10
105.533
 20
53.9323
 30
0.0
 11
105.533
 21
54.9328
 31
0.0
  0
LINE
  8
0
 62
     0
 10
105.533
 20
54.9328
 30
0.0
 11
91.5321
 21
54.9328
 31
0.0
  0
LINE
  8
0
 62
     0
 10
110.582
 20
54.9328
 30
0.0
 11
110.582
 21
53.9323
 31
0.0
  0
LINE
  8
0
 62
     0
 10
110.582
 20
53.9323
 30
0.0
 11
109.783
 21
53.9323
 31
0.0
  0
LINE
  8
0
 62
     0
 10
109.783
 20
53.9323
 30
0.0
 11
109.783
 21
50.8332
 31
0.0
  0
LINE
  8
0
 62
     0
 10
109.783
 20
50.8332
 30
0.0
 11
110.582
 21
50.8332
 31
0.0
  0
LINE
  8
0
 62
     0
 10
110.582
 20
50.8332
 30
0.0
 11
110.582
 21
45.0328
 31
0.0
  0
LINE
  8
0
 62
     0
 10
110.582
 20
45.0328
 30
0.0
 11
109.783
 21
45.0328
 31
0.0
  0
LINE
  8
0
 62
     0
 10
109.783
 20
45.0328
 30
0.0
 11
109.783
 21
41.9322
 31
0.0
  0
LINE
  8
0
 62
     0
 10
109.783
 20
41.9322
 30
0.0
 11
110.582
 21
41.9322
 31
0.0
  0
LINE
  8
0
 62
     0
 10
110.582
 20
41.9322
 30
0.0
 11
110.582
 21
40.9317
 31
0.0
  0
LINE
  8
0
 62
     0
 10
110.582
 20
40.9317
 30
0.0
 11
124.583
 21
40.9317
 31
0.0
  0
LINE
  8
0
 62
     0
 10
124.583
 20
40.9317
 30
0.0
 11
124.583
 21
41.9322
 31
0.0
  0
LINE
  8
0
 62
     0
 10
124.583
 20
41.9322
 30
0.0
 11
125.382
 21
41.9322
 31
0.0
  0
LINE
  8
0
 62
     0
 10
125.382
 20
41.9322
 30
0.0
 11
125.382
 21
45.0328
 31
0.0
  0
LINE
  8
0
 62
     0
 10
125.382
 20
45.0328
 30
0.0
 11
124.583
 21
45.0328
 31
0.0
  0
LINE
  8
0
 62
     0
 10
124.583
 20
45.0328
 30
0.0
 11
124.583
 21
50.8332
 31
0.0
  0
LINE
  8
0
 62
     0
 10
124.583
 20
50.8332
 30
0.0
 11
125.382
 21
50.8332
 31
0.0
  0
LINE
  8
0
 62
     0
 10
125.382
 20
50.8332
 30
0.0
 11
125.382
 21
53.9323
 31
0.0
  0
LINE
  8
0
 62
     0
 10
125.382
 20
53.9323
 30
0.0
 11
124.583
 21
53.9323
 31
0.0
  0
LINE
  8
0
 62
     0
 10
124.583
 20
53.9323
 30
0.0
 11
124.583
 21
54.9328
 31
0.0
  0
LINE
  8
0
 62
     0
 10
124.583
 20
54.9328
 30
0.0
 11
110.582
 21
54.9328
 31
0.0
  0
LINE
  8
0
 62
     0
 10
129.632
 20
54.9328
 30
0.0
 11
129.632
 21
53.9323
 31
0.0
  0
LINE
  8
0
 62
     0
 10
129.632
 20
53.9323
 30
0.0
 11
128.833
 21
53.9323
 31
0.0
  0
LINE
  8
0
 62
     0
 10
128.833
 20
53.9323
 30
0.0
 11
128.833
 21
50.8332
 31
0.0
  0
LINE
  8
0
 62
     0
 10
128.833
 20
50.8332
 30
0.0
 11
129.632
 21
50.8332
 31
0.0
  0
LINE
  8
0
 62
     0
 10
129.632
 20
50.8332
 30
0.0
 11
129.632
 21
45.0328
 31
0.0
  0
LINE
  8
0
 62
     0
 10
129.632
 20
45.0328
 30
0.0
 11
128.833
 21
45.0328
 31
0.0
  0
LINE
  8
0
 62
     0
 10
128.833
 20
45.0328
 30
0.0
 11
128.833
 21
41.9322
 31
0.0
  0
LINE
  8
0
 62
     0
 10
128.833
 20
41.9322
 30
0.0
 11
129.632
 21
41.9322
 31
0.0
  0
LINE
  8
0
 62
     0
 10
129.632
 20
41.9322
 30
0.0
 11
129.632
 21
40.9317
 31
0.0
  0
LINE
  8
0
 62
     0
 10
129.632
 20
40.9317
 30
0.0
 11
143.633
 21
40.9317
 31
0.0
  0
LINE
  8
0
 62
     0
 10
143.633
 20
40.9317
 30
0.0
 11
143.633
 21
41.9322
 31
0.0
  0
LINE
  8
0
 62
     0
 10
143.633
 20
41.9322
 30
0.0
 11
144.432
 21
41.9322
 31
0.0
  0
LINE
  8
0
 62
     0
 10
144.432
 20
41.9322
 30
0.0
 11
144.432
 21
45.0328
 31
0.0
  0
LINE
  8
0
 62
     0
 10
144.432
 20
45.0328
 30
0.0
 11
143.633
 21
45.0328
 31
0.0
  0
LINE
  8
0
 62
     0
 10
143.633
 20
45.0328
 30
0.0
 11
143.633
 21
50.8332
 31
0.0
  0
LINE
  8
0
 62
     0
 10
143.633
 20
50.8332
 30
0.0
 11
144.432
 21
50.8332
 31
0.0
  0
LINE
  8
0
 62
     0
 10
144.432
 20
50.8332
 30
0.0
 11
144.432
 21
53.9323
 31
0.0
  0
LINE
  8
0
 62
     0
 10
144.432
 20
53.9323
 30
0.0
 11
143.633
 21
53.9323
 31
0.0
  0
LINE
  8
0
 62
     0
 10
143.633
 20
53.9323
 30
0.0
 11
143.633
 21
54.9328
 31
0.0
  0
LINE
  8
0
 62
     0
 10
143.633
 20
54.9328
 30
0.0
 11
129.632
 21
54.9328
 31
0.0
  0
LINE
  8
0
 62
     0
 10
148.682
 20
54.9328
 30
0.0
 11
148.682
 21
53.9323
 31
0.0
  0
LINE
  8
0
 62
     0
 10
148.682
 20
53.9323
 30
0.0
 11
147.883
 21
53.9323
 31
0.0
  0
LINE
  8
0
 62
     0
 10
147.883
 20
53.9323
 30
0.0
 11
147.883
 21
50.8332
 31
0.0
  0
LINE
  8
0
 62
     0
 10
147.883
 20
50.8332
 30
0.0
 11
148.682
 21
50.8332
 31
0.0
  0
LINE
  8
0
 62
     0
 10
148.682
 20
50.8332
 30
0.0
 11
148.682
 21
45.0328
 31
0.0
  0
LINE
  8
0
 62
     0
 10
148.682
 20
45.0328
 30
0.0
 11
147.883
 21
45.0328
 31
0.0
  0
LINE
  8
0
 62
     0
 10
147.883
 20
45.0328
 30
0.0
 11
147.883
 21
41.9322
 31
0.0
  0
LINE
  8
0
 62
     0
 10
147.883
 20
41.9322
 30
0.0
 11
148.682
 21
41.9322
 31
0.0
  0
LINE
  8
0
 62
     0
 10
148.682
 20
41.9322
 30
0.0
 11
148.682
 21
40.9317
 31
0.0
  0
LINE
  8
0
 62
     0
 10
148.682
 20
40.9317
 30
0.0
 11
162.683
 21
40.9317
 31
0.0
  0
LINE
  8
0
 62
     0
 10
162.683
 20
40.9317
 30
0.0
 11
162.683
 21
41.9322
 31
0.0
  0
LINE
  8
0
 62
     0
 10
162.683
 20
41.9322
 30
0.0
 11
163.482
 21
41.9322
 31
0.0
  0
LINE
  8
0
 62
     0
 10
163.482
 20
41.9322
 30
0.0
 11
163.482
 21
45.0328
 31
0.0
  0
LINE
  8
0
 62
     0
 10
163.482
 20
45.0328
 30
0.0
 11
162.683
 21
45.0328
 31
0.0
  0
LINE
  8
0
 62
     0
 10
162.683
 20
45.0328
 30
0.0
 11
162.683
 21
50.8332
 31
0.0
  0
LINE
  8
0
 62
     0
 10
162.683
 20
50.8332
 30
0.0
 11
163.482
 21
50.8332
 31
0.0
  0
LINE
  8
0
 62
     0
 10
163.482
 20
50.8332
 30
0.0
 11
163.482
 21
53.9323
 31
0.0
  0
LINE
  8
0
 62
     0
 10
163.482
 20
53.9323
 30
0.0
 11
162.683
 21
53.9323
 31
0.0
  0
LINE
  8
0
 62
     0
 10
162.683
 20
53.9323
 30
0.0
 11
162.683
 21
54.9328
 31
0.0
  0
LINE
  8
0
 62
     0
 10
162.683
 20
54.9328
 30
0.0
 11
148.682
 21
54.9328
 31
0.0
  0
LINE
  8
0
 62
     0
 10
167.732
 20
54.9328
 30
0.0
 11
167.732
 21
53.9323
 31
0.0
  0
LINE
  8
0
 62
     0
 10
167.732
 20
53.9323
 30
0.0
 11
166.933
 21
53.9323
 31
0.0
  0
LINE
  8
0
 62
     0
 10
166.933
 20
53.9323
 30
0.0
 11
166.933
 21
50.8332
 31
0.0
  0
LINE
  8
0
 62
     0
 10
166.933
 20
50.8332
 30
0.0
 11
167.732
 21
50.8332
 31
0.0
  0
LINE
  8
0
 62
     0
 10
167.732
 20
50.8332
 30
0.0
 11
167.732
 21
45.0328
 31
0.0
  0
LINE
  8
0
 62
     0
 10
167.732
 20
45.0328
 30
0.0
 11
166.933
 21
45.0328
 31
0.0
  0
LINE
  8
0
 62
     0
 10
166.933
 20
45.0328
 30
0.0
 11
166.933
 21
41.9322
 31
0.0
  0
LINE
  8
0
 62
     0
 10
166.933
 20
41.9322
 30
0.0
 11
167.732
 21
41.9322
 31
0.0
  0
LINE
  8
0
 62
     0
 10
167.732
 20
41.9322
 30
0.0
 11
167.732
 21
40.9317
 31
0.0
  0
LINE
  8
0
 62
     0
 10
167.732
 20
40.9317
 30
0.0
 11
181.733
 21
40.9317
 31
0.0
  0
LINE
  8
0
 62
     0
 10
181.733
 20
40.9317
 30
0.0
 11
181.733
 21
41.9322
 31
0.0
  0
LINE
  8
0
 62
     0
 10
181.733
 20
41.9322
 30
0.0
 11
182.532
 21
41.9322
 31
0.0
  0
LINE
  8
0
 62
     0
 10
182.532
 20
41.9322
 30
0.0
 11
182.532
 21
45.0328
 31
0.0
  0
LINE
  8
0
 62
     0
 10
182.532
 20
45.0328
 30
0.0
 11
181.733
 21
45.0328
 31
0.0
  0
LINE
  8
0
 62
     0
 10
181.733
 20
45.0328
 30
0.0
 11
181.733
 21
50.8332
 31
0.0
  0
LINE
  8
0
 62
     0
 10
181.733
 20
50.8332
 30
0.0
 11
182.532
 21
50.8332
 31
0.0
  0
LINE
  8
0
 62
     0
 10
182.532
 20
50.8332
 30
0.0
 11
182.532
 21
53.9323
 31
0.0
  0
LINE
  8
0
 62
     0
 10
182.532
 20
53.9323
 30
0.0
 11
181.733
 21
53.9323
 31
0.0
  0
LINE
  8
0
 62
     0
 10
181.733
 20
53.9323
 30
0.0
 11
181.733
 21
54.9328
 31
0.0
  0
LINE
  8
0
 62
     0
 10
181.733
 20
54.9328
 30
0.0
 11
167.732
 21
54.9328
 31
0.0
  0
LINE
  8
0
 62
     0
 10
186.782
 20
54.9328
 30
0.0
 11
186.782
 21
53.9323
 31
0.0
  0
LINE
  8
0
 62
     0
 10
186.782
 20
53.9323
 30
0.0
 11
185.983
 21
53.9323
 31
0.0
  0
LINE
  8
0
 62
     0
 10
185.983
 20
53.9323
 30
0.0
 11
185.983
 21
50.8332
 31
0.0
  0
LINE
  8
0
 62
     0
 10
185.983
 20
50.8332
 30
0.0
 11
186.782
 21
50.8332
 31
0.0
  0
LINE
  8
0
 62
     0
 10
186.782
 20
50.8332
 30
0.0
 11
186.782
 21
45.0328
 31
0.0
  0
LINE
  8
0
 62
     0
 10
186.782
 20
45.0328
 30
0.0
 11
185.983
 21
45.0328
 31
0.0
  0
LINE
  8
0
 62
     0
 10
185.983
 20
45.0328
 30
0.0
 11
185.983
 21
41.9322
 31
0.0
  0
LINE
  8
0
 62
     0
 10
185.983
 20
41.9322
 30
0.0
 11
186.782
 21
41.9322
 31
0.0
  0
LINE
  8
0
 62
     0
 10
186.782
 20
41.9322
 30
0.0
 11
186.782
 21
40.9317
 31
0.0
  0
LINE
  8
0
 62
     0
 10
186.782
 20
40.9317
 30
0.0
 11
200.783
 21
40.9317
 31
0.0
  0
LINE
  8
0
 62
     0
 10
200.783
 20
40.9317
 30
0.0
 11
200.783
 21
41.9322
 31
0.0
  0
LINE
  8
0
 62
     0
 10
200.783
 20
41.9322
 30
0.0
 11
201.582
 21
41.9322
 31
0.0
  0
LINE
  8
0
 62
     0
 10
201.582
 20
41.9322
 30
0.0
 11
201.582
 21
45.0328
 31
0.0
  0
LINE
  8
0
 62
     0
 10
201.582
 20
45.0328
 30
0.0
 11
200.783
 21
45.0328
 31
0.0
  0
LINE
  8
0
 62
     0
 10
200.783
 20
45.0328
 30
0.0
 11
200.783
 21
50.8332
 31
0.0
  0
LINE
  8
0
 62
     0
 10
200.783
 20
50.8332
 30
0.0
 11
201.582
 21
50.8332
 31
0.0
  0
LINE
  8
0
 62
     0
 10
201.582
 20
50.8332
 30
0.0
 11
201.582
 21
53.9323
 31
0.0
  0
LINE
  8
0
 62
     0
 10
201.582
 20
53.9323
 30
0.0
 11
200.783
 21
53.9323
 31
0.0
  0
LINE
  8
0
 62
     0
 10
200.783
 20
53.9323
 30
0.0
 11
200.783
 21
54.9328
 31
0.0
  0
LINE
  8
0
 62
     0
 10
200.783
 20
54.9328
 30
0.0
 11
186.782
 21
54.9328
 31
0.0
  0
LINE
  8
0
 62
     0
 10
205.832
 20
54.9328
 30
0.0
 11
205.832
 21
53.9323
 31
0.0
  0
LINE
  8
0
 62
     0
 10
205.832
 20
53.9323
 30
0.0
 11
205.033
 21
53.9323
 31
0.0
  0
LINE
  8
0
 62
     0
 10
205.033
 20
53.9323
 30
0.0
 11
205.033
 21
50.8332
 31
0.0
  0
LINE
  8
0
 62
     0
 10
205.033
 20
50.8332
 30
0.0
 11
205.832
 21
50.8332
 31
0.0
  0
LINE
  8
0
 62
     0
 10
205.832
 20
50.8332
 30
0.0
 11
205.832
 21
45.0328
 31
0.0
  0
LINE
  8
0
 62
     0
 10
205.832
 20
45.0328
 30
0.0
 11
205.033
 21
45.0328
 31
0.0
  0
LINE
  8
0
 62
     0
 10
205.033
 20
45.0328
 30
0.0
 11
205.033
 21
41.9322
 31
0.0
  0
LINE
  8
0
 62
     0
 10
205.033
 20
41.9322
 30
0.0
 11
205.832
 21
41.9322
 31
0.0
  0
LINE
  8
0
 62
     0
 10
205.832
 20
41.9322
 30
0.0
 11
205.832
 21
40.9317
 31
0.0
  0
LINE
  8
0
 62
     0
 10
205.832
 20
40.9317
 30
0.0
 11
219.833
 21
40.9317
 31
0.0
  0
LINE
  8
0
 62
     0
 10
219.833
 20
40.9317
 30
0.0
 11
219.833
 21
41.9322
 31
0.0
  0
LINE
  8
0
 62
     0
 10
219.833
 20
41.9322
 30
0.0
 11
220.632
 21
41.9322
 31
0.0
  0
LINE
  8
0
 62
     0
 10
220.632
 20
41.9322
 30
0.0
 11
220.632
 21
45.0328
 31
0.0
  0
LINE
  8
0
 62
     0
 10
220.632
 20
45.0328
 30
0.0
 11
219.833
 21
45.0328
 31
0.0
  0
LINE
  8
0
 62
     0
 10
219.833
 20
45.0328
 30
0.0
 11
219.833
 21
50.8332
 31
0.0
  0
LINE
  8
0
 62
     0
 10
219.833
 20
50.8332
 30
0.0
 11
220.632
 21
50.8332
 31
0.0
  0
LINE
  8
0
 62
     0
 10
220.632
 20
50.8332
 30
0.0
 11
220.632
 21
53.9323
 31
0.0
  0
LINE
  8
0
 62
     0
 10
220.632
 20
53.9323
 30
0.0
 11
219.833
 21
53.9323
 31
0.0
  0
LINE
  8
0
 62
     0
 10
219.833
 20
53.9323
 30
0.0
 11
219.833
 21
54.9328
 31
0.0
  0
LINE
  8
0
 62
     0
 10
219.833
 20
54.9328
 30
0.0
 11
205.832
 21
54.9328
 31
0.0
  0
LINE
  8
0
 62
     0
 10
224.882
 20
54.9328
 30
0.0
 11
224.882
 21
53.9323
 31
0.0
  0
LINE
  8
0
 62
     0
 10
224.882
 20
53.9323
 30
0.0
 11
224.083
 21
53.9323
 31
0.0
  0
LINE
  8
0
 62
     0
 10
224.083
 20
53.9323
 30
0.0
 11
224.083
 21
50.8332
 31
0.0
  0
LINE
  8
0
 62
     0
 10
224.083
 20
50.8332
 30
0.0
 11
224.882
 21
50.8332
 31
0.0
  0
LINE
  8
0
 62
     0
 10
224.882
 20
50.8332
 30
0.0
 11
224.882
 21
45.0328
 31
0.0
  0
LINE
  8
0
 62
     0
 10
224.882
 20
45.0328
 30
0.0
 11
224.083
 21
45.0328
 31
0.0
  0
LINE
  8
0
 62
     0
 10
224.083
 20
45.0328
 30
0.0
 11
224.083
 21
41.9322
 31
0.0
  0
LINE
  8
0
 62
     0
 10
224.083
 20
41.9322
 30
0.0
 11
224.882
 21
41.9322
 31
0.0
  0
LINE
  8
0
 62
     0
 10
224.882
 20
41.9322
 30
0.0
 11
224.882
 21
40.9317
 31
0.0
  0
LINE
  8
0
 62
     0
 10
224.882
 20
40.9317
 30
0.0
 11
238.883
 21
40.9317
 31
0.0
  0
LINE
  8
0
 62
     0
 10
238.883
 20
40.9317
 30
0.0
 11
238.883
 21
41.9322
 31
0.0
  0
LINE
  8
0
 62
     0
 10
238.883
 20
41.9322
 30
0.0
 11
239.682
 21
41.9322
 31
0.0
  0
LINE
  8
0
 62
     0
 10
239.682
 20
41.9322
 30
0.0
 11
239.682
 21
45.0328
 31
0.0
  0
LINE
  8
0
 62
     0
 10
239.682
 20
45.0328
 30
0.0
 11
238.883
 21
45.0328
 31
0.0
  0
LINE
  8
0
 62
     0
 10
238.883
 20
45.0328
 30
0.0
 11
238.883
 21
50.8332
 31
0.0
  0
LINE
  8
0
 62
     0
 10
238.883
 20
50.8332
 30
0.0
 11
239.682
 21
50.8332
 31
0.0
  0
LINE
  8
0
 62
     0
 10
239.682
 20
50.8332
 30
0.0
 11
239.682
 21
53.9323
 31
0.0
  0
LINE
  8
0
 62
     0
 10
239.682
 20
53.9323
 30
0.0
 11
238.883
 21
53.9323
 31
0.0
  0
LINE
  8
0
 62
     0
 10
238.883
 20
53.9323
 30
0.0
 11
238.883
 21
54.9328
 31
0.0
  0
LINE
  8
0
 62
     0
 10
238.883
 20
54.9328
 30
0.0
 11
224.882
 21
54.9328
 31
0.0
  0
LINE
  8
0
 62
     0
 10
243.932
 20
54.9328
 30
0.0
 11
243.932
 21
53.9323
 31
0.0
  0
LINE
  8
0
 62
     0
 10
243.932
 20
53.9323
 30
0.0
 11
243.133
 21
53.9323
 31
0.0
  0
LINE
  8
0
 62
     0
 10
243.133
 20
53.9323
 30
0.0
 11
243.133
 21
50.8332
 31
0.0
  0
LINE
  8
0
 62
     0
 10
243.133
 20
50.8332
 30
0.0
 11
243.932
 21
50.8332
 31
0.0
  0
LINE
  8
0
 62
     0
 10
243.932
 20
50.8332
 30
0.0
 11
243.932
 21
45.0328
 31
0.0
  0
LINE
  8
0
 62
     0
 10
243.932
 20
45.0328
 30
0.0
 11
243.133
 21
45.0328
 31
0.0
  0
LINE
  8
0
 62
     0
 10
243.133
 20
45.0328
 30
0.0
 11
243.133
 21
41.9322
 31
0.0
  0
LINE
  8
0
 62
     0
 10
243.133
 20
41.9322
 30
0.0
 11
243.932
 21
41.9322
 31
0.0
  0
LINE
  8
0
 62
     0
 10
243.932
 20
41.9322
 30
0.0
 11
243.932
 21
40.9317
 31
0.0
  0
LINE
  8
0
 62
     0
 10
243.932
 20
40.9317
 30
0.0
 11
257.933
 21
40.9317
 31
0.0
  0
LINE
  8
0
 62
     0
 10
257.933
 20
40.9317
 30
0.0
 11
257.933
 21
41.9322
 31
0.0
  0
LINE
  8
0
 62
     0
 10
257.933
 20
41.9322
 30
0.0
 11
258.732
 21
41.9322
 31
0.0
  0
LINE
  8
0
 62
     0
 10
258.732
 20
41.9322
 30
0.0
 11
258.732
 21
45.0328
 31
0.0
  0
LINE
  8
0
 62
     0
 10
258.732
 20
45.0328
 30
0.0
 11
257.933
 21
45.0328
 31
0.0
  0
LINE
  8
0
 62
     0
 10
257.933
 20
45.0328
 30
0.0
 11
257.933
 21
50.8332
 31
0.0
  0
LINE
  8
0
 62
     0
 10
257.933
 20
50.8332
 30
0.0
 11
258.732
 21
50.8332
 31
0.0
  0
LINE
  8
0
 62
     0
 10
258.732
 20
50.8332
 30
0.0
 11
258.732
 21
53.9323
 31
0.0
  0
LINE
  8
0
 62
     0
 10
258.732
 20
53.9323
 30
0.0
 11
257.933
 21
53.9323
 31
0.0
  0
LINE
  8
0
 62
     0
 10
257.933
 20
53.9323
 30
0.0
 11
257.933
 21
54.9328
 31
0.0
  0
LINE
  8
0
 62
     0
 10
257.933
 20
54.9328
 30
0.0
 11
243.932
 21
54.9328
 31
0.0
  0
LINE
  8
0
 62
     0
 10
270.126
 20
54.9328
 30
0.0
 11
270.126
 21
53.9323
 31
0.0
  0
LINE
  8
0
 62
     0
 10
270.126
 20
53.9323
 30
0.0
 11
269.326
 21
53.9323
 31
0.0
  0
LINE
  8
0
 62
     0
 10
269.326
 20
53.9323
 30
0.0
 11
269.326
 21
50.8332
 31
0.0
  0
LINE
  8
0
 62
     0
 10
269.326
 20
50.8332
 30
0.0
 11
270.126
 21
50.8332
 31
0.0
  0
LINE
  8
0
 62
     0
 10
270.126
 20
50.8332
 30
0.0
 11
270.126
 21
45.0328
 31
0.0
  0
LINE
  8
0
 62
     0
 10
270.126
 20
45.0328
 30
0.0
 11
269.326
 21
45.0328
 31
0.0
  0
LINE
  8
0
 62
     0
 10
269.326
 20
45.0328
 30
0.0
 11
269.326
 21
41.9322
 31
0.0
  0
LINE
  8
0
 62
     0
 10
269.326
 20
41.9322
 30
0.0
 11
270.126
 21
41.9322
 31
0.0
  0
LINE
  8
0
 62
     0
 10
270.126
 20
41.9322
 30
0.0
 11
270.126
 21
40.9317
 31
0.0
  0
LINE
  8
0
 62
     0
 10
270.126
 20
40.9317
 30
0.0
 11
284.127
 21
40.9317
 31
0.0
  0
LINE
  8
0
 62
     0
 10
284.127
 20
40.9317
 30
0.0
 11
284.127
 21
41.9322
 31
0.0
  0
LINE
  8
0
 62
     0
 10
284.127
 20
41.9322
 30
0.0
 11
284.926
 21
41.9322
 31
0.0
  0
LINE
  8
0
 62
     0
 10
284.926
 20
41.9322
 30
0.0
 11
284.926
 21
45.0328
 31
0.0
  0
LINE
  8
0
 62
     0
 10
284.926
 20
45.0328
 30
0.0
 11
284.127
 21
45.0328
 31
0.0
  0
LINE
  8
0
 62
     0
 10
284.127
 20
45.0328
 30
0.0
 11
284.127
 21
50.8332
 31
0.0
  0
LINE
  8
0
 62
     0
 10
284.127
 20
50.8332
 30
0.0
 11
284.926
 21
50.8332
 31
0.0
  0
LINE
  8
0
 62
     0
 10
284.926
 20
50.8332
 30
0.0
 11
284.926
 21
53.9323
 31
0.0
  0
LINE
  8
0
 62
     0
 10
284.926
 20
53.9323
 30
0.0
 11
284.127
 21
53.9323
 31
0.0
  0
LINE
  8
0
 62
     0
 10
284.127
 20
53.9323
 30
0.0
 11
284.127
 21
54.9328
 31
0.0
  0
LINE
  8
0
 62
     0
 10
284.127
 20
54.9328
 30
0.0
 11
270.126
 21
54.9328
 31
0.0
  0
LINE
  8
0
 62
     0
 10
296.321
 20
54.9328
 30
0.0
 11
296.321
 21
53.9323
 31
0.0
  0
LINE
  8
0
 62
     0
 10
296.321
 20
53.9323
 30
0.0
 11
295.52
 21
53.9323
 31
0.0
  0
LINE
  8
0
 62
     0
 10
295.52
 20
53.9323
 30
0.0
 11
295.52
 21
50.8332
 31
0.0
  0
LINE
  8
0
 62
     0
 10
295.52
 20
50.8332
 30
0.0
 11
296.321
 21
50.8332
 31
0.0
  0
LINE
  8
0
 62
     0
 10
296.321
 20
50.8332
 30
0.0
 11
296.321
 21
45.0328
 31
0.0
  0
LINE
  8
0
 62
     0
 10
296.321
 20
45.0328
 30
0.0
 11
295.52
 21
45.0328
 31
0.0
  0
LINE
  8
0
 62
     0
 10
295.52
 20
45.0328
 30
0.0
 11
295.52
 21
41.9322
 31
0.0
  0
LINE
  8
0
 62
     0
 10
295.52
 20
41.9322
 30
0.0
 11
296.321
 21
41.9322
 31
0.0
  0
LINE
  8
0
 62
     0
 10
296.321
 20
41.9322
 30
0.0
 11
296.321
 21
40.9317
 31
0.0
  0
LINE
  8
0
 62
     0
 10
296.321
 20
40.9317
 30
0.0
 11
310.32
 21
40.9317
 31
0.0
  0
LINE
  8
0
 62
     0
 10
310.32
 20
40.9317
 30
0.0
 11
310.32
 21
41.9322
 31
0.0
  0
LINE
  8
0
 62
     0
 10
310.32
 20
41.9322
 30
0.0
 11
311.121
 21
41.9322
 31
0.0
  0
LINE
  8
0
 62
     0
 10
311.121
 20
41.9322
 30
0.0
 11
311.121
 21
45.0328
 31
0.0
  0
LINE
  8
0
 62
     0
 10
311.121
 20
45.0328
 30
0.0
 11
310.32
 21
45.0328
 31
0.0
  0
LINE
  8
0
 62
     0
 10
310.32
 20
45.0328
 30
0.0
 11
310.32
 21
50.8332
 31
0.0
  0
LINE
  8
0
 62
     0
 10
310.32
 20
50.8332
 30
0.0
 11
311.121
 21
50.8332
 31
0.0
  0
LINE
  8
0
 62
     0
 10
311.121
 20
50.8332
 30
0.0
 11
311.121
 21
53.9323
 31
0.0
  0
LINE
  8
0
 62
     0
 10
311.121
 20
53.9323
 30
0.0
 11
310.32
 21
53.9323
 31
0.0
  0
LINE
  8
0
 62
     0
 10
310.32
 20
53.9323
 30
0.0
 11
310.32
 21
54.9328
 31
0.0
  0
LINE
  8
0
 62
     0
 10
310.32
 20
54.9328
 30
0.0
 11
296.321
 21
54.9328
 31
0.0
  0
LINE
  8
0
 62
     0
 10
284.413
 20
73.9828
 30
0.0
 11
284.413
 21
72.9823
 31
0.0
  0
LINE
  8
0
 62
     0
 10
284.413
 20
72.9823
 30
0.0
 11
283.614
 21
72.9823
 31
0.0
  0
LINE
  8
0
 62
     0
 10
283.614
 20
72.9823
 30
0.0
 11
283.614
 21
69.8817
 31
0.0
  0
LINE
  8
0
 62
     0
 10
283.614
 20
69.8817
 30
0.0
 11
284.413
 21
69.8817
 31
0.0
  0
LINE
  8
0
 62
     0
 10
284.413
 20
69.8817
 30
0.0
 11
284.413
 21
69.2824
 31
0.0
  0
LINE
  8
0
 62
     0
 10
284.413
 20
69.2824
 30
0.0
 11
282.888
 21
69.2824
 31
0.0
  0
LINE
  8
0
 62
     0
 10
282.888
 20
69.2824
 30
0.0
 11
282.888
 21
72.5124
 31
0.0
  0
LINE
  8
0
 62
     0
 10
282.888
 20
72.5124
 30
0.0
 11
276.138
 21
72.5124
 31
0.0
  0
LINE
  8
0
 62
     0
 10
276.138
 20
72.5124
 30
0.0
 11
276.138
 21
69.2824
 31
0.0
  0
LINE
  8
0
 62
     0
 10
276.138
 20
69.2824
 30
0.0
 11
275.314
 21
69.2824
 31
0.0
  0
LINE
  8
0
 62
     0
 10
275.314
 20
69.2824
 30
0.0
 11
275.314
 21
66.482
 31
0.0
  0
LINE
  8
0
 62
     0
 10
275.314
 20
66.482
 30
0.0
 11
276.138
 21
66.482
 31
0.0
  0
LINE
  8
0
 62
     0
 10
276.138
 20
66.482
 30
0.0
 11
276.138
 21
60.2121
 31
0.0
  0
LINE
  8
0
 62
     0
 10
276.138
 20
60.2121
 30
0.0
 11
277.864
 21
60.2121
 31
0.0
  0
LINE
  8
0
 62
     0
 10
277.864
 20
60.2121
 30
0.0
 11
277.864
 21
59.0116
 31
0.0
  0
LINE
  8
0
 62
     0
 10
277.864
 20
59.0116
 30
0.0
 11
281.164
 21
59.0116
 31
0.0
  0
LINE
  8
0
 62
     0
 10
281.164
 20
59.0116
 30
0.0
 11
281.164
 21
60.2121
 31
0.0
  0
LINE
  8
0
 62
     0
 10
281.164
 20
60.2121
 30
0.0
 11
282.888
 21
60.2121
 31
0.0
  0
LINE
  8
0
 62
     0
 10
282.888
 20
60.2121
 30
0.0
 11
282.888
 21
64.6825
 31
0.0
  0
LINE
  8
0
 62
     0
 10
282.888
 20
64.6825
 30
0.0
 11
284.413
 21
64.6825
 31
0.0
  0
LINE
  8
0
 62
     0
 10
284.413
 20
64.6825
 30
0.0
 11
284.413
 21
64.0828
 31
0.0
  0
LINE
  8
0
 62
     0
 10
284.413
 20
64.0828
 30
0.0
 11
283.614
 21
64.0828
 31
0.0
  0
LINE
  8
0
 62
     0
 10
283.614
 20
64.0828
 30
0.0
 11
283.614
 21
60.9822
 31
0.0
  0
LINE
  8
0
 62
     0
 10
283.614
 20
60.9822
 30
0.0
 11
284.413
 21
60.9822
 31
0.0
  0
LINE
  8
0
 62
     0
 10
284.413
 20
60.9822
 30
0.0
 11
284.413
 21
59.9817
 31
0.0
  0
LINE
  8
0
 62
     0
 10
284.413
 20
59.9817
 30
0.0
 11
298.414
 21
59.9817
 31
0.0
  0
LINE
  8
0
 62
     0
 10
298.414
 20
59.9817
 30
0.0
 11
298.414
 21
60.9822
 31
0.0
  0
LINE
  8
0
 62
     0
 10
298.414
 20
60.9822
 30
0.0
 11
299.213
 21
60.9822
 31
0.0
  0
LINE
  8
0
 62
     0
 10
299.213
 20
60.9822
 30
0.0
 11
299.213
 21
64.0828
 31
0.0
  0
LINE
  8
0
 62
     0
 10
299.213
 20
64.0828
 30
0.0
 11
298.414
 21
64.0828
 31
0.0
  0
LINE
  8
0
 62
     0
 10
298.414
 20
64.0828
 30
0.0
 11
298.414
 21
64.6825
 31
0.0
  0
LINE
  8
0
 62
     0
 10
298.414
 20
64.6825
 30
0.0
 11
299.938
 21
64.6825
 31
0.0
  0
LINE
  8
0
 62
     0
 10
299.938
 20
64.6825
 30
0.0
 11
299.938
 21
60.2121
 31
0.0
  0
LINE
  8
0
 62
     0
 10
299.938
 20
60.2121
 30
0.0
 11
301.663
 21
60.2121
 31
0.0
  0
LINE
  8
0
 62
     0
 10
301.663
 20
60.2121
 30
0.0
 11
301.663
 21
59.0116
 31
0.0
  0
LINE
  8
0
 62
     0
 10
301.663
 20
59.0116
 30
0.0
 11
304.964
 21
59.0116
 31
0.0
  0
LINE
  8
0
 62
     0
 10
304.964
 20
59.0116
 30
0.0
 11
304.964
 21
60.2121
 31
0.0
  0
LINE
  8
0
 62
     0
 10
304.964
 20
60.2121
 30
0.0
 11
306.688
 21
60.2121
 31
0.0
  0
LINE
  8
0
 62
     0
 10
306.688
 20
60.2121
 30
0.0
 11
306.688
 21
66.482
 31
0.0
  0
LINE
  8
0
 62
     0
 10
306.688
 20
66.482
 30
0.0
 11
307.513
 21
66.482
 31
0.0
  0
LINE
  8
0
 62
     0
 10
307.513
 20
66.482
 30
0.0
 11
307.513
 21
69.2824
 31
0.0
  0
LINE
  8
0
 62
     0
 10
307.513
 20
69.2824
 30
0.0
 11
306.688
 21
69.2824
 31
0.0
  0
LINE
  8
0
 62
     0
 10
306.688
 20
69.2824
 30
0.0
 11
306.688
 21
72.5124
 31
0.0
  0
LINE
  8
0
 62
     0
 10
306.688
 20
72.5124
 30
0.0
 11
299.938
 21
72.5124
 31
0.0
  0
LINE
  8
0
 62
     0
 10
299.938
 20
72.5124
 30
0.0
 11
299.938
 21
69.2824
 31
0.0
  0
LINE
  8
0
 62
     0
 10
299.938
 20
69.2824
 30
0.0
 11
298.414
 21
69.2824
 31
0.0
  0
LINE
  8
0
 62
     0
 10
298.414
 20
69.2824
 30
0.0
 11
298.414
 21
69.8817
 31
0.0
  0
LINE
  8
0
 62
     0
 10
298.414
 20
69.8817
 30
0.0
 11
299.213
 21
69.8817
 31
0.0
  0
LINE
  8
0
 62
     0
 10
299.213
 20
69.8817
 30
0.0
 11
299.213
 21
72.9823
 31
0.0
  0
LINE
  8
0
 62
     0
 10
299.213
 20
72.9823
 30
0.0
 11
298.414
 21
72.9823
 31
0.0
  0
LINE
  8
0
 62
     0
 10
298.414
 20
72.9823
 30
0.0
 11
298.414
 21
73.9828
 31
0.0
  0
LINE
  8
0
 62
     0
 10
298.414
 20
73.9828
 30
0.0
 11
284.413
 21
73.9828
 31
0.0
  0
LINE
  8
0
 62
     0
 10
36.7633
 20
73.9828
 30
0.0
 11
36.7633
 21
72.9823
 31
0.0
  0
LINE
  8
0
 62
     0
 10
36.7633
 20
72.9823
 30
0.0
 11
35.9639
 21
72.9823
 31
0.0
  0
LINE
  8
0
 62
     0
 10
35.9639
 20
72.9823
 30
0.0
 11
35.9639
 21
69.8817
 31
0.0
  0
LINE
  8
0
 62
     0
 10
35.9639
 20
69.8817
 30
0.0
 11
36.7633
 21
69.8817
 31
0.0
  0
LINE
  8
0
 62
     0
 10
36.7633
 20
69.8817
 30
0.0
 11
36.7633
 21
64.0828
 31
0.0
  0
LINE
  8
0
 62
     0
 10
36.7633
 20
64.0828
 30
0.0
 11
35.9639
 21
64.0828
 31
0.0
  0
LINE
  8
0
 62
     0
 10
35.9639
 20
64.0828
 30
0.0
 11
35.9639
 21
60.9822
 31
0.0
  0
LINE
  8
0
 62
     0
 10
35.9639
 20
60.9822
 30
0.0
 11
36.7633
 21
60.9822
 31
0.0
  0
LINE
  8
0
 62
     0
 10
36.7633
 20
60.9822
 30
0.0
 11
36.7633
 21
59.9817
 31
0.0
  0
LINE
  8
0
 62
     0
 10
36.7633
 20
59.9817
 30
0.0
 11
50.764
 21
59.9817
 31
0.0
  0
LINE
  8
0
 62
     0
 10
50.764
 20
59.9817
 30
0.0
 11
50.764
 21
60.9822
 31
0.0
  0
LINE
  8
0
 62
     0
 10
50.764
 20
60.9822
 30
0.0
 11
51.5634
 21
60.9822
 31
0.0
  0
LINE
  8
0
 62
     0
 10
51.5634
 20
60.9822
 30
0.0
 11
51.5634
 21
64.0828
 31
0.0
  0
LINE
  8
0
 62
     0
 10
51.5634
 20
64.0828
 30
0.0
 11
50.764
 21
64.0828
 31
0.0
  0
LINE
  8
0
 62
     0
 10
50.764
 20
64.0828
 30
0.0
 11
50.764
 21
69.8817
 31
0.0
  0
LINE
  8
0
 62
     0
 10
50.764
 20
69.8817
 30
0.0
 11
51.5634
 21
69.8817
 31
0.0
  0
LINE
  8
0
 62
     0
 10
51.5634
 20
69.8817
 30
0.0
 11
51.5634
 21
72.9823
 31
0.0
  0
LINE
  8
0
 62
     0
 10
51.5634
 20
72.9823
 30
0.0
 11
50.764
 21
72.9823
 31
0.0
  0
LINE
  8
0
 62
     0
 10
50.764
 20
72.9823
 30
0.0
 11
50.764
 21
73.9828
 31
0.0
  0
LINE
  8
0
 62
     0
 10
50.764
 20
73.9828
 30
0.0
 11
36.7633
 21
73.9828
 31
0.0
  0
LINE
  8
0
 62
     0
 10
62.9571
 20
73.9828
 30
0.0
 11
62.9571
 21
72.9823
 31
0.0
  0
LINE
  8
0
 62
     0
 10
62.9571
 20
72.9823
 30
0.0
 11
62.1577
 21
72.9823
 31
0.0
  0
LINE
  8
0
 62
     0
 10
62.1577
 20
72.9823
 30
0.0
 11
62.1577
 21
69.8817
 31
0.0
  0
LINE
  8
0
 62
     0
 10
62.1577
 20
69.8817
 30
0.0
 11
62.9571
 21
69.8817
 31
0.0
  0
LINE
  8
0
 62
     0
 10
62.9571
 20
69.8817
 30
0.0
 11
62.9571
 21
64.0828
 31
0.0
  0
LINE
  8
0
 62
     0
 10
62.9571
 20
64.0828
 30
0.0
 11
62.1577
 21
64.0828
 31
0.0
  0
LINE
  8
0
 62
     0
 10
62.1577
 20
64.0828
 30
0.0
 11
62.1577
 21
60.9822
 31
0.0
  0
LINE
  8
0
 62
     0
 10
62.1577
 20
60.9822
 30
0.0
 11
62.9571
 21
60.9822
 31
0.0
  0
LINE
  8
0
 62
     0
 10
62.9571
 20
60.9822
 30
0.0
 11
62.9571
 21
59.9817
 31
0.0
  0
LINE
  8
0
 62
     0
 10
62.9571
 20
59.9817
 30
0.0
 11
76.9578
 21
59.9817
 31
0.0
  0
LINE
  8
0
 62
     0
 10
76.9578
 20
59.9817
 30
0.0
 11
76.9578
 21
60.9822
 31
0.0
  0
LINE
  8
0
 62
     0
 10
76.9578
 20
60.9822
 30
0.0
 11
77.7572
 21
60.9822
 31
0.0
  0
LINE
  8
0
 62
     0
 10
77.7572
 20
60.9822
 30
0.0
 11
77.7572
 21
64.0828
 31
0.0
  0
LINE
  8
0
 62
     0
 10
77.7572
 20
64.0828
 30
0.0
 11
76.9578
 21
64.0828
 31
0.0
  0
LINE
  8
0
 62
     0
 10
76.9578
 20
64.0828
 30
0.0
 11
76.9578
 21
69.8817
 31
0.0
  0
LINE
  8
0
 62
     0
 10
76.9578
 20
69.8817
 30
0.0
 11
77.7572
 21
69.8817
 31
0.0
  0
LINE
  8
0
 62
     0
 10
77.7572
 20
69.8817
 30
0.0
 11
77.7572
 21
72.9823
 31
0.0
  0
LINE
  8
0
 62
     0
 10
77.7572
 20
72.9823
 30
0.0
 11
76.9578
 21
72.9823
 31
0.0
  0
LINE
  8
0
 62
     0
 10
76.9578
 20
72.9823
 30
0.0
 11
76.9578
 21
73.9828
 31
0.0
  0
LINE
  8
0
 62
     0
 10
76.9578
 20
73.9828
 30
0.0
 11
62.9571
 21
73.9828
 31
0.0
  0
LINE
  8
0
 62
     0
 10
82.0071
 20
73.9828
 30
0.0
 11
82.0071
 21
72.9823
 31
0.0
  0
LINE
  8
0
 62
     0
 10
82.0071
 20
72.9823
 30
0.0
 11
81.2077
 21
72.9823
 31
0.0
  0
LINE
  8
0
 62
     0
 10
81.2077
 20
72.9823
 30
0.0
 11
81.2077
 21
69.8817
 31
0.0
  0
LINE
  8
0
 62
     0
 10
81.2077
 20
69.8817
 30
0.0
 11
82.0071
 21
69.8817
 31
0.0
  0
LINE
  8
0
 62
     0
 10
82.0071
 20
69.8817
 30
0.0
 11
82.0071
 21
64.0828
 31
0.0
  0
LINE
  8
0
 62
     0
 10
82.0071
 20
64.0828
 30
0.0
 11
81.2077
 21
64.0828
 31
0.0
  0
LINE
  8
0
 62
     0
 10
81.2077
 20
64.0828
 30
0.0
 11
81.2077
 21
60.9822
 31
0.0
  0
LINE
  8
0
 62
     0
 10
81.2077
 20
60.9822
 30
0.0
 11
82.0071
 21
60.9822
 31
0.0
  0
LINE
  8
0
 62
     0
 10
82.0071
 20
60.9822
 30
0.0
 11
82.0071
 21
59.9817
 31
0.0
  0
LINE
  8
0
 62
     0
 10
82.0071
 20
59.9817
 30
0.0
 11
96.0078
 21
59.9817
 31
0.0
  0
LINE
  8
0
 62
     0
 10
96.0078
 20
59.9817
 30
0.0
 11
96.0078
 21
60.9822
 31
0.0
  0
LINE
  8
0
 62
     0
 10
96.0078
 20
60.9822
 30
0.0
 11
96.8072
 21
60.9822
 31
0.0
  0
LINE
  8
0
 62
     0
 10
96.8072
 20
60.9822
 30
0.0
 11
96.8072
 21
64.0828
 31
0.0
  0
LINE
  8
0
 62
     0
 10
96.8072
 20
64.0828
 30
0.0
 11
96.0078
 21
64.0828
 31
0.0
  0
LINE
  8
0
 62
     0
 10
96.0078
 20
64.0828
 30
0.0
 11
96.0078
 21
69.8817
 31
0.0
  0
LINE
  8
0
 62
     0
 10
96.0078
 20
69.8817
 30
0.0
 11
96.8072
 21
69.8817
 31
0.0
  0
LINE
  8
0
 62
     0
 10
96.8072
 20
69.8817
 30
0.0
 11
96.8072
 21
72.9823
 31
0.0
  0
LINE
  8
0
 62
     0
 10
96.8072
 20
72.9823
 30
0.0
 11
96.0078
 21
72.9823
 31
0.0
  0
LINE
  8
0
 62
     0
 10
96.0078
 20
72.9823
 30
0.0
 11
96.0078
 21
73.9828
 31
0.0
  0
LINE
  8
0
 62
     0
 10
96.0078
 20
73.9828
 30
0.0
 11
82.0071
 21
73.9828
 31
0.0
  0
LINE
  8
0
 62
     0
 10
101.057
 20
73.9828
 30
0.0
 11
101.057
 21
72.9823
 31
0.0
  0
LINE
  8
0
 62
     0
 10
101.057
 20
72.9823
 30
0.0
 11
100.258
 21
72.9823
 31
0.0
  0
LINE
  8
0
 62
     0
 10
100.258
 20
72.9823
 30
0.0
 11
100.258
 21
69.8817
 31
0.0
  0
LINE
  8
0
 62
     0
 10
100.258
 20
69.8817
 30
0.0
 11
101.057
 21
69.8817
 31
0.0
  0
LINE
  8
0
 62
     0
 10
101.057
 20
69.8817
 30
0.0
 11
101.057
 21
64.0828
 31
0.0
  0
LINE
  8
0
 62
     0
 10
101.057
 20
64.0828
 30
0.0
 11
100.258
 21
64.0828
 31
0.0
  0
LINE
  8
0
 62
     0
 10
100.258
 20
64.0828
 30
0.0
 11
100.258
 21
60.9822
 31
0.0
  0
LINE
  8
0
 62
     0
 10
100.258
 20
60.9822
 30
0.0
 11
101.057
 21
60.9822
 31
0.0
  0
LINE
  8
0
 62
     0
 10
101.057
 20
60.9822
 30
0.0
 11
101.057
 21
59.9817
 31
0.0
  0
LINE
  8
0
 62
     0
 10
101.057
 20
59.9817
 30
0.0
 11
115.058
 21
59.9817
 31
0.0
  0
LINE
  8
0
 62
     0
 10
115.058
 20
59.9817
 30
0.0
 11
115.058
 21
60.9822
 31
0.0
  0
LINE
  8
0
 62
     0
 10
115.058
 20
60.9822
 30
0.0
 11
115.857
 21
60.9822
 31
0.0
  0
LINE
  8
0
 62
     0
 10
115.857
 20
60.9822
 30
0.0
 11
115.857
 21
64.0828
 31
0.0
  0
LINE
  8
0
 62
     0
 10
115.857
 20
64.0828
 30
0.0
 11
115.058
 21
64.0828
 31
0.0
  0
LINE
  8
0
 62
     0
 10
115.058
 20
64.0828
 30
0.0
 11
115.058
 21
69.8817
 31
0.0
  0
LINE
  8
0
 62
     0
 10
115.058
 20
69.8817
 30
0.0
 11
115.857
 21
69.8817
 31
0.0
  0
LINE
  8
0
 62
     0
 10
115.857
 20
69.8817
 30
0.0
 11
115.857
 21
72.9823
 31
0.0
  0
LINE
  8
0
 62
     0
 10
115.857
 20
72.9823
 30
0.0
 11
115.058
 21
72.9823
 31
0.0
  0
LINE
  8
0
 62
     0
 10
115.058
 20
72.9823
 30
0.0
 11
115.058
 21
73.9828
 31
0.0
  0
LINE
  8
0
 62
     0
 10
115.058
 20
73.9828
 30
0.0
 11
101.057
 21
73.9828
 31
0.0
  0
LINE
  8
0
 62
     0
 10
120.107
 20
73.9828
 30
0.0
 11
120.107
 21
72.9823
 31
0.0
  0
LINE
  8
0
 62
     0
 10
120.107
 20
72.9823
 30
0.0
 11
119.308
 21
72.9823
 31
0.0
  0
LINE
  8
0
 62
     0
 10
119.308
 20
72.9823
 30
0.0
 11
119.308
 21
69.8817
 31
0.0
  0
LINE
  8
0
 62
     0
 10
119.308
 20
69.8817
 30
0.0
 11
120.107
 21
69.8817
 31
0.0
  0
LINE
  8
0
 62
     0
 10
120.107
 20
69.8817
 30
0.0
 11
120.107
 21
64.0828
 31
0.0
  0
LINE
  8
0
 62
     0
 10
120.107
 20
64.0828
 30
0.0
 11
119.308
 21
64.0828
 31
0.0
  0
LINE
  8
0
 62
     0
 10
119.308
 20
64.0828
 30
0.0
 11
119.308
 21
60.9822
 31
0.0
  0
LINE
  8
0
 62
     0
 10
119.308
 20
60.9822
 30
0.0
 11
120.107
 21
60.9822
 31
0.0
  0
LINE
  8
0
 62
     0
 10
120.107
 20
60.9822
 30
0.0
 11
120.107
 21
59.9817
 31
0.0
  0
LINE
  8
0
 62
     0
 10
120.107
 20
59.9817
 30
0.0
 11
134.108
 21
59.9817
 31
0.0
  0
LINE
  8
0
 62
     0
 10
134.108
 20
59.9817
 30
0.0
 11
134.108
 21
60.9822
 31
0.0
  0
LINE
  8
0
 62
     0
 10
134.108
 20
60.9822
 30
0.0
 11
134.907
 21
60.9822
 31
0.0
  0
LINE
  8
0
 62
     0
 10
134.907
 20
60.9822
 30
0.0
 11
134.907
 21
64.0828
 31
0.0
  0
LINE
  8
0
 62
     0
 10
134.907
 20
64.0828
 30
0.0
 11
134.108
 21
64.0828
 31
0.0
  0
LINE
  8
0
 62
     0
 10
134.108
 20
64.0828
 30
0.0
 11
134.108
 21
69.8817
 31
0.0
  0
LINE
  8
0
 62
     0
 10
134.108
 20
69.8817
 30
0.0
 11
134.907
 21
69.8817
 31
0.0
  0
LINE
  8
0
 62
     0
 10
134.907
 20
69.8817
 30
0.0
 11
134.907
 21
72.9823
 31
0.0
  0
LINE
  8
0
 62
     0
 10
134.907
 20
72.9823
 30
0.0
 11
134.108
 21
72.9823
 31
0.0
  0
LINE
  8
0
 62
     0
 10
134.108
 20
72.9823
 30
0.0
 11
134.108
 21
73.9828
 31
0.0
  0
LINE
  8
0
 62
     0
 10
134.108
 20
73.9828
 30
0.0
 11
120.107
 21
73.9828
 31
0.0
  0
LINE
  8
0
 62
     0
 10
139.157
 20
73.9828
 30
0.0
 11
139.157
 21
72.9823
 31
0.0
  0
LINE
  8
0
 62
     0
 10
139.157
 20
72.9823
 30
0.0
 11
138.358
 21
72.9823
 31
0.0
  0
LINE
  8
0
 62
     0
 10
138.358
 20
72.9823
 30
0.0
 11
138.358
 21
69.8817
 31
0.0
  0
LINE
  8
0
 62
     0
 10
138.358
 20
69.8817
 30
0.0
 11
139.157
 21
69.8817
 31
0.0
  0
LINE
  8
0
 62
     0
 10
139.157
 20
69.8817
 30
0.0
 11
139.157
 21
64.0828
 31
0.0
  0
LINE
  8
0
 62
     0
 10
139.157
 20
64.0828
 30
0.0
 11
138.358
 21
64.0828
 31
0.0
  0
LINE
  8
0
 62
     0
 10
138.358
 20
64.0828
 30
0.0
 11
138.358
 21
60.9822
 31
0.0
  0
LINE
  8
0
 62
     0
 10
138.358
 20
60.9822
 30
0.0
 11
139.157
 21
60.9822
 31
0.0
  0
LINE
  8
0
 62
     0
 10
139.157
 20
60.9822
 30
0.0
 11
139.157
 21
59.9817
 31
0.0
  0
LINE
  8
0
 62
     0
 10
139.157
 20
59.9817
 30
0.0
 11
153.158
 21
59.9817
 31
0.0
  0
LINE
  8
0
 62
     0
 10
153.158
 20
59.9817
 30
0.0
 11
153.158
 21
60.9822
 31
0.0
  0
LINE
  8
0
 62
     0
 10
153.158
 20
60.9822
 30
0.0
 11
153.957
 21
60.9822
 31
0.0
  0
LINE
  8
0
 62
     0
 10
153.957
 20
60.9822
 30
0.0
 11
153.957
 21
64.0828
 31
0.0
  0
LINE
  8
0
 62
     0
 10
153.957
 20
64.0828
 30
0.0
 11
153.158
 21
64.0828
 31
0.0
  0
LINE
  8
0
 62
     0
 10
153.158
 20
64.0828
 30
0.0
 11
153.158
 21
69.8817
 31
0.0
  0
LINE
  8
0
 62
     0
 10
153.158
 20
69.8817
 30
0.0
 11
153.957
 21
69.8817
 31
0.0
  0
LINE
  8
0
 62
     0
 10
153.957
 20
69.8817
 30
0.0
 11
153.957
 21
72.9823
 31
0.0
  0
LINE
  8
0
 62
     0
 10
153.957
 20
72.9823
 30
0.0
 11
153.158
 21
72.9823
 31
0.0
  0
LINE
  8
0
 62
     0
 10
153.158
 20
72.9823
 30
0.0
 11
153.158
 21
73.9828
 31
0.0
  0
LINE
  8
0
 62
     0
 10
153.158
 20
73.9828
 30
0.0
 11
139.157
 21
73.9828
 31
0.0
  0
LINE
  8
0
 62
     0
 10
158.207
 20
73.9828
 30
0.0
 11
158.207
 21
72.9823
 31
0.0
  0
LINE
  8
0
 62
     0
 10
158.207
 20
72.9823
 30
0.0
 11
157.408
 21
72.9823
 31
0.0
  0
LINE
  8
0
 62
     0
 10
157.408
 20
72.9823
 30
0.0
 11
157.408
 21
69.8817
 31
0.0
  0
LINE
  8
0
 62
     0
 10
157.408
 20
69.8817
 30
0.0
 11
158.207
 21
69.8817
 31
0.0
  0
LINE
  8
0
 62
     0
 10
158.207
 20
69.8817
 30
0.0
 11
158.207
 21
64.0828
 31
0.0
  0
LINE
  8
0
 62
     0
 10
158.207
 20
64.0828
 30
0.0
 11
157.408
 21
64.0828
 31
0.0
  0
LINE
  8
0
 62
     0
 10
157.408
 20
64.0828
 30
0.0
 11
157.408
 21
60.9822
 31
0.0
  0
LINE
  8
0
 62
     0
 10
157.408
 20
60.9822
 30
0.0
 11
158.207
 21
60.9822
 31
0.0
  0
LINE
  8
0
 62
     0
 10
158.207
 20
60.9822
 30
0.0
 11
158.207
 21
59.9817
 31
0.0
  0
LINE
  8
0
 62
     0
 10
158.207
 20
59.9817
 30
0.0
 11
172.208
 21
59.9817
 31
0.0
  0
LINE
  8
0
 62
     0
 10
172.208
 20
59.9817
 30
0.0
 11
172.208
 21
60.9822
 31
0.0
  0
LINE
  8
0
 62
     0
 10
172.208
 20
60.9822
 30
0.0
 11
173.007
 21
60.9822
 31
0.0
  0
LINE
  8
0
 62
     0
 10
173.007
 20
60.9822
 30
0.0
 11
173.007
 21
64.0828
 31
0.0
  0
LINE
  8
0
 62
     0
 10
173.007
 20
64.0828
 30
0.0
 11
172.208
 21
64.0828
 31
0.0
  0
LINE
  8
0
 62
     0
 10
172.208
 20
64.0828
 30
0.0
 11
172.208
 21
69.8817
 31
0.0
  0
LINE
  8
0
 62
     0
 10
172.208
 20
69.8817
 30
0.0
 11
173.007
 21
69.8817
 31
0.0
  0
LINE
  8
0
 62
     0
 10
173.007
 20
69.8817
 30
0.0
 11
173.007
 21
72.9823
 31
0.0
  0
LINE
  8
0
 62
     0
 10
173.007
 20
72.9823
 30
0.0
 11
172.208
 21
72.9823
 31
0.0
  0
LINE
  8
0
 62
     0
 10
172.208
 20
72.9823
 30
0.0
 11
172.208
 21
73.9828
 31
0.0
  0
LINE
  8
0
 62
     0
 10
172.208
 20
73.9828
 30
0.0
 11
158.207
 21
73.9828
 31
0.0
  0
LINE
  8
0
 62
     0
 10
177.257
 20
73.9828
 30
0.0
 11
177.257
 21
72.9823
 31
0.0
  0
LINE
  8
0
 62
     0
 10
177.257
 20
72.9823
 30
0.0
 11
176.458
 21
72.9823
 31
0.0
  0
LINE
  8
0
 62
     0
 10
176.458
 20
72.9823
 30
0.0
 11
176.458
 21
69.8817
 31
0.0
  0
LINE
  8
0
 62
     0
 10
176.458
 20
69.8817
 30
0.0
 11
177.257
 21
69.8817
 31
0.0
  0
LINE
  8
0
 62
     0
 10
177.257
 20
69.8817
 30
0.0
 11
177.257
 21
64.0828
 31
0.0
  0
LINE
  8
0
 62
     0
 10
177.257
 20
64.0828
 30
0.0
 11
176.458
 21
64.0828
 31
0.0
  0
LINE
  8
0
 62
     0
 10
176.458
 20
64.0828
 30
0.0
 11
176.458
 21
60.9822
 31
0.0
  0
LINE
  8
0
 62
     0
 10
176.458
 20
60.9822
 30
0.0
 11
177.257
 21
60.9822
 31
0.0
  0
LINE
  8
0
 62
     0
 10
177.257
 20
60.9822
 30
0.0
 11
177.257
 21
59.9817
 31
0.0
  0
LINE
  8
0
 62
     0
 10
177.257
 20
59.9817
 30
0.0
 11
191.258
 21
59.9817
 31
0.0
  0
LINE
  8
0
 62
     0
 10
191.258
 20
59.9817
 30
0.0
 11
191.258
 21
60.9822
 31
0.0
  0
LINE
  8
0
 62
     0
 10
191.258
 20
60.9822
 30
0.0
 11
192.057
 21
60.9822
 31
0.0
  0
LINE
  8
0
 62
     0
 10
192.057
 20
60.9822
 30
0.0
 11
192.057
 21
64.0828
 31
0.0
  0
LINE
  8
0
 62
     0
 10
192.057
 20
64.0828
 30
0.0
 11
191.258
 21
64.0828
 31
0.0
  0
LINE
  8
0
 62
     0
 10
191.258
 20
64.0828
 30
0.0
 11
191.258
 21
69.8817
 31
0.0
  0
LINE
  8
0
 62
     0
 10
191.258
 20
69.8817
 30
0.0
 11
192.057
 21
69.8817
 31
0.0
  0
LINE
  8
0
 62
     0
 10
192.057
 20
69.8817
 30
0.0
 11
192.057
 21
72.9823
 31
0.0
  0
LINE
  8
0
 62
     0
 10
192.057
 20
72.9823
 30
0.0
 11
191.258
 21
72.9823
 31
0.0
  0
LINE
  8
0
 62
     0
 10
191.258
 20
72.9823
 30
0.0
 11
191.258
 21
73.9828
 31
0.0
  0
LINE
  8
0
 62
     0
 10
191.258
 20
73.9828
 30
0.0
 11
177.257
 21
73.9828
 31
0.0
  0
LINE
  8
0
 62
     0
 10
196.307
 20
73.9828
 30
0.0
 11
196.307
 21
72.9823
 31
0.0
  0
LINE
  8
0
 62
     0
 10
196.307
 20
72.9823
 30
0.0
 11
195.508
 21
72.9823
 31
0.0
  0
LINE
  8
0
 62
     0
 10
195.508
 20
72.9823
 30
0.0
 11
195.508
 21
69.8817
 31
0.0
  0
LINE
  8
0
 62
     0
 10
195.508
 20
69.8817
 30
0.0
 11
196.307
 21
69.8817
 31
0.0
  0
LINE
  8
0
 62
     0
 10
196.307
 20
69.8817
 30
0.0
 11
196.307
 21
64.0828
 31
0.0
  0
LINE
  8
0
 62
     0
 10
196.307
 20
64.0828
 30
0.0
 11
195.508
 21
64.0828
 31
0.0
  0
LINE
  8
0
 62
     0
 10
195.508
 20
64.0828
 30
0.0
 11
195.508
 21
60.9822
 31
0.0
  0
LINE
  8
0
 62
     0
 10
195.508
 20
60.9822
 30
0.0
 11
196.307
 21
60.9822
 31
0.0
  0
LINE
  8
0
 62
     0
 10
196.307
 20
60.9822
 30
0.0
 11
196.307
 21
59.9817
 31
0.0
  0
LINE
  8
0
 62
     0
 10
196.307
 20
59.9817
 30
0.0
 11
210.308
 21
59.9817
 31
0.0
  0
LINE
  8
0
 62
     0
 10
210.308
 20
59.9817
 30
0.0
 11
210.308
 21
60.9822
 31
0.0
  0
LINE
  8
0
 62
     0
 10
210.308
 20
60.9822
 30
0.0
 11
211.107
 21
60.9822
 31
0.0
  0
LINE
  8
0
 62
     0
 10
211.107
 20
60.9822
 30
0.0
 11
211.107
 21
64.0828
 31
0.0
  0
LINE
  8
0
 62
     0
 10
211.107
 20
64.0828
 30
0.0
 11
210.308
 21
64.0828
 31
0.0
  0
LINE
  8
0
 62
     0
 10
210.308
 20
64.0828
 30
0.0
 11
210.308
 21
69.8817
 31
0.0
  0
LINE
  8
0
 62
     0
 10
210.308
 20
69.8817
 30
0.0
 11
211.107
 21
69.8817
 31
0.0
  0
LINE
  8
0
 62
     0
 10
211.107
 20
69.8817
 30
0.0
 11
211.107
 21
72.9823
 31
0.0
  0
LINE
  8
0
 62
     0
 10
211.107
 20
72.9823
 30
0.0
 11
210.308
 21
72.9823
 31
0.0
  0
LINE
  8
0
 62
     0
 10
210.308
 20
72.9823
 30
0.0
 11
210.308
 21
73.9828
 31
0.0
  0
LINE
  8
0
 62
     0
 10
210.308
 20
73.9828
 30
0.0
 11
196.307
 21
73.9828
 31
0.0
  0
LINE
  8
0
 62
     0
 10
215.357
 20
73.9828
 30
0.0
 11
215.357
 21
72.9823
 31
0.0
  0
LINE
  8
0
 62
     0
 10
215.357
 20
72.9823
 30
0.0
 11
214.558
 21
72.9823
 31
0.0
  0
LINE
  8
0
 62
     0
 10
214.558
 20
72.9823
 30
0.0
 11
214.558
 21
69.8817
 31
0.0
  0
LINE
  8
0
 62
     0
 10
214.558
 20
69.8817
 30
0.0
 11
215.357
 21
69.8817
 31
0.0
  0
LINE
  8
0
 62
     0
 10
215.357
 20
69.8817
 30
0.0
 11
215.357
 21
64.0828
 31
0.0
  0
LINE
  8
0
 62
     0
 10
215.357
 20
64.0828
 30
0.0
 11
214.558
 21
64.0828
 31
0.0
  0
LINE
  8
0
 62
     0
 10
214.558
 20
64.0828
 30
0.0
 11
214.558
 21
60.9822
 31
0.0
  0
LINE
  8
0
 62
     0
 10
214.558
 20
60.9822
 30
0.0
 11
215.357
 21
60.9822
 31
0.0
  0
LINE
  8
0
 62
     0
 10
215.357
 20
60.9822
 30
0.0
 11
215.357
 21
59.9817
 31
0.0
  0
LINE
  8
0
 62
     0
 10
215.357
 20
59.9817
 30
0.0
 11
229.358
 21
59.9817
 31
0.0
  0
LINE
  8
0
 62
     0
 10
229.358
 20
59.9817
 30
0.0
 11
229.358
 21
60.9822
 31
0.0
  0
LINE
  8
0
 62
     0
 10
229.358
 20
60.9822
 30
0.0
 11
230.157
 21
60.9822
 31
0.0
  0
LINE
  8
0
 62
     0
 10
230.157
 20
60.9822
 30
0.0
 11
230.157
 21
64.0828
 31
0.0
  0
LINE
  8
0
 62
     0
 10
230.157
 20
64.0828
 30
0.0
 11
229.358
 21
64.0828
 31
0.0
  0
LINE
  8
0
 62
     0
 10
229.358
 20
64.0828
 30
0.0
 11
229.358
 21
69.8817
 31
0.0
  0
LINE
  8
0
 62
     0
 10
229.358
 20
69.8817
 30
0.0
 11
230.157
 21
69.8817
 31
0.0
  0
LINE
  8
0
 62
     0
 10
230.157
 20
69.8817
 30
0.0
 11
230.157
 21
72.9823
 31
0.0
  0
LINE
  8
0
 62
     0
 10
230.157
 20
72.9823
 30
0.0
 11
229.358
 21
72.9823
 31
0.0
  0
LINE
  8
0
 62
     0
 10
229.358
 20
72.9823
 30
0.0
 11
229.358
 21
73.9828
 31
0.0
  0
LINE
  8
0
 62
     0
 10
229.358
 20
73.9828
 30
0.0
 11
215.357
 21
73.9828
 31
0.0
  0
LINE
  8
0
 62
     0
 10
234.407
 20
73.9828
 30
0.0
 11
234.407
 21
72.9823
 31
0.0
  0
LINE
  8
0
 62
     0
 10
234.407
 20
72.9823
 30
0.0
 11
233.608
 21
72.9823
 31
0.0
  0
LINE
  8
0
 62
     0
 10
233.608
 20
72.9823
 30
0.0
 11
233.608
 21
69.8817
 31
0.0
  0
LINE
  8
0
 62
     0
 10
233.608
 20
69.8817
 30
0.0
 11
234.407
 21
69.8817
 31
0.0
  0
LINE
  8
0
 62
     0
 10
234.407
 20
69.8817
 30
0.0
 11
234.407
 21
64.0828
 31
0.0
  0
LINE
  8
0
 62
     0
 10
234.407
 20
64.0828
 30
0.0
 11
233.608
 21
64.0828
 31
0.0
  0
LINE
  8
0
 62
     0
 10
233.608
 20
64.0828
 30
0.0
 11
233.608
 21
60.9822
 31
0.0
  0
LINE
  8
0
 62
     0
 10
233.608
 20
60.9822
 30
0.0
 11
234.407
 21
60.9822
 31
0.0
  0
LINE
  8
0
 62
     0
 10
234.407
 20
60.9822
 30
0.0
 11
234.407
 21
59.9817
 31
0.0
  0
LINE
  8
0
 62
     0
 10
234.407
 20
59.9817
 30
0.0
 11
248.408
 21
59.9817
 31
0.0
  0
LINE
  8
0
 62
     0
 10
248.408
 20
59.9817
 30
0.0
 11
248.408
 21
60.9822
 31
0.0
  0
LINE
  8
0
 62
     0
 10
248.408
 20
60.9822
 30
0.0
 11
249.207
 21
60.9822
 31
0.0
  0
LINE
  8
0
 62
     0
 10
249.207
 20
60.9822
 30
0.0
 11
249.207
 21
64.0828
 31
0.0
  0
LINE
  8
0
 62
     0
 10
249.207
 20
64.0828
 30
0.0
 11
248.408
 21
64.0828
 31
0.0
  0
LINE
  8
0
 62
     0
 10
248.408
 20
64.0828
 30
0.0
 11
248.408
 21
69.8817
 31
0.0
  0
LINE
  8
0
 62
     0
 10
248.408
 20
69.8817
 30
0.0
 11
249.207
 21
69.8817
 31
0.0
  0
LINE
  8
0
 62
     0
 10
249.207
 20
69.8817
 30
0.0
 11
249.207
 21
72.9823
 31
0.0
  0
LINE
  8
0
 62
     0
 10
249.207
 20
72.9823
 30
0.0
 11
248.408
 21
72.9823
 31
0.0
  0
LINE
  8
0
 62
     0
 10
248.408
 20
72.9823
 30
0.0
 11
248.408
 21
73.9828
 31
0.0
  0
LINE
  8
0
 62
     0
 10
248.408
 20
73.9828
 30
0.0
 11
234.407
 21
73.9828
 31
0.0
  0
LINE
  8
0
 62
     0
 10
253.457
 20
73.9828
 30
0.0
 11
253.457
 21
72.9823
 31
0.0
  0
LINE
  8
0
 62
     0
 10
253.457
 20
72.9823
 30
0.0
 11
252.658
 21
72.9823
 31
0.0
  0
LINE
  8
0
 62
     0
 10
252.658
 20
72.9823
 30
0.0
 11
252.658
 21
69.8817
 31
0.0
  0
LINE
  8
0
 62
     0
 10
252.658
 20
69.8817
 30
0.0
 11
253.457
 21
69.8817
 31
0.0
  0
LINE
  8
0
 62
     0
 10
253.457
 20
69.8817
 30
0.0
 11
253.457
 21
64.0828
 31
0.0
  0
LINE
  8
0
 62
     0
 10
253.457
 20
64.0828
 30
0.0
 11
252.658
 21
64.0828
 31
0.0
  0
LINE
  8
0
 62
     0
 10
252.658
 20
64.0828
 30
0.0
 11
252.658
 21
60.9822
 31
0.0
  0
LINE
  8
0
 62
     0
 10
252.658
 20
60.9822
 30
0.0
 11
253.457
 21
60.9822
 31
0.0
  0
LINE
  8
0
 62
     0
 10
253.457
 20
60.9822
 30
0.0
 11
253.457
 21
59.9817
 31
0.0
  0
LINE
  8
0
 62
     0
 10
253.457
 20
59.9817
 30
0.0
 11
267.458
 21
59.9817
 31
0.0
  0
LINE
  8
0
 62
     0
 10
267.458
 20
59.9817
 30
0.0
 11
267.458
 21
60.9822
 31
0.0
  0
LINE
  8
0
 62
     0
 10
267.458
 20
60.9822
 30
0.0
 11
268.257
 21
60.9822
 31
0.0
  0
LINE
  8
0
 62
     0
 10
268.257
 20
60.9822
 30
0.0
 11
268.257
 21
64.0828
 31
0.0
  0
LINE
  8
0
 62
     0
 10
268.257
 20
64.0828
 30
0.0
 11
267.458
 21
64.0828
 31
0.0
  0
LINE
  8
0
 62
     0
 10
267.458
 20
64.0828
 30
0.0
 11
267.458
 21
69.8817
 31
0.0
  0
LINE
  8
0
 62
     0
 10
267.458
 20
69.8817
 30
0.0
 11
268.257
 21
69.8817
 31
0.0
  0
LINE
  8
0
 62
     0
 10
268.257
 20
69.8817
 30
0.0
 11
268.257
 21
72.9823
 31
0.0
  0
LINE
  8
0
 62
     0
 10
268.257
 20
72.9823
 30
0.0
 11
267.458
 21
72.9823
 31
0.0
  0
LINE
  8
0
 62
     0
 10
267.458
 20
72.9823
 30
0.0
 11
267.458
 21
73.9828
 31
0.0
  0
LINE
  8
0
 62
     0
 10
267.458
 20
73.9828
 30
0.0
 11
253.457
 21
73.9828
 31
0.0
  0
LINE
  8
0
 62
     0
 10
329.806
 20
68.647
 30
0.0
 11
329.318
 21
68.399
 31
0.0
  0
LINE
  8
0
 62
     0
 10
329.318
 20
68.399
 30
0.0
 11
328.931
 21
68.0117
 31
0.0
  0
LINE
  8
0
 62
     0
 10
328.931
 20
68.0117
 30
0.0
 11
328.681
 21
67.5238
 31
0.0
  0
LINE
  8
0
 62
     0
 10
328.681
 20
67.5238
 30
0.0
 11
328.596
 21
66.9823
 31
0.0
  0
LINE
  8
0
 62
     0
 10
328.596
 20
66.9823
 30
0.0
 11
328.681
 21
66.4408
 31
0.0
  0
LINE
  8
0
 62
     0
 10
328.681
 20
66.4408
 30
0.0
 11
328.931
 21
65.9529
 31
0.0
  0
LINE
  8
0
 62
     0
 10
328.931
 20
65.9529
 30
0.0
 11
329.318
 21
65.5655
 31
0.0
  0
LINE
  8
0
 62
     0
 10
329.318
 20
65.5655
 30
0.0
 11
329.806
 21
65.3175
 31
0.0
  0
LINE
  8
0
 62
     0
 10
329.806
 20
65.3175
 30
0.0
 11
330.346
 21
65.2321
 31
0.0
  0
LINE
  8
0
 62
     0
 10
330.346
 20
65.2321
 30
0.0
 11
330.886
 21
65.3175
 31
0.0
  0
LINE
  8
0
 62
     0
 10
330.886
 20
65.3175
 30
0.0
 11
331.374
 21
65.5655
 31
0.0
  0
LINE
  8
0
 62
     0
 10
331.374
 20
65.5655
 30
0.0
 11
331.761
 21
65.9529
 31
0.0
  0
LINE
  8
0
 62
     0
 10
331.761
 20
65.9529
 30
0.0
 11
332.011
 21
66.4408
 31
0.0
  0
LINE
  8
0
 62
     0
 10
332.011
 20
66.4408
 30
0.0
 11
332.096
 21
66.9823
 31
0.0
  0
LINE
  8
0
 62
     0
 10
332.096
 20
66.9823
 30
0.0
 11
332.011
 21
67.5238
 31
0.0
  0
LINE
  8
0
 62
     0
 10
332.011
 20
67.5238
 30
0.0
 11
331.761
 21
68.0117
 31
0.0
  0
LINE
  8
0
 62
     0
 10
331.761
 20
68.0117
 30
0.0
 11
331.374
 21
68.399
 31
0.0
  0
LINE
  8
0
 62
     0
 10
331.374
 20
68.399
 30
0.0
 11
330.886
 21
68.647
 31
0.0
  0
LINE
  8
0
 62
     0
 10
330.886
 20
68.647
 30
0.0
 11
330.346
 21
68.7324
 31
0.0
  0
LINE
  8
0
 62
     0
 10
330.346
 20
68.7324
 30
0.0
 11
329.806
 21
68.647
 31
0.0
  0
LINE
  8
0
 62
     0
 10
9.0551
 20
68.647
 30
0.0
 11
8.5659
 21
68.399
 31
0.0
  0
LINE
  8
0
 62
     0
 10
8.5659
 20
68.399
 30
0.0
 11
8.18003
 21
68.0117
 31
0.0
  0
LINE
  8
0
 62
     0
 10
8.18003
 20
68.0117
 30
0.0
 11
7.93062
 21
67.5238
 31
0.0
  0
LINE
  8
0
 62
     0
 10
7.93062
 20
67.5238
 30
0.0
 11
7.84518
 21
66.9823
 31
0.0
  0
LINE
  8
0
 62
     0
 10
7.84518
 20
66.9823
 30
0.0
 11
7.93062
 21
66.4408
 31
0.0
  0
LINE
  8
0
 62
     0
 10
7.93062
 20
66.4408
 30
0.0
 11
8.18003
 21
65.9529
 31
0.0
  0
LINE
  8
0
 62
     0
 10
8.18003
 20
65.9529
 30
0.0
 11
8.5659
 21
65.5655
 31
0.0
  0
LINE
  8
0
 62
     0
 10
8.5659
 20
65.5655
 30
0.0
 11
9.0551
 21
65.3175
 31
0.0
  0
LINE
  8
0
 62
     0
 10
9.0551
 20
65.3175
 30
0.0
 11
9.5939
 21
65.2321
 31
0.0
  0
LINE
  8
0
 62
     0
 10
9.5939
 20
65.2321
 30
0.0
 11
10.1355
 21
65.3175
 31
0.0
  0
LINE
  8
0
 62
     0
 10
10.1355
 20
65.3175
 30
0.0
 11
10.6233
 21
65.5655
 31
0.0
  0
LINE
  8
0
 62
     0
 10
10.6233
 20
65.5655
 30
0.0
 11
11.0105
 21
65.9529
 31
0.0
  0
LINE
  8
0
 62
     0
 10
11.0105
 20
65.9529
 30
0.0
 11
11.26
 21
66.4408
 31
0.0
  0
LINE
  8
0
 62
     0
 10
11.26
 20
66.4408
 30
0.0
 11
11.344
 21
66.9823
 31
0.0
  0
LINE
  8
0
 62
     0
 10
11.344
 20
66.9823
 30
0.0
 11
11.26
 21
67.5238
 31
0.0
  0
LINE
  8
0
 62
     0
 10
11.26
 20
67.5238
 30
0.0
 11
11.0105
 21
68.0117
 31
0.0
  0
LINE
  8
0
 62
     0
 10
11.0105
 20
68.0117
 30
0.0
 11
10.6233
 21
68.399
 31
0.0
  0
LINE
  8
0
 62
     0
 10
10.6233
 20
68.399
 30
0.0
 11
10.1355
 21
68.647
 31
0.0
  0
LINE
  8
0
 62
     0
 10
10.1355
 20
68.647
 30
0.0
 11
9.5939
 21
68.7324
 31
0.0
  0
LINE
  8
0
 62
     0
 10
9.5939
 20
68.7324
 30
0.0
 11
9.0551
 21
68.647
 31
0.0
  0
LINE
  8
0
 62
     0
 10
34.382
 20
93.0328
 30
0.0
 11
34.382
 21
92.0323
 31
0.0
  0
LINE
  8
0
 62
     0
 10
34.382
 20
92.0323
 30
0.0
 11
33.5828
 21
92.0323
 31
0.0
  0
LINE
  8
0
 62
     0
 10
33.5828
 20
92.0323
 30
0.0
 11
33.5828
 21
88.9317
 31
0.0
  0
LINE
  8
0
 62
     0
 10
33.5828
 20
88.9317
 30
0.0
 11
34.382
 21
88.9317
 31
0.0
  0
LINE
  8
0
 62
     0
 10
34.382
 20
88.9317
 30
0.0
 11
34.382
 21
83.1328
 31
0.0
  0
LINE
  8
0
 62
     0
 10
34.382
 20
83.1328
 30
0.0
 11
33.5828
 21
83.1328
 31
0.0
  0
LINE
  8
0
 62
     0
 10
33.5828
 20
83.1328
 30
0.0
 11
33.5828
 21
80.0322
 31
0.0
  0
LINE
  8
0
 62
     0
 10
33.5828
 20
80.0322
 30
0.0
 11
34.382
 21
80.0322
 31
0.0
  0
LINE
  8
0
 62
     0
 10
34.382
 20
80.0322
 30
0.0
 11
34.382
 21
79.0317
 31
0.0
  0
LINE
  8
0
 62
     0
 10
34.382
 20
79.0317
 30
0.0
 11
48.3828
 21
79.0317
 31
0.0
  0
LINE
  8
0
 62
     0
 10
48.3828
 20
79.0317
 30
0.0
 11
48.3828
 21
80.0322
 31
0.0
  0
LINE
  8
0
 62
     0
 10
48.3828
 20
80.0322
 30
0.0
 11
49.1822
 21
80.0322
 31
0.0
  0
LINE
  8
0
 62
     0
 10
49.1822
 20
80.0322
 30
0.0
 11
49.1822
 21
83.1328
 31
0.0
  0
LINE
  8
0
 62
     0
 10
49.1822
 20
83.1328
 30
0.0
 11
48.3828
 21
83.1328
 31
0.0
  0
LINE
  8
0
 62
     0
 10
48.3828
 20
83.1328
 30
0.0
 11
48.3828
 21
88.9317
 31
0.0
  0
LINE
  8
0
 62
     0
 10
48.3828
 20
88.9317
 30
0.0
 11
49.1822
 21
88.9317
 31
0.0
  0
LINE
  8
0
 62
     0
 10
49.1822
 20
88.9317
 30
0.0
 11
49.1822
 21
92.0323
 31
0.0
  0
LINE
  8
0
 62
     0
 10
49.1822
 20
92.0323
 30
0.0
 11
48.3828
 21
92.0323
 31
0.0
  0
LINE
  8
0
 62
     0
 10
48.3828
 20
92.0323
 30
0.0
 11
48.3828
 21
93.0328
 31
0.0
  0
LINE
  8
0
 62
     0
 10
48.3828
 20
93.0328
 30
0.0
 11
34.382
 21
93.0328
 31
0.0
  0
LINE
  8
0
 62
     0
 10
58.1946
 20
93.0328
 30
0.0
 11
58.1946
 21
92.0323
 31
0.0
  0
LINE
  8
0
 62
     0
 10
58.1946
 20
92.0323
 30
0.0
 11
57.3952
 21
92.0323
 31
0.0
  0
LINE
  8
0
 62
     0
 10
57.3952
 20
92.0323
 30
0.0
 11
57.3952
 21
88.9317
 31
0.0
  0
LINE
  8
0
 62
     0
 10
57.3952
 20
88.9317
 30
0.0
 11
58.1946
 21
88.9317
 31
0.0
  0
LINE
  8
0
 62
     0
 10
58.1946
 20
88.9317
 30
0.0
 11
58.1946
 21
83.1328
 31
0.0
  0
LINE
  8
0
 62
     0
 10
58.1946
 20
83.1328
 30
0.0
 11
57.3952
 21
83.1328
 31
0.0
  0
LINE
  8
0
 62
     0
 10
57.3952
 20
83.1328
 30
0.0
 11
57.3952
 21
80.0322
 31
0.0
  0
LINE
  8
0
 62
     0
 10
57.3952
 20
80.0322
 30
0.0
 11
58.1946
 21
80.0322
 31
0.0
  0
LINE
  8
0
 62
     0
 10
58.1946
 20
80.0322
 30
0.0
 11
58.1946
 21
79.0317
 31
0.0
  0
LINE
  8
0
 62
     0
 10
58.1946
 20
79.0317
 30
0.0
 11
72.1953
 21
79.0317
 31
0.0
  0
LINE
  8
0
 62
     0
 10
72.1953
 20
79.0317
 30
0.0
 11
72.1953
 21
80.0322
 31
0.0
  0
LINE
  8
0
 62
     0
 10
72.1953
 20
80.0322
 30
0.0
 11
72.9947
 21
80.0322
 31
0.0
  0
LINE
  8
0
 62
     0
 10
72.9947
 20
80.0322
 30
0.0
 11
72.9947
 21
83.1328
 31
0.0
  0
LINE
  8
0
 62
     0
 10
72.9947
 20
83.1328
 30
0.0
 11
72.1953
 21
83.1328
 31
0.0
  0
LINE
  8
0
 62
     0
 10
72.1953
 20
83.1328
 30
0.0
 11
72.1953
 21
88.9317
 31
0.0
  0
LINE
  8
0
 62
     0
 10
72.1953
 20
88.9317
 30
0.0
 11
72.9947
 21
88.9317
 31
0.0
  0
LINE
  8
0
 62
     0
 10
72.9947
 20
88.9317
 30
0.0
 11
72.9947
 21
92.0323
 31
0.0
  0
LINE
  8
0
 62
     0
 10
72.9947
 20
92.0323
 30
0.0
 11
72.1953
 21
92.0323
 31
0.0
  0
LINE
  8
0
 62
     0
 10
72.1953
 20
92.0323
 30
0.0
 11
72.1953
 21
93.0328
 31
0.0
  0
LINE
  8
0
 62
     0
 10
72.1953
 20
93.0328
 30
0.0
 11
58.1946
 21
93.0328
 31
0.0
  0
LINE
  8
0
 62
     0
 10
77.2446
 20
93.0328
 30
0.0
 11
77.2446
 21
92.0323
 31
0.0
  0
LINE
  8
0
 62
     0
 10
77.2446
 20
92.0323
 30
0.0
 11
76.4452
 21
92.0323
 31
0.0
  0
LINE
  8
0
 62
     0
 10
76.4452
 20
92.0323
 30
0.0
 11
76.4452
 21
88.9317
 31
0.0
  0
LINE
  8
0
 62
     0
 10
76.4452
 20
88.9317
 30
0.0
 11
77.2446
 21
88.9317
 31
0.0
  0
LINE
  8
0
 62
     0
 10
77.2446
 20
88.9317
 30
0.0
 11
77.2446
 21
83.1328
 31
0.0
  0
LINE
  8
0
 62
     0
 10
77.2446
 20
83.1328
 30
0.0
 11
76.4452
 21
83.1328
 31
0.0
  0
LINE
  8
0
 62
     0
 10
76.4452
 20
83.1328
 30
0.0
 11
76.4452
 21
80.0322
 31
0.0
  0
LINE
  8
0
 62
     0
 10
76.4452
 20
80.0322
 30
0.0
 11
77.2446
 21
80.0322
 31
0.0
  0
LINE
  8
0
 62
     0
 10
77.2446
 20
80.0322
 30
0.0
 11
77.2446
 21
79.0317
 31
0.0
  0
LINE
  8
0
 62
     0
 10
77.2446
 20
79.0317
 30
0.0
 11
91.2442
 21
79.0317
 31
0.0
  0
LINE
  8
0
 62
     0
 10
91.2442
 20
79.0317
 30
0.0
 11
91.2442
 21
80.0322
 31
0.0
  0
LINE
  8
0
 62
     0
 10
91.2442
 20
80.0322
 30
0.0
 11
92.0447
 21
80.0322
 31
0.0
  0
LINE
  8
0
 62
     0
 10
92.0447
 20
80.0322
 30
0.0
 11
92.0447
 21
83.1328
 31
0.0
  0
LINE
  8
0
 62
     0
 10
92.0447
 20
83.1328
 30
0.0
 11
91.2442
 21
83.1328
 31
0.0
  0
LINE
  8
0
 62
     0
 10
91.2442
 20
83.1328
 30
0.0
 11
91.2442
 21
88.9317
 31
0.0
  0
LINE
  8
0
 62
     0
 10
91.2442
 20
88.9317
 30
0.0
 11
92.0447
 21
88.9317
 31
0.0
  0
LINE
  8
0
 62
     0
 10
92.0447
 20
88.9317
 30
0.0
 11
92.0447
 21
92.0323
 31
0.0
  0
LINE
  8
0
 62
     0
 10
92.0447
 20
92.0323
 30
0.0
 11
91.2442
 21
92.0323
 31
0.0
  0
LINE
  8
0
 62
     0
 10
91.2442
 20
92.0323
 30
0.0
 11
91.2442
 21
93.0328
 31
0.0
  0
LINE
  8
0
 62
     0
 10
91.2442
 20
93.0328
 30
0.0
 11
77.2446
 21
93.0328
 31
0.0
  0
LINE
  8
0
 62
     0
 10
96.2946
 20
93.0328
 30
0.0
 11
96.2946
 21
92.0323
 31
0.0
  0
LINE
  8
0
 62
     0
 10
96.2946
 20
92.0323
 30
0.0
 11
95.4938
 21
92.0323
 31
0.0
  0
LINE
  8
0
 62
     0
 10
95.4938
 20
92.0323
 30
0.0
 11
95.4938
 21
88.9317
 31
0.0
  0
LINE
  8
0
 62
     0
 10
95.4938
 20
88.9317
 30
0.0
 11
96.2946
 21
88.9317
 31
0.0
  0
LINE
  8
0
 62
     0
 10
96.2946
 20
88.9317
 30
0.0
 11
96.2946
 21
83.1328
 31
0.0
  0
LINE
  8
0
 62
     0
 10
96.2946
 20
83.1328
 30
0.0
 11
95.4938
 21
83.1328
 31
0.0
  0
LINE
  8
0
 62
     0
 10
95.4938
 20
83.1328
 30
0.0
 11
95.4938
 21
80.0322
 31
0.0
  0
LINE
  8
0
 62
     0
 10
95.4938
 20
80.0322
 30
0.0
 11
96.2946
 21
80.0322
 31
0.0
  0
LINE
  8
0
 62
     0
 10
96.2946
 20
80.0322
 30
0.0
 11
96.2946
 21
79.0317
 31
0.0
  0
LINE
  8
0
 62
     0
 10
96.2946
 20
79.0317
 30
0.0
 11
110.294
 21
79.0317
 31
0.0
  0
LINE
  8
0
 62
     0
 10
110.294
 20
79.0317
 30
0.0
 11
110.294
 21
80.0322
 31
0.0
  0
LINE
  8
0
 62
     0
 10
110.294
 20
80.0322
 30
0.0
 11
111.095
 21
80.0322
 31
0.0
  0
LINE
  8
0
 62
     0
 10
111.095
 20
80.0322
 30
0.0
 11
111.095
 21
83.1328
 31
0.0
  0
LINE
  8
0
 62
     0
 10
111.095
 20
83.1328
 30
0.0
 11
110.294
 21
83.1328
 31
0.0
  0
LINE
  8
0
 62
     0
 10
110.294
 20
83.1328
 30
0.0
 11
110.294
 21
88.9317
 31
0.0
  0
LINE
  8
0
 62
     0
 10
110.294
 20
88.9317
 30
0.0
 11
111.095
 21
88.9317
 31
0.0
  0
LINE
  8
0
 62
     0
 10
111.095
 20
88.9317
 30
0.0
 11
111.095
 21
92.0323
 31
0.0
  0
LINE
  8
0
 62
     0
 10
111.095
 20
92.0323
 30
0.0
 11
110.294
 21
92.0323
 31
0.0
  0
LINE
  8
0
 62
     0
 10
110.294
 20
92.0323
 30
0.0
 11
110.294
 21
93.0328
 31
0.0
  0
LINE
  8
0
 62
     0
 10
110.294
 20
93.0328
 30
0.0
 11
96.2946
 21
93.0328
 31
0.0
  0
LINE
  8
0
 62
     0
 10
115.345
 20
93.0328
 30
0.0
 11
115.345
 21
92.0323
 31
0.0
  0
LINE
  8
0
 62
     0
 10
115.345
 20
92.0323
 30
0.0
 11
114.544
 21
92.0323
 31
0.0
  0
LINE
  8
0
 62
     0
 10
114.544
 20
92.0323
 30
0.0
 11
114.544
 21
88.9317
 31
0.0
  0
LINE
  8
0
 62
     0
 10
114.544
 20
88.9317
 30
0.0
 11
115.345
 21
88.9317
 31
0.0
  0
LINE
  8
0
 62
     0
 10
115.345
 20
88.9317
 30
0.0
 11
115.345
 21
83.1328
 31
0.0
  0
LINE
  8
0
 62
     0
 10
115.345
 20
83.1328
 30
0.0
 11
114.544
 21
83.1328
 31
0.0
  0
LINE
  8
0
 62
     0
 10
114.544
 20
83.1328
 30
0.0
 11
114.544
 21
80.0322
 31
0.0
  0
LINE
  8
0
 62
     0
 10
114.544
 20
80.0322
 30
0.0
 11
115.345
 21
80.0322
 31
0.0
  0
LINE
  8
0
 62
     0
 10
115.345
 20
80.0322
 30
0.0
 11
115.345
 21
79.0317
 31
0.0
  0
LINE
  8
0
 62
     0
 10
115.345
 20
79.0317
 30
0.0
 11
129.345
 21
79.0317
 31
0.0
  0
LINE
  8
0
 62
     0
 10
129.345
 20
79.0317
 30
0.0
 11
129.345
 21
80.0322
 31
0.0
  0
LINE
  8
0
 62
     0
 10
129.345
 20
80.0322
 30
0.0
 11
130.145
 21
80.0322
 31
0.0
  0
LINE
  8
0
 62
     0
 10
130.145
 20
80.0322
 30
0.0
 11
130.145
 21
83.1328
 31
0.0
  0
LINE
  8
0
 62
     0
 10
130.145
 20
83.1328
 30
0.0
 11
129.345
 21
83.1328
 31
0.0
  0
LINE
  8
0
 62
     0
 10
129.345
 20
83.1328
 30
0.0
 11
129.345
 21
88.9317
 31
0.0
  0
LINE
  8
0
 62
     0
 10
129.345
 20
88.9317
 30
0.0
 11
130.145
 21
88.9317
 31
0.0
  0
LINE
  8
0
 62
     0
 10
130.145
 20
88.9317
 30
0.0
 11
130.145
 21
92.0323
 31
0.0
  0
LINE
  8
0
 62
     0
 10
130.145
 20
92.0323
 30
0.0
 11
129.345
 21
92.0323
 31
0.0
  0
LINE
  8
0
 62
     0
 10
129.345
 20
92.0323
 30
0.0
 11
129.345
 21
93.0328
 31
0.0
  0
LINE
  8
0
 62
     0
 10
129.345
 20
93.0328
 30
0.0
 11
115.345
 21
93.0328
 31
0.0
  0
LINE
  8
0
 62
     0
 10
134.395
 20
93.0328
 30
0.0
 11
134.395
 21
92.0323
 31
0.0
  0
LINE
  8
0
 62
     0
 10
134.395
 20
92.0323
 30
0.0
 11
133.594
 21
92.0323
 31
0.0
  0
LINE
  8
0
 62
     0
 10
133.594
 20
92.0323
 30
0.0
 11
133.594
 21
88.9317
 31
0.0
  0
LINE
  8
0
 62
     0
 10
133.594
 20
88.9317
 30
0.0
 11
134.395
 21
88.9317
 31
0.0
  0
LINE
  8
0
 62
     0
 10
134.395
 20
88.9317
 30
0.0
 11
134.395
 21
83.1328
 31
0.0
  0
LINE
  8
0
 62
     0
 10
134.395
 20
83.1328
 30
0.0
 11
133.594
 21
83.1328
 31
0.0
  0
LINE
  8
0
 62
     0
 10
133.594
 20
83.1328
 30
0.0
 11
133.594
 21
80.0322
 31
0.0
  0
LINE
  8
0
 62
     0
 10
133.594
 20
80.0322
 30
0.0
 11
134.395
 21
80.0322
 31
0.0
  0
LINE
  8
0
 62
     0
 10
134.395
 20
80.0322
 30
0.0
 11
134.395
 21
79.0317
 31
0.0
  0
LINE
  8
0
 62
     0
 10
134.395
 20
79.0317
 30
0.0
 11
148.394
 21
79.0317
 31
0.0
  0
LINE
  8
0
 62
     0
 10
148.394
 20
79.0317
 30
0.0
 11
148.394
 21
80.0322
 31
0.0
  0
LINE
  8
0
 62
     0
 10
148.394
 20
80.0322
 30
0.0
 11
149.196
 21
80.0322
 31
0.0
  0
LINE
  8
0
 62
     0
 10
149.196
 20
80.0322
 30
0.0
 11
149.196
 21
83.1328
 31
0.0
  0
LINE
  8
0
 62
     0
 10
149.196
 20
83.1328
 30
0.0
 11
148.394
 21
83.1328
 31
0.0
  0
LINE
  8
0
 62
     0
 10
148.394
 20
83.1328
 30
0.0
 11
148.394
 21
88.9317
 31
0.0
  0
LINE
  8
0
 62
     0
 10
148.394
 20
88.9317
 30
0.0
 11
149.196
 21
88.9317
 31
0.0
  0
LINE
  8
0
 62
     0
 10
149.196
 20
88.9317
 30
0.0
 11
149.196
 21
92.0323
 31
0.0
  0
LINE
  8
0
 62
     0
 10
149.196
 20
92.0323
 30
0.0
 11
148.394
 21
92.0323
 31
0.0
  0
LINE
  8
0
 62
     0
 10
148.394
 20
92.0323
 30
0.0
 11
148.394
 21
93.0328
 31
0.0
  0
LINE
  8
0
 62
     0
 10
148.394
 20
93.0328
 30
0.0
 11
134.395
 21
93.0328
 31
0.0
  0
LINE
  8
0
 62
     0
 10
153.446
 20
93.0328
 30
0.0
 11
153.446
 21
92.0323
 31
0.0
  0
LINE
  8
0
 62
     0
 10
153.446
 20
92.0323
 30
0.0
 11
152.644
 21
92.0323
 31
0.0
  0
LINE
  8
0
 62
     0
 10
152.644
 20
92.0323
 30
0.0
 11
152.644
 21
88.9317
 31
0.0
  0
LINE
  8
0
 62
     0
 10
152.644
 20
88.9317
 30
0.0
 11
153.446
 21
88.9317
 31
0.0
  0
LINE
  8
0
 62
     0
 10
153.446
 20
88.9317
 30
0.0
 11
153.446
 21
83.1328
 31
0.0
  0
LINE
  8
0
 62
     0
 10
153.446
 20
83.1328
 30
0.0
 11
152.644
 21
83.1328
 31
0.0
  0
LINE
  8
0
 62
     0
 10
152.644
 20
83.1328
 30
0.0
 11
152.644
 21
80.0322
 31
0.0
  0
LINE
  8
0
 62
     0
 10
152.644
 20
80.0322
 30
0.0
 11
153.446
 21
80.0322
 31
0.0
  0
LINE
  8
0
 62
     0
 10
153.446
 20
80.0322
 30
0.0
 11
153.446
 21
79.0317
 31
0.0
  0
LINE
  8
0
 62
     0
 10
153.446
 20
79.0317
 30
0.0
 11
167.445
 21
79.0317
 31
0.0
  0
LINE
  8
0
 62
     0
 10
167.445
 20
79.0317
 30
0.0
 11
167.445
 21
80.0322
 31
0.0
  0
LINE
  8
0
 62
     0
 10
167.445
 20
80.0322
 30
0.0
 11
168.246
 21
80.0322
 31
0.0
  0
LINE
  8
0
 62
     0
 10
168.246
 20
80.0322
 30
0.0
 11
168.246
 21
83.1328
 31
0.0
  0
LINE
  8
0
 62
     0
 10
168.246
 20
83.1328
 30
0.0
 11
167.445
 21
83.1328
 31
0.0
  0
LINE
  8
0
 62
     0
 10
167.445
 20
83.1328
 30
0.0
 11
167.445
 21
88.9317
 31
0.0
  0
LINE
  8
0
 62
     0
 10
167.445
 20
88.9317
 30
0.0
 11
168.246
 21
88.9317
 31
0.0
  0
LINE
  8
0
 62
     0
 10
168.246
 20
88.9317
 30
0.0
 11
168.246
 21
92.0323
 31
0.0
  0
LINE
  8
0
 62
     0
 10
168.246
 20
92.0323
 30
0.0
 11
167.445
 21
92.0323
 31
0.0
  0
LINE
  8
0
 62
     0
 10
167.445
 20
92.0323
 30
0.0
 11
167.445
 21
93.0328
 31
0.0
  0
LINE
  8
0
 62
     0
 10
167.445
 20
93.0328
 30
0.0
 11
153.446
 21
93.0328
 31
0.0
  0
LINE
  8
0
 62
     0
 10
172.496
 20
93.0328
 30
0.0
 11
172.496
 21
92.0323
 31
0.0
  0
LINE
  8
0
 62
     0
 10
172.496
 20
92.0323
 30
0.0
 11
171.695
 21
92.0323
 31
0.0
  0
LINE
  8
0
 62
     0
 10
171.695
 20
92.0323
 30
0.0
 11
171.695
 21
88.9317
 31
0.0
  0
LINE
  8
0
 62
     0
 10
171.695
 20
88.9317
 30
0.0
 11
172.496
 21
88.9317
 31
0.0
  0
LINE
  8
0
 62
     0
 10
172.496
 20
88.9317
 30
0.0
 11
172.496
 21
83.1328
 31
0.0
  0
LINE
  8
0
 62
     0
 10
172.496
 20
83.1328
 30
0.0
 11
171.695
 21
83.1328
 31
0.0
  0
LINE
  8
0
 62
     0
 10
171.695
 20
83.1328
 30
0.0
 11
171.695
 21
80.0322
 31
0.0
  0
LINE
  8
0
 62
     0
 10
171.695
 20
80.0322
 30
0.0
 11
172.496
 21
80.0322
 31
0.0
  0
LINE
  8
0
 62
     0
 10
172.496
 20
80.0322
 30
0.0
 11
172.496
 21
79.0317
 31
0.0
  0
LINE
  8
0
 62
     0
 10
172.496
 20
79.0317
 30
0.0
 11
186.495
 21
79.0317
 31
0.0
  0
LINE
  8
0
 62
     0
 10
186.495
 20
79.0317
 30
0.0
 11
186.495
 21
80.0322
 31
0.0
  0
LINE
  8
0
 62
     0
 10
186.495
 20
80.0322
 30
0.0
 11
187.296
 21
80.0322
 31
0.0
  0
LINE
  8
0
 62
     0
 10
187.296
 20
80.0322
 30
0.0
 11
187.296
 21
83.1328
 31
0.0
  0
LINE
  8
0
 62
     0
 10
187.296
 20
83.1328
 30
0.0
 11
186.495
 21
83.1328
 31
0.0
  0
LINE
  8
0
 62
     0
 10
186.495
 20
83.1328
 30
0.0
 11
186.495
 21
88.9317
 31
0.0
  0
LINE
  8
0
 62
     0
 10
186.495
 20
88.9317
 30
0.0
 11
187.296
 21
88.9317
 31
0.0
  0
LINE
  8
0
 62
     0
 10
187.296
 20
88.9317
 30
0.0
 11
187.296
 21
92.0323
 31
0.0
  0
LINE
  8
0
 62
     0
 10
187.296
 20
92.0323
 30
0.0
 11
186.495
 21
92.0323
 31
0.0
  0
LINE
  8
0
 62
     0
 10
186.495
 20
92.0323
 30
0.0
 11
186.495
 21
93.0328
 31
0.0
  0
LINE
  8
0
 62
     0
 10
186.495
 20
93.0328
 30
0.0
 11
172.496
 21
93.0328
 31
0.0
  0
LINE
  8
0
 62
     0
 10
191.546
 20
93.0328
 30
0.0
 11
191.546
 21
92.0323
 31
0.0
  0
LINE
  8
0
 62
     0
 10
191.546
 20
92.0323
 30
0.0
 11
190.745
 21
92.0323
 31
0.0
  0
LINE
  8
0
 62
     0
 10
190.745
 20
92.0323
 30
0.0
 11
190.745
 21
88.9317
 31
0.0
  0
LINE
  8
0
 62
     0
 10
190.745
 20
88.9317
 30
0.0
 11
191.546
 21
88.9317
 31
0.0
  0
LINE
  8
0
 62
     0
 10
191.546
 20
88.9317
 30
0.0
 11
191.546
 21
83.1328
 31
0.0
  0
LINE
  8
0
 62
     0
 10
191.546
 20
83.1328
 30
0.0
 11
190.745
 21
83.1328
 31
0.0
  0
LINE
  8
0
 62
     0
 10
190.745
 20
83.1328
 30
0.0
 11
190.745
 21
80.0322
 31
0.0
  0
LINE
  8
0
 62
     0
 10
190.745
 20
80.0322
 30
0.0
 11
191.546
 21
80.0322
 31
0.0
  0
LINE
  8
0
 62
     0
 10
191.546
 20
80.0322
 30
0.0
 11
191.546
 21
79.0317
 31
0.0
  0
LINE
  8
0
 62
     0
 10
191.546
 20
79.0317
 30
0.0
 11
205.545
 21
79.0317
 31
0.0
  0
LINE
  8
0
 62
     0
 10
205.545
 20
79.0317
 30
0.0
 11
205.545
 21
80.0322
 31
0.0
  0
LINE
  8
0
 62
     0
 10
205.545
 20
80.0322
 30
0.0
 11
206.346
 21
80.0322
 31
0.0
  0
LINE
  8
0
 62
     0
 10
206.346
 20
80.0322
 30
0.0
 11
206.346
 21
83.1328
 31
0.0
  0
LINE
  8
0
 62
     0
 10
206.346
 20
83.1328
 30
0.0
 11
205.545
 21
83.1328
 31
0.0
  0
LINE
  8
0
 62
     0
 10
205.545
 20
83.1328
 30
0.0
 11
205.545
 21
88.9317
 31
0.0
  0
LINE
  8
0
 62
     0
 10
205.545
 20
88.9317
 30
0.0
 11
206.346
 21
88.9317
 31
0.0
  0
LINE
  8
0
 62
     0
 10
206.346
 20
88.9317
 30
0.0
 11
206.346
 21
92.0323
 31
0.0
  0
LINE
  8
0
 62
     0
 10
206.346
 20
92.0323
 30
0.0
 11
205.545
 21
92.0323
 31
0.0
  0
LINE
  8
0
 62
     0
 10
205.545
 20
92.0323
 30
0.0
 11
205.545
 21
93.0328
 31
0.0
  0
LINE
  8
0
 62
     0
 10
205.545
 20
93.0328
 30
0.0
 11
191.546
 21
93.0328
 31
0.0
  0
LINE
  8
0
 62
     0
 10
210.596
 20
93.0328
 30
0.0
 11
210.596
 21
92.0323
 31
0.0
  0
LINE
  8
0
 62
     0
 10
210.596
 20
92.0323
 30
0.0
 11
209.795
 21
92.0323
 31
0.0
  0
LINE
  8
0
 62
     0
 10
209.795
 20
92.0323
 30
0.0
 11
209.795
 21
88.9317
 31
0.0
  0
LINE
  8
0
 62
     0
 10
209.795
 20
88.9317
 30
0.0
 11
210.596
 21
88.9317
 31
0.0
  0
LINE
  8
0
 62
     0
 10
210.596
 20
88.9317
 30
0.0
 11
210.596
 21
83.1328
 31
0.0
  0
LINE
  8
0
 62
     0
 10
210.596
 20
83.1328
 30
0.0
 11
209.795
 21
83.1328
 31
0.0
  0
LINE
  8
0
 62
     0
 10
209.795
 20
83.1328
 30
0.0
 11
209.795
 21
80.0322
 31
0.0
  0
LINE
  8
0
 62
     0
 10
209.795
 20
80.0322
 30
0.0
 11
210.596
 21
80.0322
 31
0.0
  0
LINE
  8
0
 62
     0
 10
210.596
 20
80.0322
 30
0.0
 11
210.596
 21
79.0317
 31
0.0
  0
LINE
  8
0
 62
     0
 10
210.596
 20
79.0317
 30
0.0
 11
224.595
 21
79.0317
 31
0.0
  0
LINE
  8
0
 62
     0
 10
224.595
 20
79.0317
 30
0.0
 11
224.595
 21
80.0322
 31
0.0
  0
LINE
  8
0
 62
     0
 10
224.595
 20
80.0322
 30
0.0
 11
225.396
 21
80.0322
 31
0.0
  0
LINE
  8
0
 62
     0
 10
225.396
 20
80.0322
 30
0.0
 11
225.396
 21
83.1328
 31
0.0
  0
LINE
  8
0
 62
     0
 10
225.396
 20
83.1328
 30
0.0
 11
224.595
 21
83.1328
 31
0.0
  0
LINE
  8
0
 62
     0
 10
224.595
 20
83.1328
 30
0.0
 11
224.595
 21
88.9317
 31
0.0
  0
LINE
  8
0
 62
     0
 10
224.595
 20
88.9317
 30
0.0
 11
225.396
 21
88.9317
 31
0.0
  0
LINE
  8
0
 62
     0
 10
225.396
 20
88.9317
 30
0.0
 11
225.396
 21
92.0323
 31
0.0
  0
LINE
  8
0
 62
     0
 10
225.396
 20
92.0323
 30
0.0
 11
224.595
 21
92.0323
 31
0.0
  0
LINE
  8
0
 62
     0
 10
224.595
 20
92.0323
 30
0.0
 11
224.595
 21
93.0328
 31
0.0
  0
LINE
  8
0
 62
     0
 10
224.595
 20
93.0328
 30
0.0
 11
210.596
 21
93.0328
 31
0.0
  0
LINE
  8
0
 62
     0
 10
229.646
 20
93.0328
 30
0.0
 11
229.646
 21
92.0323
 31
0.0
  0
LINE
  8
0
 62
     0
 10
229.646
 20
92.0323
 30
0.0
 11
228.845
 21
92.0323
 31
0.0
  0
LINE
  8
0
 62
     0
 10
228.845
 20
92.0323
 30
0.0
 11
228.845
 21
88.9317
 31
0.0
  0
LINE
  8
0
 62
     0
 10
228.845
 20
88.9317
 30
0.0
 11
229.646
 21
88.9317
 31
0.0
  0
LINE
  8
0
 62
     0
 10
229.646
 20
88.9317
 30
0.0
 11
229.646
 21
83.1328
 31
0.0
  0
LINE
  8
0
 62
     0
 10
229.646
 20
83.1328
 30
0.0
 11
228.845
 21
83.1328
 31
0.0
  0
LINE
  8
0
 62
     0
 10
228.845
 20
83.1328
 30
0.0
 11
228.845
 21
80.0322
 31
0.0
  0
LINE
  8
0
 62
     0
 10
228.845
 20
80.0322
 30
0.0
 11
229.646
 21
80.0322
 31
0.0
  0
LINE
  8
0
 62
     0
 10
229.646
 20
80.0322
 30
0.0
 11
229.646
 21
79.0317
 31
0.0
  0
LINE
  8
0
 62
     0
 10
229.646
 20
79.0317
 30
0.0
 11
243.645
 21
79.0317
 31
0.0
  0
LINE
  8
0
 62
     0
 10
243.645
 20
79.0317
 30
0.0
 11
243.645
 21
80.0322
 31
0.0
  0
LINE
  8
0
 62
     0
 10
243.645
 20
80.0322
 30
0.0
 11
244.446
 21
80.0322
 31
0.0
  0
LINE
  8
0
 62
     0
 10
244.446
 20
80.0322
 30
0.0
 11
244.446
 21
83.1328
 31
0.0
  0
LINE
  8
0
 62
     0
 10
244.446
 20
83.1328
 30
0.0
 11
243.645
 21
83.1328
 31
0.0
  0
LINE
  8
0
 62
     0
 10
243.645
 20
83.1328
 30
0.0
 11
243.645
 21
88.9317
 31
0.0
  0
LINE
  8
0
 62
     0
 10
243.645
 20
88.9317
 30
0.0
 11
244.446
 21
88.9317
 31
0.0
  0
LINE
  8
0
 62
     0
 10
244.446
 20
88.9317
 30
0.0
 11
244.446
 21
92.0323
 31
0.0
  0
LINE
  8
0
 62
     0
 10
244.446
 20
92.0323
 30
0.0
 11
243.645
 21
92.0323
 31
0.0
  0
LINE
  8
0
 62
     0
 10
243.645
 20
92.0323
 30
0.0
 11
243.645
 21
93.0328
 31
0.0
  0
LINE
  8
0
 62
     0
 10
243.645
 20
93.0328
 30
0.0
 11
229.646
 21
93.0328
 31
0.0
  0
LINE
  8
0
 62
     0
 10
248.696
 20
93.0328
 30
0.0
 11
248.696
 21
92.0323
 31
0.0
  0
LINE
  8
0
 62
     0
 10
248.696
 20
92.0323
 30
0.0
 11
247.895
 21
92.0323
 31
0.0
  0
LINE
  8
0
 62
     0
 10
247.895
 20
92.0323
 30
0.0
 11
247.895
 21
88.9317
 31
0.0
  0
LINE
  8
0
 62
     0
 10
247.895
 20
88.9317
 30
0.0
 11
248.696
 21
88.9317
 31
0.0
  0
LINE
  8
0
 62
     0
 10
248.696
 20
88.9317
 30
0.0
 11
248.696
 21
83.1328
 31
0.0
  0
LINE
  8
0
 62
     0
 10
248.696
 20
83.1328
 30
0.0
 11
247.895
 21
83.1328
 31
0.0
  0
LINE
  8
0
 62
     0
 10
247.895
 20
83.1328
 30
0.0
 11
247.895
 21
80.0322
 31
0.0
  0
LINE
  8
0
 62
     0
 10
247.895
 20
80.0322
 30
0.0
 11
248.696
 21
80.0322
 31
0.0
  0
LINE
  8
0
 62
     0
 10
248.696
 20
80.0322
 30
0.0
 11
248.696
 21
79.0317
 31
0.0
  0
LINE
  8
0
 62
     0
 10
248.696
 20
79.0317
 30
0.0
 11
262.695
 21
79.0317
 31
0.0
  0
LINE
  8
0
 62
     0
 10
262.695
 20
79.0317
 30
0.0
 11
262.695
 21
80.0322
 31
0.0
  0
LINE
  8
0
 62
     0
 10
262.695
 20
80.0322
 30
0.0
 11
263.496
 21
80.0322
 31
0.0
  0
LINE
  8
0
 62
     0
 10
263.496
 20
80.0322
 30
0.0
 11
263.496
 21
83.1328
 31
0.0
  0
LINE
  8
0
 62
     0
 10
263.496
 20
83.1328
 30
0.0
 11
262.695
 21
83.1328
 31
0.0
  0
LINE
  8
0
 62
     0
 10
262.695
 20
83.1328
 30
0.0
 11
262.695
 21
88.9317
 31
0.0
  0
LINE
  8
0
 62
     0
 10
262.695
 20
88.9317
 30
0.0
 11
263.496
 21
88.9317
 31
0.0
  0
LINE
  8
0
 62
     0
 10
263.496
 20
88.9317
 30
0.0
 11
263.496
 21
92.0323
 31
0.0
  0
LINE
  8
0
 62
     0
 10
263.496
 20
92.0323
 30
0.0
 11
262.695
 21
92.0323
 31
0.0
  0
LINE
  8
0
 62
     0
 10
262.695
 20
92.0323
 30
0.0
 11
262.695
 21
93.0328
 31
0.0
  0
LINE
  8
0
 62
     0
 10
262.695
 20
93.0328
 30
0.0
 11
248.696
 21
93.0328
 31
0.0
  0
LINE
  8
0
 62
     0
 10
267.746
 20
93.0328
 30
0.0
 11
267.746
 21
92.0323
 31
0.0
  0
LINE
  8
0
 62
     0
 10
267.746
 20
92.0323
 30
0.0
 11
266.945
 21
92.0323
 31
0.0
  0
LINE
  8
0
 62
     0
 10
266.945
 20
92.0323
 30
0.0
 11
266.945
 21
88.9317
 31
0.0
  0
LINE
  8
0
 62
     0
 10
266.945
 20
88.9317
 30
0.0
 11
267.746
 21
88.9317
 31
0.0
  0
LINE
  8
0
 62
     0
 10
267.746
 20
88.9317
 30
0.0
 11
267.746
 21
83.1328
 31
0.0
  0
LINE
  8
0
 62
     0
 10
267.746
 20
83.1328
 30
0.0
 11
266.945
 21
83.1328
 31
0.0
  0
LINE
  8
0
 62
     0
 10
266.945
 20
83.1328
 30
0.0
 11
266.945
 21
80.0322
 31
0.0
  0
LINE
  8
0
 62
     0
 10
266.945
 20
80.0322
 30
0.0
 11
267.746
 21
80.0322
 31
0.0
  0
LINE
  8
0
 62
     0
 10
267.746
 20
80.0322
 30
0.0
 11
267.746
 21
79.0317
 31
0.0
  0
LINE
  8
0
 62
     0
 10
267.746
 20
79.0317
 30
0.0
 11
281.745
 21
79.0317
 31
0.0
  0
LINE
  8
0
 62
     0
 10
281.745
 20
79.0317
 30
0.0
 11
281.745
 21
80.0322
 31
0.0
  0
LINE
  8
0
 62
     0
 10
281.745
 20
80.0322
 30
0.0
 11
282.546
 21
80.0322
 31
0.0
  0
LINE
  8
0
 62
     0
 10
282.546
 20
80.0322
 30
0.0
 11
282.546
 21
83.1328
 31
0.0
  0
LINE
  8
0
 62
     0
 10
282.546
 20
83.1328
 30
0.0
 11
281.745
 21
83.1328
 31
0.0
  0
LINE
  8
0
 62
     0
 10
281.745
 20
83.1328
 30
0.0
 11
281.745
 21
88.9317
 31
0.0
  0
LINE
  8
0
 62
     0
 10
281.745
 20
88.9317
 30
0.0
 11
282.546
 21
88.9317
 31
0.0
  0
LINE
  8
0
 62
     0
 10
282.546
 20
88.9317
 30
0.0
 11
282.546
 21
92.0323
 31
0.0
  0
LINE
  8
0
 62
     0
 10
282.546
 20
92.0323
 30
0.0
 11
281.745
 21
92.0323
 31
0.0
  0
LINE
  8
0
 62
     0
 10
281.745
 20
92.0323
 30
0.0
 11
281.745
 21
93.0328
 31
0.0
  0
LINE
  8
0
 62
     0
 10
281.745
 20
93.0328
 30
0.0
 11
267.746
 21
93.0328
 31
0.0
  0
LINE
  8
0
 62
     0
 10
291.557
 20
93.0328
 30
0.0
 11
291.557
 21
92.0323
 31
0.0
  0
LINE
  8
0
 62
     0
 10
291.557
 20
92.0323
 30
0.0
 11
290.758
 21
92.0323
 31
0.0
  0
LINE
  8
0
 62
     0
 10
290.758
 20
92.0323
 30
0.0
 11
290.758
 21
88.9317
 31
0.0
  0
LINE
  8
0
 62
     0
 10
290.758
 20
88.9317
 30
0.0
 11
291.557
 21
88.9317
 31
0.0
  0
LINE
  8
0
 62
     0
 10
291.557
 20
88.9317
 30
0.0
 11
291.557
 21
83.1328
 31
0.0
  0
LINE
  8
0
 62
     0
 10
291.557
 20
83.1328
 30
0.0
 11
290.758
 21
83.1328
 31
0.0
  0
LINE
  8
0
 62
     0
 10
290.758
 20
83.1328
 30
0.0
 11
290.758
 21
80.0322
 31
0.0
  0
LINE
  8
0
 62
     0
 10
290.758
 20
80.0322
 30
0.0
 11
291.557
 21
80.0322
 31
0.0
  0
LINE
  8
0
 62
     0
 10
291.557
 20
80.0322
 30
0.0
 11
291.557
 21
79.0317
 31
0.0
  0
LINE
  8
0
 62
     0
 10
291.557
 20
79.0317
 30
0.0
 11
305.558
 21
79.0317
 31
0.0
  0
LINE
  8
0
 62
     0
 10
305.558
 20
79.0317
 30
0.0
 11
305.558
 21
80.0322
 31
0.0
  0
LINE
  8
0
 62
     0
 10
305.558
 20
80.0322
 30
0.0
 11
306.357
 21
80.0322
 31
0.0
  0
LINE
  8
0
 62
     0
 10
306.357
 20
80.0322
 30
0.0
 11
306.357
 21
83.1328
 31
0.0
  0
LINE
  8
0
 62
     0
 10
306.357
 20
83.1328
 30
0.0
 11
305.558
 21
83.1328
 31
0.0
  0
LINE
  8
0
 62
     0
 10
305.558
 20
83.1328
 30
0.0
 11
305.558
 21
88.9317
 31
0.0
  0
LINE
  8
0
 62
     0
 10
305.558
 20
88.9317
 30
0.0
 11
306.357
 21
88.9317
 31
0.0
  0
LINE
  8
0
 62
     0
 10
306.357
 20
88.9317
 30
0.0
 11
306.357
 21
92.0323
 31
0.0
  0
LINE
  8
0
 62
     0
 10
306.357
 20
92.0323
 30
0.0
 11
305.558
 21
92.0323
 31
0.0
  0
LINE
  8
0
 62
     0
 10
305.558
 20
92.0323
 30
0.0
 11
305.558
 21
93.0328
 31
0.0
  0
LINE
  8
0
 62
     0
 10
305.558
 20
93.0328
 30
0.0
 11
291.557
 21
93.0328
 31
0.0
  0
LINE
  8
0
 62
     0
 10
29.6209
 20
112.083
 30
0.0
 11
29.6209
 21
111.082
 31
0.0
  0
LINE
  8
0
 62
     0
 10
29.6209
 20
111.082
 30
0.0
 11
28.8203
 21
111.082
 31
0.0
  0
LINE
  8
0
 62
     0
 10
28.8203
 20
111.082
 30
0.0
 11
28.8203
 21
107.982
 31
0.0
  0
LINE
  8
0
 62
     0
 10
28.8203
 20
107.982
 30
0.0
 11
29.6209
 21
107.982
 31
0.0
  0
LINE
  8
0
 62
     0
 10
29.6209
 20
107.982
 30
0.0
 11
29.6209
 21
102.183
 31
0.0
  0
LINE
  8
0
 62
     0
 10
29.6209
 20
102.183
 30
0.0
 11
28.8203
 21
102.183
 31
0.0
  0
LINE
  8
0
 62
     0
 10
28.8203
 20
102.183
 30
0.0
 11
28.8203
 21
99.0822
 31
0.0
  0
LINE
  8
0
 62
     0
 10
28.8203
 20
99.0822
 30
0.0
 11
29.6209
 21
99.0822
 31
0.0
  0
LINE
  8
0
 62
     0
 10
29.6209
 20
99.0822
 30
0.0
 11
29.6209
 21
98.0818
 31
0.0
  0
LINE
  8
0
 62
     0
 10
29.6209
 20
98.0818
 30
0.0
 11
43.6203
 21
98.0818
 31
0.0
  0
LINE
  8
0
 62
     0
 10
43.6203
 20
98.0818
 30
0.0
 11
43.6203
 21
99.0822
 31
0.0
  0
LINE
  8
0
 62
     0
 10
43.6203
 20
99.0822
 30
0.0
 11
44.4197
 21
99.0822
 31
0.0
  0
LINE
  8
0
 62
     0
 10
44.4197
 20
99.0822
 30
0.0
 11
44.4197
 21
102.183
 31
0.0
  0
LINE
  8
0
 62
     0
 10
44.4197
 20
102.183
 30
0.0
 11
43.6203
 21
102.183
 31
0.0
  0
LINE
  8
0
 62
     0
 10
43.6203
 20
102.183
 30
0.0
 11
43.6203
 21
107.982
 31
0.0
  0
LINE
  8
0
 62
     0
 10
43.6203
 20
107.982
 30
0.0
 11
44.4197
 21
107.982
 31
0.0
  0
LINE
  8
0
 62
     0
 10
44.4197
 20
107.982
 30
0.0
 11
44.4197
 21
111.082
 31
0.0
  0
LINE
  8
0
 62
     0
 10
44.4197
 20
111.082
 30
0.0
 11
43.6203
 21
111.082
 31
0.0
  0
LINE
  8
0
 62
     0
 10
43.6203
 20
111.082
 30
0.0
 11
43.6203
 21
112.083
 31
0.0
  0
LINE
  8
0
 62
     0
 10
43.6203
 20
112.083
 30
0.0
 11
29.6209
 21
112.083
 31
0.0
  0
LINE
  8
0
 62
     0
 10
48.671
 20
112.083
 30
0.0
 11
48.671
 21
111.082
 31
0.0
  0
LINE
  8
0
 62
     0
 10
48.671
 20
111.082
 30
0.0
 11
47.8702
 21
111.082
 31
0.0
  0
LINE
  8
0
 62
     0
 10
47.8702
 20
111.082
 30
0.0
 11
47.8702
 21
107.982
 31
0.0
  0
LINE
  8
0
 62
     0
 10
47.8702
 20
107.982
 30
0.0
 11
48.671
 21
107.982
 31
0.0
  0
LINE
  8
0
 62
     0
 10
48.671
 20
107.982
 30
0.0
 11
48.671
 21
102.183
 31
0.0
  0
LINE
  8
0
 62
     0
 10
48.671
 20
102.183
 30
0.0
 11
47.8702
 21
102.183
 31
0.0
  0
LINE
  8
0
 62
     0
 10
47.8702
 20
102.183
 30
0.0
 11
47.8702
 21
99.0822
 31
0.0
  0
LINE
  8
0
 62
     0
 10
47.8702
 20
99.0822
 30
0.0
 11
48.671
 21
99.0822
 31
0.0
  0
LINE
  8
0
 62
     0
 10
48.671
 20
99.0822
 30
0.0
 11
48.671
 21
98.0818
 31
0.0
  0
LINE
  8
0
 62
     0
 10
48.671
 20
98.0818
 30
0.0
 11
62.6703
 21
98.0818
 31
0.0
  0
LINE
  8
0
 62
     0
 10
62.6703
 20
98.0818
 30
0.0
 11
62.6703
 21
99.0822
 31
0.0
  0
LINE
  8
0
 62
     0
 10
62.6703
 20
99.0822
 30
0.0
 11
63.4711
 21
99.0822
 31
0.0
  0
LINE
  8
0
 62
     0
 10
63.4711
 20
99.0822
 30
0.0
 11
63.4711
 21
102.183
 31
0.0
  0
LINE
  8
0
 62
     0
 10
63.4711
 20
102.183
 30
0.0
 11
62.6703
 21
102.183
 31
0.0
  0
LINE
  8
0
 62
     0
 10
62.6703
 20
102.183
 30
0.0
 11
62.6703
 21
107.982
 31
0.0
  0
LINE
  8
0
 62
     0
 10
62.6703
 20
107.982
 30
0.0
 11
63.4711
 21
107.982
 31
0.0
  0
LINE
  8
0
 62
     0
 10
63.4711
 20
107.982
 30
0.0
 11
63.4711
 21
111.082
 31
0.0
  0
LINE
  8
0
 62
     0
 10
63.4711
 20
111.082
 30
0.0
 11
62.6703
 21
111.082
 31
0.0
  0
LINE
  8
0
 62
     0
 10
62.6703
 20
111.082
 30
0.0
 11
62.6703
 21
112.083
 31
0.0
  0
LINE
  8
0
 62
     0
 10
62.6703
 20
112.083
 30
0.0
 11
48.671
 21
112.083
 31
0.0
  0
LINE
  8
0
 62
     0
 10
67.721
 20
112.083
 30
0.0
 11
67.721
 21
111.082
 31
0.0
  0
LINE
  8
0
 62
     0
 10
67.721
 20
111.082
 30
0.0
 11
66.9202
 21
111.082
 31
0.0
  0
LINE
  8
0
 62
     0
 10
66.9202
 20
111.082
 30
0.0
 11
66.9202
 21
107.982
 31
0.0
  0
LINE
  8
0
 62
     0
 10
66.9202
 20
107.982
 30
0.0
 11
67.721
 21
107.982
 31
0.0
  0
LINE
  8
0
 62
     0
 10
67.721
 20
107.982
 30
0.0
 11
67.721
 21
102.183
 31
0.0
  0
LINE
  8
0
 62
     0
 10
67.721
 20
102.183
 30
0.0
 11
66.9202
 21
102.183
 31
0.0
  0
LINE
  8
0
 62
     0
 10
66.9202
 20
102.183
 30
0.0
 11
66.9202
 21
99.0822
 31
0.0
  0
LINE
  8
0
 62
     0
 10
66.9202
 20
99.0822
 30
0.0
 11
67.721
 21
99.0822
 31
0.0
  0
LINE
  8
0
 62
     0
 10
67.721
 20
99.0822
 30
0.0
 11
67.721
 21
98.0818
 31
0.0
  0
LINE
  8
0
 62
     0
 10
67.721
 20
98.0818
 30
0.0
 11
81.7203
 21
98.0818
 31
0.0
  0
LINE
  8
0
 62
     0
 10
81.7203
 20
98.0818
 30
0.0
 11
81.7203
 21
99.0822
 31
0.0
  0
LINE
  8
0
 62
     0
 10
81.7203
 20
99.0822
 30
0.0
 11
82.5211
 21
99.0822
 31
0.0
  0
LINE
  8
0
 62
     0
 10
82.5211
 20
99.0822
 30
0.0
 11
82.5211
 21
102.183
 31
0.0
  0
LINE
  8
0
 62
     0
 10
82.5211
 20
102.183
 30
0.0
 11
81.7203
 21
102.183
 31
0.0
  0
LINE
  8
0
 62
     0
 10
81.7203
 20
102.183
 30
0.0
 11
81.7203
 21
107.982
 31
0.0
  0
LINE
  8
0
 62
     0
 10
81.7203
 20
107.982
 30
0.0
 11
82.5211
 21
107.982
 31
0.0
  0
LINE
  8
0
 62
     0
 10
82.5211
 20
107.982
 30
0.0
 11
82.5211
 21
111.082
 31
0.0
  0
LINE
  8
0
 62
     0
 10
82.5211
 20
111.082
 30
0.0
 11
81.7203
 21
111.082
 31
0.0
  0
LINE
  8
0
 62
     0
 10
81.7203
 20
111.082
 30
0.0
 11
81.7203
 21
112.083
 31
0.0
  0
LINE
  8
0
 62
     0
 10
81.7203
 20
112.083
 30
0.0
 11
67.721
 21
112.083
 31
0.0
  0
LINE
  8
0
 62
     0
 10
86.771
 20
112.083
 30
0.0
 11
86.771
 21
111.082
 31
0.0
  0
LINE
  8
0
 62
     0
 10
86.771
 20
111.082
 30
0.0
 11
85.9702
 21
111.082
 31
0.0
  0
LINE
  8
0
 62
     0
 10
85.9702
 20
111.082
 30
0.0
 11
85.9702
 21
107.982
 31
0.0
  0
LINE
  8
0
 62
     0
 10
85.9702
 20
107.982
 30
0.0
 11
86.771
 21
107.982
 31
0.0
  0
LINE
  8
0
 62
     0
 10
86.771
 20
107.982
 30
0.0
 11
86.771
 21
102.183
 31
0.0
  0
LINE
  8
0
 62
     0
 10
86.771
 20
102.183
 30
0.0
 11
85.9702
 21
102.183
 31
0.0
  0
LINE
  8
0
 62
     0
 10
85.9702
 20
102.183
 30
0.0
 11
85.9702
 21
99.0822
 31
0.0
  0
LINE
  8
0
 62
     0
 10
85.9702
 20
99.0822
 30
0.0
 11
86.771
 21
99.0822
 31
0.0
  0
LINE
  8
0
 62
     0
 10
86.771
 20
99.0822
 30
0.0
 11
86.771
 21
98.0818
 31
0.0
  0
LINE
  8
0
 62
     0
 10
86.771
 20
98.0818
 30
0.0
 11
100.77
 21
98.0818
 31
0.0
  0
LINE
  8
0
 62
     0
 10
100.77
 20
98.0818
 30
0.0
 11
100.77
 21
99.0822
 31
0.0
  0
LINE
  8
0
 62
     0
 10
100.77
 20
99.0822
 30
0.0
 11
101.571
 21
99.0822
 31
0.0
  0
LINE
  8
0
 62
     0
 10
101.571
 20
99.0822
 30
0.0
 11
101.571
 21
102.183
 31
0.0
  0
LINE
  8
0
 62
     0
 10
101.571
 20
102.183
 30
0.0
 11
100.77
 21
102.183
 31
0.0
  0
LINE
  8
0
 62
     0
 10
100.77
 20
102.183
 30
0.0
 11
100.77
 21
107.982
 31
0.0
  0
LINE
  8
0
 62
     0
 10
100.77
 20
107.982
 30
0.0
 11
101.571
 21
107.982
 31
0.0
  0
LINE
  8
0
 62
     0
 10
101.571
 20
107.982
 30
0.0
 11
101.571
 21
111.082
 31
0.0
  0
LINE
  8
0
 62
     0
 10
101.571
 20
111.082
 30
0.0
 11
100.77
 21
111.082
 31
0.0
  0
LINE
  8
0
 62
     0
 10
100.77
 20
111.082
 30
0.0
 11
100.77
 21
112.083
 31
0.0
  0
LINE
  8
0
 62
     0
 10
100.77
 20
112.083
 30
0.0
 11
86.771
 21
112.083
 31
0.0
  0
LINE
  8
0
 62
     0
 10
105.821
 20
112.083
 30
0.0
 11
105.821
 21
111.082
 31
0.0
  0
LINE
  8
0
 62
     0
 10
105.821
 20
111.082
 30
0.0
 11
105.02
 21
111.082
 31
0.0
  0
LINE
  8
0
 62
     0
 10
105.02
 20
111.082
 30
0.0
 11
105.02
 21
107.982
 31
0.0
  0
LINE
  8
0
 62
     0
 10
105.02
 20
107.982
 30
0.0
 11
105.821
 21
107.982
 31
0.0
  0
LINE
  8
0
 62
     0
 10
105.821
 20
107.982
 30
0.0
 11
105.821
 21
102.183
 31
0.0
  0
LINE
  8
0
 62
     0
 10
105.821
 20
102.183
 30
0.0
 11
105.02
 21
102.183
 31
0.0
  0
LINE
  8
0
 62
     0
 10
105.02
 20
102.183
 30
0.0
 11
105.02
 21
99.0822
 31
0.0
  0
LINE
  8
0
 62
     0
 10
105.02
 20
99.0822
 30
0.0
 11
105.821
 21
99.0822
 31
0.0
  0
LINE
  8
0
 62
     0
 10
105.821
 20
99.0822
 30
0.0
 11
105.821
 21
98.0818
 31
0.0
  0
LINE
  8
0
 62
     0
 10
105.821
 20
98.0818
 30
0.0
 11
119.82
 21
98.0818
 31
0.0
  0
LINE
  8
0
 62
     0
 10
119.82
 20
98.0818
 30
0.0
 11
119.82
 21
99.0822
 31
0.0
  0
LINE
  8
0
 62
     0
 10
119.82
 20
99.0822
 30
0.0
 11
120.62
 21
99.0822
 31
0.0
  0
LINE
  8
0
 62
     0
 10
120.62
 20
99.0822
 30
0.0
 11
120.62
 21
102.183
 31
0.0
  0
LINE
  8
0
 62
     0
 10
120.62
 20
102.183
 30
0.0
 11
119.82
 21
102.183
 31
0.0
  0
LINE
  8
0
 62
     0
 10
119.82
 20
102.183
 30
0.0
 11
119.82
 21
107.982
 31
0.0
  0
LINE
  8
0
 62
     0
 10
119.82
 20
107.982
 30
0.0
 11
120.62
 21
107.982
 31
0.0
  0
LINE
  8
0
 62
     0
 10
120.62
 20
107.982
 30
0.0
 11
120.62
 21
111.082
 31
0.0
  0
LINE
  8
0
 62
     0
 10
120.62
 20
111.082
 30
0.0
 11
119.82
 21
111.082
 31
0.0
  0
LINE
  8
0
 62
     0
 10
119.82
 20
111.082
 30
0.0
 11
119.82
 21
112.083
 31
0.0
  0
LINE
  8
0
 62
     0
 10
119.82
 20
112.083
 30
0.0
 11
105.821
 21
112.083
 31
0.0
  0
LINE
  8
0
 62
     0
 10
124.871
 20
112.083
 30
0.0
 11
124.871
 21
111.082
 31
0.0
  0
LINE
  8
0
 62
     0
 10
124.871
 20
111.082
 30
0.0
 11
124.07
 21
111.082
 31
0.0
  0
LINE
  8
0
 62
     0
 10
124.07
 20
111.082
 30
0.0
 11
124.07
 21
107.982
 31
0.0
  0
LINE
  8
0
 62
     0
 10
124.07
 20
107.982
 30
0.0
 11
124.871
 21
107.982
 31
0.0
  0
LINE
  8
0
 62
     0
 10
124.871
 20
107.982
 30
0.0
 11
124.871
 21
102.183
 31
0.0
  0
LINE
  8
0
 62
     0
 10
124.871
 20
102.183
 30
0.0
 11
124.07
 21
102.183
 31
0.0
  0
LINE
  8
0
 62
     0
 10
124.07
 20
102.183
 30
0.0
 11
124.07
 21
99.0822
 31
0.0
  0
LINE
  8
0
 62
     0
 10
124.07
 20
99.0822
 30
0.0
 11
124.871
 21
99.0822
 31
0.0
  0
LINE
  8
0
 62
     0
 10
124.871
 20
99.0822
 30
0.0
 11
124.871
 21
98.0818
 31
0.0
  0
LINE
  8
0
 62
     0
 10
124.871
 20
98.0818
 30
0.0
 11
138.87
 21
98.0818
 31
0.0
  0
LINE
  8
0
 62
     0
 10
138.87
 20
98.0818
 30
0.0
 11
138.87
 21
99.0822
 31
0.0
  0
LINE
  8
0
 62
     0
 10
138.87
 20
99.0822
 30
0.0
 11
139.671
 21
99.0822
 31
0.0
  0
LINE
  8
0
 62
     0
 10
139.671
 20
99.0822
 30
0.0
 11
139.671
 21
102.183
 31
0.0
  0
LINE
  8
0
 62
     0
 10
139.671
 20
102.183
 30
0.0
 11
138.87
 21
102.183
 31
0.0
  0
LINE
  8
0
 62
     0
 10
138.87
 20
102.183
 30
0.0
 11
138.87
 21
107.982
 31
0.0
  0
LINE
  8
0
 62
     0
 10
138.87
 20
107.982
 30
0.0
 11
139.671
 21
107.982
 31
0.0
  0
LINE
  8
0
 62
     0
 10
139.671
 20
107.982
 30
0.0
 11
139.671
 21
111.082
 31
0.0
  0
LINE
  8
0
 62
     0
 10
139.671
 20
111.082
 30
0.0
 11
138.87
 21
111.082
 31
0.0
  0
LINE
  8
0
 62
     0
 10
138.87
 20
111.082
 30
0.0
 11
138.87
 21
112.083
 31
0.0
  0
LINE
  8
0
 62
     0
 10
138.87
 20
112.083
 30
0.0
 11
124.871
 21
112.083
 31
0.0
  0
LINE
  8
0
 62
     0
 10
143.921
 20
112.083
 30
0.0
 11
143.921
 21
111.082
 31
0.0
  0
LINE
  8
0
 62
     0
 10
143.921
 20
111.082
 30
0.0
 11
143.12
 21
111.082
 31
0.0
  0
LINE
  8
0
 62
     0
 10
143.12
 20
111.082
 30
0.0
 11
143.12
 21
107.982
 31
0.0
  0
LINE
  8
0
 62
     0
 10
143.12
 20
107.982
 30
0.0
 11
143.921
 21
107.982
 31
0.0
  0
LINE
  8
0
 62
     0
 10
143.921
 20
107.982
 30
0.0
 11
143.921
 21
102.183
 31
0.0
  0
LINE
  8
0
 62
     0
 10
143.921
 20
102.183
 30
0.0
 11
143.12
 21
102.183
 31
0.0
  0
LINE
  8
0
 62
     0
 10
143.12
 20
102.183
 30
0.0
 11
143.12
 21
99.0822
 31
0.0
  0
LINE
  8
0
 62
     0
 10
143.12
 20
99.0822
 30
0.0
 11
143.921
 21
99.0822
 31
0.0
  0
LINE
  8
0
 62
     0
 10
143.921
 20
99.0822
 30
0.0
 11
143.921
 21
98.0818
 31
0.0
  0
LINE
  8
0
 62
     0
 10
143.921
 20
98.0818
 30
0.0
 11
157.92
 21
98.0818
 31
0.0
  0
LINE
  8
0
 62
     0
 10
157.92
 20
98.0818
 30
0.0
 11
157.92
 21
99.0822
 31
0.0
  0
LINE
  8
0
 62
     0
 10
157.92
 20
99.0822
 30
0.0
 11
158.721
 21
99.0822
 31
0.0
  0
LINE
  8
0
 62
     0
 10
158.721
 20
99.0822
 30
0.0
 11
158.721
 21
102.183
 31
0.0
  0
LINE
  8
0
 62
     0
 10
158.721
 20
102.183
 30
0.0
 11
157.92
 21
102.183
 31
0.0
  0
LINE
  8
0
 62
     0
 10
157.92
 20
102.183
 30
0.0
 11
157.92
 21
107.982
 31
0.0
  0
LINE
  8
0
 62
     0
 10
157.92
 20
107.982
 30
0.0
 11
158.721
 21
107.982
 31
0.0
  0
LINE
  8
0
 62
     0
 10
158.721
 20
107.982
 30
0.0
 11
158.721
 21
111.082
 31
0.0
  0
LINE
  8
0
 62
     0
 10
158.721
 20
111.082
 30
0.0
 11
157.92
 21
111.082
 31
0.0
  0
LINE
  8
0
 62
     0
 10
157.92
 20
111.082
 30
0.0
 11
157.92
 21
112.083
 31
0.0
  0
LINE
  8
0
 62
     0
 10
157.92
 20
112.083
 30
0.0
 11
143.921
 21
112.083
 31
0.0
  0
LINE
  8
0
 62
     0
 10
162.971
 20
112.083
 30
0.0
 11
162.971
 21
111.082
 31
0.0
  0
LINE
  8
0
 62
     0
 10
162.971
 20
111.082
 30
0.0
 11
162.17
 21
111.082
 31
0.0
  0
LINE
  8
0
 62
     0
 10
162.17
 20
111.082
 30
0.0
 11
162.17
 21
107.982
 31
0.0
  0
LINE
  8
0
 62
     0
 10
162.17
 20
107.982
 30
0.0
 11
162.971
 21
107.982
 31
0.0
  0
LINE
  8
0
 62
     0
 10
162.971
 20
107.982
 30
0.0
 11
162.971
 21
102.183
 31
0.0
  0
LINE
  8
0
 62
     0
 10
162.971
 20
102.183
 30
0.0
 11
162.17
 21
102.183
 31
0.0
  0
LINE
  8
0
 62
     0
 10
162.17
 20
102.183
 30
0.0
 11
162.17
 21
99.0822
 31
0.0
  0
LINE
  8
0
 62
     0
 10
162.17
 20
99.0822
 30
0.0
 11
162.971
 21
99.0822
 31
0.0
  0
LINE
  8
0
 62
     0
 10
162.971
 20
99.0822
 30
0.0
 11
162.971
 21
98.0818
 31
0.0
  0
LINE
  8
0
 62
     0
 10
162.971
 20
98.0818
 30
0.0
 11
176.97
 21
98.0818
 31
0.0
  0
LINE
  8
0
 62
     0
 10
176.97
 20
98.0818
 30
0.0
 11
176.97
 21
99.0822
 31
0.0
  0
LINE
  8
0
 62
     0
 10
176.97
 20
99.0822
 30
0.0
 11
177.771
 21
99.0822
 31
0.0
  0
LINE
  8
0
 62
     0
 10
177.771
 20
99.0822
 30
0.0
 11
177.771
 21
102.183
 31
0.0
  0
LINE
  8
0
 62
     0
 10
177.771
 20
102.183
 30
0.0
 11
176.97
 21
102.183
 31
0.0
  0
LINE
  8
0
 62
     0
 10
176.97
 20
102.183
 30
0.0
 11
176.97
 21
107.982
 31
0.0
  0
LINE
  8
0
 62
     0
 10
176.97
 20
107.982
 30
0.0
 11
177.771
 21
107.982
 31
0.0
  0
LINE
  8
0
 62
     0
 10
177.771
 20
107.982
 30
0.0
 11
177.771
 21
111.082
 31
0.0
  0
LINE
  8
0
 62
     0
 10
177.771
 20
111.082
 30
0.0
 11
176.97
 21
111.082
 31
0.0
  0
LINE
  8
0
 62
     0
 10
176.97
 20
111.082
 30
0.0
 11
176.97
 21
112.083
 31
0.0
  0
LINE
  8
0
 62
     0
 10
176.97
 20
112.083
 30
0.0
 11
162.971
 21
112.083
 31
0.0
  0
LINE
  8
0
 62
     0
 10
182.021
 20
112.083
 30
0.0
 11
182.021
 21
111.082
 31
0.0
  0
LINE
  8
0
 62
     0
 10
182.021
 20
111.082
 30
0.0
 11
181.22
 21
111.082
 31
0.0
  0
LINE
  8
0
 62
     0
 10
181.22
 20
111.082
 30
0.0
 11
181.22
 21
107.982
 31
0.0
  0
LINE
  8
0
 62
     0
 10
181.22
 20
107.982
 30
0.0
 11
182.021
 21
107.982
 31
0.0
  0
LINE
  8
0
 62
     0
 10
182.021
 20
107.982
 30
0.0
 11
182.021
 21
102.183
 31
0.0
  0
LINE
  8
0
 62
     0
 10
182.021
 20
102.183
 30
0.0
 11
181.22
 21
102.183
 31
0.0
  0
LINE
  8
0
 62
     0
 10
181.22
 20
102.183
 30
0.0
 11
181.22
 21
99.0822
 31
0.0
  0
LINE
  8
0
 62
     0
 10
181.22
 20
99.0822
 30
0.0
 11
182.021
 21
99.0822
 31
0.0
  0
LINE
  8
0
 62
     0
 10
182.021
 20
99.0822
 30
0.0
 11
182.021
 21
98.0818
 31
0.0
  0
LINE
  8
0
 62
     0
 10
182.021
 20
98.0818
 30
0.0
 11
196.02
 21
98.0818
 31
0.0
  0
LINE
  8
0
 62
     0
 10
196.02
 20
98.0818
 30
0.0
 11
196.02
 21
99.0822
 31
0.0
  0
LINE
  8
0
 62
     0
 10
196.02
 20
99.0822
 30
0.0
 11
196.821
 21
99.0822
 31
0.0
  0
LINE
  8
0
 62
     0
 10
196.821
 20
99.0822
 30
0.0
 11
196.821
 21
102.183
 31
0.0
  0
LINE
  8
0
 62
     0
 10
196.821
 20
102.183
 30
0.0
 11
196.02
 21
102.183
 31
0.0
  0
LINE
  8
0
 62
     0
 10
196.02
 20
102.183
 30
0.0
 11
196.02
 21
107.982
 31
0.0
  0
LINE
  8
0
 62
     0
 10
196.02
 20
107.982
 30
0.0
 11
196.821
 21
107.982
 31
0.0
  0
LINE
  8
0
 62
     0
 10
196.821
 20
107.982
 30
0.0
 11
196.821
 21
111.082
 31
0.0
  0
LINE
  8
0
 62
     0
 10
196.821
 20
111.082
 30
0.0
 11
196.02
 21
111.082
 31
0.0
  0
LINE
  8
0
 62
     0
 10
196.02
 20
111.082
 30
0.0
 11
196.02
 21
112.083
 31
0.0
  0
LINE
  8
0
 62
     0
 10
196.02
 20
112.083
 30
0.0
 11
182.021
 21
112.083
 31
0.0
  0
LINE
  8
0
 62
     0
 10
201.071
 20
112.083
 30
0.0
 11
201.071
 21
111.082
 31
0.0
  0
LINE
  8
0
 62
     0
 10
201.071
 20
111.082
 30
0.0
 11
200.27
 21
111.082
 31
0.0
  0
LINE
  8
0
 62
     0
 10
200.27
 20
111.082
 30
0.0
 11
200.27
 21
107.982
 31
0.0
  0
LINE
  8
0
 62
     0
 10
200.27
 20
107.982
 30
0.0
 11
201.071
 21
107.982
 31
0.0
  0
LINE
  8
0
 62
     0
 10
201.071
 20
107.982
 30
0.0
 11
201.071
 21
102.183
 31
0.0
  0
LINE
  8
0
 62
     0
 10
201.071
 20
102.183
 30
0.0
 11
200.27
 21
102.183
 31
0.0
  0
LINE
  8
0
 62
     0
 10
200.27
 20
102.183
 30
0.0
 11
200.27
 21
99.0822
 31
0.0
  0
LINE
  8
0
 62
     0
 10
200.27
 20
99.0822
 30
0.0
 11
201.071
 21
99.0822
 31
0.0
  0
LINE
  8
0
 62
     0
 10
201.071
 20
99.0822
 30
0.0
 11
201.071
 21
98.0818
 31
0.0
  0
LINE
  8
0
 62
     0
 10
201.071
 20
98.0818
 30
0.0
 11
215.07
 21
98.0818
 31
0.0
  0
LINE
  8
0
 62
     0
 10
215.07
 20
98.0818
 30
0.0
 11
215.07
 21
99.0822
 31
0.0
  0
LINE
  8
0
 62
     0
 10
215.07
 20
99.0822
 30
0.0
 11
215.871
 21
99.0822
 31
0.0
  0
LINE
  8
0
 62
     0
 10
215.871
 20
99.0822
 30
0.0
 11
215.871
 21
102.183
 31
0.0
  0
LINE
  8
0
 62
     0
 10
215.871
 20
102.183
 30
0.0
 11
215.07
 21
102.183
 31
0.0
  0
LINE
  8
0
 62
     0
 10
215.07
 20
102.183
 30
0.0
 11
215.07
 21
107.982
 31
0.0
  0
LINE
  8
0
 62
     0
 10
215.07
 20
107.982
 30
0.0
 11
215.871
 21
107.982
 31
0.0
  0
LINE
  8
0
 62
     0
 10
215.871
 20
107.982
 30
0.0
 11
215.871
 21
111.082
 31
0.0
  0
LINE
  8
0
 62
     0
 10
215.871
 20
111.082
 30
0.0
 11
215.07
 21
111.082
 31
0.0
  0
LINE
  8
0
 62
     0
 10
215.07
 20
111.082
 30
0.0
 11
215.07
 21
112.083
 31
0.0
  0
LINE
  8
0
 62
     0
 10
215.07
 20
112.083
 30
0.0
 11
201.071
 21
112.083
 31
0.0
  0
LINE
  8
0
 62
     0
 10
220.121
 20
112.083
 30
0.0
 11
220.121
 21
111.082
 31
0.0
  0
LINE
  8
0
 62
     0
 10
220.121
 20
111.082
 30
0.0
 11
219.32
 21
111.082
 31
0.0
  0
LINE
  8
0
 62
     0
 10
219.32
 20
111.082
 30
0.0
 11
219.32
 21
107.982
 31
0.0
  0
LINE
  8
0
 62
     0
 10
219.32
 20
107.982
 30
0.0
 11
220.121
 21
107.982
 31
0.0
  0
LINE
  8
0
 62
     0
 10
220.121
 20
107.982
 30
0.0
 11
220.121
 21
102.183
 31
0.0
  0
LINE
  8
0
 62
     0
 10
220.121
 20
102.183
 30
0.0
 11
219.32
 21
102.183
 31
0.0
  0
LINE
  8
0
 62
     0
 10
219.32
 20
102.183
 30
0.0
 11
219.32
 21
99.0822
 31
0.0
  0
LINE
  8
0
 62
     0
 10
219.32
 20
99.0822
 30
0.0
 11
220.121
 21
99.0822
 31
0.0
  0
LINE
  8
0
 62
     0
 10
220.121
 20
99.0822
 30
0.0
 11
220.121
 21
98.0818
 31
0.0
  0
LINE
  8
0
 62
     0
 10
220.121
 20
98.0818
 30
0.0
 11
234.12
 21
98.0818
 31
0.0
  0
LINE
  8
0
 62
     0
 10
234.12
 20
98.0818
 30
0.0
 11
234.12
 21
99.0822
 31
0.0
  0
LINE
  8
0
 62
     0
 10
234.12
 20
99.0822
 30
0.0
 11
234.921
 21
99.0822
 31
0.0
  0
LINE
  8
0
 62
     0
 10
234.921
 20
99.0822
 30
0.0
 11
234.921
 21
102.183
 31
0.0
  0
LINE
  8
0
 62
     0
 10
234.921
 20
102.183
 30
0.0
 11
234.12
 21
102.183
 31
0.0
  0
LINE
  8
0
 62
     0
 10
234.12
 20
102.183
 30
0.0
 11
234.12
 21
107.982
 31
0.0
  0
LINE
  8
0
 62
     0
 10
234.12
 20
107.982
 30
0.0
 11
234.921
 21
107.982
 31
0.0
  0
LINE
  8
0
 62
     0
 10
234.921
 20
107.982
 30
0.0
 11
234.921
 21
111.082
 31
0.0
  0
LINE
  8
0
 62
     0
 10
234.921
 20
111.082
 30
0.0
 11
234.12
 21
111.082
 31
0.0
  0
LINE
  8
0
 62
     0
 10
234.12
 20
111.082
 30
0.0
 11
234.12
 21
112.083
 31
0.0
  0
LINE
  8
0
 62
     0
 10
234.12
 20
112.083
 30
0.0
 11
220.121
 21
112.083
 31
0.0
  0
LINE
  8
0
 62
     0
 10
239.171
 20
112.083
 30
0.0
 11
239.171
 21
111.082
 31
0.0
  0
LINE
  8
0
 62
     0
 10
239.171
 20
111.082
 30
0.0
 11
238.37
 21
111.082
 31
0.0
  0
LINE
  8
0
 62
     0
 10
238.37
 20
111.082
 30
0.0
 11
238.37
 21
107.982
 31
0.0
  0
LINE
  8
0
 62
     0
 10
238.37
 20
107.982
 30
0.0
 11
239.171
 21
107.982
 31
0.0
  0
LINE
  8
0
 62
     0
 10
239.171
 20
107.982
 30
0.0
 11
239.171
 21
102.183
 31
0.0
  0
LINE
  8
0
 62
     0
 10
239.171
 20
102.183
 30
0.0
 11
238.37
 21
102.183
 31
0.0
  0
LINE
  8
0
 62
     0
 10
238.37
 20
102.183
 30
0.0
 11
238.37
 21
99.0822
 31
0.0
  0
LINE
  8
0
 62
     0
 10
238.37
 20
99.0822
 30
0.0
 11
239.171
 21
99.0822
 31
0.0
  0
LINE
  8
0
 62
     0
 10
239.171
 20
99.0822
 30
0.0
 11
239.171
 21
98.0818
 31
0.0
  0
LINE
  8
0
 62
     0
 10
239.171
 20
98.0818
 30
0.0
 11
253.17
 21
98.0818
 31
0.0
  0
LINE
  8
0
 62
     0
 10
253.17
 20
98.0818
 30
0.0
 11
253.17
 21
99.0822
 31
0.0
  0
LINE
  8
0
 62
     0
 10
253.17
 20
99.0822
 30
0.0
 11
253.971
 21
99.0822
 31
0.0
  0
LINE
  8
0
 62
     0
 10
253.971
 20
99.0822
 30
0.0
 11
253.971
 21
102.183
 31
0.0
  0
LINE
  8
0
 62
     0
 10
253.971
 20
102.183
 30
0.0
 11
253.17
 21
102.183
 31
0.0
  0
LINE
  8
0
 62
     0
 10
253.17
 20
102.183
 30
0.0
 11
253.17
 21
107.982
 31
0.0
  0
LINE
  8
0
 62
     0
 10
253.17
 20
107.982
 30
0.0
 11
253.971
 21
107.982
 31
0.0
  0
LINE
  8
0
 62
     0
 10
253.971
 20
107.982
 30
0.0
 11
253.971
 21
111.082
 31
0.0
  0
LINE
  8
0
 62
     0
 10
253.971
 20
111.082
 30
0.0
 11
253.17
 21
111.082
 31
0.0
  0
LINE
  8
0
 62
     0
 10
253.17
 20
111.082
 30
0.0
 11
253.17
 21
112.083
 31
0.0
  0
LINE
  8
0
 62
     0
 10
253.17
 20
112.083
 30
0.0
 11
239.171
 21
112.083
 31
0.0
  0
LINE
  8
0
 62
     0
 10
258.221
 20
112.083
 30
0.0
 11
258.221
 21
111.082
 31
0.0
  0
LINE
  8
0
 62
     0
 10
258.221
 20
111.082
 30
0.0
 11
257.42
 21
111.082
 31
0.0
  0
LINE
  8
0
 62
     0
 10
257.42
 20
111.082
 30
0.0
 11
257.42
 21
107.982
 31
0.0
  0
LINE
  8
0
 62
     0
 10
257.42
 20
107.982
 30
0.0
 11
258.221
 21
107.982
 31
0.0
  0
LINE
  8
0
 62
     0
 10
258.221
 20
107.982
 30
0.0
 11
258.221
 21
102.183
 31
0.0
  0
LINE
  8
0
 62
     0
 10
258.221
 20
102.183
 30
0.0
 11
257.42
 21
102.183
 31
0.0
  0
LINE
  8
0
 62
     0
 10
257.42
 20
102.183
 30
0.0
 11
257.42
 21
99.0822
 31
0.0
  0
LINE
  8
0
 62
     0
 10
257.42
 20
99.0822
 30
0.0
 11
258.221
 21
99.0822
 31
0.0
  0
LINE
  8
0
 62
     0
 10
258.221
 20
99.0822
 30
0.0
 11
258.221
 21
98.0818
 31
0.0
  0
LINE
  8
0
 62
     0
 10
258.221
 20
98.0818
 30
0.0
 11
272.22
 21
98.0818
 31
0.0
  0
LINE
  8
0
 62
     0
 10
272.22
 20
98.0818
 30
0.0
 11
272.22
 21
99.0822
 31
0.0
  0
LINE
  8
0
 62
     0
 10
272.22
 20
99.0822
 30
0.0
 11
273.021
 21
99.0822
 31
0.0
  0
LINE
  8
0
 62
     0
 10
273.021
 20
99.0822
 30
0.0
 11
273.021
 21
102.183
 31
0.0
  0
LINE
  8
0
 62
     0
 10
273.021
 20
102.183
 30
0.0
 11
272.22
 21
102.183
 31
0.0
  0
LINE
  8
0
 62
     0
 10
272.22
 20
102.183
 30
0.0
 11
272.22
 21
107.982
 31
0.0
  0
LINE
  8
0
 62
     0
 10
272.22
 20
107.982
 30
0.0
 11
273.021
 21
107.982
 31
0.0
  0
LINE
  8
0
 62
     0
 10
273.021
 20
107.982
 30
0.0
 11
273.021
 21
111.082
 31
0.0
  0
LINE
  8
0
 62
     0
 10
273.021
 20
111.082
 30
0.0
 11
272.22
 21
111.082
 31
0.0
  0
LINE
  8
0
 62
     0
 10
272.22
 20
111.082
 30
0.0
 11
272.22
 21
112.083
 31
0.0
  0
LINE
  8
0
 62
     0
 10
272.22
 20
112.083
 30
0.0
 11
258.221
 21
112.083
 31
0.0
  0
LINE
  8
0
 62
     0
 10
277.271
 20
112.083
 30
0.0
 11
277.271
 21
111.082
 31
0.0
  0
LINE
  8
0
 62
     0
 10
277.271
 20
111.082
 30
0.0
 11
276.47
 21
111.082
 31
0.0
  0
LINE
  8
0
 62
     0
 10
276.47
 20
111.082
 30
0.0
 11
276.47
 21
107.982
 31
0.0
  0
LINE
  8
0
 62
     0
 10
276.47
 20
107.982
 30
0.0
 11
277.271
 21
107.982
 31
0.0
  0
LINE
  8
0
 62
     0
 10
277.271
 20
107.982
 30
0.0
 11
277.271
 21
102.183
 31
0.0
  0
LINE
  8
0
 62
     0
 10
277.271
 20
102.183
 30
0.0
 11
276.47
 21
102.183
 31
0.0
  0
LINE
  8
0
 62
     0
 10
276.47
 20
102.183
 30
0.0
 11
276.47
 21
99.0822
 31
0.0
  0
LINE
  8
0
 62
     0
 10
276.47
 20
99.0822
 30
0.0
 11
277.271
 21
99.0822
 31
0.0
  0
LINE
  8
0
 62
     0
 10
277.271
 20
99.0822
 30
0.0
 11
277.271
 21
98.0818
 31
0.0
  0
LINE
  8
0
 62
     0
 10
277.271
 20
98.0818
 30
0.0
 11
291.27
 21
98.0818
 31
0.0
  0
LINE
  8
0
 62
     0
 10
291.27
 20
98.0818
 30
0.0
 11
291.27
 21
99.0822
 31
0.0
  0
LINE
  8
0
 62
     0
 10
291.27
 20
99.0822
 30
0.0
 11
292.071
 21
99.0822
 31
0.0
  0
LINE
  8
0
 62
     0
 10
292.071
 20
99.0822
 30
0.0
 11
292.071
 21
102.183
 31
0.0
  0
LINE
  8
0
 62
     0
 10
292.071
 20
102.183
 30
0.0
 11
291.27
 21
102.183
 31
0.0
  0
LINE
  8
0
 62
     0
 10
291.27
 20
102.183
 30
0.0
 11
291.27
 21
107.982
 31
0.0
  0
LINE
  8
0
 62
     0
 10
291.27
 20
107.982
 30
0.0
 11
292.071
 21
107.982
 31
0.0
  0
LINE
  8
0
 62
     0
 10
292.071
 20
107.982
 30
0.0
 11
292.071
 21
111.082
 31
0.0
  0
LINE
  8
0
 62
     0
 10
292.071
 20
111.082
 30
0.0
 11
291.27
 21
111.082
 31
0.0
  0
LINE
  8
0
 62
     0
 10
291.27
 20
111.082
 30
0.0
 11
291.27
 21
112.083
 31
0.0
  0
LINE
  8
0
 62
     0
 10
291.27
 20
112.083
 30
0.0
 11
277.271
 21
112.083
 31
0.0
  0
LINE
  8
0
 62
     0
 10
296.321
 20
112.083
 30
0.0
 11
296.321
 21
111.082
 31
0.0
  0
LINE
  8
0
 62
     0
 10
296.321
 20
111.082
 30
0.0
 11
295.52
 21
111.082
 31
0.0
  0
LINE
  8
0
 62
     0
 10
295.52
 20
111.082
 30
0.0
 11
295.52
 21
107.982
 31
0.0
  0
LINE
  8
0
 62
     0
 10
295.52
 20
107.982
 30
0.0
 11
296.321
 21
107.982
 31
0.0
  0
LINE
  8
0
 62
     0
 10
296.321
 20
107.982
 30
0.0
 11
296.321
 21
102.183
 31
0.0
  0
LINE
  8
0
 62
     0
 10
296.321
 20
102.183
 30
0.0
 11
295.52
 21
102.183
 31
0.0
  0
LINE
  8
0
 62
     0
 10
295.52
 20
102.183
 30
0.0
 11
295.52
 21
99.0822
 31
0.0
  0
LINE
  8
0
 62
     0
 10
295.52
 20
99.0822
 30
0.0
 11
296.321
 21
99.0822
 31
0.0
  0
LINE
  8
0
 62
     0
 10
296.321
 20
99.0822
 30
0.0
 11
296.321
 21
98.0818
 31
0.0
  0
LINE
  8
0
 62
     0
 10
296.321
 20
98.0818
 30
0.0
 11
310.32
 21
98.0818
 31
0.0
  0
LINE
  8
0
 62
     0
 10
310.32
 20
98.0818
 30
0.0
 11
310.32
 21
99.0822
 31
0.0
  0
LINE
  8
0
 62
     0
 10
310.32
 20
99.0822
 30
0.0
 11
311.121
 21
99.0822
 31
0.0
  0
LINE
  8
0
 62
     0
 10
311.121
 20
99.0822
 30
0.0
 11
311.121
 21
102.183
 31
0.0
  0
LINE
  8
0
 62
     0
 10
311.121
 20
102.183
 30
0.0
 11
310.32
 21
102.183
 31
0.0
  0
LINE
  8
0
 62
     0
 10
310.32
 20
102.183
 30
0.0
 11
310.32
 21
107.982
 31
0.0
  0
LINE
  8
0
 62
     0
 10
310.32
 20
107.982
 30
0.0
 11
311.121
 21
107.982
 31
0.0
  0
LINE
  8
0
 62
     0
 10
311.121
 20
107.982
 30
0.0
 11
311.121
 21
111.082
 31
0.0
  0
LINE
  8
0
 62
     0
 10
311.121
 20
111.082
 30
0.0
 11
310.32
 21
111.082
 31
0.0
  0
LINE
  8
0
 62
     0
 10
310.32
 20
111.082
 30
0.0
 11
310.32
 21
112.083
 31
0.0
  0
LINE
  8
0
 62
     0
 10
310.32
 20
112.083
 30
0.0
 11
296.321
 21
112.083
 31
0.0
  0
LINE
  8
0
 62
     0
 10
89.2418
 20
125.772
 30
0.0
 11
88.7539
 21
125.523
 31
0.0
  0
LINE
  8
0
 62
     0
 10
88.7539
 20
125.523
 30
0.0
 11
88.3666
 21
125.137
 31
0.0
  0
LINE
  8
0
 62
     0
 10
88.3666
 20
125.137
 30
0.0
 11
88.1186
 21
124.648
 31
0.0
  0
LINE
  8
0
 62
     0
 10
88.1186
 20
124.648
 30
0.0
 11
88.0318
 21
124.108
 31
0.0
  0
LINE
  8
0
 62
     0
 10
88.0318
 20
124.108
 30
0.0
 11
88.1186
 21
123.567
 31
0.0
  0
LINE
  8
0
 62
     0
 10
88.1186
 20
123.567
 30
0.0
 11
88.3666
 21
123.08
 31
0.0
  0
LINE
  8
0
 62
     0
 10
88.3666
 20
123.08
 30
0.0
 11
88.7539
 21
122.692
 31
0.0
  0
LINE
  8
0
 62
     0
 10
88.7539
 20
122.692
 30
0.0
 11
89.2418
 21
122.443
 31
0.0
  0
LINE
  8
0
 62
     0
 10
89.2418
 20
122.443
 30
0.0
 11
89.7819
 21
122.357
 31
0.0
  0
LINE
  8
0
 62
     0
 10
89.7819
 20
122.357
 30
0.0
 11
90.3235
 21
122.443
 31
0.0
  0
LINE
  8
0
 62
     0
 10
90.3235
 20
122.443
 30
0.0
 11
90.8114
 21
122.692
 31
0.0
  0
LINE
  8
0
 62
     0
 10
90.8114
 20
122.692
 30
0.0
 11
91.1987
 21
123.08
 31
0.0
  0
LINE
  8
0
 62
     0
 10
91.1987
 20
123.08
 30
0.0
 11
91.4481
 21
123.567
 31
0.0
  0
LINE
  8
0
 62
     0
 10
91.4481
 20
123.567
 30
0.0
 11
91.5321
 21
124.108
 31
0.0
  0
LINE
  8
0
 62
     0
 10
91.5321
 20
124.108
 30
0.0
 11
91.4481
 21
124.648
 31
0.0
  0
LINE
  8
0
 62
     0
 10
91.4481
 20
124.648
 30
0.0
 11
91.1987
 21
125.137
 31
0.0
  0
LINE
  8
0
 62
     0
 10
91.1987
 20
125.137
 30
0.0
 11
90.8114
 21
125.523
 31
0.0
  0
LINE
  8
0
 62
     0
 10
90.8114
 20
125.523
 30
0.0
 11
90.3235
 21
125.772
 31
0.0
  0
LINE
  8
0
 62
     0
 10
90.3235
 20
125.772
 30
0.0
 11
89.7819
 21
125.858
 31
0.0
  0
LINE
  8
0
 62
     0
 10
89.7819
 20
125.858
 30
0.0
 11
89.2418
 21
125.772
 31
0.0
  0
LINE
  8
0
 62
     0
 10
169.43
 20
125.772
 30
0.0
 11
168.942
 21
125.523
 31
0.0
  0
LINE
  8
0
 62
     0
 10
168.942
 20
125.523
 30
0.0
 11
168.555
 21
125.137
 31
0.0
  0
LINE
  8
0
 62
     0
 10
168.555
 20
125.137
 30
0.0
 11
168.307
 21
124.648
 31
0.0
  0
LINE
  8
0
 62
     0
 10
168.307
 20
124.648
 30
0.0
 11
168.22
 21
124.108
 31
0.0
  0
LINE
  8
0
 62
     0
 10
168.22
 20
124.108
 30
0.0
 11
168.307
 21
123.567
 31
0.0
  0
LINE
  8
0
 62
     0
 10
168.307
 20
123.567
 30
0.0
 11
168.555
 21
123.08
 31
0.0
  0
LINE
  8
0
 62
     0
 10
168.555
 20
123.08
 30
0.0
 11
168.942
 21
122.692
 31
0.0
  0
LINE
  8
0
 62
     0
 10
168.942
 20
122.692
 30
0.0
 11
169.43
 21
122.443
 31
0.0
  0
LINE
  8
0
 62
     0
 10
169.43
 20
122.443
 30
0.0
 11
169.97
 21
122.357
 31
0.0
  0
LINE
  8
0
 62
     0
 10
169.97
 20
122.357
 30
0.0
 11
170.512
 21
122.443
 31
0.0
  0
LINE
  8
0
 62
     0
 10
170.512
 20
122.443
 30
0.0
 11
171
 21
122.692
 31
0.0
  0
LINE
  8
0
 62
     0
 10
171
 20
122.692
 30
0.0
 11
171.387
 21
123.08
 31
0.0
  0
LINE
  8
0
 62
     0
 10
171.387
 20
123.08
 30
0.0
 11
171.635
 21
123.567
 31
0.0
  0
LINE
  8
0
 62
     0
 10
171.635
 20
123.567
 30
0.0
 11
171.72
 21
124.108
 31
0.0
  0
LINE
  8
0
 62
     0
 10
171.72
 20
124.108
 30
0.0
 11
171.635
 21
124.648
 31
0.0
  0
LINE
  8
0
 62
     0
 10
171.635
 20
124.648
 30
0.0
 11
171.387
 21
125.137
 31
0.0
  0
LINE
  8
0
 62
     0
 10
171.387
 20
125.137
 30
0.0
 11
171
 21
125.523
 31
0.0
  0
LINE
  8
0
 62
     0
 10
171
 20
125.523
 30
0.0
 11
170.512
 21
125.772
 31
0.0
  0
LINE
  8
0
 62
     0
 10
170.512
 20
125.772
 30
0.0
 11
169.97
 21
125.858
 31
0.0
  0
LINE
  8
0
 62
     0
 10
169.97
 20
125.858
 30
0.0
 11
169.43
 21
125.772
 31
0.0
  0
LINE
  8
0
 62
     0
 10
249.618
 20
125.772
 30
0.0
 11
249.13
 21
125.523
 31
0.0
  0
LINE
  8
0
 62
     0
 10
249.13
 20
125.523
 30
0.0
 11
248.743
 21
125.137
 31
0.0
  0
LINE
  8
0
 62
     0
 10
248.743
 20
125.137
 30
0.0
 11
248.493
 21
124.648
 31
0.0
  0
LINE
  8
0
 62
     0
 10
248.493
 20
124.648
 30
0.0
 11
248.408
 21
124.108
 31
0.0
  0
LINE
  8
0
 62
     0
 10
248.408
 20
124.108
 30
0.0
 11
248.493
 21
123.567
 31
0.0
  0
LINE
  8
0
 62
     0
 10
248.493
 20
123.567
 30
0.0
 11
248.743
 21
123.08
 31
0.0
  0
LINE
  8
0
 62
     0
 10
248.743
 20
123.08
 30
0.0
 11
249.13
 21
122.692
 31
0.0
  0
LINE
  8
0
 62
     0
 10
249.13
 20
122.692
 30
0.0
 11
249.618
 21
122.443
 31
0.0
  0
LINE
  8
0
 62
     0
 10
249.618
 20
122.443
 30
0.0
 11
250.158
 21
122.357
 31
0.0
  0
LINE
  8
0
 62
     0
 10
250.158
 20
122.357
 30
0.0
 11
250.7
 21
122.443
 31
0.0
  0
LINE
  8
0
 62
     0
 10
250.7
 20
122.443
 30
0.0
 11
251.186
 21
122.692
 31
0.0
  0
LINE
  8
0
 62
     0
 10
251.186
 20
122.692
 30
0.0
 11
251.573
 21
123.08
 31
0.0
  0
LINE
  8
0
 62
     0
 10
251.573
 20
123.08
 30
0.0
 11
251.821
 21
123.567
 31
0.0
  0
LINE
  8
0
 62
     0
 10
251.821
 20
123.567
 30
0.0
 11
251.908
 21
124.108
 31
0.0
  0
LINE
  8
0
 62
     0
 10
251.908
 20
124.108
 30
0.0
 11
251.821
 21
124.648
 31
0.0
  0
LINE
  8
0
 62
     0
 10
251.821
 20
124.648
 30
0.0
 11
251.573
 21
125.137
 31
0.0
  0
LINE
  8
0
 62
     0
 10
251.573
 20
125.137
 30
0.0
 11
251.186
 21
125.523
 31
0.0
  0
LINE
  8
0
 62
     0
 10
251.186
 20
125.523
 30
0.0
 11
250.7
 21
125.772
 31
0.0
  0
LINE
  8
0
 62
     0
 10
250.7
 20
125.772
 30
0.0
 11
250.158
 21
125.858
 31
0.0
  0
LINE
  8
0
 62
     0
 10
250.158
 20
125.858
 30
0.0
 11
249.618
 21
125.772
 31
0.0
  0
LINE
  8
0
 62
     0
 10
329.806
 20
125.772
 30
0.0
 11
329.318
 21
125.523
 31
0.0
  0
LINE
  8
0
 62
     0
 10
329.318
 20
125.523
 30
0.0
 11
328.931
 21
125.137
 31
0.0
  0
LINE
  8
0
 62
     0
 10
328.931
 20
125.137
 30
0.0
 11
328.681
 21
124.648
 31
0.0
  0
LINE
  8
0
 62
     0
 10
328.681
 20
124.648
 30
0.0
 11
328.596
 21
124.108
 31
0.0
  0
LINE
  8
0
 62
     0
 10
328.596
 20
124.108
 30
0.0
 11
328.681
 21
123.567
 31
0.0
  0
LINE
  8
0
 62
     0
 10
328.681
 20
123.567
 30
0.0
 11
328.931
 21
123.08
 31
0.0
  0
LINE
  8
0
 62
     0
 10
328.931
 20
123.08
 30
0.0
 11
329.318
 21
122.692
 31
0.0
  0
LINE
  8
0
 62
     0
 10
329.318
 20
122.692
 30
0.0
 11
329.806
 21
122.443
 31
0.0
  0
LINE
  8
0
 62
     0
 10
329.806
 20
122.443
 30
0.0
 11
330.346
 21
122.357
 31
0.0
  0
LINE
  8
0
 62
     0
 10
330.346
 20
122.357
 30
0.0
 11
330.886
 21
122.443
 31
0.0
  0
LINE
  8
0
 62
     0
 10
330.886
 20
122.443
 30
0.0
 11
331.374
 21
122.692
 31
0.0
  0
LINE
  8
0
 62
     0
 10
331.374
 20
122.692
 30
0.0
 11
331.761
 21
123.08
 31
0.0
  0
LINE
  8
0
 62
     0
 10
331.761
 20
123.08
 30
0.0
 11
332.011
 21
123.567
 31
0.0
  0
LINE
  8
0
 62
     0
 10
332.011
 20
123.567
 30
0.0
 11
332.096
 21
124.108
 31
0.0
  0
LINE
  8
0
 62
     0
 10
332.096
 20
124.108
 30
0.0
 11
332.011
 21
124.648
 31
0.0
  0
LINE
  8
0
 62
     0
 10
332.011
 20
124.648
 30
0.0
 11
331.761
 21
125.137
 31
0.0
  0
LINE
  8
0
 62
     0
 10
331.761
 20
125.137
 30
0.0
 11
331.374
 21
125.523
 31
0.0
  0
LINE
  8
0
 62
     0
 10
331.374
 20
125.523
 30
0.0
 11
330.886
 21
125.772
 31
0.0
  0
LINE
  8
0
 62
     0
 10
330.886
 20
125.772
 30
0.0
 11
330.346
 21
125.858
 31
0.0
  0
LINE
  8
0
 62
     0
 10
330.346
 20
125.858
 30
0.0
 11
329.806
 21
125.772
 31
0.0
  0
LINE
  8
0
 62
     0
 10
9.0551
 20
125.772
 30
0.0
 11
8.5659
 21
125.523
 31
0.0
  0
LINE
  8
0
 62
     0
 10
8.5659
 20
125.523
 30
0.0
 11
8.18003
 21
125.137
 31
0.0
  0
LINE
  8
0
 62
     0
 10
8.18003
 20
125.137
 30
0.0
 11
7.93062
 21
124.648
 31
0.0
  0
LINE
  8
0
 62
     0
 10
7.93062
 20
124.648
 30
0.0
 11
7.84518
 21
124.108
 31
0.0
  0
LINE
  8
0
 62
     0
 10
7.84518
 20
124.108
 30
0.0
 11
7.93062
 21
123.567
 31
0.0
  0
LINE
  8
0
 62
     0
 10
7.93062
 20
123.567
 30
0.0
 11
8.18003
 21
123.08
 31
0.0
  0
LINE
  8
0
 62
     0
 10
8.18003
 20
123.08
 30
0.0
 11
8.5659
 21
122.692
 31
0.0
  0
LINE
  8
0
 62
     0
 10
8.5659
 20
122.692
 30
0.0
 11
9.0551
 21
122.443
 31
0.0
  0
LINE
  8
0
 62
     0
 10
9.0551
 20
122.443
 30
0.0
 11
9.5939
 21
122.357
 31
0.0
  0
LINE
  8
0
 62
     0
 10
9.5939
 20
122.357
 30
0.0
 11
10.1355
 21
122.443
 31
0.0
  0
LINE
  8
0
 62
     0
 10
10.1355
 20
122.443
 30
0.0
 11
10.6233
 21
122.692
 31
0.0
  0
LINE
  8
0
 62
     0
 10
10.6233
 20
122.692
 30
0.0
 11
11.0105
 21
123.08
 31
0.0
  0
LINE
  8
0
 62
     0
 10
11.0105
 20
123.08
 30
0.0
 11
11.26
 21
123.567
 31
0.0
  0
LINE
  8
0
 62
     0
 10
11.26
 20
123.567
 30
0.0
 11
11.344
 21
124.108
 31
0.0
  0
LINE
  8
0
 62
     0
 10
11.344
 20
124.108
 30
0.0
 11
11.26
 21
124.648
 31
0.0
  0
LINE
  8
0
 62
     0
 10
11.26
 20
124.648
 30
0.0
 11
11.0105
 21
125.137
 31
0.0
  0
LINE
  8
0
 62
     0
 10
11.0105
 20
125.137
 30
0.0
 11
10.6233
 21
125.523
 31
0.0
  0
LINE
  8
0
 62
     0
 10
10.6233
 20
125.523
 30
0.0
 11
10.1355
 21
125.772
 31
0.0
  0
LINE
  8
0
 62
     0
 10
10.1355
 20
125.772
 30
0.0
 11
9.5939
 21
125.858
 31
0.0
  0
LINE
  8
0
 62
     0
 10
9.5939
 20
125.858
 30
0.0
 11
9.0551
 21
125.772
 31
0.0
  0
ENDSEC
  0
EOF
