  0
SECTION
  2
HEADER
  9
$ACADVER
  1
AC1009
  9
$FILLMODE
 70
 0
  9
$SPLFRAME
 70
 1
  9
$EXTMIN
 10
0
 20
0
 30
0.0
  9
$EXTMAX
 10
1058.33
 20
1058.33
 30
0.0
  0
ENDSEC
  0
SECTION
  2
TABLES
  0
TABLE
  2
LAYER
 70
1
  0
LAYER
  2
0
 70
     0
 62
     7
  6
CONTINUOUS
  0
ENDTAB
  0
ENDSEC
  0
SECTION
  2
ENTITIES
  0
LINE
  8
0
 62
     0
 10
0.0950846
 20
95.5075
 30
0.0
 11
285.845
 21
95.5075
 31
0.0
  0
LINE
  8
0
 62
     0
 10
285.845
 20
95.5075
 30
0.0
 11
285.845
 21
0.257693
 31
0.0
  0
LINE
  8
0
 62
     0
 10
285.845
 20
0.257693
 30
0.0
 11
0.0950846
 21
0.257693
 31
0.0
  0
LINE
  8
0
 62
     0
 10
0.0950846
 20
0.257693
 30
0.0
 11
0.0950846
 21
95.5075
 31
0.0
  0
LINE
  8
0
 62
     0
 10
31.1947
 20
16.7831
 30
0.0
 11
45.194
 21
16.7831
 31
0.0
  0
LINE
  8
0
 62
     0
 10
45.194
 20
16.7831
 30
0.0
 11
45.194
 21
2.78364
 31
0.0
  0
LINE
  8
0
 62
     0
 10
45.194
 20
2.78364
 30
0.0
 11
31.1947
 21
2.78364
 31
0.0
  0
LINE
  8
0
 62
     0
 10
31.1947
 20
2.78364
 30
0.0
 11
31.1947
 21
16.7831
 31
0.0
  0
LINE
  8
0
 62
     0
 10
55.0072
 20
16.7831
 30
0.0
 11
69.0065
 21
16.7831
 31
0.0
  0
LINE
  8
0
 62
     0
 10
69.0065
 20
16.7831
 30
0.0
 11
69.0065
 21
2.78364
 31
0.0
  0
LINE
  8
0
 62
     0
 10
69.0065
 20
2.78364
 30
0.0
 11
55.0072
 21
2.78364
 31
0.0
  0
LINE
  8
0
 62
     0
 10
55.0072
 20
2.78364
 30
0.0
 11
55.0072
 21
16.7831
 31
0.0
  0
LINE
  8
0
 62
     0
 10
85.9621
 20
16.7831
 30
0.0
 11
99.9628
 21
16.7831
 31
0.0
  0
LINE
  8
0
 62
     0
 10
99.9628
 20
16.7831
 30
0.0
 11
99.9628
 21
2.78364
 31
0.0
  0
LINE
  8
0
 62
     0
 10
99.9628
 20
2.78364
 30
0.0
 11
85.9621
 21
2.78364
 31
0.0
  0
LINE
  8
0
 62
     0
 10
85.9621
 20
2.78364
 30
0.0
 11
85.9621
 21
16.7831
 31
0.0
  0
LINE
  8
0
 62
     0
 10
114.537
 20
16.7831
 30
0.0
 11
128.538
 21
16.7831
 31
0.0
  0
LINE
  8
0
 62
     0
 10
128.538
 20
16.7831
 30
0.0
 11
128.538
 21
2.78364
 31
0.0
  0
LINE
  8
0
 62
     0
 10
128.538
 20
2.78364
 30
0.0
 11
114.537
 21
2.78364
 31
0.0
  0
LINE
  8
0
 62
     0
 10
114.537
 20
2.78364
 30
0.0
 11
114.537
 21
16.7831
 31
0.0
  0
LINE
  8
0
 62
     0
 10
135.97
 20
16.7831
 30
0.0
 11
149.969
 21
16.7831
 31
0.0
  0
LINE
  8
0
 62
     0
 10
149.969
 20
16.7831
 30
0.0
 11
149.969
 21
2.78364
 31
0.0
  0
LINE
  8
0
 62
     0
 10
149.969
 20
2.78364
 30
0.0
 11
135.97
 21
2.78364
 31
0.0
  0
LINE
  8
0
 62
     0
 10
135.97
 20
2.78364
 30
0.0
 11
135.97
 21
16.7831
 31
0.0
  0
LINE
  8
0
 62
     0
 10
157.401
 20
16.7831
 30
0.0
 11
171.4
 21
16.7831
 31
0.0
  0
LINE
  8
0
 62
     0
 10
171.4
 20
16.7831
 30
0.0
 11
171.4
 21
2.78364
 31
0.0
  0
LINE
  8
0
 62
     0
 10
171.4
 20
2.78364
 30
0.0
 11
157.401
 21
2.78364
 31
0.0
  0
LINE
  8
0
 62
     0
 10
157.401
 20
2.78364
 30
0.0
 11
157.401
 21
16.7831
 31
0.0
  0
LINE
  8
0
 62
     0
 10
185.976
 20
16.7831
 30
0.0
 11
199.975
 21
16.7831
 31
0.0
  0
LINE
  8
0
 62
     0
 10
199.975
 20
16.7831
 30
0.0
 11
199.975
 21
2.78364
 31
0.0
  0
LINE
  8
0
 62
     0
 10
199.975
 20
2.78364
 30
0.0
 11
185.976
 21
2.78364
 31
0.0
  0
LINE
  8
0
 62
     0
 10
185.976
 20
2.78364
 30
0.0
 11
185.976
 21
16.7831
 31
0.0
  0
LINE
  8
0
 62
     0
 10
216.932
 20
16.7831
 30
0.0
 11
230.932
 21
16.7831
 31
0.0
  0
LINE
  8
0
 62
     0
 10
230.932
 20
16.7831
 30
0.0
 11
230.932
 21
2.78364
 31
0.0
  0
LINE
  8
0
 62
     0
 10
230.932
 20
2.78364
 30
0.0
 11
216.932
 21
2.78364
 31
0.0
  0
LINE
  8
0
 62
     0
 10
216.932
 20
2.78364
 30
0.0
 11
216.932
 21
16.7831
 31
0.0
  0
LINE
  8
0
 62
     0
 10
240.745
 20
16.7831
 30
0.0
 11
254.744
 21
16.7831
 31
0.0
  0
LINE
  8
0
 62
     0
 10
254.744
 20
16.7831
 30
0.0
 11
254.744
 21
2.78364
 31
0.0
  0
LINE
  8
0
 62
     0
 10
254.744
 20
2.78364
 30
0.0
 11
240.745
 21
2.78364
 31
0.0
  0
LINE
  8
0
 62
     0
 10
240.745
 20
2.78364
 30
0.0
 11
240.745
 21
16.7831
 31
0.0
  0
LINE
  8
0
 62
     0
 10
2.61965
 20
35.833
 30
0.0
 11
16.6192
 21
35.833
 31
0.0
  0
LINE
  8
0
 62
     0
 10
16.6192
 20
35.833
 30
0.0
 11
16.6192
 21
21.8336
 31
0.0
  0
LINE
  8
0
 62
     0
 10
16.6192
 20
21.8336
 30
0.0
 11
2.61965
 21
21.8336
 31
0.0
  0
LINE
  8
0
 62
     0
 10
2.61965
 20
21.8336
 30
0.0
 11
2.61965
 21
35.833
 31
0.0
  0
LINE
  8
0
 62
     0
 10
24.0509
 20
35.833
 30
0.0
 11
38.0503
 21
35.833
 31
0.0
  0
LINE
  8
0
 62
     0
 10
38.0503
 20
35.833
 30
0.0
 11
38.0503
 21
21.8336
 31
0.0
  0
LINE
  8
0
 62
     0
 10
38.0503
 20
21.8336
 30
0.0
 11
24.0509
 21
21.8336
 31
0.0
  0
LINE
  8
0
 62
     0
 10
24.0509
 20
21.8336
 30
0.0
 11
24.0509
 21
35.833
 31
0.0
  0
LINE
  8
0
 62
     0
 10
45.4822
 20
35.833
 30
0.0
 11
59.4815
 21
35.833
 31
0.0
  0
LINE
  8
0
 62
     0
 10
59.4815
 20
35.833
 30
0.0
 11
59.4815
 21
21.8336
 31
0.0
  0
LINE
  8
0
 62
     0
 10
59.4815
 20
21.8336
 30
0.0
 11
45.4822
 21
21.8336
 31
0.0
  0
LINE
  8
0
 62
     0
 10
45.4822
 20
21.8336
 30
0.0
 11
45.4822
 21
35.833
 31
0.0
  0
LINE
  8
0
 62
     0
 10
64.5322
 20
35.833
 30
0.0
 11
78.5315
 21
35.833
 31
0.0
  0
LINE
  8
0
 62
     0
 10
78.5315
 20
35.833
 30
0.0
 11
78.5315
 21
21.8336
 31
0.0
  0
LINE
  8
0
 62
     0
 10
78.5315
 20
21.8336
 30
0.0
 11
64.5322
 21
21.8336
 31
0.0
  0
LINE
  8
0
 62
     0
 10
64.5322
 20
21.8336
 30
0.0
 11
64.5322
 21
35.833
 31
0.0
  0
LINE
  8
0
 62
     0
 10
83.5822
 20
35.833
 30
0.0
 11
97.5815
 21
35.833
 31
0.0
  0
LINE
  8
0
 62
     0
 10
97.5815
 20
35.833
 30
0.0
 11
97.5815
 21
21.8336
 31
0.0
  0
LINE
  8
0
 62
     0
 10
97.5815
 20
21.8336
 30
0.0
 11
83.5822
 21
21.8336
 31
0.0
  0
LINE
  8
0
 62
     0
 10
83.5822
 20
21.8336
 30
0.0
 11
83.5822
 21
35.833
 31
0.0
  0
LINE
  8
0
 62
     0
 10
102.632
 20
35.833
 30
0.0
 11
116.632
 21
35.833
 31
0.0
  0
LINE
  8
0
 62
     0
 10
116.632
 20
35.833
 30
0.0
 11
116.632
 21
21.8336
 31
0.0
  0
LINE
  8
0
 62
     0
 10
116.632
 20
21.8336
 30
0.0
 11
102.632
 21
21.8336
 31
0.0
  0
LINE
  8
0
 62
     0
 10
102.632
 20
21.8336
 30
0.0
 11
102.632
 21
35.833
 31
0.0
  0
LINE
  8
0
 62
     0
 10
121.682
 20
35.833
 30
0.0
 11
135.682
 21
35.833
 31
0.0
  0
LINE
  8
0
 62
     0
 10
135.682
 20
35.833
 30
0.0
 11
135.682
 21
21.8336
 31
0.0
  0
LINE
  8
0
 62
     0
 10
135.682
 20
21.8336
 30
0.0
 11
121.682
 21
21.8336
 31
0.0
  0
LINE
  8
0
 62
     0
 10
121.682
 20
21.8336
 30
0.0
 11
121.682
 21
35.833
 31
0.0
  0
LINE
  8
0
 62
     0
 10
140.732
 20
35.833
 30
0.0
 11
154.732
 21
35.833
 31
0.0
  0
LINE
  8
0
 62
     0
 10
154.732
 20
35.833
 30
0.0
 11
154.732
 21
21.8336
 31
0.0
  0
LINE
  8
0
 62
     0
 10
154.732
 20
21.8336
 30
0.0
 11
140.732
 21
21.8336
 31
0.0
  0
LINE
  8
0
 62
     0
 10
140.732
 20
21.8336
 30
0.0
 11
140.732
 21
35.833
 31
0.0
  0
LINE
  8
0
 62
     0
 10
159.782
 20
35.833
 30
0.0
 11
173.782
 21
35.833
 31
0.0
  0
LINE
  8
0
 62
     0
 10
173.782
 20
35.833
 30
0.0
 11
173.782
 21
21.8336
 31
0.0
  0
LINE
  8
0
 62
     0
 10
173.782
 20
21.8336
 30
0.0
 11
159.782
 21
21.8336
 31
0.0
  0
LINE
  8
0
 62
     0
 10
159.782
 20
21.8336
 30
0.0
 11
159.782
 21
35.833
 31
0.0
  0
LINE
  8
0
 62
     0
 10
178.832
 20
35.833
 30
0.0
 11
192.832
 21
35.833
 31
0.0
  0
LINE
  8
0
 62
     0
 10
192.832
 20
35.833
 30
0.0
 11
192.832
 21
21.8336
 31
0.0
  0
LINE
  8
0
 62
     0
 10
192.832
 20
21.8336
 30
0.0
 11
178.832
 21
21.8336
 31
0.0
  0
LINE
  8
0
 62
     0
 10
178.832
 20
21.8336
 30
0.0
 11
178.832
 21
35.833
 31
0.0
  0
LINE
  8
0
 62
     0
 10
197.882
 20
35.833
 30
0.0
 11
211.882
 21
35.833
 31
0.0
  0
LINE
  8
0
 62
     0
 10
211.882
 20
35.833
 30
0.0
 11
211.882
 21
21.8336
 31
0.0
  0
LINE
  8
0
 62
     0
 10
211.882
 20
21.8336
 30
0.0
 11
197.882
 21
21.8336
 31
0.0
  0
LINE
  8
0
 62
     0
 10
197.882
 20
21.8336
 30
0.0
 11
197.882
 21
35.833
 31
0.0
  0
LINE
  8
0
 62
     0
 10
216.932
 20
35.833
 30
0.0
 11
230.932
 21
35.833
 31
0.0
  0
LINE
  8
0
 62
     0
 10
230.932
 20
35.833
 30
0.0
 11
230.932
 21
21.8336
 31
0.0
  0
LINE
  8
0
 62
     0
 10
230.932
 20
21.8336
 30
0.0
 11
216.932
 21
21.8336
 31
0.0
  0
LINE
  8
0
 62
     0
 10
216.932
 20
21.8336
 30
0.0
 11
216.932
 21
35.833
 31
0.0
  0
LINE
  8
0
 62
     0
 10
243.126
 20
35.833
 30
0.0
 11
257.125
 21
35.833
 31
0.0
  0
LINE
  8
0
 62
     0
 10
257.125
 20
35.833
 30
0.0
 11
257.125
 21
21.8336
 31
0.0
  0
LINE
  8
0
 62
     0
 10
257.125
 20
21.8336
 30
0.0
 11
243.126
 21
21.8336
 31
0.0
  0
LINE
  8
0
 62
     0
 10
243.126
 20
21.8336
 30
0.0
 11
243.126
 21
35.833
 31
0.0
  0
LINE
  8
0
 62
     0
 10
269.32
 20
35.833
 30
0.0
 11
283.319
 21
35.833
 31
0.0
  0
LINE
  8
0
 62
     0
 10
283.319
 20
35.833
 30
0.0
 11
283.319
 21
21.8336
 31
0.0
  0
LINE
  8
0
 62
     0
 10
283.319
 20
21.8336
 30
0.0
 11
269.32
 21
21.8336
 31
0.0
  0
LINE
  8
0
 62
     0
 10
269.32
 20
21.8336
 30
0.0
 11
269.32
 21
35.833
 31
0.0
  0
LINE
  8
0
 62
     0
 10
9.76203
 20
54.8831
 30
0.0
 11
23.7629
 21
54.8831
 31
0.0
  0
LINE
  8
0
 62
     0
 10
23.7629
 20
54.8831
 30
0.0
 11
23.7629
 21
40.8838
 31
0.0
  0
LINE
  8
0
 62
     0
 10
23.7629
 20
40.8838
 30
0.0
 11
9.76203
 21
40.8838
 31
0.0
  0
LINE
  8
0
 62
     0
 10
9.76203
 20
40.8838
 30
0.0
 11
9.76203
 21
54.8831
 31
0.0
  0
LINE
  8
0
 62
     0
 10
35.9572
 20
54.8831
 30
0.0
 11
49.9565
 21
54.8831
 31
0.0
  0
LINE
  8
0
 62
     0
 10
49.9565
 20
54.8831
 30
0.0
 11
49.9565
 21
40.8838
 31
0.0
  0
LINE
  8
0
 62
     0
 10
49.9565
 20
40.8838
 30
0.0
 11
35.9572
 21
40.8838
 31
0.0
  0
LINE
  8
0
 62
     0
 10
35.9572
 20
40.8838
 30
0.0
 11
35.9572
 21
54.8831
 31
0.0
  0
LINE
  8
0
 62
     0
 10
55.0072
 20
54.8831
 30
0.0
 11
69.0065
 21
54.8831
 31
0.0
  0
LINE
  8
0
 62
     0
 10
69.0065
 20
54.8831
 30
0.0
 11
69.0065
 21
40.8838
 31
0.0
  0
LINE
  8
0
 62
     0
 10
69.0065
 20
40.8838
 30
0.0
 11
55.0072
 21
40.8838
 31
0.0
  0
LINE
  8
0
 62
     0
 10
55.0072
 20
40.8838
 30
0.0
 11
55.0072
 21
54.8831
 31
0.0
  0
LINE
  8
0
 62
     0
 10
74.0572
 20
54.8831
 30
0.0
 11
88.0565
 21
54.8831
 31
0.0
  0
LINE
  8
0
 62
     0
 10
88.0565
 20
54.8831
 30
0.0
 11
88.0565
 21
40.8838
 31
0.0
  0
LINE
  8
0
 62
     0
 10
88.0565
 20
40.8838
 30
0.0
 11
74.0572
 21
40.8838
 31
0.0
  0
LINE
  8
0
 62
     0
 10
74.0572
 20
40.8838
 30
0.0
 11
74.0572
 21
54.8831
 31
0.0
  0
LINE
  8
0
 62
     0
 10
93.1072
 20
54.8831
 30
0.0
 11
107.107
 21
54.8831
 31
0.0
  0
LINE
  8
0
 62
     0
 10
107.107
 20
54.8831
 30
0.0
 11
107.107
 21
40.8838
 31
0.0
  0
LINE
  8
0
 62
     0
 10
107.107
 20
40.8838
 30
0.0
 11
93.1072
 21
40.8838
 31
0.0
  0
LINE
  8
0
 62
     0
 10
93.1072
 20
40.8838
 30
0.0
 11
93.1072
 21
54.8831
 31
0.0
  0
LINE
  8
0
 62
     0
 10
112.157
 20
54.8831
 30
0.0
 11
126.157
 21
54.8831
 31
0.0
  0
LINE
  8
0
 62
     0
 10
126.157
 20
54.8831
 30
0.0
 11
126.157
 21
40.8838
 31
0.0
  0
LINE
  8
0
 62
     0
 10
126.157
 20
40.8838
 30
0.0
 11
112.157
 21
40.8838
 31
0.0
  0
LINE
  8
0
 62
     0
 10
112.157
 20
40.8838
 30
0.0
 11
112.157
 21
54.8831
 31
0.0
  0
LINE
  8
0
 62
     0
 10
131.207
 20
54.8831
 30
0.0
 11
145.207
 21
54.8831
 31
0.0
  0
LINE
  8
0
 62
     0
 10
145.207
 20
54.8831
 30
0.0
 11
145.207
 21
40.8838
 31
0.0
  0
LINE
  8
0
 62
     0
 10
145.207
 20
40.8838
 30
0.0
 11
131.207
 21
40.8838
 31
0.0
  0
LINE
  8
0
 62
     0
 10
131.207
 20
40.8838
 30
0.0
 11
131.207
 21
54.8831
 31
0.0
  0
LINE
  8
0
 62
     0
 10
150.257
 20
54.8831
 30
0.0
 11
164.257
 21
54.8831
 31
0.0
  0
LINE
  8
0
 62
     0
 10
164.257
 20
54.8831
 30
0.0
 11
164.257
 21
40.8838
 31
0.0
  0
LINE
  8
0
 62
     0
 10
164.257
 20
40.8838
 30
0.0
 11
150.257
 21
40.8838
 31
0.0
  0
LINE
  8
0
 62
     0
 10
150.257
 20
40.8838
 30
0.0
 11
150.257
 21
54.8831
 31
0.0
  0
LINE
  8
0
 62
     0
 10
169.307
 20
54.8831
 30
0.0
 11
183.307
 21
54.8831
 31
0.0
  0
LINE
  8
0
 62
     0
 10
183.307
 20
54.8831
 30
0.0
 11
183.307
 21
40.8838
 31
0.0
  0
LINE
  8
0
 62
     0
 10
183.307
 20
40.8838
 30
0.0
 11
169.307
 21
40.8838
 31
0.0
  0
LINE
  8
0
 62
     0
 10
169.307
 20
40.8838
 30
0.0
 11
169.307
 21
54.8831
 31
0.0
  0
LINE
  8
0
 62
     0
 10
188.357
 20
54.8831
 30
0.0
 11
202.357
 21
54.8831
 31
0.0
  0
LINE
  8
0
 62
     0
 10
202.357
 20
54.8831
 30
0.0
 11
202.357
 21
40.8838
 31
0.0
  0
LINE
  8
0
 62
     0
 10
202.357
 20
40.8838
 30
0.0
 11
188.357
 21
40.8838
 31
0.0
  0
LINE
  8
0
 62
     0
 10
188.357
 20
40.8838
 30
0.0
 11
188.357
 21
54.8831
 31
0.0
  0
LINE
  8
0
 62
     0
 10
207.407
 20
54.8831
 30
0.0
 11
221.407
 21
54.8831
 31
0.0
  0
LINE
  8
0
 62
     0
 10
221.407
 20
54.8831
 30
0.0
 11
221.407
 21
40.8838
 31
0.0
  0
LINE
  8
0
 62
     0
 10
221.407
 20
40.8838
 30
0.0
 11
207.407
 21
40.8838
 31
0.0
  0
LINE
  8
0
 62
     0
 10
207.407
 20
40.8838
 30
0.0
 11
207.407
 21
54.8831
 31
0.0
  0
LINE
  8
0
 62
     0
 10
226.457
 20
54.8831
 30
0.0
 11
240.457
 21
54.8831
 31
0.0
  0
LINE
  8
0
 62
     0
 10
240.457
 20
54.8831
 30
0.0
 11
240.457
 21
40.8838
 31
0.0
  0
LINE
  8
0
 62
     0
 10
240.457
 20
40.8838
 30
0.0
 11
226.457
 21
40.8838
 31
0.0
  0
LINE
  8
0
 62
     0
 10
226.457
 20
40.8838
 30
0.0
 11
226.457
 21
54.8831
 31
0.0
  0
LINE
  8
0
 62
     0
 10
245.507
 20
54.8831
 30
0.0
 11
259.507
 21
54.8831
 31
0.0
  0
LINE
  8
0
 62
     0
 10
259.507
 20
54.8831
 30
0.0
 11
259.507
 21
40.8838
 31
0.0
  0
LINE
  8
0
 62
     0
 10
259.507
 20
40.8838
 30
0.0
 11
245.507
 21
40.8838
 31
0.0
  0
LINE
  8
0
 62
     0
 10
245.507
 20
40.8838
 30
0.0
 11
245.507
 21
54.8831
 31
0.0
  0
LINE
  8
0
 62
     0
 10
266.937
 20
54.8831
 30
0.0
 11
280.938
 21
54.8831
 31
0.0
  0
LINE
  8
0
 62
     0
 10
280.938
 20
54.8831
 30
0.0
 11
280.938
 21
40.8838
 31
0.0
  0
LINE
  8
0
 62
     0
 10
280.938
 20
40.8838
 30
0.0
 11
266.937
 21
40.8838
 31
0.0
  0
LINE
  8
0
 62
     0
 10
266.937
 20
40.8838
 30
0.0
 11
266.937
 21
54.8831
 31
0.0
  0
LINE
  8
0
 62
     0
 10
7.38216
 20
73.9331
 30
0.0
 11
21.3817
 21
73.9331
 31
0.0
  0
LINE
  8
0
 62
     0
 10
21.3817
 20
73.9331
 30
0.0
 11
21.3817
 21
59.9338
 31
0.0
  0
LINE
  8
0
 62
     0
 10
21.3817
 20
59.9338
 30
0.0
 11
7.38216
 21
59.9338
 31
0.0
  0
LINE
  8
0
 62
     0
 10
7.38216
 20
59.9338
 30
0.0
 11
7.38216
 21
73.9331
 31
0.0
  0
LINE
  8
0
 62
     0
 10
31.1947
 20
73.9331
 30
0.0
 11
45.194
 21
73.9331
 31
0.0
  0
LINE
  8
0
 62
     0
 10
45.194
 20
73.9331
 30
0.0
 11
45.194
 21
59.9338
 31
0.0
  0
LINE
  8
0
 62
     0
 10
45.194
 20
59.9338
 30
0.0
 11
31.1947
 21
59.9338
 31
0.0
  0
LINE
  8
0
 62
     0
 10
31.1947
 20
59.9338
 30
0.0
 11
31.1947
 21
73.9331
 31
0.0
  0
LINE
  8
0
 62
     0
 10
50.2447
 20
73.9331
 30
0.0
 11
64.244
 21
73.9331
 31
0.0
  0
LINE
  8
0
 62
     0
 10
64.244
 20
73.9331
 30
0.0
 11
64.244
 21
59.9338
 31
0.0
  0
LINE
  8
0
 62
     0
 10
64.244
 20
59.9338
 30
0.0
 11
50.2447
 21
59.9338
 31
0.0
  0
LINE
  8
0
 62
     0
 10
50.2447
 20
59.9338
 30
0.0
 11
50.2447
 21
73.9331
 31
0.0
  0
LINE
  8
0
 62
     0
 10
69.2947
 20
73.9331
 30
0.0
 11
83.294
 21
73.9331
 31
0.0
  0
LINE
  8
0
 62
     0
 10
83.294
 20
73.9331
 30
0.0
 11
83.294
 21
59.9338
 31
0.0
  0
LINE
  8
0
 62
     0
 10
83.294
 20
59.9338
 30
0.0
 11
69.2947
 21
59.9338
 31
0.0
  0
LINE
  8
0
 62
     0
 10
69.2947
 20
59.9338
 30
0.0
 11
69.2947
 21
73.9331
 31
0.0
  0
LINE
  8
0
 62
     0
 10
88.3447
 20
73.9331
 30
0.0
 11
102.344
 21
73.9331
 31
0.0
  0
LINE
  8
0
 62
     0
 10
102.344
 20
73.9331
 30
0.0
 11
102.344
 21
59.9338
 31
0.0
  0
LINE
  8
0
 62
     0
 10
102.344
 20
59.9338
 30
0.0
 11
88.3447
 21
59.9338
 31
0.0
  0
LINE
  8
0
 62
     0
 10
88.3447
 20
59.9338
 30
0.0
 11
88.3447
 21
73.9331
 31
0.0
  0
LINE
  8
0
 62
     0
 10
107.395
 20
73.9331
 30
0.0
 11
121.394
 21
73.9331
 31
0.0
  0
LINE
  8
0
 62
     0
 10
121.394
 20
73.9331
 30
0.0
 11
121.394
 21
59.9338
 31
0.0
  0
LINE
  8
0
 62
     0
 10
121.394
 20
59.9338
 30
0.0
 11
107.395
 21
59.9338
 31
0.0
  0
LINE
  8
0
 62
     0
 10
107.395
 20
59.9338
 30
0.0
 11
107.395
 21
73.9331
 31
0.0
  0
LINE
  8
0
 62
     0
 10
126.445
 20
73.9331
 30
0.0
 11
140.444
 21
73.9331
 31
0.0
  0
LINE
  8
0
 62
     0
 10
140.444
 20
73.9331
 30
0.0
 11
140.444
 21
59.9338
 31
0.0
  0
LINE
  8
0
 62
     0
 10
140.444
 20
59.9338
 30
0.0
 11
126.445
 21
59.9338
 31
0.0
  0
LINE
  8
0
 62
     0
 10
126.445
 20
59.9338
 30
0.0
 11
126.445
 21
73.9331
 31
0.0
  0
LINE
  8
0
 62
     0
 10
145.495
 20
73.9331
 30
0.0
 11
159.494
 21
73.9331
 31
0.0
  0
LINE
  8
0
 62
     0
 10
159.494
 20
73.9331
 30
0.0
 11
159.494
 21
59.9338
 31
0.0
  0
LINE
  8
0
 62
     0
 10
159.494
 20
59.9338
 30
0.0
 11
145.495
 21
59.9338
 31
0.0
  0
LINE
  8
0
 62
     0
 10
145.495
 20
59.9338
 30
0.0
 11
145.495
 21
73.9331
 31
0.0
  0
LINE
  8
0
 62
     0
 10
164.545
 20
73.9331
 30
0.0
 11
178.544
 21
73.9331
 31
0.0
  0
LINE
  8
0
 62
     0
 10
178.544
 20
73.9331
 30
0.0
 11
178.544
 21
59.9338
 31
0.0
  0
LINE
  8
0
 62
     0
 10
178.544
 20
59.9338
 30
0.0
 11
164.545
 21
59.9338
 31
0.0
  0
LINE
  8
0
 62
     0
 10
164.545
 20
59.9338
 30
0.0
 11
164.545
 21
73.9331
 31
0.0
  0
LINE
  8
0
 62
     0
 10
183.595
 20
73.9331
 30
0.0
 11
197.594
 21
73.9331
 31
0.0
  0
LINE
  8
0
 62
     0
 10
197.594
 20
73.9331
 30
0.0
 11
197.594
 21
59.9338
 31
0.0
  0
LINE
  8
0
 62
     0
 10
197.594
 20
59.9338
 30
0.0
 11
183.595
 21
59.9338
 31
0.0
  0
LINE
  8
0
 62
     0
 10
183.595
 20
59.9338
 30
0.0
 11
183.595
 21
73.9331
 31
0.0
  0
LINE
  8
0
 62
     0
 10
202.645
 20
73.9331
 30
0.0
 11
216.644
 21
73.9331
 31
0.0
  0
LINE
  8
0
 62
     0
 10
216.644
 20
73.9331
 30
0.0
 11
216.644
 21
59.9338
 31
0.0
  0
LINE
  8
0
 62
     0
 10
216.644
 20
59.9338
 30
0.0
 11
202.645
 21
59.9338
 31
0.0
  0
LINE
  8
0
 62
     0
 10
202.645
 20
59.9338
 30
0.0
 11
202.645
 21
73.9331
 31
0.0
  0
LINE
  8
0
 62
     0
 10
221.695
 20
73.9331
 30
0.0
 11
235.694
 21
73.9331
 31
0.0
  0
LINE
  8
0
 62
     0
 10
235.694
 20
73.9331
 30
0.0
 11
235.694
 21
59.9338
 31
0.0
  0
LINE
  8
0
 62
     0
 10
235.694
 20
59.9338
 30
0.0
 11
221.695
 21
59.9338
 31
0.0
  0
LINE
  8
0
 62
     0
 10
221.695
 20
59.9338
 30
0.0
 11
221.695
 21
73.9331
 31
0.0
  0
LINE
  8
0
 62
     0
 10
240.745
 20
73.9331
 30
0.0
 11
254.744
 21
73.9331
 31
0.0
  0
LINE
  8
0
 62
     0
 10
254.744
 20
73.9331
 30
0.0
 11
254.744
 21
59.9338
 31
0.0
  0
LINE
  8
0
 62
     0
 10
254.744
 20
59.9338
 30
0.0
 11
240.745
 21
59.9338
 31
0.0
  0
LINE
  8
0
 62
     0
 10
240.745
 20
59.9338
 30
0.0
 11
240.745
 21
73.9331
 31
0.0
  0
LINE
  8
0
 62
     0
 10
264.557
 20
73.9331
 30
0.0
 11
278.557
 21
73.9331
 31
0.0
  0
LINE
  8
0
 62
     0
 10
278.557
 20
73.9331
 30
0.0
 11
278.557
 21
59.9338
 31
0.0
  0
LINE
  8
0
 62
     0
 10
278.557
 20
59.9338
 30
0.0
 11
264.557
 21
59.9338
 31
0.0
  0
LINE
  8
0
 62
     0
 10
264.557
 20
59.9338
 30
0.0
 11
264.557
 21
73.9331
 31
0.0
  0
LINE
  8
0
 62
     0
 10
2.61965
 20
92.9831
 30
0.0
 11
16.6192
 21
92.9831
 31
0.0
  0
LINE
  8
0
 62
     0
 10
16.6192
 20
92.9831
 30
0.0
 11
16.6192
 21
78.9838
 31
0.0
  0
LINE
  8
0
 62
     0
 10
16.6192
 20
78.9838
 30
0.0
 11
2.61965
 21
78.9838
 31
0.0
  0
LINE
  8
0
 62
     0
 10
2.61965
 20
78.9838
 30
0.0
 11
2.61965
 21
92.9831
 31
0.0
  0
LINE
  8
0
 62
     0
 10
21.6697
 20
92.9831
 30
0.0
 11
35.669
 21
92.9831
 31
0.0
  0
LINE
  8
0
 62
     0
 10
35.669
 20
92.9831
 30
0.0
 11
35.669
 21
78.9838
 31
0.0
  0
LINE
  8
0
 62
     0
 10
35.669
 20
78.9838
 30
0.0
 11
21.6697
 21
78.9838
 31
0.0
  0
LINE
  8
0
 62
     0
 10
21.6697
 20
78.9838
 30
0.0
 11
21.6697
 21
92.9831
 31
0.0
  0
LINE
  8
0
 62
     0
 10
40.7197
 20
92.9831
 30
0.0
 11
54.719
 21
92.9831
 31
0.0
  0
LINE
  8
0
 62
     0
 10
54.719
 20
92.9831
 30
0.0
 11
54.719
 21
78.9838
 31
0.0
  0
LINE
  8
0
 62
     0
 10
54.719
 20
78.9838
 30
0.0
 11
40.7197
 21
78.9838
 31
0.0
  0
LINE
  8
0
 62
     0
 10
40.7197
 20
78.9838
 30
0.0
 11
40.7197
 21
92.9831
 31
0.0
  0
LINE
  8
0
 62
     0
 10
59.7697
 20
92.9831
 30
0.0
 11
73.769
 21
92.9831
 31
0.0
  0
LINE
  8
0
 62
     0
 10
73.769
 20
92.9831
 30
0.0
 11
73.769
 21
78.9838
 31
0.0
  0
LINE
  8
0
 62
     0
 10
73.769
 20
78.9838
 30
0.0
 11
59.7697
 21
78.9838
 31
0.0
  0
LINE
  8
0
 62
     0
 10
59.7697
 20
78.9838
 30
0.0
 11
59.7697
 21
92.9831
 31
0.0
  0
LINE
  8
0
 62
     0
 10
78.8197
 20
92.9831
 30
0.0
 11
92.819
 21
92.9831
 31
0.0
  0
LINE
  8
0
 62
     0
 10
92.819
 20
92.9831
 30
0.0
 11
92.819
 21
78.9838
 31
0.0
  0
LINE
  8
0
 62
     0
 10
92.819
 20
78.9838
 30
0.0
 11
78.8197
 21
78.9838
 31
0.0
  0
LINE
  8
0
 62
     0
 10
78.8197
 20
78.9838
 30
0.0
 11
78.8197
 21
92.9831
 31
0.0
  0
LINE
  8
0
 62
     0
 10
97.8683
 20
92.9831
 30
0.0
 11
111.869
 21
92.9831
 31
0.0
  0
LINE
  8
0
 62
     0
 10
111.869
 20
92.9831
 30
0.0
 11
111.869
 21
78.9838
 31
0.0
  0
LINE
  8
0
 62
     0
 10
111.869
 20
78.9838
 30
0.0
 11
97.8683
 21
78.9838
 31
0.0
  0
LINE
  8
0
 62
     0
 10
97.8683
 20
78.9838
 30
0.0
 11
97.8683
 21
92.9831
 31
0.0
  0
LINE
  8
0
 62
     0
 10
116.918
 20
92.9831
 30
0.0
 11
130.919
 21
92.9831
 31
0.0
  0
LINE
  8
0
 62
     0
 10
130.919
 20
92.9831
 30
0.0
 11
130.919
 21
78.9838
 31
0.0
  0
LINE
  8
0
 62
     0
 10
130.919
 20
78.9838
 30
0.0
 11
116.918
 21
78.9838
 31
0.0
  0
LINE
  8
0
 62
     0
 10
116.918
 20
78.9838
 30
0.0
 11
116.918
 21
92.9831
 31
0.0
  0
LINE
  8
0
 62
     0
 10
135.97
 20
92.9831
 30
0.0
 11
149.969
 21
92.9831
 31
0.0
  0
LINE
  8
0
 62
     0
 10
149.969
 20
92.9831
 30
0.0
 11
149.969
 21
78.9838
 31
0.0
  0
LINE
  8
0
 62
     0
 10
149.969
 20
78.9838
 30
0.0
 11
135.97
 21
78.9838
 31
0.0
  0
LINE
  8
0
 62
     0
 10
135.97
 20
78.9838
 30
0.0
 11
135.97
 21
92.9831
 31
0.0
  0
LINE
  8
0
 62
     0
 10
155.02
 20
92.9831
 30
0.0
 11
169.019
 21
92.9831
 31
0.0
  0
LINE
  8
0
 62
     0
 10
169.019
 20
92.9831
 30
0.0
 11
169.019
 21
78.9838
 31
0.0
  0
LINE
  8
0
 62
     0
 10
169.019
 20
78.9838
 30
0.0
 11
155.02
 21
78.9838
 31
0.0
  0
LINE
  8
0
 62
     0
 10
155.02
 20
78.9838
 30
0.0
 11
155.02
 21
92.9831
 31
0.0
  0
LINE
  8
0
 62
     0
 10
174.07
 20
92.9831
 30
0.0
 11
188.069
 21
92.9831
 31
0.0
  0
LINE
  8
0
 62
     0
 10
188.069
 20
92.9831
 30
0.0
 11
188.069
 21
78.9838
 31
0.0
  0
LINE
  8
0
 62
     0
 10
188.069
 20
78.9838
 30
0.0
 11
174.07
 21
78.9838
 31
0.0
  0
LINE
  8
0
 62
     0
 10
174.07
 20
78.9838
 30
0.0
 11
174.07
 21
92.9831
 31
0.0
  0
LINE
  8
0
 62
     0
 10
193.12
 20
92.9831
 30
0.0
 11
207.119
 21
92.9831
 31
0.0
  0
LINE
  8
0
 62
     0
 10
207.119
 20
92.9831
 30
0.0
 11
207.119
 21
78.9838
 31
0.0
  0
LINE
  8
0
 62
     0
 10
207.119
 20
78.9838
 30
0.0
 11
193.12
 21
78.9838
 31
0.0
  0
LINE
  8
0
 62
     0
 10
193.12
 20
78.9838
 30
0.0
 11
193.12
 21
92.9831
 31
0.0
  0
LINE
  8
0
 62
     0
 10
212.17
 20
92.9831
 30
0.0
 11
226.169
 21
92.9831
 31
0.0
  0
LINE
  8
0
 62
     0
 10
226.169
 20
92.9831
 30
0.0
 11
226.169
 21
78.9838
 31
0.0
  0
LINE
  8
0
 62
     0
 10
226.169
 20
78.9838
 30
0.0
 11
212.17
 21
78.9838
 31
0.0
  0
LINE
  8
0
 62
     0
 10
212.17
 20
78.9838
 30
0.0
 11
212.17
 21
92.9831
 31
0.0
  0
LINE
  8
0
 62
     0
 10
231.22
 20
92.9831
 30
0.0
 11
245.219
 21
92.9831
 31
0.0
  0
LINE
  8
0
 62
     0
 10
245.219
 20
92.9831
 30
0.0
 11
245.219
 21
78.9838
 31
0.0
  0
LINE
  8
0
 62
     0
 10
245.219
 20
78.9838
 30
0.0
 11
231.22
 21
78.9838
 31
0.0
  0
LINE
  8
0
 62
     0
 10
231.22
 20
78.9838
 30
0.0
 11
231.22
 21
92.9831
 31
0.0
  0
LINE
  8
0
 62
     0
 10
250.27
 20
92.9831
 30
0.0
 11
264.269
 21
92.9831
 31
0.0
  0
LINE
  8
0
 62
     0
 10
264.269
 20
92.9831
 30
0.0
 11
264.269
 21
78.9838
 31
0.0
  0
LINE
  8
0
 62
     0
 10
264.269
 20
78.9838
 30
0.0
 11
250.27
 21
78.9838
 31
0.0
  0
LINE
  8
0
 62
     0
 10
250.27
 20
78.9838
 30
0.0
 11
250.27
 21
92.9831
 31
0.0
  0
LINE
  8
0
 62
     0
 10
269.32
 20
92.9831
 30
0.0
 11
283.319
 21
92.9831
 31
0.0
  0
LINE
  8
0
 62
     0
 10
283.319
 20
92.9831
 30
0.0
 11
283.319
 21
78.9838
 31
0.0
  0
LINE
  8
0
 62
     0
 10
283.319
 20
78.9838
 30
0.0
 11
269.32
 21
78.9838
 31
0.0
  0
LINE
  8
0
 62
     0
 10
269.32
 20
78.9838
 30
0.0
 11
269.32
 21
92.9831
 31
0.0
  0
ENDSEC
  0
EOF
