<?xml version="1.0"?>
<!-- Generated by SVGo -->
<svg width="309.751mm" height="119.250mm"
     viewBox="0.000 0.000 309.751 119.250"
     xmlns="http://www.w3.org/2000/svg" 
     xmlns:xlink="http://www.w3.org/1999/xlink">
<polygon points="304.751,114.250 5.000,114.250 5.000,5.000 304.751,5.000" style="fill:none;stroke-width:0.050000mm;stroke:black"/>
<polygon points="43.100,90.725 43.100,104.725 57.100,104.725 57.100,90.725" style="fill:none;stroke-width:0.050000mm;stroke:black"/>
<polygon points="66.912,90.725 66.912,104.725 80.912,104.725 80.912,90.725" style="fill:none;stroke-width:0.050000mm;stroke:black"/>
<polygon points="97.868,90.725 97.868,104.725 111.868,104.725 111.868,90.725" style="fill:none;stroke-width:0.050000mm;stroke:black"/>
<polygon points="126.443,90.725 126.443,104.725 140.443,104.725 140.443,90.725" style="fill:none;stroke-width:0.050000mm;stroke:black"/>
<polygon points="147.875,90.725 147.875,104.725 161.875,104.725 161.875,90.725" style="fill:none;stroke-width:0.050000mm;stroke:black"/>
<polygon points="169.306,90.725 169.306,104.725 183.306,104.725 183.306,90.725" style="fill:none;stroke-width:0.050000mm;stroke:black"/>
<polygon points="197.881,90.725 197.881,104.725 211.881,104.725 211.881,90.725" style="fill:none;stroke-width:0.050000mm;stroke:black"/>
<polygon points="228.837,90.725 228.837,104.725 242.837,104.725 242.837,90.725" style="fill:none;stroke-width:0.050000mm;stroke:black"/>
<polygon points="252.649,90.725 252.649,104.725 266.650,104.725 266.650,90.725" style="fill:none;stroke-width:0.050000mm;stroke:black"/>
<polygon points="14.524,71.675 14.524,85.675 28.525,85.675 28.525,71.675" style="fill:none;stroke-width:0.050000mm;stroke:black"/>
<polygon points="35.956,71.675 35.956,85.675 49.956,85.675 49.956,71.675" style="fill:none;stroke-width:0.050000mm;stroke:black"/>
<polygon points="57.387,71.675 57.387,85.675 71.387,85.675 71.387,71.675" style="fill:none;stroke-width:0.050000mm;stroke:black"/>
<polygon points="76.437,71.675 76.437,85.675 90.437,85.675 90.437,71.675" style="fill:none;stroke-width:0.050000mm;stroke:black"/>
<polygon points="95.487,71.675 95.487,85.675 109.487,85.675 109.487,71.675" style="fill:none;stroke-width:0.050000mm;stroke:black"/>
<polygon points="114.537,71.675 114.537,85.675 128.537,85.675 128.537,71.675" style="fill:none;stroke-width:0.050000mm;stroke:black"/>
<polygon points="133.587,71.675 133.587,85.675 147.587,85.675 147.587,71.675" style="fill:none;stroke-width:0.050000mm;stroke:black"/>
<polygon points="152.637,71.675 152.637,85.675 166.637,85.675 166.637,71.675" style="fill:none;stroke-width:0.050000mm;stroke:black"/>
<polygon points="171.687,71.675 171.687,85.675 185.687,85.675 185.687,71.675" style="fill:none;stroke-width:0.050000mm;stroke:black"/>
<polygon points="190.737,71.675 190.737,85.675 204.737,85.675 204.737,71.675" style="fill:none;stroke-width:0.050000mm;stroke:black"/>
<polygon points="209.787,71.675 209.787,85.675 223.787,85.675 223.787,71.675" style="fill:none;stroke-width:0.050000mm;stroke:black"/>
<polygon points="228.837,71.675 228.837,85.675 242.837,85.675 242.837,71.675" style="fill:none;stroke-width:0.050000mm;stroke:black"/>
<polygon points="255.031,71.675 255.031,85.675 269.031,85.675 269.031,71.675" style="fill:none;stroke-width:0.050000mm;stroke:black"/>
<polygon points="281.225,71.675 281.225,85.675 295.225,85.675 295.225,71.675" style="fill:none;stroke-width:0.050000mm;stroke:black"/>
<polygon points="21.668,52.625 21.668,66.625 35.668,66.625 35.668,52.625" style="fill:none;stroke-width:0.050000mm;stroke:black"/>
<polygon points="47.862,52.625 47.862,66.625 61.862,66.625 61.862,52.625" style="fill:none;stroke-width:0.050000mm;stroke:black"/>
<polygon points="66.912,52.625 66.912,66.625 80.912,66.625 80.912,52.625" style="fill:none;stroke-width:0.050000mm;stroke:black"/>
<polygon points="85.962,52.625 85.962,66.625 99.962,66.625 99.962,52.625" style="fill:none;stroke-width:0.050000mm;stroke:black"/>
<polygon points="105.012,52.625 105.012,66.625 119.012,66.625 119.012,52.625" style="fill:none;stroke-width:0.050000mm;stroke:black"/>
<polygon points="124.062,52.625 124.062,66.625 138.062,66.625 138.062,52.625" style="fill:none;stroke-width:0.050000mm;stroke:black"/>
<polygon points="143.112,52.625 143.112,66.625 157.112,66.625 157.112,52.625" style="fill:none;stroke-width:0.050000mm;stroke:black"/>
<polygon points="162.162,52.625 162.162,66.625 176.162,66.625 176.162,52.625" style="fill:none;stroke-width:0.050000mm;stroke:black"/>
<polygon points="181.212,52.625 181.212,66.625 195.212,66.625 195.212,52.625" style="fill:none;stroke-width:0.050000mm;stroke:black"/>
<polygon points="200.262,52.625 200.262,66.625 214.262,66.625 214.262,52.625" style="fill:none;stroke-width:0.050000mm;stroke:black"/>
<polygon points="219.312,52.625 219.312,66.625 233.312,66.625 233.312,52.625" style="fill:none;stroke-width:0.050000mm;stroke:black"/>
<polygon points="238.362,52.625 238.362,66.625 252.362,66.625 252.362,52.625" style="fill:none;stroke-width:0.050000mm;stroke:black"/>
<polygon points="257.411,52.625 257.411,66.625 271.412,66.625 271.412,52.625" style="fill:none;stroke-width:0.050000mm;stroke:black"/>
<polygon points="278.843,52.625 278.843,66.625 292.843,66.625 292.843,52.625" style="fill:none;stroke-width:0.050000mm;stroke:black"/>
<polygon points="19.287,33.575 19.287,47.575 33.287,47.575 33.287,33.575" style="fill:none;stroke-width:0.050000mm;stroke:black"/>
<polygon points="43.100,33.575 43.100,47.575 57.100,47.575 57.100,33.575" style="fill:none;stroke-width:0.050000mm;stroke:black"/>
<polygon points="62.150,33.575 62.150,47.575 76.150,47.575 76.150,33.575" style="fill:none;stroke-width:0.050000mm;stroke:black"/>
<polygon points="81.200,33.575 81.200,47.575 95.200,47.575 95.200,33.575" style="fill:none;stroke-width:0.050000mm;stroke:black"/>
<polygon points="100.250,33.575 100.250,47.575 114.250,47.575 114.250,33.575" style="fill:none;stroke-width:0.050000mm;stroke:black"/>
<polygon points="119.300,33.575 119.300,47.575 133.300,47.575 133.300,33.575" style="fill:none;stroke-width:0.050000mm;stroke:black"/>
<polygon points="138.350,33.575 138.350,47.575 152.350,47.575 152.350,33.575" style="fill:none;stroke-width:0.050000mm;stroke:black"/>
<polygon points="157.400,33.575 157.400,47.575 171.400,47.575 171.400,33.575" style="fill:none;stroke-width:0.050000mm;stroke:black"/>
<polygon points="176.450,33.575 176.450,47.575 190.450,47.575 190.450,33.575" style="fill:none;stroke-width:0.050000mm;stroke:black"/>
<polygon points="195.500,33.575 195.500,47.575 209.500,47.575 209.500,33.575" style="fill:none;stroke-width:0.050000mm;stroke:black"/>
<polygon points="214.550,33.575 214.550,47.575 228.550,47.575 228.550,33.575" style="fill:none;stroke-width:0.050000mm;stroke:black"/>
<polygon points="233.600,33.575 233.600,47.575 247.600,47.575 247.600,33.575" style="fill:none;stroke-width:0.050000mm;stroke:black"/>
<polygon points="252.650,33.575 252.650,47.575 266.650,47.575 266.650,33.575" style="fill:none;stroke-width:0.050000mm;stroke:black"/>
<polygon points="276.462,33.575 276.462,47.575 290.462,47.575 290.462,33.575" style="fill:none;stroke-width:0.050000mm;stroke:black"/>
<polygon points="14.524,14.524 14.524,28.525 28.525,28.525 28.525,14.524" style="fill:none;stroke-width:0.050000mm;stroke:black"/>
<polygon points="33.575,14.524 33.575,28.525 47.575,28.525 47.575,14.524" style="fill:none;stroke-width:0.050000mm;stroke:black"/>
<polygon points="52.625,14.524 52.625,28.525 66.625,28.525 66.625,14.524" style="fill:none;stroke-width:0.050000mm;stroke:black"/>
<polygon points="71.675,14.524 71.675,28.525 85.675,28.525 85.675,14.524" style="fill:none;stroke-width:0.050000mm;stroke:black"/>
<polygon points="90.725,14.524 90.725,28.525 104.725,28.525 104.725,14.524" style="fill:none;stroke-width:0.050000mm;stroke:black"/>
<polygon points="109.774,14.524 109.774,28.525 123.774,28.525 123.774,14.524" style="fill:none;stroke-width:0.050000mm;stroke:black"/>
<polygon points="128.824,14.524 128.824,28.525 142.825,28.525 142.825,14.524" style="fill:none;stroke-width:0.050000mm;stroke:black"/>
<polygon points="147.875,14.524 147.875,28.525 161.875,28.525 161.875,14.524" style="fill:none;stroke-width:0.050000mm;stroke:black"/>
<polygon points="166.925,14.524 166.925,28.525 180.925,28.525 180.925,14.524" style="fill:none;stroke-width:0.050000mm;stroke:black"/>
<polygon points="185.975,14.524 185.975,28.525 199.975,28.525 199.975,14.524" style="fill:none;stroke-width:0.050000mm;stroke:black"/>
<polygon points="205.025,14.524 205.025,28.525 219.025,28.525 219.025,14.524" style="fill:none;stroke-width:0.050000mm;stroke:black"/>
<polygon points="224.075,14.524 224.075,28.525 238.075,28.525 238.075,14.524" style="fill:none;stroke-width:0.050000mm;stroke:black"/>
<polygon points="243.125,14.524 243.125,28.525 257.125,28.525 257.125,14.524" style="fill:none;stroke-width:0.050000mm;stroke:black"/>
<polygon points="262.175,14.524 262.175,28.525 276.175,28.525 276.175,14.524" style="fill:none;stroke-width:0.050000mm;stroke:black"/>
<polygon points="281.225,14.524 281.225,28.525 295.225,28.525 295.225,14.524" style="fill:none;stroke-width:0.050000mm;stroke:black"/>
</svg>
