  0
SECTION
  2
HEADER
  9
$ACADVER
  1
AC1009
  9
$FILLMODE
 70
 0
  9
$SPLFRAME
 70
 1
  9
$EXTMIN
 10
0
 20
0
 30
0.0
  9
$EXTMAX
 10
1058.33
 20
1058.33
 30
0.0
  0
ENDSEC
  0
SECTION
  2
TABLES
  0
TABLE
  2
LAYER
 70
1
  0
LAYER
  2
0
 70
     0
 62
     7
  6
CONTINUOUS
  0
ENDTAB
  0
ENDSEC
  0
SECTION
  2
ENTITIES
  0
LINE
  8
0
 62
     0
 10
0.0950846
 20
109.619
 30
0.0
 11
299.846
 21
109.619
 31
0.0
  0
LINE
  8
0
 62
     0
 10
299.846
 20
109.619
 30
0.0
 11
299.846
 21
0.369316
 31
0.0
  0
LINE
  8
0
 62
     0
 10
299.846
 20
0.369316
 30
0.0
 11
0.0950846
 21
0.369316
 31
0.0
  0
LINE
  8
0
 62
     0
 10
0.0950846
 20
0.369316
 30
0.0
 11
0.0950846
 21
109.619
 31
0.0
  0
LINE
  8
0
 62
     0
 10
38.1952
 20
23.8938
 30
0.0
 11
52.1945
 21
23.8938
 31
0.0
  0
LINE
  8
0
 62
     0
 10
52.1945
 20
23.8938
 30
0.0
 11
52.1945
 21
9.89432
 31
0.0
  0
LINE
  8
0
 62
     0
 10
52.1945
 20
9.89432
 30
0.0
 11
38.1952
 21
9.89432
 31
0.0
  0
LINE
  8
0
 62
     0
 10
38.1952
 20
9.89432
 30
0.0
 11
38.1952
 21
23.8938
 31
0.0
  0
LINE
  8
0
 62
     0
 10
62.0063
 20
23.8938
 30
0.0
 11
76.007
 21
23.8938
 31
0.0
  0
LINE
  8
0
 62
     0
 10
76.007
 20
23.8938
 30
0.0
 11
76.007
 21
9.89432
 31
0.0
  0
LINE
  8
0
 62
     0
 10
76.007
 20
9.89432
 30
0.0
 11
62.0063
 21
9.89432
 31
0.0
  0
LINE
  8
0
 62
     0
 10
62.0063
 20
9.89432
 30
0.0
 11
62.0063
 21
23.8938
 31
0.0
  0
LINE
  8
0
 62
     0
 10
92.9626
 20
23.8938
 30
0.0
 11
106.962
 21
23.8938
 31
0.0
  0
LINE
  8
0
 62
     0
 10
106.962
 20
23.8938
 30
0.0
 11
106.962
 21
9.89432
 31
0.0
  0
LINE
  8
0
 62
     0
 10
106.962
 20
9.89432
 30
0.0
 11
92.9626
 21
9.89432
 31
0.0
  0
LINE
  8
0
 62
     0
 10
92.9626
 20
9.89432
 30
0.0
 11
92.9626
 21
23.8938
 31
0.0
  0
LINE
  8
0
 62
     0
 10
121.538
 20
23.8938
 30
0.0
 11
135.537
 21
23.8938
 31
0.0
  0
LINE
  8
0
 62
     0
 10
135.537
 20
23.8938
 30
0.0
 11
135.537
 21
9.89432
 31
0.0
  0
LINE
  8
0
 62
     0
 10
135.537
 20
9.89432
 30
0.0
 11
121.538
 21
9.89432
 31
0.0
  0
LINE
  8
0
 62
     0
 10
121.538
 20
9.89432
 30
0.0
 11
121.538
 21
23.8938
 31
0.0
  0
LINE
  8
0
 62
     0
 10
142.97
 20
23.8938
 30
0.0
 11
156.97
 21
23.8938
 31
0.0
  0
LINE
  8
0
 62
     0
 10
156.97
 20
23.8938
 30
0.0
 11
156.97
 21
9.89432
 31
0.0
  0
LINE
  8
0
 62
     0
 10
156.97
 20
9.89432
 30
0.0
 11
142.97
 21
9.89432
 31
0.0
  0
LINE
  8
0
 62
     0
 10
142.97
 20
9.89432
 30
0.0
 11
142.97
 21
23.8938
 31
0.0
  0
LINE
  8
0
 62
     0
 10
164.4
 20
23.8938
 30
0.0
 11
178.401
 21
23.8938
 31
0.0
  0
LINE
  8
0
 62
     0
 10
178.401
 20
23.8938
 30
0.0
 11
178.401
 21
9.89432
 31
0.0
  0
LINE
  8
0
 62
     0
 10
178.401
 20
9.89432
 30
0.0
 11
164.4
 21
9.89432
 31
0.0
  0
LINE
  8
0
 62
     0
 10
164.4
 20
9.89432
 30
0.0
 11
164.4
 21
23.8938
 31
0.0
  0
LINE
  8
0
 62
     0
 10
192.975
 20
23.8938
 30
0.0
 11
206.976
 21
23.8938
 31
0.0
  0
LINE
  8
0
 62
     0
 10
206.976
 20
23.8938
 30
0.0
 11
206.976
 21
9.89432
 31
0.0
  0
LINE
  8
0
 62
     0
 10
206.976
 20
9.89432
 30
0.0
 11
192.975
 21
9.89432
 31
0.0
  0
LINE
  8
0
 62
     0
 10
192.975
 20
9.89432
 30
0.0
 11
192.975
 21
23.8938
 31
0.0
  0
LINE
  8
0
 62
     0
 10
223.931
 20
23.8938
 30
0.0
 11
237.932
 21
23.8938
 31
0.0
  0
LINE
  8
0
 62
     0
 10
237.932
 20
23.8938
 30
0.0
 11
237.932
 21
9.89432
 31
0.0
  0
LINE
  8
0
 62
     0
 10
237.932
 20
9.89432
 30
0.0
 11
223.931
 21
9.89432
 31
0.0
  0
LINE
  8
0
 62
     0
 10
223.931
 20
9.89432
 30
0.0
 11
223.931
 21
23.8938
 31
0.0
  0
LINE
  8
0
 62
     0
 10
247.744
 20
23.8938
 30
0.0
 11
261.745
 21
23.8938
 31
0.0
  0
LINE
  8
0
 62
     0
 10
261.745
 20
23.8938
 30
0.0
 11
261.745
 21
9.89432
 31
0.0
  0
LINE
  8
0
 62
     0
 10
261.745
 20
9.89432
 30
0.0
 11
247.744
 21
9.89432
 31
0.0
  0
LINE
  8
0
 62
     0
 10
247.744
 20
9.89432
 30
0.0
 11
247.744
 21
23.8938
 31
0.0
  0
LINE
  8
0
 62
     0
 10
9.6187
 20
42.9436
 30
0.0
 11
23.6196
 21
42.9436
 31
0.0
  0
LINE
  8
0
 62
     0
 10
23.6196
 20
42.9436
 30
0.0
 11
23.6196
 21
28.9443
 31
0.0
  0
LINE
  8
0
 62
     0
 10
23.6196
 20
28.9443
 30
0.0
 11
9.6187
 21
28.9443
 31
0.0
  0
LINE
  8
0
 62
     0
 10
9.6187
 20
28.9443
 30
0.0
 11
9.6187
 21
42.9436
 31
0.0
  0
LINE
  8
0
 62
     0
 10
31.0499
 20
42.9436
 30
0.0
 11
45.0508
 21
42.9436
 31
0.0
  0
LINE
  8
0
 62
     0
 10
45.0508
 20
42.9436
 30
0.0
 11
45.0508
 21
28.9443
 31
0.0
  0
LINE
  8
0
 62
     0
 10
45.0508
 20
28.9443
 30
0.0
 11
31.0499
 21
28.9443
 31
0.0
  0
LINE
  8
0
 62
     0
 10
31.0499
 20
28.9443
 30
0.0
 11
31.0499
 21
42.9436
 31
0.0
  0
LINE
  8
0
 62
     0
 10
52.4813
 20
42.9436
 30
0.0
 11
66.482
 21
42.9436
 31
0.0
  0
LINE
  8
0
 62
     0
 10
66.482
 20
42.9436
 30
0.0
 11
66.482
 21
28.9443
 31
0.0
  0
LINE
  8
0
 62
     0
 10
66.482
 20
28.9443
 30
0.0
 11
52.4813
 21
28.9443
 31
0.0
  0
LINE
  8
0
 62
     0
 10
52.4813
 20
28.9443
 30
0.0
 11
52.4813
 21
42.9436
 31
0.0
  0
LINE
  8
0
 62
     0
 10
71.5313
 20
42.9436
 30
0.0
 11
85.532
 21
42.9436
 31
0.0
  0
LINE
  8
0
 62
     0
 10
85.532
 20
42.9436
 30
0.0
 11
85.532
 21
28.9443
 31
0.0
  0
LINE
  8
0
 62
     0
 10
85.532
 20
28.9443
 30
0.0
 11
71.5313
 21
28.9443
 31
0.0
  0
LINE
  8
0
 62
     0
 10
71.5313
 20
28.9443
 30
0.0
 11
71.5313
 21
42.9436
 31
0.0
  0
LINE
  8
0
 62
     0
 10
90.5813
 20
42.9436
 30
0.0
 11
104.582
 21
42.9436
 31
0.0
  0
LINE
  8
0
 62
     0
 10
104.582
 20
42.9436
 30
0.0
 11
104.582
 21
28.9443
 31
0.0
  0
LINE
  8
0
 62
     0
 10
104.582
 20
28.9443
 30
0.0
 11
90.5813
 21
28.9443
 31
0.0
  0
LINE
  8
0
 62
     0
 10
90.5813
 20
28.9443
 30
0.0
 11
90.5813
 21
42.9436
 31
0.0
  0
LINE
  8
0
 62
     0
 10
109.631
 20
42.9436
 30
0.0
 11
123.632
 21
42.9436
 31
0.0
  0
LINE
  8
0
 62
     0
 10
123.632
 20
42.9436
 30
0.0
 11
123.632
 21
28.9443
 31
0.0
  0
LINE
  8
0
 62
     0
 10
123.632
 20
28.9443
 30
0.0
 11
109.631
 21
28.9443
 31
0.0
  0
LINE
  8
0
 62
     0
 10
109.631
 20
28.9443
 30
0.0
 11
109.631
 21
42.9436
 31
0.0
  0
LINE
  8
0
 62
     0
 10
128.681
 20
42.9436
 30
0.0
 11
142.682
 21
42.9436
 31
0.0
  0
LINE
  8
0
 62
     0
 10
142.682
 20
42.9436
 30
0.0
 11
142.682
 21
28.9443
 31
0.0
  0
LINE
  8
0
 62
     0
 10
142.682
 20
28.9443
 30
0.0
 11
128.681
 21
28.9443
 31
0.0
  0
LINE
  8
0
 62
     0
 10
128.681
 20
28.9443
 30
0.0
 11
128.681
 21
42.9436
 31
0.0
  0
LINE
  8
0
 62
     0
 10
147.731
 20
42.9436
 30
0.0
 11
161.732
 21
42.9436
 31
0.0
  0
LINE
  8
0
 62
     0
 10
161.732
 20
42.9436
 30
0.0
 11
161.732
 21
28.9443
 31
0.0
  0
LINE
  8
0
 62
     0
 10
161.732
 20
28.9443
 30
0.0
 11
147.731
 21
28.9443
 31
0.0
  0
LINE
  8
0
 62
     0
 10
147.731
 20
28.9443
 30
0.0
 11
147.731
 21
42.9436
 31
0.0
  0
LINE
  8
0
 62
     0
 10
166.781
 20
42.9436
 30
0.0
 11
180.782
 21
42.9436
 31
0.0
  0
LINE
  8
0
 62
     0
 10
180.782
 20
42.9436
 30
0.0
 11
180.782
 21
28.9443
 31
0.0
  0
LINE
  8
0
 62
     0
 10
180.782
 20
28.9443
 30
0.0
 11
166.781
 21
28.9443
 31
0.0
  0
LINE
  8
0
 62
     0
 10
166.781
 20
28.9443
 30
0.0
 11
166.781
 21
42.9436
 31
0.0
  0
LINE
  8
0
 62
     0
 10
185.831
 20
42.9436
 30
0.0
 11
199.832
 21
42.9436
 31
0.0
  0
LINE
  8
0
 62
     0
 10
199.832
 20
42.9436
 30
0.0
 11
199.832
 21
28.9443
 31
0.0
  0
LINE
  8
0
 62
     0
 10
199.832
 20
28.9443
 30
0.0
 11
185.831
 21
28.9443
 31
0.0
  0
LINE
  8
0
 62
     0
 10
185.831
 20
28.9443
 30
0.0
 11
185.831
 21
42.9436
 31
0.0
  0
LINE
  8
0
 62
     0
 10
204.881
 20
42.9436
 30
0.0
 11
218.882
 21
42.9436
 31
0.0
  0
LINE
  8
0
 62
     0
 10
218.882
 20
42.9436
 30
0.0
 11
218.882
 21
28.9443
 31
0.0
  0
LINE
  8
0
 62
     0
 10
218.882
 20
28.9443
 30
0.0
 11
204.881
 21
28.9443
 31
0.0
  0
LINE
  8
0
 62
     0
 10
204.881
 20
28.9443
 30
0.0
 11
204.881
 21
42.9436
 31
0.0
  0
LINE
  8
0
 62
     0
 10
223.931
 20
42.9436
 30
0.0
 11
237.932
 21
42.9436
 31
0.0
  0
LINE
  8
0
 62
     0
 10
237.932
 20
42.9436
 30
0.0
 11
237.932
 21
28.9443
 31
0.0
  0
LINE
  8
0
 62
     0
 10
237.932
 20
28.9443
 30
0.0
 11
223.931
 21
28.9443
 31
0.0
  0
LINE
  8
0
 62
     0
 10
223.931
 20
28.9443
 30
0.0
 11
223.931
 21
42.9436
 31
0.0
  0
LINE
  8
0
 62
     0
 10
250.125
 20
42.9436
 30
0.0
 11
264.126
 21
42.9436
 31
0.0
  0
LINE
  8
0
 62
     0
 10
264.126
 20
42.9436
 30
0.0
 11
264.126
 21
28.9443
 31
0.0
  0
LINE
  8
0
 62
     0
 10
264.126
 20
28.9443
 30
0.0
 11
250.125
 21
28.9443
 31
0.0
  0
LINE
  8
0
 62
     0
 10
250.125
 20
28.9443
 30
0.0
 11
250.125
 21
42.9436
 31
0.0
  0
LINE
  8
0
 62
     0
 10
276.32
 20
42.9436
 30
0.0
 11
290.32
 21
42.9436
 31
0.0
  0
LINE
  8
0
 62
     0
 10
290.32
 20
42.9436
 30
0.0
 11
290.32
 21
28.9443
 31
0.0
  0
LINE
  8
0
 62
     0
 10
290.32
 20
28.9443
 30
0.0
 11
276.32
 21
28.9443
 31
0.0
  0
LINE
  8
0
 62
     0
 10
276.32
 20
28.9443
 30
0.0
 11
276.32
 21
42.9436
 31
0.0
  0
LINE
  8
0
 62
     0
 10
16.7624
 20
61.9936
 30
0.0
 11
30.7619
 21
61.9936
 31
0.0
  0
LINE
  8
0
 62
     0
 10
30.7619
 20
61.9936
 30
0.0
 11
30.7619
 21
47.9944
 31
0.0
  0
LINE
  8
0
 62
     0
 10
30.7619
 20
47.9944
 30
0.0
 11
16.7624
 21
47.9944
 31
0.0
  0
LINE
  8
0
 62
     0
 10
16.7624
 20
47.9944
 30
0.0
 11
16.7624
 21
61.9936
 31
0.0
  0
LINE
  8
0
 62
     0
 10
42.9563
 20
61.9936
 30
0.0
 11
56.957
 21
61.9936
 31
0.0
  0
LINE
  8
0
 62
     0
 10
56.957
 20
61.9936
 30
0.0
 11
56.957
 21
47.9944
 31
0.0
  0
LINE
  8
0
 62
     0
 10
56.957
 20
47.9944
 30
0.0
 11
42.9563
 21
47.9944
 31
0.0
  0
LINE
  8
0
 62
     0
 10
42.9563
 20
47.9944
 30
0.0
 11
42.9563
 21
61.9936
 31
0.0
  0
LINE
  8
0
 62
     0
 10
62.0063
 20
61.9936
 30
0.0
 11
76.007
 21
61.9936
 31
0.0
  0
LINE
  8
0
 62
     0
 10
76.007
 20
61.9936
 30
0.0
 11
76.007
 21
47.9944
 31
0.0
  0
LINE
  8
0
 62
     0
 10
76.007
 20
47.9944
 30
0.0
 11
62.0063
 21
47.9944
 31
0.0
  0
LINE
  8
0
 62
     0
 10
62.0063
 20
47.9944
 30
0.0
 11
62.0063
 21
61.9936
 31
0.0
  0
LINE
  8
0
 62
     0
 10
81.0563
 20
61.9936
 30
0.0
 11
95.057
 21
61.9936
 31
0.0
  0
LINE
  8
0
 62
     0
 10
95.057
 20
61.9936
 30
0.0
 11
95.057
 21
47.9944
 31
0.0
  0
LINE
  8
0
 62
     0
 10
95.057
 20
47.9944
 30
0.0
 11
81.0563
 21
47.9944
 31
0.0
  0
LINE
  8
0
 62
     0
 10
81.0563
 20
47.9944
 30
0.0
 11
81.0563
 21
61.9936
 31
0.0
  0
LINE
  8
0
 62
     0
 10
100.106
 20
61.9936
 30
0.0
 11
114.107
 21
61.9936
 31
0.0
  0
LINE
  8
0
 62
     0
 10
114.107
 20
61.9936
 30
0.0
 11
114.107
 21
47.9944
 31
0.0
  0
LINE
  8
0
 62
     0
 10
114.107
 20
47.9944
 30
0.0
 11
100.106
 21
47.9944
 31
0.0
  0
LINE
  8
0
 62
     0
 10
100.106
 20
47.9944
 30
0.0
 11
100.106
 21
61.9936
 31
0.0
  0
LINE
  8
0
 62
     0
 10
119.156
 20
61.9936
 30
0.0
 11
133.157
 21
61.9936
 31
0.0
  0
LINE
  8
0
 62
     0
 10
133.157
 20
61.9936
 30
0.0
 11
133.157
 21
47.9944
 31
0.0
  0
LINE
  8
0
 62
     0
 10
133.157
 20
47.9944
 30
0.0
 11
119.156
 21
47.9944
 31
0.0
  0
LINE
  8
0
 62
     0
 10
119.156
 20
47.9944
 30
0.0
 11
119.156
 21
61.9936
 31
0.0
  0
LINE
  8
0
 62
     0
 10
138.206
 20
61.9936
 30
0.0
 11
152.207
 21
61.9936
 31
0.0
  0
LINE
  8
0
 62
     0
 10
152.207
 20
61.9936
 30
0.0
 11
152.207
 21
47.9944
 31
0.0
  0
LINE
  8
0
 62
     0
 10
152.207
 20
47.9944
 30
0.0
 11
138.206
 21
47.9944
 31
0.0
  0
LINE
  8
0
 62
     0
 10
138.206
 20
47.9944
 30
0.0
 11
138.206
 21
61.9936
 31
0.0
  0
LINE
  8
0
 62
     0
 10
157.256
 20
61.9936
 30
0.0
 11
171.257
 21
61.9936
 31
0.0
  0
LINE
  8
0
 62
     0
 10
171.257
 20
61.9936
 30
0.0
 11
171.257
 21
47.9944
 31
0.0
  0
LINE
  8
0
 62
     0
 10
171.257
 20
47.9944
 30
0.0
 11
157.256
 21
47.9944
 31
0.0
  0
LINE
  8
0
 62
     0
 10
157.256
 20
47.9944
 30
0.0
 11
157.256
 21
61.9936
 31
0.0
  0
LINE
  8
0
 62
     0
 10
176.306
 20
61.9936
 30
0.0
 11
190.307
 21
61.9936
 31
0.0
  0
LINE
  8
0
 62
     0
 10
190.307
 20
61.9936
 30
0.0
 11
190.307
 21
47.9944
 31
0.0
  0
LINE
  8
0
 62
     0
 10
190.307
 20
47.9944
 30
0.0
 11
176.306
 21
47.9944
 31
0.0
  0
LINE
  8
0
 62
     0
 10
176.306
 20
47.9944
 30
0.0
 11
176.306
 21
61.9936
 31
0.0
  0
LINE
  8
0
 62
     0
 10
195.356
 20
61.9936
 30
0.0
 11
209.357
 21
61.9936
 31
0.0
  0
LINE
  8
0
 62
     0
 10
209.357
 20
61.9936
 30
0.0
 11
209.357
 21
47.9944
 31
0.0
  0
LINE
  8
0
 62
     0
 10
209.357
 20
47.9944
 30
0.0
 11
195.356
 21
47.9944
 31
0.0
  0
LINE
  8
0
 62
     0
 10
195.356
 20
47.9944
 30
0.0
 11
195.356
 21
61.9936
 31
0.0
  0
LINE
  8
0
 62
     0
 10
214.406
 20
61.9936
 30
0.0
 11
228.407
 21
61.9936
 31
0.0
  0
LINE
  8
0
 62
     0
 10
228.407
 20
61.9936
 30
0.0
 11
228.407
 21
47.9944
 31
0.0
  0
LINE
  8
0
 62
     0
 10
228.407
 20
47.9944
 30
0.0
 11
214.406
 21
47.9944
 31
0.0
  0
LINE
  8
0
 62
     0
 10
214.406
 20
47.9944
 30
0.0
 11
214.406
 21
61.9936
 31
0.0
  0
LINE
  8
0
 62
     0
 10
233.456
 20
61.9936
 30
0.0
 11
247.457
 21
61.9936
 31
0.0
  0
LINE
  8
0
 62
     0
 10
247.457
 20
61.9936
 30
0.0
 11
247.457
 21
47.9944
 31
0.0
  0
LINE
  8
0
 62
     0
 10
247.457
 20
47.9944
 30
0.0
 11
233.456
 21
47.9944
 31
0.0
  0
LINE
  8
0
 62
     0
 10
233.456
 20
47.9944
 30
0.0
 11
233.456
 21
61.9936
 31
0.0
  0
LINE
  8
0
 62
     0
 10
252.505
 20
61.9936
 30
0.0
 11
266.507
 21
61.9936
 31
0.0
  0
LINE
  8
0
 62
     0
 10
266.507
 20
61.9936
 30
0.0
 11
266.507
 21
47.9944
 31
0.0
  0
LINE
  8
0
 62
     0
 10
266.507
 20
47.9944
 30
0.0
 11
252.505
 21
47.9944
 31
0.0
  0
LINE
  8
0
 62
     0
 10
252.505
 20
47.9944
 30
0.0
 11
252.505
 21
61.9936
 31
0.0
  0
LINE
  8
0
 62
     0
 10
273.938
 20
61.9936
 30
0.0
 11
287.937
 21
61.9936
 31
0.0
  0
LINE
  8
0
 62
     0
 10
287.937
 20
61.9936
 30
0.0
 11
287.937
 21
47.9944
 31
0.0
  0
LINE
  8
0
 62
     0
 10
287.937
 20
47.9944
 30
0.0
 11
273.938
 21
47.9944
 31
0.0
  0
LINE
  8
0
 62
     0
 10
273.938
 20
47.9944
 30
0.0
 11
273.938
 21
61.9936
 31
0.0
  0
LINE
  8
0
 62
     0
 10
14.3812
 20
81.0436
 30
0.0
 11
28.3821
 21
81.0436
 31
0.0
  0
LINE
  8
0
 62
     0
 10
28.3821
 20
81.0436
 30
0.0
 11
28.3821
 21
67.0444
 31
0.0
  0
LINE
  8
0
 62
     0
 10
28.3821
 20
67.0444
 30
0.0
 11
14.3812
 21
67.0444
 31
0.0
  0
LINE
  8
0
 62
     0
 10
14.3812
 20
67.0444
 30
0.0
 11
14.3812
 21
81.0436
 31
0.0
  0
LINE
  8
0
 62
     0
 10
38.1952
 20
81.0436
 30
0.0
 11
52.1945
 21
81.0436
 31
0.0
  0
LINE
  8
0
 62
     0
 10
52.1945
 20
81.0436
 30
0.0
 11
52.1945
 21
67.0444
 31
0.0
  0
LINE
  8
0
 62
     0
 10
52.1945
 20
67.0444
 30
0.0
 11
38.1952
 21
67.0444
 31
0.0
  0
LINE
  8
0
 62
     0
 10
38.1952
 20
67.0444
 30
0.0
 11
38.1952
 21
81.0436
 31
0.0
  0
LINE
  8
0
 62
     0
 10
57.2453
 20
81.0436
 30
0.0
 11
71.2445
 21
81.0436
 31
0.0
  0
LINE
  8
0
 62
     0
 10
71.2445
 20
81.0436
 30
0.0
 11
71.2445
 21
67.0444
 31
0.0
  0
LINE
  8
0
 62
     0
 10
71.2445
 20
67.0444
 30
0.0
 11
57.2453
 21
67.0444
 31
0.0
  0
LINE
  8
0
 62
     0
 10
57.2453
 20
67.0444
 30
0.0
 11
57.2453
 21
81.0436
 31
0.0
  0
LINE
  8
0
 62
     0
 10
76.2953
 20
81.0436
 30
0.0
 11
90.2945
 21
81.0436
 31
0.0
  0
LINE
  8
0
 62
     0
 10
90.2945
 20
81.0436
 30
0.0
 11
90.2945
 21
67.0444
 31
0.0
  0
LINE
  8
0
 62
     0
 10
90.2945
 20
67.0444
 30
0.0
 11
76.2953
 21
67.0444
 31
0.0
  0
LINE
  8
0
 62
     0
 10
76.2953
 20
67.0444
 30
0.0
 11
76.2953
 21
81.0436
 31
0.0
  0
LINE
  8
0
 62
     0
 10
95.3452
 20
81.0436
 30
0.0
 11
109.345
 21
81.0436
 31
0.0
  0
LINE
  8
0
 62
     0
 10
109.345
 20
81.0436
 30
0.0
 11
109.345
 21
67.0444
 31
0.0
  0
LINE
  8
0
 62
     0
 10
109.345
 20
67.0444
 30
0.0
 11
95.3452
 21
67.0444
 31
0.0
  0
LINE
  8
0
 62
     0
 10
95.3452
 20
67.0444
 30
0.0
 11
95.3452
 21
81.0436
 31
0.0
  0
LINE
  8
0
 62
     0
 10
114.395
 20
81.0436
 30
0.0
 11
128.395
 21
81.0436
 31
0.0
  0
LINE
  8
0
 62
     0
 10
128.395
 20
81.0436
 30
0.0
 11
128.395
 21
67.0444
 31
0.0
  0
LINE
  8
0
 62
     0
 10
128.395
 20
67.0444
 30
0.0
 11
114.395
 21
67.0444
 31
0.0
  0
LINE
  8
0
 62
     0
 10
114.395
 20
67.0444
 30
0.0
 11
114.395
 21
81.0436
 31
0.0
  0
LINE
  8
0
 62
     0
 10
133.445
 20
81.0436
 30
0.0
 11
147.445
 21
81.0436
 31
0.0
  0
LINE
  8
0
 62
     0
 10
147.445
 20
81.0436
 30
0.0
 11
147.445
 21
67.0444
 31
0.0
  0
LINE
  8
0
 62
     0
 10
147.445
 20
67.0444
 30
0.0
 11
133.445
 21
67.0444
 31
0.0
  0
LINE
  8
0
 62
     0
 10
133.445
 20
67.0444
 30
0.0
 11
133.445
 21
81.0436
 31
0.0
  0
LINE
  8
0
 62
     0
 10
152.495
 20
81.0436
 30
0.0
 11
166.495
 21
81.0436
 31
0.0
  0
LINE
  8
0
 62
     0
 10
166.495
 20
81.0436
 30
0.0
 11
166.495
 21
67.0444
 31
0.0
  0
LINE
  8
0
 62
     0
 10
166.495
 20
67.0444
 30
0.0
 11
152.495
 21
67.0444
 31
0.0
  0
LINE
  8
0
 62
     0
 10
152.495
 20
67.0444
 30
0.0
 11
152.495
 21
81.0436
 31
0.0
  0
LINE
  8
0
 62
     0
 10
171.545
 20
81.0436
 30
0.0
 11
185.545
 21
81.0436
 31
0.0
  0
LINE
  8
0
 62
     0
 10
185.545
 20
81.0436
 30
0.0
 11
185.545
 21
67.0444
 31
0.0
  0
LINE
  8
0
 62
     0
 10
185.545
 20
67.0444
 30
0.0
 11
171.545
 21
67.0444
 31
0.0
  0
LINE
  8
0
 62
     0
 10
171.545
 20
67.0444
 30
0.0
 11
171.545
 21
81.0436
 31
0.0
  0
LINE
  8
0
 62
     0
 10
190.595
 20
81.0436
 30
0.0
 11
204.595
 21
81.0436
 31
0.0
  0
LINE
  8
0
 62
     0
 10
204.595
 20
81.0436
 30
0.0
 11
204.595
 21
67.0444
 31
0.0
  0
LINE
  8
0
 62
     0
 10
204.595
 20
67.0444
 30
0.0
 11
190.595
 21
67.0444
 31
0.0
  0
LINE
  8
0
 62
     0
 10
190.595
 20
67.0444
 30
0.0
 11
190.595
 21
81.0436
 31
0.0
  0
LINE
  8
0
 62
     0
 10
209.645
 20
81.0436
 30
0.0
 11
223.645
 21
81.0436
 31
0.0
  0
LINE
  8
0
 62
     0
 10
223.645
 20
81.0436
 30
0.0
 11
223.645
 21
67.0444
 31
0.0
  0
LINE
  8
0
 62
     0
 10
223.645
 20
67.0444
 30
0.0
 11
209.645
 21
67.0444
 31
0.0
  0
LINE
  8
0
 62
     0
 10
209.645
 20
67.0444
 30
0.0
 11
209.645
 21
81.0436
 31
0.0
  0
LINE
  8
0
 62
     0
 10
228.695
 20
81.0436
 30
0.0
 11
242.695
 21
81.0436
 31
0.0
  0
LINE
  8
0
 62
     0
 10
242.695
 20
81.0436
 30
0.0
 11
242.695
 21
67.0444
 31
0.0
  0
LINE
  8
0
 62
     0
 10
242.695
 20
67.0444
 30
0.0
 11
228.695
 21
67.0444
 31
0.0
  0
LINE
  8
0
 62
     0
 10
228.695
 20
67.0444
 30
0.0
 11
228.695
 21
81.0436
 31
0.0
  0
LINE
  8
0
 62
     0
 10
247.745
 20
81.0436
 30
0.0
 11
261.745
 21
81.0436
 31
0.0
  0
LINE
  8
0
 62
     0
 10
261.745
 20
81.0436
 30
0.0
 11
261.745
 21
67.0444
 31
0.0
  0
LINE
  8
0
 62
     0
 10
261.745
 20
67.0444
 30
0.0
 11
247.745
 21
67.0444
 31
0.0
  0
LINE
  8
0
 62
     0
 10
247.745
 20
67.0444
 30
0.0
 11
247.745
 21
81.0436
 31
0.0
  0
LINE
  8
0
 62
     0
 10
271.556
 20
81.0436
 30
0.0
 11
285.557
 21
81.0436
 31
0.0
  0
LINE
  8
0
 62
     0
 10
285.557
 20
81.0436
 30
0.0
 11
285.557
 21
67.0444
 31
0.0
  0
LINE
  8
0
 62
     0
 10
285.557
 20
67.0444
 30
0.0
 11
271.556
 21
67.0444
 31
0.0
  0
LINE
  8
0
 62
     0
 10
271.556
 20
67.0444
 30
0.0
 11
271.556
 21
81.0436
 31
0.0
  0
LINE
  8
0
 62
     0
 10
9.6187
 20
100.095
 30
0.0
 11
23.6196
 21
100.095
 31
0.0
  0
LINE
  8
0
 62
     0
 10
23.6196
 20
100.095
 30
0.0
 11
23.6196
 21
86.0944
 31
0.0
  0
LINE
  8
0
 62
     0
 10
23.6196
 20
86.0944
 30
0.0
 11
9.6187
 21
86.0944
 31
0.0
  0
LINE
  8
0
 62
     0
 10
9.6187
 20
86.0944
 30
0.0
 11
9.6187
 21
100.095
 31
0.0
  0
LINE
  8
0
 62
     0
 10
28.6701
 20
100.095
 30
0.0
 11
42.6695
 21
100.095
 31
0.0
  0
LINE
  8
0
 62
     0
 10
42.6695
 20
100.095
 30
0.0
 11
42.6695
 21
86.0944
 31
0.0
  0
LINE
  8
0
 62
     0
 10
42.6695
 20
86.0944
 30
0.0
 11
28.6701
 21
86.0944
 31
0.0
  0
LINE
  8
0
 62
     0
 10
28.6701
 20
86.0944
 30
0.0
 11
28.6701
 21
100.095
 31
0.0
  0
LINE
  8
0
 62
     0
 10
47.7203
 20
100.095
 30
0.0
 11
61.7195
 21
100.095
 31
0.0
  0
LINE
  8
0
 62
     0
 10
61.7195
 20
100.095
 30
0.0
 11
61.7195
 21
86.0944
 31
0.0
  0
LINE
  8
0
 62
     0
 10
61.7195
 20
86.0944
 30
0.0
 11
47.7203
 21
86.0944
 31
0.0
  0
LINE
  8
0
 62
     0
 10
47.7203
 20
86.0944
 30
0.0
 11
47.7203
 21
100.095
 31
0.0
  0
LINE
  8
0
 62
     0
 10
66.7703
 20
100.095
 30
0.0
 11
80.7695
 21
100.095
 31
0.0
  0
LINE
  8
0
 62
     0
 10
80.7695
 20
100.095
 30
0.0
 11
80.7695
 21
86.0944
 31
0.0
  0
LINE
  8
0
 62
     0
 10
80.7695
 20
86.0944
 30
0.0
 11
66.7703
 21
86.0944
 31
0.0
  0
LINE
  8
0
 62
     0
 10
66.7703
 20
86.0944
 30
0.0
 11
66.7703
 21
100.095
 31
0.0
  0
LINE
  8
0
 62
     0
 10
85.8203
 20
100.095
 30
0.0
 11
99.8195
 21
100.095
 31
0.0
  0
LINE
  8
0
 62
     0
 10
99.8195
 20
100.095
 30
0.0
 11
99.8195
 21
86.0944
 31
0.0
  0
LINE
  8
0
 62
     0
 10
99.8195
 20
86.0944
 30
0.0
 11
85.8203
 21
86.0944
 31
0.0
  0
LINE
  8
0
 62
     0
 10
85.8203
 20
86.0944
 30
0.0
 11
85.8203
 21
100.095
 31
0.0
  0
LINE
  8
0
 62
     0
 10
104.869
 20
100.095
 30
0.0
 11
118.868
 21
100.095
 31
0.0
  0
LINE
  8
0
 62
     0
 10
118.868
 20
100.095
 30
0.0
 11
118.868
 21
86.0944
 31
0.0
  0
LINE
  8
0
 62
     0
 10
118.868
 20
86.0944
 30
0.0
 11
104.869
 21
86.0944
 31
0.0
  0
LINE
  8
0
 62
     0
 10
104.869
 20
86.0944
 30
0.0
 11
104.869
 21
100.095
 31
0.0
  0
LINE
  8
0
 62
     0
 10
123.919
 20
100.095
 30
0.0
 11
137.92
 21
100.095
 31
0.0
  0
LINE
  8
0
 62
     0
 10
137.92
 20
100.095
 30
0.0
 11
137.92
 21
86.0944
 31
0.0
  0
LINE
  8
0
 62
     0
 10
137.92
 20
86.0944
 30
0.0
 11
123.919
 21
86.0944
 31
0.0
  0
LINE
  8
0
 62
     0
 10
123.919
 20
86.0944
 30
0.0
 11
123.919
 21
100.095
 31
0.0
  0
LINE
  8
0
 62
     0
 10
142.97
 20
100.095
 30
0.0
 11
156.97
 21
100.095
 31
0.0
  0
LINE
  8
0
 62
     0
 10
156.97
 20
100.095
 30
0.0
 11
156.97
 21
86.0944
 31
0.0
  0
LINE
  8
0
 62
     0
 10
156.97
 20
86.0944
 30
0.0
 11
142.97
 21
86.0944
 31
0.0
  0
LINE
  8
0
 62
     0
 10
142.97
 20
86.0944
 30
0.0
 11
142.97
 21
100.095
 31
0.0
  0
LINE
  8
0
 62
     0
 10
162.02
 20
100.095
 30
0.0
 11
176.02
 21
100.095
 31
0.0
  0
LINE
  8
0
 62
     0
 10
176.02
 20
100.095
 30
0.0
 11
176.02
 21
86.0944
 31
0.0
  0
LINE
  8
0
 62
     0
 10
176.02
 20
86.0944
 30
0.0
 11
162.02
 21
86.0944
 31
0.0
  0
LINE
  8
0
 62
     0
 10
162.02
 20
86.0944
 30
0.0
 11
162.02
 21
100.095
 31
0.0
  0
LINE
  8
0
 62
     0
 10
181.07
 20
100.095
 30
0.0
 11
195.07
 21
100.095
 31
0.0
  0
LINE
  8
0
 62
     0
 10
195.07
 20
100.095
 30
0.0
 11
195.07
 21
86.0944
 31
0.0
  0
LINE
  8
0
 62
     0
 10
195.07
 20
86.0944
 30
0.0
 11
181.07
 21
86.0944
 31
0.0
  0
LINE
  8
0
 62
     0
 10
181.07
 20
86.0944
 30
0.0
 11
181.07
 21
100.095
 31
0.0
  0
LINE
  8
0
 62
     0
 10
200.12
 20
100.095
 30
0.0
 11
214.12
 21
100.095
 31
0.0
  0
LINE
  8
0
 62
     0
 10
214.12
 20
100.095
 30
0.0
 11
214.12
 21
86.0944
 31
0.0
  0
LINE
  8
0
 62
     0
 10
214.12
 20
86.0944
 30
0.0
 11
200.12
 21
86.0944
 31
0.0
  0
LINE
  8
0
 62
     0
 10
200.12
 20
86.0944
 30
0.0
 11
200.12
 21
100.095
 31
0.0
  0
LINE
  8
0
 62
     0
 10
219.17
 20
100.095
 30
0.0
 11
233.17
 21
100.095
 31
0.0
  0
LINE
  8
0
 62
     0
 10
233.17
 20
100.095
 30
0.0
 11
233.17
 21
86.0944
 31
0.0
  0
LINE
  8
0
 62
     0
 10
233.17
 20
86.0944
 30
0.0
 11
219.17
 21
86.0944
 31
0.0
  0
LINE
  8
0
 62
     0
 10
219.17
 20
86.0944
 30
0.0
 11
219.17
 21
100.095
 31
0.0
  0
LINE
  8
0
 62
     0
 10
238.22
 20
100.095
 30
0.0
 11
252.22
 21
100.095
 31
0.0
  0
LINE
  8
0
 62
     0
 10
252.22
 20
100.095
 30
0.0
 11
252.22
 21
86.0944
 31
0.0
  0
LINE
  8
0
 62
     0
 10
252.22
 20
86.0944
 30
0.0
 11
238.22
 21
86.0944
 31
0.0
  0
LINE
  8
0
 62
     0
 10
238.22
 20
86.0944
 30
0.0
 11
238.22
 21
100.095
 31
0.0
  0
LINE
  8
0
 62
     0
 10
257.27
 20
100.095
 30
0.0
 11
271.27
 21
100.095
 31
0.0
  0
LINE
  8
0
 62
     0
 10
271.27
 20
100.095
 30
0.0
 11
271.27
 21
86.0944
 31
0.0
  0
LINE
  8
0
 62
     0
 10
271.27
 20
86.0944
 30
0.0
 11
257.27
 21
86.0944
 31
0.0
  0
LINE
  8
0
 62
     0
 10
257.27
 20
86.0944
 30
0.0
 11
257.27
 21
100.095
 31
0.0
  0
LINE
  8
0
 62
     0
 10
276.32
 20
100.095
 30
0.0
 11
290.32
 21
100.095
 31
0.0
  0
LINE
  8
0
 62
     0
 10
290.32
 20
100.095
 30
0.0
 11
290.32
 21
86.0944
 31
0.0
  0
LINE
  8
0
 62
     0
 10
290.32
 20
86.0944
 30
0.0
 11
276.32
 21
86.0944
 31
0.0
  0
LINE
  8
0
 62
     0
 10
276.32
 20
86.0944
 30
0.0
 11
276.32
 21
100.095
 31
0.0
  0
ENDSEC
  0
EOF
